<svg width="48" height="48" viewBox="0 0 48 48" fill="none" xmlns="http://www.w3.org/2000/svg">
<circle cx="30.5454" cy="30.5455" r="17.4545" fill="#004E8C"/>
<mask id="mask0" mask-type="alpha" maskUnits="userSpaceOnUse" x="0" y="0" width="35" height="35">
<circle cx="17.4545" cy="17.4545" r="17.4545" fill="white"/>
</mask>
<g mask="url(#mask0)">
<rect x="-7.22949" y="17.4548" width="0.872727" height="34.9091" transform="rotate(-45 -7.22949 17.4548)" fill="#4F6BED"/>
<rect x="-5.37891" y="15.6031" width="0.872727" height="34.9091" transform="rotate(-45 -5.37891 15.6031)" fill="#4F6BED"/>
<rect x="-3.52734" y="13.7518" width="0.872727" height="34.9091" transform="rotate(-45 -3.52734 13.7518)" fill="#4F6BED"/>
<rect x="-1.67676" y="11.9004" width="0.872727" height="34.9091" transform="rotate(-45 -1.67676 11.9004)" fill="#4F6BED"/>
<rect x="0.174805" y="10.0492" width="0.872727" height="34.9091" transform="rotate(-45 0.174805 10.0492)" fill="#4F6BED"/>
<rect x="2.02637" y="8.19788" width="0.872727" height="34.9091" transform="rotate(-45 2.02637 8.19788)" fill="#4F6BED"/>
<rect x="3.87793" y="6.34644" width="0.872727" height="34.9091" transform="rotate(-45 3.87793 6.34644)" fill="#4F6BED"/>
<rect x="5.72852" y="4.49512" width="0.872727" height="34.9091" transform="rotate(-45 5.72852 4.49512)" fill="#4F6BED"/>
<rect x="7.58008" y="2.6438" width="0.872727" height="34.9091" transform="rotate(-45 7.58008 2.6438)" fill="#4F6BED"/>
<rect x="9.43164" y="0.79248" width="0.872727" height="34.9091" transform="rotate(-45 9.43164 0.79248)" fill="#4F6BED"/>
<rect x="11.2832" y="-1.05896" width="0.872727" height="34.9091" transform="rotate(-45 11.2832 -1.05896)" fill="#4F6BED"/>
<rect x="13.1338" y="-2.91016" width="0.872727" height="34.9091" transform="rotate(-45 13.1338 -2.91016)" fill="#4F6BED"/>
<rect x="14.9854" y="-4.76147" width="0.872727" height="34.9091" transform="rotate(-45 14.9854 -4.76147)" fill="#4F6BED"/>
<rect x="16.8369" y="-6.61279" width="0.872727" height="34.9091" transform="rotate(-45 16.8369 -6.61279)" fill="#4F6BED"/>
</g>
</svg>
