<svg width="32" height="32" viewBox="0 0 32 32" fill="none" xmlns="http://www.w3.org/2000/svg">
<path d="M20.5 20.5H20.3857C20.251 19.8438 20.0137 19.2402 19.6738 18.6895C19.334 18.1387 18.918 17.6641 18.4258 17.2656C17.9395 16.8672 17.3916 16.5566 16.7822 16.334C16.1787 16.1113 15.543 16 14.875 16C14.3594 16 13.8613 16.0674 13.3809 16.2021C12.9004 16.3369 12.4521 16.5273 12.0361 16.7734C11.6201 17.0137 11.2393 17.3066 10.8936 17.6523C10.5537 17.9922 10.2607 18.3701 10.0146 18.7861C9.77441 19.2021 9.58691 19.6504 9.45215 20.1309C9.31738 20.6113 9.25 21.1094 9.25 21.625H8.125C8.125 20.9219 8.22754 20.2451 8.43262 19.5947C8.64355 18.9443 8.93945 18.3438 9.32031 17.793C9.70117 17.2422 10.1582 16.7529 10.6914 16.3252C11.2305 15.8975 11.8281 15.5605 12.4844 15.3145C11.8223 14.8809 11.3037 14.3359 10.9287 13.6797C10.5596 13.0234 10.375 12.2969 10.375 11.5C10.375 10.8789 10.4922 10.2959 10.7266 9.75098C10.9609 9.2002 11.2803 8.72266 11.6846 8.31836C12.0947 7.9082 12.5723 7.58594 13.1172 7.35156C13.668 7.11719 14.2539 7 14.875 7C15.4961 7 16.0791 7.11719 16.624 7.35156C17.1748 7.58594 17.6523 7.9082 18.0566 8.31836C18.4668 8.72266 18.7891 9.2002 19.0234 9.75098C19.2578 10.2959 19.375 10.8789 19.375 11.5C19.375 11.8867 19.3252 12.2646 19.2256 12.6338C19.1318 13.0029 18.9941 13.3516 18.8125 13.6797C18.6309 14.0078 18.4082 14.3125 18.1445 14.5938C17.8867 14.8691 17.5938 15.1094 17.2656 15.3145C17.9219 15.5664 18.5254 15.915 19.0762 16.3604C19.6328 16.7998 20.1074 17.3125 20.5 17.8984V20.5ZM11.5 11.5C11.5 11.9688 11.5879 12.4082 11.7637 12.8184C11.9395 13.2227 12.1797 13.5801 12.4844 13.8906C12.7949 14.1953 13.1523 14.4355 13.5566 14.6113C13.9668 14.7871 14.4062 14.875 14.875 14.875C15.3379 14.875 15.7744 14.7871 16.1846 14.6113C16.5947 14.4355 16.9521 14.1953 17.2568 13.8906C17.5674 13.5801 17.8105 13.2227 17.9863 12.8184C18.1621 12.4082 18.25 11.9688 18.25 11.5C18.25 11.0371 18.1621 10.6006 17.9863 10.1904C17.8105 9.78027 17.5674 9.42285 17.2568 9.11816C16.9521 8.80762 16.5947 8.56445 16.1846 8.38867C15.7744 8.21289 15.3379 8.125 14.875 8.125C14.4062 8.125 13.9668 8.21289 13.5566 8.38867C13.1523 8.56445 12.7949 8.80762 12.4844 9.11816C12.1797 9.42285 11.9395 9.78027 11.7637 10.1904C11.5879 10.6006 11.5 11.0371 11.5 11.5ZM22.75 21.625H25V22.75H22.75V25H21.625V22.75H19.375V21.625H21.625V19.375H22.75V21.625Z" fill="#0078D4"/>
<circle cx="16" cy="16" r="15.5" stroke="#0078D4"/>
</svg>
