<svg width="156" height="156" viewBox="0 0 156 156" fill="none" xmlns="http://www.w3.org/2000/svg">
<mask id="mask0" mask-type="alpha" maskUnits="userSpaceOnUse" x="0" y="0" width="156" height="156">
<path d="M0 0L156 156H0V0Z" fill="#C4C4C4"/>
</mask>
<g mask="url(#mask0)">
<path fill-rule="evenodd" clip-rule="evenodd" d="M0 152.1L0 156L156 156V152.1L0 152.1ZM0 140.4L0 144.3L156 144.3V140.4L0 140.4ZM0 132.6L0 128.7L156 128.7V132.6L0 132.6ZM0 117L0 120.9L156 120.9V117L0 117ZM0 109.2L0 105.3L156 105.3V109.2L0 109.2ZM0 93.6005L0 97.5005L156 97.5005V93.6005L0 93.6005ZM0 85.8005L0 81.9005L156 81.9005V85.8005L0 85.8005ZM0 70.2005L0 74.1005L156 74.1005V70.2005L0 70.2005ZM0 62.4005L0 58.5005L156 58.5005V62.4005L0 62.4005ZM0 46.8005L0 50.7005L156 50.7005V46.8005L0 46.8005ZM0 39.0005L0 35.1005L156 35.1005V39.0005L0 39.0005ZM0 23.4005L0 27.3005L156 27.3005V23.4005L0 23.4005ZM0 15.6005L0 11.7005L156 11.7005V15.6005L0 15.6005ZM0 0.000488281L0 3.90048L156 3.90048V0.000488281L0 0.000488281Z" fill="#004E8C"/>
</g>
</svg>
