<?xml version="1.0" standalone="no"?>
<!DOCTYPE svg PUBLIC "-//W3C//DTD SVG 1.1//EN" "http://www.w3.org/Graphics/SVG/1.1/DTD/svg11.dtd" >
<svg>
<metadata>
Created by FontForge 20090914 at Wed Jan  3 10:43:59 2018
 By www-data
&#194;&#169; 2017 Microsoft Corporation. All Rights Reserved.
</metadata>
<defs>
<font id="FabricExternalMDL2Assets" horiz-adv-x="2048" >
  <font-face 
    font-family="Fabric External MDL2 Assets"
    font-weight="400"
    font-stretch="normal"
    units-per-em="2048"
    panose-1="5 10 1 2 1 1 1 1 1 1"
    ascent="2048"
    descent="0"
    bbox="-2 -26 2080 2074"
    underline-thickness="119"
    underline-position="-119"
    unicode-range="U+000D-U+F4BD"
  />
<missing-glyph horiz-adv-x="1322" 
d="M166 0v1398h990v-1398h-990zM314 148h694v1102h-694v-1102z" />
    <glyph glyph-name=".notdef" horiz-adv-x="1322" 
d="M166 0v1398h990v-1398h-990zM314 148h694v1102h-694v-1102z" />
    <glyph glyph-name="uni000D" unicode="&#xd;" horiz-adv-x="0" 
 />
    <glyph glyph-name="space" unicode=" " horiz-adv-x="561" 
 />
    <glyph glyph-name="uniE290" unicode="&#xe290;" 
d="M1024 1664h1024v-128h-1024v128zM1024 512v128h1024v-128h-1024zM1024 1024v128h1024v-128h-1024zM1792 1408v-128h-768v128h768zM1792 896v-128h-768v128h768zM413 1315l-163 -163h646v-128h-646l163 -163l-90 -90l-317 317l317 317z" />
    <glyph glyph-name="uniE291" unicode="&#xe291;" 
d="M1024 1664h1024v-128h-1024v128zM1024 512v128h1024v-128h-1024zM1024 1024v128h1024v-128h-1024zM1792 1408v-128h-768v128h768zM1792 896v-128h-768v128h768zM483 1315l90 90l317 -317l-317 -317l-90 90l163 163h-646v128h646z" />
    <glyph glyph-name="uniE700" unicode="&#xe700;" 
d="M2048 1408h-2048v128h2048v-128v0zM2048 384h-2048v128h2048v-128v0zM2048 897h-2048v127h2048v-127v0z" />
    <glyph glyph-name="uniE704" unicode="&#xe704;" 
d="M896 1408h128v-1408h-128v1408zM372 1804c-38.667 -38.667 -73.167 -80.8281 -103.5 -126.495s-55.833 -93.5 -76.5 -143.5s-36.5 -101.833 -47.5 -155.5s-16.5 -107.834 -16.5 -162.501s5.5 -108.834 16.5 -162.501s26.833 -105.5 47.5 -155.5
s46.167 -97.833 76.5 -143.5s64.833 -87.834 103.5 -126.501l-91 -91c-90.667 91.333 -160.167 195.166 -208.5 311.499s-72.5 238.833 -72.5 367.5s24.167 251.167 72.5 367.5s117.833 220.166 208.5 311.499zM1639 1895.01
c90.667 -91.333 160.167 -195.172 208.5 -311.505s72.5 -238.833 72.5 -367.5s-24.167 -251.167 -72.5 -367.5s-117.833 -220.166 -208.5 -311.499l-91 91c38.667 38.667 73.167 80.834 103.5 126.501s55.833 93.5 76.5 143.5s36.5 101.833 47.5 155.5
s16.5 107.834 16.5 162.501s-5.5 108.834 -16.5 162.501s-26.833 105.5 -47.5 155.5s-46.167 97.833 -76.5 143.5s-64.833 87.834 -103.5 126.501zM1367 1623c54 -54 95.667 -116.167 125 -186.5s44 -143.833 44 -220.5s-14.667 -150.167 -44 -220.5s-71 -132.5 -125 -186.5
l-90 90c42 42 74.167 90.5 96.5 145.5s33.5 112.167 33.5 171.5s-11.167 116.5 -33.5 171.5s-54.5 103.5 -96.5 145.5zM643 1533c-42 -42 -74.333 -90.5 -97 -145.5s-34 -112.167 -34 -171.5s11.333 -116.5 34 -171.5s55 -103.5 97 -145.5l-90 -90
c-54 54 -95.667 116.167 -125 186.5s-44 143.833 -44 220.5s14.667 150.167 44 220.5s71 132.5 125 186.5z" />
    <glyph glyph-name="uniE706" unicode="&#xe706;" 
d="M960 1536c62 0 120.167 -11.667 174.5 -35s101.833 -55.333 142.5 -96s72.667 -88.167 96 -142.5s35 -112.5 35 -174.5s-11.667 -120.167 -35 -174.5s-55.333 -101.833 -96 -142.5s-88.167 -72.667 -142.5 -96s-112.5 -35 -174.5 -35s-120.167 11.667 -174.5 35
s-101.833 55.333 -142.5 96s-72.667 88.167 -96 142.5s-35 112.5 -35 174.5s11.667 120.167 35 174.5s55.333 101.833 96 142.5s88.167 72.667 142.5 96s112.5 35 174.5 35zM960 768c44 0 85.333 8.33301 124 25s72.5 39.5 101.5 68.5s52 63 69 102s25.5 80.5 25.5 124.5
s-8.5 85.333 -25.5 124s-40 72.5 -69 101.5s-62.833 52 -101.5 69s-80 25.5 -124 25.5s-85.5 -8.5 -124.5 -25.5s-73 -40 -102 -69s-51.833 -62.833 -68.5 -101.5s-25 -80 -25 -124s8.33301 -85.5 25 -124.5s39.5 -73 68.5 -102s63 -51.833 102 -68.5s80.5 -25 124.5 -25z
M1024 1664h-128v384h128v-384zM896 512h128v-384h-128v384zM1920 1152v-128h-384v128h384zM384 1024h-384v128h384v-128zM507 1450l-271 272l90 90l272 -271zM1413 726l271 -272l-90 -90l-272 271zM1413 1450l-91 91l272 271l90 -90zM507 726l91 -91l-272 -271l-90 90z" />
    <glyph glyph-name="uniE707" unicode="&#xe707;" 
d="M1920 0h-1920l384 1152h512v262c-37.333 8 -71.666 21.667 -102.999 41s-58.333 42.833 -81 70.5s-40.334 58.834 -53.001 93.501s-19 71 -19 109c0 44 8.33301 85.333 25 124s39.5 72.5 68.5 101.5s63 52 102 69s80.5 25.5 124.5 25.5s85.333 -8.5 124 -25.5
s72.5 -40 101.5 -69s52 -62.833 69 -101.5s25.5 -80 25.5 -124c0 -38 -6.33301 -74.333 -19 -109s-30.334 -65.834 -53.001 -93.501s-49.667 -51.167 -81 -70.5s-65.666 -33 -102.999 -41v-262h512zM768 1728c0 -26.667 5 -51.667 15 -75s23.667 -43.666 41 -60.999
s37.666 -31 60.999 -41s48.333 -15 75 -15s51.667 5 75 15s43.666 23.667 60.999 41s31 37.666 41 60.999s15 48.333 15 75s-5 51.667 -15 75s-23.667 43.666 -41 60.999s-37.666 31 -60.999 41s-48.333 15 -75 15s-51.667 -5 -75 -15s-43.666 -23.667 -60.999 -41
s-31 -37.666 -41 -60.999s-15 -48.333 -15 -75zM178 128h1564l-298 896h-420v-480c0 -6 -2.5 -11.167 -7.5 -15.5s-11 -7.66602 -18 -9.99902s-14 -4 -21 -5s-12.833 -1.5 -17.5 -1.5s-10.5 0.5 -17.5 1.5s-14 2.66699 -21 5s-13 5.66602 -18 9.99902s-7.5 9.5 -7.5 15.5
v480h-420z" />
    <glyph glyph-name="uniE709" unicode="&#xe709;" 
d="M1792 1280c34.667 0 67.667 -6.83301 99 -20.5s58.5 -32 81.5 -55s41.333 -50.167 55 -81.5s20.5 -64.333 20.5 -99c0 -35.333 -6.83301 -68.5 -20.5 -99.5s-32 -58 -55 -81s-50.167 -41.333 -81.5 -55s-64.333 -20.5 -99 -20.5h-448l-384 -768h-448l256 768h-256
l-64 -128h-448l128 384l-128 384h448l64 -128h256l-256 768h448l384 -768h448zM1792 896c18 0 34.667 3.33301 50 10s28.833 15.834 40.5 27.501s20.834 25.167 27.501 40.5s10 32 10 50s-3.33301 34.667 -10 50s-15.834 28.833 -27.501 40.5s-25.167 20.834 -40.5 27.501
s-32 10 -50 10h-527l-193 383.5l-191 384.5h-191l127 -384.5l129 -383.5h-513l-64 128h-191l41.5 -128c13.667 -42.667 28.167 -85.334 43.5 -128.001c-15.333 -42.667 -29.833 -85.334 -43.5 -128.001l-41.5 -128h191l64 128h513l-129 -383.5l-127 -384.5h191l191 384.5
l193 383.5h527z" />
    <glyph glyph-name="uniE70A" unicode="&#xe70a;" 
d="M1888 1536c22 0 42.667 -4.16699 62 -12.5s36.333 -19.833 51 -34.5s26.167 -31.667 34.5 -51s12.5 -40 12.5 -62v-1216c0 -22 -4.16699 -42.667 -12.5 -62s-19.833 -36.333 -34.5 -51s-31.667 -26.167 -51 -34.5s-40 -12.5 -62 -12.5h-1728
c-22 0 -42.667 4.16699 -62 12.5s-36.333 19.833 -51 34.5s-26.167 31.667 -34.5 51s-12.5 40 -12.5 62v1216c0 22 4.16699 42.667 12.5 62s19.833 36.333 34.5 51s31.667 26.167 51 34.5s40 12.5 62 12.5h1728zM1920 1376c0 9.33301 -3 17 -9 23s-13.667 9 -23 9h-1728
c-9.33301 0 -17 -3 -23 -9s-9 -13.667 -9 -23v-1216c0 -9.33301 3 -17 9 -23s13.667 -9 23 -9h1728c9.33301 0 17 3 23 9s9 13.667 9 23v1216zM896 384h256v-128h-256v128z" />
    <glyph glyph-name="uniE70B" unicode="&#xe70b;" 
d="M1920 1920v-1792h-1280l-512 512v1280h1792zM640 309v331h-331zM1792 1792h-1536v-1024h512v-512h1024v1536z" />
    <glyph glyph-name="uniE70D" unicode="&#xe70d;" 
d="M1939 1581l90 -90l-1005 -1005l-1005 1005l90 90l915 -915z" />
    <glyph glyph-name="uniE70E" unicode="&#xe70e;" 
d="M1955 515l-931 930l-931 -930l-90 90l1021 1022l1021 -1022z" />
    <glyph glyph-name="uniE70F" unicode="&#xe70f;" 
d="M2048 1713c0 -44 -8.33301 -86.667 -25 -128s-41 -78 -73 -110l-1317 -1317l-633 -158l158 633l1317 1317c32 32 68.667 56.333 110 73s84 25 128 25c46 0 89.333 -8.83301 130 -26.5s76.167 -41.667 106.5 -72s54.333 -65.833 72 -106.5s26.5 -84 26.5 -130zM326 620
c70.667 -23.333 131.5 -60.5 182.5 -111.5s88.167 -111.833 111.5 -182.5l1081 1082l-293 293zM176 176l328.999 82.001c-6.66699 30.667 -17.5 59.667 -32.5 87s-33.167 51.666 -54.5 72.999s-45.666 39.5 -72.999 54.5s-56.333 25.833 -87 32.5zM1792 1499l48 47
c15.333 14.667 29 30.167 41 46.5s21.5 34 28.5 53s10.5 41.167 10.5 66.5c0 28.667 -5.5 55.5 -16.5 80.5s-26 47 -45 66s-41 34 -66 45s-51.833 16.5 -80.5 16.5c-25.333 0 -47.5 -3.5 -66.5 -10.5s-36.667 -16.5 -53 -28.5s-31.833 -25.667 -46.5 -41l-47 -48z" />
    <glyph glyph-name="uniE710" unicode="&#xe710;" 
d="M2048 1088v-128h-960v-960h-128v960h-960v128h960v960h128v-960h960z" />
    <glyph glyph-name="uniE711" unicode="&#xe711;" 
d="M1115 1024l690 -691l-90 -90l-691 690l-691 -690l-90 90l690 691l-690 691l90 90l691 -690l691 690l90 -90z" />
    <glyph glyph-name="uniE712" unicode="&#xe712;" 
d="M256 1152c18 0 34.667 -3.33301 50 -10s28.833 -15.834 40.5 -27.501s20.834 -25.167 27.501 -40.5s10 -32 10 -50s-3.33301 -34.667 -10 -50s-15.834 -28.833 -27.501 -40.5s-25.167 -20.834 -40.5 -27.501s-32 -10 -50 -10s-34.667 3.33301 -50 10
s-28.833 15.834 -40.5 27.501s-20.834 25.167 -27.501 40.5s-10 32 -10 50s3.33301 34.667 10 50s15.834 28.833 27.501 40.5s25.167 20.834 40.5 27.501s32 10 50 10zM1024 1152c18 0 34.667 -3.33301 50 -10s28.833 -15.834 40.5 -27.501s20.834 -25.167 27.501 -40.5
s10 -32 10 -50s-3.33301 -34.667 -10 -50s-15.834 -28.833 -27.501 -40.5s-25.167 -20.834 -40.5 -27.501s-32 -10 -50 -10s-34.667 3.33301 -50 10s-28.833 15.834 -40.5 27.501s-20.834 25.167 -27.501 40.5s-10 32 -10 50s3.33301 34.667 10 50
s15.834 28.833 27.501 40.5s25.167 20.834 40.5 27.501s32 10 50 10zM1792 1152c18 0 34.667 -3.33301 50 -10s28.833 -15.834 40.5 -27.501s20.834 -25.167 27.501 -40.5s10 -32 10 -50s-3.33301 -34.667 -10 -50s-15.834 -28.833 -27.501 -40.5
s-25.167 -20.834 -40.5 -27.501s-32 -10 -50 -10s-34.667 3.33301 -50 10s-28.833 15.834 -40.5 27.501s-20.834 25.167 -27.501 40.5s-10 32 -10 50s3.33301 34.667 10 50s15.834 28.833 27.501 40.5s25.167 20.834 40.5 27.501s32 10 50 10z" />
    <glyph glyph-name="uniE713" unicode="&#xe713;" 
d="M1783 1060c0 -6 0.166992 -12 0.5 -18s0.5 -12 0.5 -18s-0.166992 -12 -0.5 -18s-0.5 -12 -0.5 -18l259 -161l-159 -383l-297 68c-16 -17.333 -32.667 -34 -50 -50l68 -297l-383 -159l-161 259c-6 0 -12 -0.166992 -18 -0.5s-12 -0.5 -18 -0.5s-12 0.166992 -18 0.5
s-12 0.5 -18 0.5l-161 -259l-383 159l68 297c-17.333 16 -34 32.667 -50 50l-297 -68l-159 383l259 161c0 6 -0.166992 12 -0.5 18s-0.5 12 -0.5 18s0.166992 12 0.5 18s0.5 12 0.5 18l-259 161l159 383l297 -68c16 17.333 32.667 34 50 50l-68 297l383 159l161 -259
c6 0 12 0.166992 18 0.5s12 0.5 18 0.5s12 -0.166992 18 -0.5s12 -0.5 18 -0.5l161 259l383 -159l-68 -297c17.333 -16 34 -32.667 50 -50l297 68l159 -383zM1666 930l4 47.5c1.33301 15.667 2 31.5 2 47.5c0 15.333 -0.666992 31 -2 47l-4 47l236 147l-86 208l-271 -63
c-20.667 25.333 -41.834 48.666 -63.501 69.999s-45.167 42.666 -70.5 63.999l63 271l-208 86l-148 -236l-47 4c-16 1.33301 -31.667 2 -47 2c-16 0 -31.833 -0.666992 -47.5 -2l-47.5 -4l-147 236l-208 -86l63 -271c-25.333 -20.667 -48.666 -41.834 -69.999 -63.501
s-42.666 -45.167 -63.999 -70.5l-271 63l-86 -208l236 -148l-4 -47.5c-1.33301 -15.667 -2 -31.5 -2 -47.5c0 -15.333 0.666992 -31 2 -47l4 -47l-236 -147l86 -208l271 63c20.667 -25.333 41.834 -48.666 63.501 -69.999s45.167 -42.666 70.5 -63.999l-63 -271l208 -86
l148 236l47 -4c16 -1.33301 31.667 -2 47 -2c16 0 31.833 0.666992 47.5 2l47.5 4l147 -236l208 86l-63 271c25.333 20.667 48.666 41.834 69.999 63.501s42.666 45.167 63.999 70.5l271 -63l86 208zM1024 1400c52 0 100.833 -9.83301 146.5 -29.5s85.5 -46.5 119.5 -80.5
s60.833 -73.833 80.5 -119.5s29.5 -94.5 29.5 -146.5s-9.83301 -100.833 -29.5 -146.5s-46.5 -85.5 -80.5 -119.5s-73.833 -60.833 -119.5 -80.5s-94.5 -29.5 -146.5 -29.5s-100.833 9.83301 -146.5 29.5s-85.5 46.5 -119.5 80.5s-60.833 73.833 -80.5 119.5
s-29.5 94.5 -29.5 146.5s9.83301 100.833 29.5 146.5s46.5 85.5 80.5 119.5s73.833 60.833 119.5 80.5s94.5 29.5 146.5 29.5zM1024 760c36.667 0 71 6.83301 103 20.5s60 32.5 84 56.5s42.833 52 56.5 84s20.5 66.333 20.5 103s-6.83301 71 -20.5 103s-32.5 60 -56.5 84
s-52 42.833 -84 56.5s-66.333 20.5 -103 20.5s-71 -6.83301 -103 -20.5s-60 -32.5 -84 -56.5s-42.833 -52 -56.5 -84s-20.5 -66.333 -20.5 -103s6.83301 -71 20.5 -103s32.5 -60 56.5 -84s52 -42.833 84 -56.5s66.333 -20.5 103 -20.5z" />
    <glyph glyph-name="uniE714" unicode="&#xe714;" 
d="M2048 504l-512 256v-248h-1536v1024h1536v-248l512 256v-1040zM1408 1408h-1280v-768h1280v768zM1920 1337l-384 -193v-240l384 -193v626z" />
    <glyph glyph-name="uniE715" unicode="&#xe715;" 
d="M2048 1664v-1280h-2048v1280h2048zM143 1536l881 -441l881 441h-1762zM1920 512v888l-896 -447l-896 447v-888h1792z" />
    <glyph glyph-name="uniE716" unicode="&#xe716;" 
d="M1636 1355c43.333 -22 82.5059 -49.165 117.506 -81.498s64.833 -68.333 89.5 -108s43.667 -82.334 57 -128.001s20 -92.834 20 -141.501h-128c0 52.667 -10.167 102.334 -30.5 149.001s-47.833 87.334 -82.5 122.001s-75.334 62.167 -122.001 82.5
s-96.334 30.5 -149.001 30.5s-102.334 -10.167 -149.001 -30.5s-87.334 -47.833 -122.001 -82.5s-62.167 -75.334 -82.5 -122.001s-30.5 -96.334 -30.5 -149.001c0 -60.667 -13.833 -118.334 -41.5 -173.001s-65.834 -100 -114.501 -136
c43.333 -22 82.5 -49.167 117.5 -81.5s64.833 -68.333 89.5 -108s43.667 -82.334 57 -128.001s20 -92.834 20 -141.501h-128c0 52.667 -10.167 102.334 -30.5 149.001s-47.833 87.334 -82.5 122.001s-75.334 62.167 -122.001 82.5s-96.334 30.5 -149.001 30.5
s-102.334 -10.167 -149.001 -30.5s-87.334 -47.833 -122.001 -82.5s-62.167 -75.334 -82.5 -122.001s-30.5 -96.334 -30.5 -149.001h-128c0 48.667 6.66699 95.834 20 141.501s32.333 88.334 57 128.001s54.5 75.667 89.5 108s74.167 59.5 117.5 81.5
c-48.667 36 -86.834 81.333 -114.501 136s-41.5 112.334 -41.5 173.001c0 52.667 10.167 102.334 30.5 149.001s47.833 87.334 82.5 122.001s75.334 62.167 122.001 82.5s96.334 30.5 149.001 30.5c60.667 0 118.334 -13.833 173.001 -41.5s100 -65.834 136 -114.501
c25.333 50 57.666 94.667 96.999 134s84 71.666 134 96.999c-48.667 36 -86.834 81.333 -114.501 136s-41.5 112.334 -41.5 173.001c0 52.667 10.167 102.334 30.5 149.001s47.833 87.334 82.5 122.001s75.334 62.167 122.001 82.5s96.334 30.5 149.001 30.5
s102.334 -10.167 149.001 -30.5s87.334 -47.833 122.001 -82.5s62.167 -75.334 82.5 -122.001s30.5 -96.334 30.5 -149.001c0 -60.667 -13.833 -118.334 -41.5 -173.001s-65.834 -100 -114.501 -136zM640.006 640.002c34.667 0 67.667 6.83301 99 20.5s58.5 32 81.5 55
s41.333 50 55 81s20.5 64.167 20.5 99.5c0 34.667 -6.83301 67.667 -20.5 99s-32 58.5 -55 81.5s-50.167 41.333 -81.5 55s-64.333 20.5 -99 20.5c-35.333 0 -68.5 -6.83301 -99.5 -20.5s-58 -32 -81 -55s-41.333 -50.167 -55 -81.5s-20.5 -64.333 -20.5 -99
c0 -35.333 6.83301 -68.5 20.5 -99.5s32 -58 55 -81s50 -41.333 81 -55s64.167 -20.5 99.5 -20.5zM1152.01 1664c0 -35.333 6.83301 -68.5 20.5 -99.5s32 -58 55 -81s50 -41.333 81 -55s64.167 -20.5 99.5 -20.5c34.667 0 67.667 6.83301 99 20.5s58.5 32 81.5 55
s41.333 50 55 81s20.5 64.167 20.5 99.5c0 34.667 -6.83301 67.667 -20.5 99s-32 58.5 -55 81.5s-50.167 41.333 -81.5 55s-64.333 20.5 -99 20.5c-35.333 0 -68.5 -6.83301 -99.5 -20.5s-58 -32 -81 -55s-41.333 -50.167 -55 -81.5s-20.5 -64.333 -20.5 -99z" />
    <glyph glyph-name="uniE717" unicode="&#xe717;" 
d="M1607 835c29.333 0 57.5 -5.50195 84.5 -16.502s50.833 -26.833 71.5 -47.5l220 -220c20.667 -20.667 36.5 -44.5 47.5 -71.5s16.5 -55.167 16.5 -84.5s-5.5 -57.5 -16.5 -84.5s-26.833 -50.833 -47.5 -71.5l-14 -14l-99 -96c-30 -28 -61.333 -51.5 -94 -70.5
s-69 -33.5 -109 -43.5s-87.667 -15 -143 -15c-83.333 0 -169 13 -257 39s-175.5 62 -262.5 108s-172.333 100.667 -256 164s-162.667 132.5 -237 207.5s-142.833 154.333 -205.5 238s-116.667 169 -162 256s-80.666 173.833 -105.999 260.5s-38 170.667 -38 252
c0 55.333 4.83301 102.666 14.5 141.999s24 75.333 43 108s42.333 63.834 70 93.501l95.5 98.5l16 16c20.667 20.667 44.334 36.667 71.001 48s55 17 85 17c29.333 0 57.5 -5.66699 84.5 -17s50.833 -27.333 71.5 -48l220 -220c20.667 -20.667 36.5 -44.5 47.5 -71.5
s16.5 -55.167 16.5 -84.5s-5 -55.5 -15 -78.5s-22.333 -43.833 -37 -62.5s-30.834 -35.667 -48.501 -51s-33.834 -30.333 -48.501 -45s-27 -29.5 -37 -44.5s-15 -31.167 -15 -48.5c0 -25.333 9 -47 27 -65l551 -551c18 -18 39.667 -27 65 -27c17.333 0 33.5 5 48.5 15
s29.833 22.333 44.5 37s29.667 30.834 45 48.501s32.333 33.834 51 48.501s39.5 27 62.5 37s49.167 15 78.5 15zM1524 127.998c48 0 88.1689 4.49609 120.502 13.4961s61.5 22 87.5 39s51.333 38.167 76 63.5l85 86c18 18 27 39.667 27 65c0 12 -4.83301 26.167 -14.5 42.5
s-22.167 33.5 -37.5 51.5s-32.5 36.5 -51.5 55.5l-56 54l-51 47c-15.667 14.333 -27.834 25.833 -36.501 34.5c-18 18 -40 27 -66 27c-17.333 0 -33.333 -5 -48 -15s-29.334 -22.333 -44.001 -37s-29.834 -30.834 -45.501 -48.501s-32.834 -33.834 -51.501 -48.501
s-39.5 -27 -62.5 -37s-49.167 -15 -78.5 -15s-57.5 5.5 -84.5 16.5s-50.833 26.833 -71.5 47.5l-551 551c-20.667 20.667 -36.5 44.5 -47.5 71.5s-16.5 55.167 -16.5 84.5s5 55.5 15 78.5s22.333 43.833 37 62.5s30.834 35.834 48.501 51.501s33.834 30.834 48.501 45.501
s27 29.334 37 44.001s15 30.667 15 48c0 26 -9 48 -27 66c-8.66699 8.66699 -20.167 20.834 -34.5 36.501l-47 51l-54 56c-19 19 -37.5 36.167 -55.5 51.5s-35.167 27.833 -51.5 37.5s-30.5 14.5 -42.5 14.5c-25.333 0 -47 -9 -65 -27l-85.5 -85
c-25 -24.667 -46.333 -50 -64 -76s-31 -55.167 -40 -87.5s-13.5 -72.166 -13.5 -119.499c0 -74.667 12.167 -151.667 36.5 -231s58 -158.666 101 -237.999s93.833 -157.5 152.5 -234.5s122.667 -149.833 192 -218.5s142.5 -132 219.5 -190s155 -108.167 234 -150.5
s157.667 -75.333 236 -99s153.5 -35.5 225.5 -35.5z" />
    <glyph glyph-name="uniE718" unicode="&#xe718;" 
d="M2048 1536v-896h-64c-52 0 -99.667 11.167 -143 33.5s-80.666 53.833 -111.999 94.5h-494c-18.667 -39.333 -42 -74.833 -70 -106.5s-59.5 -58.5 -94.5 -80.5s-72.667 -39 -113 -51s-82.166 -18 -125.499 -18h-64v512h-640l-128 64l128 64h640v512h64
c43.333 0 85.166 -6 125.499 -18s78 -29 113 -51s66.5 -48.833 94.5 -80.5s51.333 -67.167 70 -106.5h494c31.333 40.667 68.666 72.167 111.999 94.5s91 33.5 143 33.5h64zM1920 1397c-16 -5.33301 -29.667 -12.002 -41 -20.002s-21.5 -16.833 -30.5 -26.5
s-17.333 -20.5 -25 -32.5l-23.5 -38h-653l-15 43c-18.667 52.667 -49 97.334 -91 134.001s-90.333 60.667 -145 72v-882c54.667 11.333 103 35.333 145 72s72.333 81.334 91 134.001l15 43h653l23.5 -38c7.66699 -12 16 -22.833 25 -32.5s19.167 -18.5 30.5 -26.5
s25 -14.667 41 -20v618z" />
    <glyph glyph-name="uniE719" unicode="&#xe719;" 
d="M1792 1536l-0.00292969 -1280c0 -35.333 -6.83301 -68.5 -20.5 -99.5s-32 -58 -55 -81s-50.167 -41.333 -81.5 -55s-64.333 -20.5 -99 -20.5h-1152c-35.333 -0 -68.5 6.83301 -99.5 20.5s-58 32 -81 55s-41.333 50 -55 81s-20.5 64.167 -20.5 99.5v1280h256v128
c0 52.667 10.167 102.334 30.5 149.001s47.833 87.334 82.5 122.001s75.334 62.167 122.001 82.5s96.334 30.5 149.001 30.5c69.333 0 133.666 -17.333 192.999 -52c59.333 34.667 123 52 191 52c52.667 0 102.334 -10.167 149.001 -30.5s87.334 -47.833 122.001 -82.5
s62.167 -75.334 82.5 -122.001s30.5 -96.334 30.5 -149.001v-128h256zM1408 1664c0 34.667 -6.83301 67.665 -20.5 98.998s-32 58.5 -55 81.5s-50.167 41.333 -81.5 55s-64.333 20.5 -99 20.5c-30 0 -58.333 -5 -85 -15c19.333 -24 34.666 -47.667 45.999 -71
s19.833 -46.666 25.5 -69.999s9.33398 -47.166 11.001 -71.499s2.5 -49.833 2.5 -76.5v-80h256v128zM511.997 1536h512v128c0 34.667 -6.83301 67.667 -20.5 99s-32 58.5 -55 81.5s-50.167 41.333 -81.5 55s-64.333 20.5 -99 20.5c-35.333 0 -68.5 -6.83301 -99.5 -20.5
s-58 -32 -81 -55s-41.333 -50.167 -55 -81.5s-20.5 -64.333 -20.5 -99v-128zM1314 127.998c-22.667 40 -34.001 82.668 -34.001 128.001v1152h-1024v-1152c0 -18 3.33301 -34.667 10 -50s15.834 -28.833 27.501 -40.5s25.167 -20.834 40.5 -27.501s32 -10 50 -10h930z
M1664 1408h-256.002v-1152c0 -18 3.33301 -34.667 10 -50s15.834 -28.833 27.501 -40.5s25.167 -20.834 40.5 -27.501s32 -10 50 -10s34.667 3.33301 50 10s28.833 15.834 40.5 27.501s20.834 25.167 27.501 40.5s10 32 10 50v1152z" />
    <glyph glyph-name="uniE71A" unicode="&#xe71a;" 
d="M1920 1920v-1792h-1792v1792h1792zM1792 1792h-1536v-1536h1536v1536z" />
    <glyph glyph-name="uniE71B" unicode="&#xe71b;" 
d="M1536 1280l0.00195312 -128c50.667 0 99.167 -5.83301 145.5 -17.5s87.166 -30.334 122.499 -56.001s63.5 -58.667 84.5 -99s31.5 -89.5 31.5 -147.5c0 -44 -8.5 -85.333 -25.5 -124s-40 -72.5 -69 -101.5s-62.833 -52 -101.5 -69s-80 -25.5 -124 -25.5h-512
c-44 0 -85.333 8.5 -124 25.5s-72.5 40 -101.5 69s-52 62.833 -69 101.5s-25.5 80 -25.5 124c0 58 10.5 107.167 31.5 147.5s49.167 73.333 84.5 99s76.166 44.334 122.499 56.001s94.833 17.5 145.5 17.5v128h-64c-62 0 -120.167 -11.833 -174.5 -35.5
s-101.666 -55.667 -141.999 -96s-72.333 -87.666 -96 -141.999s-35.5 -112.5 -35.5 -174.5s11.833 -120.167 35.5 -174.5s55.667 -101.666 96 -141.999s87.666 -72.333 141.999 -96s112.5 -35.5 174.5 -35.5h512c62 0 120.167 11.833 174.5 35.5s101.666 55.667 141.999 96
s72.333 87.666 96 141.999s35.5 112.5 35.5 174.5s-11.833 120.167 -35.5 174.5s-55.667 101.666 -96 141.999s-87.666 72.333 -141.999 96s-112.5 35.5 -174.5 35.5h-64zM896.002 768l0.00195312 128c50.667 0 99.167 5.83301 145.5 17.5s87.166 30.334 122.499 56.001
s63.5 58.667 84.5 99s31.5 89.5 31.5 147.5c0 44 -8.5 85.333 -25.5 124s-40 72.5 -69 101.5s-62.833 52 -101.5 69s-80 25.5 -124 25.5h-512c-44 0 -85.333 -8.5 -124 -25.5s-72.5 -40 -101.5 -69s-52 -62.833 -69 -101.5s-25.5 -80 -25.5 -124
c0 -58 10.5 -107.167 31.5 -147.5s49.167 -73.333 84.5 -99s76.166 -44.334 122.499 -56.001s94.833 -17.5 145.5 -17.5v-128h-64c-62 0 -120.167 11.833 -174.5 35.5s-101.666 55.667 -141.999 96s-72.333 87.666 -96 141.999s-35.5 112.5 -35.5 174.5
s11.833 120.167 35.5 174.5s55.667 101.666 96 141.999s87.666 72.333 141.999 96s112.5 35.5 174.5 35.5h512c62 0 120.167 -11.833 174.5 -35.5s101.666 -55.667 141.999 -96s72.333 -87.666 96 -141.999s35.5 -112.5 35.5 -174.5s-11.833 -120.167 -35.5 -174.5
s-55.667 -101.666 -96 -141.999s-87.666 -72.333 -141.999 -96s-112.5 -35.5 -174.5 -35.5h-64z" />
    <glyph glyph-name="uniE71C" unicode="&#xe71c;" 
d="M2048 1920v-219l-768 -768v-805h-512v805l-768 768v219h2048zM1920 1792h-1792v-37l768 -768v-731h256v731l768 768v37z" />
    <glyph glyph-name="uniE71E" unicode="&#xe71e;" 
d="M2048 70c0 -18.667 -5.66992 -35.0029 -17.0029 -49.0029s-27 -21 -47 -21c-17.333 0 -32.333 6.33301 -45 19l-785 784c-64 -52.667 -134.167 -93 -210.5 -121s-156.166 -42 -239.499 -42c-64.667 0 -127 8.33301 -187 25s-116 40.334 -168 71.001
s-99.5 67.5 -142.5 110.5s-79.833 90.5 -110.5 142.5s-54.334 108 -71.001 168s-25 122.333 -25 187s8.33301 127 25 187s40.334 116 71.001 168s67.5 99.5 110.5 142.5s90.5 79.833 142.5 110.5s108 54.334 168 71.001s122.333 25 187 25s127 -8.33301 187 -25
s116 -40.334 168 -71.001s99.5 -67.5 142.5 -110.5s79.833 -90.5 110.5 -142.5s54.334 -108 71.001 -168s25 -122.333 25 -187c0 -83.333 -14 -163.166 -42 -239.499s-68.333 -146.5 -121 -210.5l57.5 -57l102 -100l130 -127.5l142 -141l138.5 -139.5l119 -123
c34.667 -36.667 62.334 -67.167 83.001 -91.5s31 -39.166 31 -44.499zM703.997 767.997c79.333 0 154 15.167 224 45.5s131 71.5 183 123.5s93.167 113 123.5 183s45.5 144.667 45.5 224s-15.167 154 -45.5 224s-71.5 131 -123.5 183s-113 93.167 -183 123.5
s-144.667 45.5 -224 45.5s-154 -15.167 -224 -45.5s-131 -71.5 -183 -123.5s-93.167 -113 -123.5 -183s-45.5 -144.667 -45.5 -224s15.167 -154 45.5 -224s71.5 -131 123.5 -183s113 -93.167 183 -123.5s144.667 -45.5 224 -45.5z" />
    <glyph glyph-name="uniE71F" unicode="&#xe71f;" 
d="M2048 70c0 -18.667 -5.66992 -35.0029 -17.0029 -49.0029s-27 -21 -47 -21c-17.333 0 -32.333 6.33301 -45 19l-785 784c-64 -52.667 -134.167 -93 -210.5 -121s-156.166 -42 -239.499 -42c-64.667 0 -127 8.33301 -187 25s-116 40.334 -168 71.001
s-99.5 67.5 -142.5 110.5s-79.833 90.5 -110.5 142.5s-54.334 108 -71.001 168s-25 122.333 -25 187s8.33301 127 25 187s40.334 116 71.001 168s67.5 99.5 110.5 142.5s90.5 79.833 142.5 110.5s108 54.334 168 71.001s122.333 25 187 25s127 -8.33301 187 -25
s116 -40.334 168 -71.001s99.5 -67.5 142.5 -110.5s79.833 -90.5 110.5 -142.5s54.334 -108 71.001 -168s25 -122.333 25 -187c0 -83.333 -14 -163.166 -42 -239.499s-68.333 -146.5 -121 -210.5l57.5 -57l102 -100l130 -127.5l142 -141l138.5 -139.5l119 -123
c34.667 -36.667 62.334 -67.167 83.001 -91.5s31 -39.166 31 -44.499zM703.997 767.997c79.333 0 154 15.167 224 45.5s131 71.5 183 123.5s93.167 113 123.5 183s45.5 144.667 45.5 224s-15.167 154 -45.5 224s-71.5 131 -123.5 183s-113 93.167 -183 123.5
s-144.667 45.5 -224 45.5s-154 -15.167 -224 -45.5s-131 -71.5 -183 -123.5s-93.167 -113 -123.5 -183s-45.5 -144.667 -45.5 -224s15.167 -154 45.5 -224s71.5 -131 123.5 -183s113 -93.167 183 -123.5s144.667 -45.5 224 -45.5zM383.997 1408h640v-128h-640v128z" />
    <glyph glyph-name="uniE720" unicode="&#xe720;" 
d="M704 512c-26.667 0 -51.667 5 -75 15s-43.666 23.667 -60.999 41s-31 37.666 -41 60.999s-15 48.333 -15 75v1152c0 26.667 5 51.667 15 75s23.667 43.666 41 60.999s37.666 31 60.999 41s48.333 15 75 15h512c26.667 0 51.667 -5 75 -15s43.666 -23.667 60.999 -41
s31 -37.666 41 -60.999s15 -48.333 15 -75v-1152c0 -26.667 -5 -51.667 -15 -75s-23.667 -43.666 -41 -60.999s-37.666 -31 -60.999 -41s-48.333 -15 -75 -15h-512zM640 704c0 -17.333 6.33301 -32.333 19 -45s27.667 -19 45 -19h512c17.333 0 32.333 6.33301 45 19
s19 27.667 19 45v1152c0 17.333 -6.33301 32.333 -19 45s-27.667 19 -45 19h-512c-17.333 0 -32.333 -6.33301 -45 -19s-19 -27.667 -19 -45v-1152zM1664 1024v-362c0 -56 -10.667 -108.667 -32 -158s-50.333 -92.333 -87 -129s-79.667 -65.667 -129 -87s-102 -32 -158 -32
h-234v-128h256v-128h-640v128h256v128h-234c-56 0 -108.667 10.667 -158 32s-92.333 50.333 -129 87s-65.667 79.667 -87 129s-32 102 -32 158v362h128v-362c0 -38 7.33301 -74 22 -108s34.5 -63.5 59.5 -88.5s54.5 -44.833 88.5 -59.5s70 -22 108 -22h596
c38 0 74 7.33301 108 22s63.5 34.5 88.5 59.5s44.833 54.5 59.5 88.5s22 70 22 108v362h128z" />
    <glyph glyph-name="uniE721" unicode="&#xe721;" 
d="M1344 2048c64.667 0 126.998 -8.33105 186.998 -24.998s116 -40.334 168 -71.001s99.5 -67.5 142.5 -110.5s79.833 -90.5 110.5 -142.5s54.334 -108 71.001 -168s25 -122.333 25 -187s-8.33301 -127 -25 -187s-40.334 -116 -71.001 -168s-67.5 -99.5 -110.5 -142.5
s-90.5 -79.833 -142.5 -110.5s-108 -54.334 -168 -71.001s-122.333 -25 -187 -25c-83.333 0 -163.166 14 -239.499 42s-146.5 68.333 -210.5 121l-785 -784c-12.667 -12.667 -27.667 -19 -45 -19s-32.333 6.33301 -45 19s-19 27.667 -19 45s6.33301 32.333 19 45l784 785
c-52.667 64 -93 134.167 -121 210.5s-42 156.166 -42 239.499c0 64.667 8.33301 127 25 187s40.334 116 71.001 168s67.5 99.5 110.5 142.5s90.5 79.833 142.5 110.5s108 54.334 168 71.001s122.333 25 187 25zM1344 768.002c79.333 0 154 15.167 224 45.5
s131 71.5 183 123.5s93.167 113 123.5 183s45.5 144.667 45.5 224s-15.167 154 -45.5 224s-71.5 131 -123.5 183s-113 93.167 -183 123.5s-144.667 45.5 -224 45.5s-154 -15.167 -224 -45.5s-131 -71.5 -183 -123.5s-93.167 -113 -123.5 -183s-45.5 -144.667 -45.5 -224
s15.167 -154 45.5 -224s71.5 -131 123.5 -183s113 -93.167 183 -123.5s144.667 -45.5 224 -45.5z" />
    <glyph glyph-name="uniE722" unicode="&#xe722;" 
d="M2048 1792v-1536h-2048v1536h549l128 128h694l128 -128h549zM1920 1664h-475l-128 128h-586l-128 -128h-475v-1280h1792v1280zM1024 1536c70.667 0 137.167 -13.333 199.5 -40s116.666 -63.167 162.999 -109.5s82.833 -100.666 109.5 -162.999s40 -128.833 40 -199.5
s-13.333 -137.167 -40 -199.5s-63.167 -116.666 -109.5 -162.999s-100.666 -82.833 -162.999 -109.5s-128.833 -40 -199.5 -40s-137.167 13.333 -199.5 40s-116.666 63.167 -162.999 109.5s-82.833 100.666 -109.5 162.999s-40 128.833 -40 199.5s13.333 137.167 40 199.5
s63.167 116.666 109.5 162.999s100.666 82.833 162.999 109.5s128.833 40 199.5 40zM1024 640c52.667 0 102.334 10.167 149.001 30.5s87.334 47.833 122.001 82.5s62.167 75.334 82.5 122.001s30.5 96.334 30.5 149.001s-10.167 102.334 -30.5 149.001
s-47.833 87.334 -82.5 122.001s-75.334 62.167 -122.001 82.5s-96.334 30.5 -149.001 30.5s-102.334 -10.167 -149.001 -30.5s-87.334 -47.833 -122.001 -82.5s-62.167 -75.334 -82.5 -122.001s-30.5 -96.334 -30.5 -149.001s10.167 -102.334 30.5 -149.001
s47.833 -87.334 82.5 -122.001s75.334 -62.167 122.001 -82.5s96.334 -30.5 149.001 -30.5zM320 1536c17.333 0 32.333 -6.33301 45 -19s19 -27.667 19 -45s-6.33301 -32.333 -19 -45s-27.667 -19 -45 -19s-32.333 6.33301 -45 19s-19 27.667 -19 45s6.33301 32.333 19 45
s27.667 19 45 19z" />
    <glyph glyph-name="uniE723" unicode="&#xe723;" 
d="M1536 1664l-0.00585938 -1216c0 -62 -11.833 -120.167 -35.5 -174.5s-55.667 -101.666 -96 -141.999s-87.666 -72.333 -141.999 -96s-112.5 -35.5 -174.5 -35.5s-120.167 11.833 -174.5 35.5s-101.666 55.667 -141.999 96s-72.333 87.666 -96 141.999
s-35.5 112.5 -35.5 174.5v1280c0 44 8.5 85.333 25.5 124s40 72.5 69 101.5s62.833 52 101.5 69s80 25.5 124 25.5s85.333 -8.5 124 -25.5s72.5 -40 101.5 -69s52 -62.833 69 -101.5s25.5 -80 25.5 -124v-1280c0 -26.667 -5 -51.667 -15 -75s-23.667 -43.666 -41 -60.999
s-37.666 -31 -60.999 -41s-48.333 -15 -75 -15s-51.667 5 -75 15s-43.666 23.667 -60.999 41s-31 37.666 -41 60.999s-15 48.333 -15 75v1088h128v-1088c0 -17.333 6.33301 -32.333 19 -45s27.667 -19 45 -19s32.333 6.33301 45 19s19 27.667 19 45v1280
c0 26.667 -5 51.667 -15 75s-23.667 43.666 -41 60.999s-37.666 31 -60.999 41s-48.333 15 -75 15s-51.667 -5 -75 -15s-43.666 -23.667 -60.999 -41s-31 -37.666 -41 -60.999s-15 -48.333 -15 -75v-1280c0 -44 8.5 -85.333 25.5 -124s40 -72.5 69 -101.5
s62.833 -52 101.5 -69s80 -25.5 124 -25.5s85.333 8.5 124 25.5s72.5 40 101.5 69s52 62.833 69 101.5s25.5 80 25.5 124v1216h128z" />
    <glyph glyph-name="uniE724" unicode="&#xe724;" 
d="M11 411l226 677l-226 677l2031 -677zM350 1152h1096l-1233 411zM213 613l1233 411h-1096z" />
    <glyph glyph-name="uniE728" unicode="&#xe728;" 
d="M2048 1280v-128h-878l-72.5 233.5l-73.5 233.5l-73.5 -233.5l-72.5 -233.5h-502l202 -156l203 -155l-78 -246.5l-76 -246.5l397 306v-162l-640 -492l248 794l-632 486h784l240 768l240 -768h784zM1152 896h896v-128h-896v128zM1152 512h896v-128h-896v128z" />
    <glyph glyph-name="uniE729" unicode="&#xe729;" 
d="M1755 1536h-475v475zM1792 1408v-1408h-1664v2048h1024v-640h640z" />
    <glyph glyph-name="uniE72A" unicode="&#xe72a;" 
d="M2042 1024l-941 -941l-90 90l787 787h-1798v128h1798l-787 787l90 90z" />
    <glyph glyph-name="uniE72B" unicode="&#xe72b;" 
d="M2048 960h-1798l787 -787l-90 -90l-941 941l941 941l90 -90l-787 -787h1798v-128z" />
    <glyph glyph-name="uniE72C" unicode="&#xe72c;" 
d="M1297 2010c110.667 -30 211.996 -76.8379 303.996 -140.505s171.167 -139 237.5 -226s117.833 -183.333 154.5 -289s55 -215.834 55 -330.501c0 -94 -12.167 -184.667 -36.5 -272s-58.666 -169 -102.999 -245s-97.666 -145.167 -159.999 -207.5
s-131.5 -115.666 -207.5 -159.999s-157.667 -78.666 -245 -102.999s-178 -36.5 -272 -36.5s-184.667 12.167 -272 36.5s-169 58.666 -245 102.999s-145.167 97.666 -207.5 159.999s-115.666 131.5 -159.999 207.5s-78.666 157.5 -102.999 244.5s-36.5 177.833 -36.5 272.5
c-0 93.333 12.333 184 37 272s59.834 170.833 105.501 248.5s101.167 148.334 166.5 212.001s139 118.167 221 163.5h-274v128h512v-512h-128v297c-78 -37.333 -148.5 -84.166 -211.5 -140.499s-116.833 -119.666 -161.5 -189.999s-79 -146.166 -103 -227.499
s-36 -165 -36 -251c0 -82 10.667 -161.167 32 -237.5s51.5 -147.666 90.5 -213.999s85.833 -126.833 140.5 -181.5s115.167 -101.5 181.5 -140.5s137.5 -69.167 213.5 -90.5s155.333 -32 238 -32c82 0 161.167 10.667 237.5 32s147.666 51.5 213.999 90.5
s126.833 85.833 181.5 140.5s101.5 115.167 140.5 181.5s69.167 137.5 90.5 213.5s32 155.333 32 238c0 100 -16.167 196.333 -48.5 289s-77.5 177 -135.5 253s-127.167 141.833 -207.5 197.5s-168.833 96.834 -265.5 123.501l34 123v0z" />
    <glyph glyph-name="uniE72D" unicode="&#xe72d;" 
d="M1408 512l128 128v-384h-1536v1280h128v-1152h1280v128zM1280 1024c-85.333 0 -168.831 -8.49707 -250.498 -25.4971s-160.5 -42 -236.5 -75s-148.5 -73.333 -217.5 -121s-132.833 -101.834 -191.5 -162.501v128c0 82.667 10.667 162.167 32 238.5
s51.5 147.666 90.5 213.999s85.667 126.666 140 180.999s114.666 101 180.999 140s137.666 69.167 213.999 90.5s155.833 32 238.5 32v384l704 -704l-704 -704v384zM1381 1536c-37.333 0 -72.333 -0.331055 -105 -0.998047s-65 -2.83398 -97 -6.50098s-64 -9.66699 -96 -18
s-66 -19.833 -102 -34.5c-58 -24 -111.833 -54.667 -161.5 -92s-94 -79.833 -133 -127.5s-72 -99.334 -99 -155.001s-46.833 -114.167 -59.5 -175.5c112 74.667 231.667 131 359 169s258.333 57 393 57h128v-203l395 395l-395 395v-203h-27z" />
    <glyph glyph-name="uniE72E" unicode="&#xe72e;" 
d="M1792 1152v-1152h-1536v1152h256v374c0 72 13 139.667 39 203s62 118.666 108 165.999s100.167 84.666 162.5 111.999s129.833 41 202.5 41s140.167 -13.667 202.5 -41s116.5 -64.666 162.5 -111.999s82 -102.666 108 -165.999s39 -131 39 -203v-374h256zM640 1152
h767.998v374c0 54 -9.66699 104.833 -29 152.5s-46.166 89.5 -80.499 125.5s-75 64.333 -122 85s-97.833 31 -152.5 31s-105.5 -10.333 -152.5 -31s-87.667 -49 -122 -85s-61.166 -77.833 -80.499 -125.5s-29 -98.5 -29 -152.5v-374zM1664 1024h-1280v-896h1280v896z" />
    <glyph glyph-name="uniE731" unicode="&#xe731;" 
d="M1536 1920v-1792h-512v512h-128v-512h-512v1792h1152zM1408 1792h-896v-1536h256v512h384v-512h256v1536zM768 1408h-128v256h128v-256zM1024 1408h-128v256h128v-256zM768 1024h-128v256h128v-256zM1024 1024h-128v256h128v-256zM1280 1408h-128v256h128v-256z
M1280 1024h-128v256h128v-256z" />
    <glyph glyph-name="uniE732" unicode="&#xe732;" 
d="M1728 640c44 0 85.333 -8.5 124 -25.5s72.5 -40 101.5 -69s52 -62.833 69 -101.5s25.5 -80 25.5 -124s-8.5 -85.5 -25.5 -124.5s-40 -73 -69 -102s-62.833 -51.833 -101.5 -68.5s-80 -25 -124 -25h-256c-38 -0 -74.333 6.33301 -109 19s-65.834 30.334 -93.501 53.001
s-51.167 49.667 -70.5 81s-33 65.666 -41 102.999h-268c-8 -37.333 -21.667 -71.666 -41 -102.999s-42.833 -58.333 -70.5 -81s-58.834 -40.334 -93.501 -53.001s-71 -19 -109 -19h-256c-44 -0 -85.5 8.33301 -124.5 25s-73 39.5 -102 68.5s-51.833 63 -68.5 102
s-25 80.5 -25 124.5s8.33301 85.333 25 124s39.5 72.5 68.5 101.5s63 52 102 69s80.5 25.5 124.5 25.5h256c38 0 74.333 -6.33301 109 -19s65.834 -30.334 93.501 -53.001s51.167 -49.667 70.5 -81s33 -65.666 41 -102.999h268c8 37.333 21.667 71.666 41 102.999
s42.833 58.333 70.5 81s58.834 40.334 93.501 53.001s71 19 109 19h256zM576 128c20 0 39.5 2.99805 58.5 8.99805s36.5 14.667 52.5 26s30 24.833 42 40.5s21.333 33.167 28 52.5h-181c-17.333 0 -32.333 6.33301 -45 19s-19 27.667 -19 45s6.33301 32.333 19 45
s27.667 19 45 19h181c-6.66699 19.333 -16 36.833 -28 52.5s-26 29.167 -42 40.5s-33.5 20 -52.5 26s-38.5 9 -58.5 9h-256c-26.667 0 -51.667 -5 -75 -15s-43.666 -23.667 -60.999 -41s-31 -37.666 -41 -60.999s-15 -48.333 -15 -75s5 -51.667 15 -75
s23.667 -43.666 41 -60.999s37.666 -31 60.999 -41s48.333 -15 75 -15h256zM1728 127.998c26.667 0 51.667 5.00195 75 15.002s43.666 23.667 60.999 41s31 37.666 41 60.999s15 48.333 15 75s-5 51.667 -15 75s-23.667 43.666 -41 60.999s-37.666 31 -60.999 41
s-48.333 15 -75 15h-256c-20 0 -39.5 -3 -58.5 -9s-36.5 -14.667 -52.5 -26s-30 -24.833 -42 -40.5s-21.333 -33.167 -28 -52.5h181c17.333 0 32.333 -6.33301 45 -19s19 -27.667 19 -45s-6.33301 -32.333 -19 -45s-27.667 -19 -45 -19h-181
c6.66699 -19.333 16 -36.833 28 -52.5s26 -29.167 42 -40.5s33.5 -20 52.5 -26s38.5 -9 58.5 -9h256z" />
    <glyph glyph-name="uniE733" unicode="&#xe733;" 
d="M1024 2048c94 0 184.5 -12.167 271.5 -36.5s168.5 -58.833 244.5 -103.5s145.167 -98.167 207.5 -160.5s115.833 -131.5 160.5 -207.5s79.167 -157.5 103.5 -244.5s36.5 -177.5 36.5 -271.5s-12.167 -184.5 -36.5 -271.5s-58.833 -168.5 -103.5 -244.5
s-98.167 -145.167 -160.5 -207.5s-131.5 -115.833 -207.5 -160.5s-157.5 -79.167 -244.5 -103.5s-177.5 -36.5 -271.5 -36.5s-184.5 12.167 -271.5 36.5s-168.5 58.833 -244.5 103.5s-145.167 98.167 -207.5 160.5s-115.833 131.5 -160.5 207.5s-79.167 157.5 -103.5 244.5
s-36.5 177.5 -36.5 271.5s12.167 184.5 36.5 271.5s58.833 168.5 103.5 244.5s98.167 145.167 160.5 207.5s131.5 115.833 207.5 160.5s157.5 79.167 244.5 103.5s177.5 36.5 271.5 36.5zM1024 128c109.333 0 213.833 18.667 313.5 56s190.834 91.666 273.501 162.999
l-1264 1264c-71.333 -82.667 -125.666 -173.834 -162.999 -273.501s-56 -204.167 -56 -313.5c0 -82.667 10.667 -162.167 32 -238.5s51.5 -147.666 90.5 -213.999s85.667 -126.666 140 -180.999s114.666 -101 180.999 -140s137.666 -69.167 213.999 -90.5
s155.833 -32 238.5 -32zM1701 437c71.333 82.667 125.666 173.834 162.999 273.501s56 204.167 56 313.5c0 82.667 -10.667 162.167 -32 238.5s-51.5 147.666 -90.5 213.999s-85.667 126.666 -140 180.999s-114.666 101 -180.999 140s-137.666 69.167 -213.999 90.5
s-155.833 32 -238.5 32c-109.333 0 -213.833 -18.667 -313.5 -56s-190.834 -91.666 -273.501 -162.999z" />
    <glyph glyph-name="uniE734" unicode="&#xe734;" 
d="M1416 794l248 -794l-640 492l-640 -492l248 794l-632 486h784l240 768l240 -768h784zM1421 348l-76 246.5l-78 246.5l203 155l202 156h-502l-146 467l-146 -467h-502l202 -156l203 -155l-78 -246.5l-76 -246.5l397 306z" />
    <glyph glyph-name="uniE735" unicode="&#xe735;" 
d="M1416 794l248 -794l-640 492l-640 -492l248 794l-632 486h784l240 768l240 -768h784z" />
    <glyph glyph-name="uniE736" unicode="&#xe736;" 
d="M1920 1792v-1664h-1920v1664h256v128h384c58.667 0 115.167 -9 169.5 -27s104.5 -45 150.5 -81c46 36 96.167 63 150.5 81s110.833 27 169.5 27h384v-128h256zM1280 1792c-46.667 0 -91.999 -7.83301 -135.999 -23.5s-84 -38.5 -120 -68.5v-1254
c39.333 22 80.666 38.5 123.999 49.5s87.333 16.5 132 16.5h256v1280h-256zM384.001 512h256.001c44.667 0 88.667 -5.5 132 -16.5s84.666 -27.5 123.999 -49.5v1254c-36 30 -76 52.833 -120 68.5s-89.333 23.5 -136 23.5h-256v-1280zM128.002 256l806 -0.000976562
c-21.333 20.667 -43 38.834 -65 54.501s-44.833 29 -68.5 40s-48.667 19.333 -75 25s-54.833 8.5 -85.5 8.5h-384v1280h-128v-1408zM1792 1664l-128 0.000976562v-1280h-384c-30.667 0 -59.167 -2.83301 -85.5 -8.5s-51.333 -14 -75 -25s-46.5 -24.333 -68.5 -40
s-43.667 -33.834 -65 -54.501h806v1408z" />
    <glyph glyph-name="uniE737" unicode="&#xe737;" 
d="M2048 1920v-1664h-2048v1664h2048zM128 1792v-256h1792v256h-1792zM1920 384v1024h-1792v-1024h1792z" />
    <glyph glyph-name="uniE738" unicode="&#xe738;" 
d="M2048 960h-2048v128h2048v-128z" />
    <glyph glyph-name="uniE739" unicode="&#xe739;" 
d="M2048 2048v-2048h-2048v2048h2048zM1920 1920h-1792v-1792h1792v1792z" />
    <glyph glyph-name="uniE73A" unicode="&#xe73a;" 
d="M2048 2048v-2048h-2048v2048h2048zM1920 1920h-1792v-1792h1792v1792zM768 421l-429 430l90 90l339 -338l851 850l90 -90z" />
    <glyph glyph-name="uniE73C" unicode="&#xe73c;" 
d="M1536 1536v-1024h-1024v1024h1024z" />
    <glyph glyph-name="uniE73D" unicode="&#xe73d;" 
d="M2048 2048v-2048h-2048v2048h2048zM1709 1363l-90 90l-851 -850l-339 338l-90 -90l429 -430z" />
    <glyph glyph-name="uniE73E" unicode="&#xe73e;" 
d="M1837 1491l-1069 -1070l-557 558l90 90l467 -466l979 978z" />
    <glyph glyph-name="uniE73F" unicode="&#xe73f;" 
d="M256 896h640v-640h-128v421l-675 -674l-90 90l674 675h-421v128zM1371 1280h421v-128h-640v640h128v-421l675 674l90 -90z" />
    <glyph glyph-name="uniE740" unicode="&#xe740;" 
d="M1920 1920v-640h-128v421l-1445 -1445h421v-128h-640v640h128v-421l1445 1445h-421v128h640z" />
    <glyph glyph-name="uniE749" unicode="&#xe749;" 
d="M1920 1280c17.333 0 33.8291 -3.33301 49.4961 -10s29.334 -15.834 41.001 -27.501s20.834 -25.334 27.501 -41.001s10 -32.167 10 -49.5v-896h-512v-256h-1024v256h-512v896c0 17.333 3.33301 33.833 10 49.5s15.834 29.334 27.501 41.001s25.334 20.834 41.001 27.501
s32.167 10 49.5 10h384v768h1024v-768h384zM639.996 1280h768v640h-768v-640zM1408 640h-768v-512h768v512zM1920 1152h-1792v-768h384v384h1024v-384h384v768zM319.996 1024c17.333 0 32.333 -6.33301 45 -19s19 -27.667 19 -45s-6.33301 -32.333 -19 -45
s-27.667 -19 -45 -19s-32.333 6.33301 -45 19s-19 27.667 -19 45s6.33301 32.333 19 45s27.667 19 45 19z" />
    <glyph glyph-name="uniE74A" unicode="&#xe74a;" 
d="M1875 1011l-787 787v-1798h-128v1798l-787 -787l-90 90l941 941l941 -941z" />
    <glyph glyph-name="uniE74B" unicode="&#xe74b;" 
d="M1965 947l-941 -941l-941 941l90 90l787 -787v1798h128v-1798l787 787z" />
    <glyph glyph-name="uniE74D" unicode="&#xe74d;" 
d="M1792 1664h-128.004v-1472c0 -26.667 -5 -51.667 -15 -75s-23.667 -43.666 -41 -60.999s-37.666 -31 -60.999 -41s-48.333 -15 -75 -15h-1024c-26.667 0 -51.667 5 -75 15s-43.666 23.667 -60.999 41s-31 37.666 -41 60.999s-15 48.333 -15 75v1472h-128v128h512v128
c0 18 3.33301 34.667 10 50s15.834 28.833 27.501 40.5s25.167 20.834 40.5 27.501s32 10 50 10h384c18 0 34.667 -3.33301 50 -10s28.833 -15.834 40.5 -27.501s20.834 -25.167 27.501 -40.5s10 -32 10 -50v-128h512v-128zM767.996 1792h384v128h-384v-128zM1536 1664
h-1152v-1472c0 -17.333 6.33301 -32.333 19 -45s27.667 -19 45 -19h1024c17.333 0 32.333 6.33301 45 19s19 27.667 19 45v1472zM767.996 384h-128v1024h128v-1024zM1024 384h-128v1024h128v-1024zM1280 384h-128v1024h128v-1024z" />
    <glyph glyph-name="uniE74E" unicode="&#xe74e;" 
d="M1792 1920c18 0 34.665 -3.33301 49.998 -10s28.833 -15.834 40.5 -27.501s20.834 -25.167 27.501 -40.5s10 -32 10 -50v-1664h-1563l-229 230v1434c0 18 3.33301 34.667 10 50s15.834 28.833 27.501 40.5s25.167 20.834 40.5 27.501s32 10 50 10h1536zM511.998 1152
h1024v640h-1024v-640zM1280 640h-640v-384h128v256h128v-256h384v384zM1792 1792h-128v-768h-1280v768h-128v-1381l154 -155h102v512h896v-512h384v1536z" />
    <glyph glyph-name="uniE753" unicode="&#xe753;" 
d="M1661 1152c53.333 0 103.5 -9.99707 150.5 -29.9971s88 -47.167 123 -81.5s62.667 -74.833 83 -121.5s30.5 -97 30.5 -151c0 -53.333 -10 -103.166 -30 -149.499s-47.5 -87 -82.5 -122s-75.833 -62.5 -122.5 -82.5s-96.334 -30 -149.001 -30h-1152
c-70.667 0 -137.167 13.333 -199.5 40s-116.666 63.167 -162.999 109.5s-82.833 100.666 -109.5 162.999s-40 128.833 -40 199.5s13.333 137.167 40 199.5s63.167 116.666 109.5 162.999s100.666 82.833 162.999 109.5s128.833 40 199.5 40c30.667 0 61.667 -3 93 -9
c26.667 41.333 57.5 78.5 92.5 111.5s73.167 60.833 114.5 83.5s85.333 40 132 52s94.667 18 144 18c74 0 143.833 -13 209.5 -39s123.834 -61.833 174.501 -107.5s92.5 -99.834 125.5 -162.501s54.167 -130.334 63.5 -203.001zM1664 512.003
c35.333 0 68.499 6.66895 99.499 20.002s58.167 31.666 81.5 54.999s41.666 50.5 54.999 81.5s20 64.167 20 99.5s-6.66699 68.5 -20 99.5s-31.666 58.167 -54.999 81.5s-50.5 41.666 -81.5 54.999s-64.167 20 -99.5 20h-128v64c0 62 -11.667 120.167 -35 174.5
s-55.333 101.833 -96 142.5s-88.167 72.667 -142.5 96s-112.5 35 -174.5 35c-46.667 0 -91.667 -7 -135 -21s-83.166 -33.667 -119.499 -59s-68.5 -55.833 -96.5 -91.5s-50.333 -75.5 -67 -119.5c-50 23.333 -102.667 35 -158 35c-53.333 0 -103.166 -10 -149.499 -30
s-87 -47.5 -122 -82.5s-62.5 -75.833 -82.5 -122.5s-30 -96.334 -30 -149.001c0 -53.333 10 -103.166 30 -149.499s47.5 -87 82.5 -122s75.667 -62.5 122 -82.5s96.166 -30 149.499 -30h1152z" />
    <glyph glyph-name="uniE756" unicode="&#xe756;" 
d="M2048 1920v-1664h-2048v1664h2048zM128 1792v-128h1792v128h-1792zM1920 384v1152h-1792v-1152h1792zM1392 1280l257 -640h-91l-257 640h91zM736 1204c-35.333 0 -67.5039 -5.50195 -96.5039 -16.502s-53.667 -27 -74 -48s-36.166 -47 -47.499 -78
s-17 -66.167 -17 -105.5c0 -36.667 5.16699 -70 15.5 -100s25.333 -55.5 45 -76.5s43.834 -37.167 72.501 -48.5s61.334 -17 98.001 -17c23.333 0 46.5 2.33301 69.5 7s42.167 10.667 57.5 18l16 -62c-14.667 -7.33301 -35.667 -13.833 -63 -19.5s-59.333 -8.5 -96 -8.5
c-42 0 -81.167 6.66699 -117.5 20s-67.833 32.833 -94.5 58.5s-47.5 57.334 -62.5 95.001s-22.5 81.167 -22.5 130.5c0 46.667 7.66699 89.5 23 128.5s36.833 72.333 64.5 100s60.667 49.167 99 64.5s80.833 23 127.5 23c38 0 68.667 -3.16699 92 -9.5
s40.333 -12.166 51 -17.499l-19 -63c-14.667 7.33301 -32.167 13.333 -52.5 18s-43.166 7 -68.499 7zM1024 1152h128v-128h-128v128zM1024 895.998h128v-128h-128v128z" />
    <glyph glyph-name="uniE757" unicode="&#xe757;" 
d="M640 1152c-18 0 -34.667 3.33301 -50 10s-28.833 15.834 -40.5 27.501s-20.834 25.167 -27.501 40.5s-10 32 -10 50s3.33301 34.667 10 50s15.834 28.833 27.501 40.5s25.167 20.834 40.5 27.501s32 10 50 10s34.667 -3.33301 50 -10s28.833 -15.834 40.5 -27.501
s20.834 -25.167 27.501 -40.5s10 -32 10 -50s-3.33301 -34.667 -10 -50s-15.834 -28.833 -27.501 -40.5s-25.167 -20.834 -40.5 -27.501s-32 -10 -50 -10zM1408 1408c18 0 34.667 -3.33301 50 -10s28.833 -15.834 40.5 -27.501s20.834 -25.167 27.501 -40.5s10 -32 10 -50
s-3.33301 -34.667 -10 -50s-15.834 -28.833 -27.501 -40.5s-25.167 -20.834 -40.5 -27.501s-32 -10 -50 -10s-34.667 3.33301 -50 10s-28.833 15.834 -40.5 27.501s-20.834 25.167 -27.501 40.5s-10 32 -10 50s3.33301 34.667 10 50s15.834 28.833 27.501 40.5
s25.167 20.834 40.5 27.501s32 10 50 10zM1024 2048c94 0 184.667 -12.167 272 -36.5s169 -58.666 245 -102.999s145.167 -97.666 207.5 -159.999s115.666 -131.5 159.999 -207.5s78.666 -157.667 102.999 -245s36.5 -178 36.5 -272s-12.167 -184.667 -36.5 -272
s-58.666 -169 -102.999 -245s-97.666 -145.167 -159.999 -207.5s-131.5 -115.666 -207.5 -159.999s-157.667 -78.666 -245 -102.999s-178 -36.5 -272 -36.5s-184.667 12.167 -272 36.5s-169 58.666 -245 102.999s-145.167 97.666 -207.5 159.999
s-115.666 131.5 -159.999 207.5s-78.666 157.5 -102.999 244.5s-36.5 177.833 -36.5 272.5c0 94 12.167 184.667 36.5 272s58.666 169 102.999 245s97.666 145.167 159.999 207.5s131.5 115.666 207.5 159.999s157.5 78.666 244.5 102.999s177.833 36.5 272.5 36.5z
M1024 128c82 0 161.166 10.666 237.499 31.999s147.666 51.5 213.999 90.5s126.833 85.833 181.5 140.5s101.5 115.167 140.5 181.5s69.167 137.5 90.5 213.5s32 155.333 32 238c0 82 -10.667 161.167 -32 237.5s-51.5 147.666 -90.5 213.999s-85.833 126.833 -140.5 181.5
s-115.167 101.5 -181.5 140.5s-137.666 69.167 -213.999 90.5s-155.5 32 -237.5 32s-161.167 -10.667 -237.5 -32s-147.666 -51.5 -213.999 -90.5s-126.833 -85.833 -181.5 -140.5s-101.5 -115.167 -140.5 -181.5s-69.167 -137.666 -90.5 -213.999s-32 -155.5 -32 -237.5
s10.667 -161.167 32 -237.5s51.5 -147.666 90.5 -213.999s85.833 -126.833 140.5 -181.5s115.167 -101.5 181.5 -140.5s137.5 -69.167 213.5 -90.5s155.333 -32 238 -32zM1024 767.999c92 0 179.169 -18.833 261.502 -56.5s154.166 -90.834 215.499 -159.501l-96 -85
c-49.333 55.333 -106.5 98 -171.5 128s-134.833 45 -209.5 45s-144.5 -15 -209.5 -45s-122.167 -72.667 -171.5 -128l-96 85c61.333 68.667 133.166 121.834 215.499 159.501s169.5 56.5 261.5 56.5z" />
    <glyph glyph-name="uniE759" unicode="&#xe759;" 
d="M493 1299l-274 -275l274 -275l-90 -90l-366 365l366 365zM1299 493l90 -90l-365 -366l-365 366l90 90l275 -274zM2011 1024l-366 -365l-90 90l274 275l-274 275l90 90zM749 1555l-90 90l365 366l365 -366l-90 -90l-275 274zM1024 1408c52.667 0 102.334 -10 149.001 -30
s87.5 -47.5 122.5 -82.5s62.5 -75.833 82.5 -122.5s30 -96.334 30 -149.001c0 -53.333 -10 -103.166 -30 -149.499s-47.5 -87 -82.5 -122s-75.833 -62.5 -122.5 -82.5s-96.334 -30 -149.001 -30c-53.333 0 -103.166 10 -149.499 30s-87 47.5 -122 82.5
s-62.5 75.667 -82.5 122s-30 96.166 -30 149.499c0 52.667 10 102.334 30 149.001s47.5 87.5 82.5 122.5s75.667 62.5 122 82.5s96.166 30 149.499 30zM1024 768c35.333 0 68.5 6.66699 99.5 20s58.167 31.666 81.5 54.999s41.666 50.5 54.999 81.5s20 64.167 20 99.5
s-6.66699 68.5 -20 99.5s-31.666 58.167 -54.999 81.5s-50.5 41.666 -81.5 54.999s-64.167 20 -99.5 20s-68.5 -6.66699 -99.5 -20s-58.167 -31.666 -81.5 -54.999s-41.666 -50.5 -54.999 -81.5s-20 -64.167 -20 -99.5s6.66699 -68.5 20 -99.5s31.666 -58.167 54.999 -81.5
s50.5 -41.666 81.5 -54.999s64.167 -20 99.5 -20z" />
    <glyph glyph-name="uniE75C" unicode="&#xe75c;" 
d="M1115 256l420.999 -0.000976562v-128h-1083l-403 404c-16 16 -28.333 34.833 -37 56.5s-13 44.167 -13 67.5s4.33301 45.833 13 67.5s21.334 40.834 38.001 57.501l1197 1198l794 -795zM1248 1798l-710 -710l614 -613l709 709zM932.999 255.999l128 128l-613 614
l-306 -307c-9.33301 -9.33301 -14 -21 -14 -35s4.66699 -25.667 14 -35l364 -365h427z" />
    <glyph glyph-name="uniE75E" unicode="&#xe75e;" 
d="M1024 2048c88 0 170.833 -16.833 248.5 -50.5s145.5 -79.5 203.5 -137.5s103.833 -125.833 137.5 -203.5s50.5 -160.5 50.5 -248.5v-768c0 -88 -16.833 -170.833 -50.5 -248.5s-79.5 -145.5 -137.5 -203.5s-125.833 -103.833 -203.5 -137.5s-160.5 -50.5 -248.5 -50.5
s-170.833 16.833 -248.5 50.5s-145.5 79.5 -203.5 137.5s-103.833 125.833 -137.5 203.5s-50.5 160.5 -50.5 248.5v768c0 88 16.833 170.833 50.5 248.5s79.5 145.5 137.5 203.5s125.833 103.833 203.5 137.5s160.5 50.5 248.5 50.5zM1024 1024
c52.667 0 102.334 10.167 149.001 30.5s87.334 47.833 122.001 82.5s62.167 75.334 82.5 122.001s30.5 96.334 30.5 149.001s-10.167 102.334 -30.5 149.001s-47.833 87.334 -82.5 122.001s-75.334 62.167 -122.001 82.5s-96.334 30.5 -149.001 30.5
s-102.334 -10.167 -149.001 -30.5s-87.334 -47.833 -122.001 -82.5s-62.167 -75.334 -82.5 -122.001s-30.5 -96.334 -30.5 -149.001s10.167 -102.334 30.5 -149.001s47.833 -87.334 82.5 -122.001s75.334 -62.167 122.001 -82.5s96.334 -30.5 149.001 -30.5zM1024 1675
c36.667 0 71.167 -7 103.5 -21s60.666 -33.167 84.999 -57.5s43.5 -52.666 57.5 -84.999s21 -66.833 21 -103.5s-7 -71.167 -21 -103.5s-33.167 -60.666 -57.5 -84.999s-52.666 -43.5 -84.999 -57.5s-66.833 -21 -103.5 -21s-71.167 7 -103.5 21
s-60.666 33.167 -84.999 57.5s-43.5 52.666 -57.5 84.999s-21 66.833 -21 103.5s7 71.167 21 103.5s33.167 60.666 57.5 84.999s52.666 43.5 84.999 57.5s66.833 21 103.5 21z" />
    <glyph glyph-name="uniE75F" unicode="&#xe75f;" 
d="M640 1664h-256v256h256v-256zM1152 1664h-256v256h256v-256zM1664 1664h-256v256h256v-256zM640 1152h-256v256h256v-256zM1152 1152h-256v256h256v-256zM1664 1152h-256v256h256v-256zM640 640h-256v256h256v-256zM1152 640h-256v256h256v-256zM1152 128h-256v256h256
v-256zM1664 640h-256v256h256v-256z" />
    <glyph glyph-name="uniE760" unicode="&#xe760;" 
d="M1029 1920c82 0 160.833 -10.667 236.5 -32s146.5 -51.333 212.5 -90s126.167 -85.167 180.5 -139.5s100.833 -114.5 139.5 -180.5s68.667 -136.833 90 -212.5s32 -154.5 32 -236.5s-10.667 -160.833 -32 -236.5s-51.333 -146.5 -90 -212.5
s-85.167 -126.167 -139.5 -180.5s-114.5 -100.833 -180.5 -139.5s-136.833 -68.667 -212.5 -90s-154.5 -32 -236.5 -32s-160.833 10.667 -236.5 32s-146.5 51.333 -212.5 90s-126.167 85.167 -180.5 139.5s-100.833 114.5 -139.5 180.5s-68.667 136.833 -90 212.5
s-32 154.5 -32 236.5s10.667 160.833 32 236.5s51.333 146.5 90 212.5s85.167 126.167 139.5 180.5s114.5 100.833 180.5 139.5s136.833 68.667 212.5 90s154.5 32 236.5 32zM1029 266c70 0 137.5 9.16699 202.5 27.5s125.833 44 182.5 77s108.167 72.667 154.5 119
s86 97.833 119 154.5s58.667 117.5 77 182.5s27.5 132.5 27.5 202.5s-9.16699 137.5 -27.5 202.5s-44 125.667 -77 182s-72.833 107.833 -119.5 154.5s-98.167 86.5 -154.5 119.5s-117 58.667 -182 77s-132.5 27.5 -202.5 27.5s-137.5 -9.16699 -202.5 -27.5
s-125.833 -44 -182.5 -77s-108.167 -72.667 -154.5 -119s-86 -97.833 -119 -154.5s-58.667 -117.5 -77 -182.5s-27.5 -132.5 -27.5 -202.5s9.16699 -137.5 27.5 -202.5s44 -125.833 77 -182.5s72.667 -108.167 119 -154.5s97.833 -86 154.5 -119s117.5 -58.667 182.5 -77
s132.5 -27.5 202.5 -27.5zM1229 1395l-370 -371l370 -371l-90 -90l-462 461l462 461z" />
    <glyph glyph-name="uniE761" unicode="&#xe761;" 
d="M1029 1792c-70 0 -137.5 -9.16699 -202.5 -27.5s-125.833 -44 -182.5 -77s-108.167 -72.667 -154.5 -119s-86 -97.833 -119 -154.5s-58.667 -117.5 -77 -182.5s-27.5 -132.5 -27.5 -202.5s9.16699 -137.5 27.5 -202.5s44 -125.833 77 -182.5s72.667 -108.167 119 -154.5
s97.833 -86 154.5 -119s117.5 -58.667 182.5 -77s132.5 -27.5 202.5 -27.5s137.5 9.16699 202.5 27.5s125.833 44 182.5 77s108.167 72.667 154.5 119s86 97.833 119 154.5s58.667 117.5 77 182.5s27.5 132.5 27.5 202.5s-9.16699 137.5 -27.5 202.5s-44 125.667 -77 182
s-72.833 107.833 -119.5 154.5s-98.167 86.5 -154.5 119.5s-117 58.667 -182 77s-132.5 27.5 -202.5 27.5zM1029 1920c82 0 160.833 -10.667 236.5 -32s146.5 -51.333 212.5 -90s126.167 -85.167 180.5 -139.5s100.833 -114.5 139.5 -180.5s68.667 -136.833 90 -212.5
s32 -154.5 32 -236.5s-10.667 -160.833 -32 -236.5s-51.333 -146.5 -90 -212.5s-85.167 -126.167 -139.5 -180.5s-114.5 -100.833 -180.5 -139.5s-136.833 -68.667 -212.5 -90s-154.5 -32 -236.5 -32s-160.833 10.667 -236.5 32s-146.5 51.333 -212.5 90
s-126.167 85.167 -180.5 139.5s-100.833 114.5 -139.5 180.5s-68.667 136.833 -90 212.5s-32 154.5 -32 236.5s10.667 160.833 32 236.5s51.333 146.5 90 212.5s85.167 126.167 139.5 180.5s114.5 100.833 180.5 139.5s136.833 68.667 212.5 90s154.5 32 236.5 32zM941 563
l-90 90l370 371l-370 371l90 90l461 -461z" />
    <glyph glyph-name="uniE762" unicode="&#xe762;" 
d="M2048 1664v-128h-1280v128h1280zM768 1280h1280v-128h-1280v128zM768 896h1280v-128h-1280v128zM768 512h1280v-128h-1280v128zM478 1058l68 -68l-354 -354l-178 178l68 68l110 -110zM478 1826l68 -68l-354 -354l-178 178l68 68l110 -110z" />
    <glyph glyph-name="uniE768" unicode="&#xe768;" 
d="M1792 1024l-1280 -896v1792zM640 374l929 650l-929 650v-1300z" />
    <glyph glyph-name="uniE769" unicode="&#xe769;" 
d="M640 1792h128v-1536h-128v1536zM1408 1792v-1536h-128v1536h128z" />
    <glyph glyph-name="uniE76B" unicode="&#xe76b;" 
d="M1443 3l-1022 1021l1022 1021l90 -90l-930 -931l930 -931z" />
    <glyph glyph-name="uniE76C" unicode="&#xe76c;" 
d="M515 93l930 931l-930 931l90 90l1022 -1021l-1022 -1021z" />
    <glyph glyph-name="uniE76E" unicode="&#xe76e;" 
d="M640 1152c-18 0 -34.667 3.33301 -50 10s-28.833 15.834 -40.5 27.501s-20.834 25.167 -27.501 40.5s-10 32 -10 50s3.33301 34.667 10 50s15.834 28.833 27.501 40.5s25.167 20.834 40.5 27.501s32 10 50 10s34.667 -3.33301 50 -10s28.833 -15.834 40.5 -27.501
s20.834 -25.167 27.501 -40.5s10 -32 10 -50s-3.33301 -34.667 -10 -50s-15.834 -28.833 -27.501 -40.5s-25.167 -20.834 -40.5 -27.501s-32 -10 -50 -10zM1408 1152c-18 0 -34.667 3.33301 -50 10s-28.833 15.834 -40.5 27.501s-20.834 25.167 -27.501 40.5s-10 32 -10 50
s3.33301 34.667 10 50s15.834 28.833 27.501 40.5s25.167 20.834 40.5 27.501s32 10 50 10s34.667 -3.33301 50 -10s28.833 -15.834 40.5 -27.501s20.834 -25.167 27.501 -40.5s10 -32 10 -50s-3.33301 -34.667 -10 -50s-15.834 -28.833 -27.501 -40.5
s-25.167 -20.834 -40.5 -27.501s-32 -10 -50 -10zM1024 2048c94 0 184.667 -12.167 272 -36.5s169 -58.666 245 -102.999s145.167 -97.666 207.5 -159.999s115.666 -131.5 159.999 -207.5s78.666 -157.667 102.999 -245s36.5 -178 36.5 -272s-12.167 -184.667 -36.5 -272
s-58.666 -169 -102.999 -245s-97.666 -145.167 -159.999 -207.5s-131.5 -115.666 -207.5 -159.999s-157.667 -78.666 -245 -102.999s-178 -36.5 -272 -36.5s-184.667 12.167 -272 36.5s-169 58.666 -245 102.999s-145.167 97.666 -207.5 159.999
s-115.666 131.5 -159.999 207.5s-78.666 157.5 -102.999 244.5s-36.5 177.833 -36.5 272.5c0 94 12.167 184.667 36.5 272s58.666 169 102.999 245s97.666 145.167 159.999 207.5s131.5 115.666 207.5 159.999s157.5 78.666 244.5 102.999s177.833 36.5 272.5 36.5z
M1024 128c82 0 161.166 10.666 237.499 31.999s147.666 51.5 213.999 90.5s126.833 85.833 181.5 140.5s101.5 115.167 140.5 181.5s69.167 137.5 90.5 213.5s32 155.333 32 238c0 82 -10.667 161.167 -32 237.5s-51.5 147.666 -90.5 213.999s-85.833 126.833 -140.5 181.5
s-115.167 101.5 -181.5 140.5s-137.666 69.167 -213.999 90.5s-155.5 32 -237.5 32s-161.167 -10.667 -237.5 -32s-147.666 -51.5 -213.999 -90.5s-126.833 -85.833 -181.5 -140.5s-101.5 -115.167 -140.5 -181.5s-69.167 -137.666 -90.5 -213.999s-32 -155.5 -32 -237.5
s10.667 -161.167 32 -237.5s51.5 -147.666 90.5 -213.999s85.833 -126.833 140.5 -181.5s115.167 -101.5 181.5 -140.5s137.5 -69.167 213.5 -90.5s155.333 -32 238 -32zM1024 511.999c48.667 0 95.835 6.66699 141.502 20s88.167 32.333 127.5 57s74.833 54.667 106.5 90
s58.5 74.666 80.5 117.999l115 -58c-27.333 -54 -61 -103 -101 -147s-84.667 -81.333 -134 -112s-102.5 -54.334 -159.5 -71.001s-115.833 -25 -176.5 -25c-61.333 0 -120.333 8.33301 -177 25s-109.667 40.334 -159 71.001s-94 68 -134 112s-73.667 93 -101 147l115 58
c22 -43.333 48.833 -82.666 80.5 -117.999s67.167 -65.333 106.5 -90s81.666 -43.667 126.999 -57s92.666 -20 141.999 -20z" />
    <glyph glyph-name="uniE76F" unicode="&#xe76f;" 
d="M0 1280h2048v-128h-2048v128zM0 768v128h2048v-128h-2048z" />
    <glyph glyph-name="uniE770" unicode="&#xe770;" 
d="M2000 523c8 -8 15.002 -17.667 21.002 -29s11 -23.333 15 -36s7 -25.5 9 -38.5s3 -24.833 3 -35.5c0 -18 -3.33301 -34.667 -10 -50s-15.834 -28.833 -27.501 -40.5s-25.167 -20.834 -40.5 -27.501s-32 -10 -50 -10h-1792c-18 0 -34.667 3.33301 -50 10
s-28.833 15.834 -40.5 27.501s-20.834 25.167 -27.501 40.5s-10 32 -10 50c0 10.667 1 22.5 3 35.5s5 25.833 9 38.5s9 24.667 15 36s13 21 21 29l208 208v933h1536v-933zM384.002 768h1280v768h-1280v-768zM1920 384c0 7.33301 -1.33301 16.833 -4 28.5
s-6.66699 20.167 -12 25.5l-203 202h-1354l-203 -202c-5.33301 -5.33301 -9.33301 -13.833 -12 -25.5s-4 -21.167 -4 -28.5h1792z" />
    <glyph glyph-name="uniE771" unicode="&#xe771;" 
d="M1024 256v-128h256v-128h-640v128h256v128h-896v1152h1024l-129 -128h-767v-896h1664v768l128 128v-1024h-896zM512 640c18 0 34.665 3.33301 49.998 10s28.833 15.834 40.5 27.501s20.834 25.167 27.501 40.5s10 32 10 50c0 32.667 5.83301 63.667 17.5 93
s27.667 55.333 48 78s44.333 41.5 72 56.5s57.834 24.167 90.501 27.5l711 711c18.667 18.667 40.334 33 65.001 43s50 15 76 15c27.333 0 53.166 -5.16699 77.499 -15.5s45.5 -24.5 63.5 -42.5s32.167 -39.167 42.5 -63.5s15.5 -50.5 15.5 -78.5c0 -26 -5 -51.333 -15 -76
s-24.333 -46.334 -43 -65.001l-711 -711c-3.33301 -32 -12.333 -62 -27 -90s-33.5 -52.167 -56.5 -72.5s-49 -36.333 -78 -48s-59.833 -17.5 -92.5 -17.5h-640v128h256zM1720 1664c-19.333 0 -36.001 -7 -50.001 -21l-445 -445c38 -29.333 71.667 -63 101 -101l445 445
c14 14 21 30.667 21 50c0 20 -7.16699 37 -21.5 51s-31.166 21 -50.499 21zM1042 1015c40.667 -26.667 74.333 -60.333 101 -101l92 91c-28 40 -62 74 -102 102zM1024 768.001c0 18 -3.33301 34.665 -10 49.998s-15.834 28.833 -27.501 40.5s-25.167 20.834 -40.5 27.501
s-32 10 -50 10s-34.667 -3.33301 -50 -10s-28.833 -15.834 -40.5 -27.501s-20.834 -25.167 -27.501 -40.5s-10 -32 -10 -50c0 -45.333 -11.333 -88 -34 -128h162c17.333 0 33.833 3.33301 49.5 10s29.334 15.834 41.001 27.501s20.834 25.334 27.501 41.001
s10 32.167 10 49.5z" />
    <glyph glyph-name="uniE773" unicode="&#xe773;" 
d="M1664 1152c52.667 0 102.332 -10.165 148.999 -30.498s87.334 -47.833 122.001 -82.5s62.167 -75.334 82.5 -122.001s30.5 -96.334 30.5 -149.001s-10.167 -102.334 -30.5 -149.001s-47.833 -87.334 -82.5 -122.001s-75.334 -62.167 -122.001 -82.5
s-96.334 -30.5 -149.001 -30.5c-40 0 -79 6 -117 18s-73 29.667 -105 53l-53.5 -55.5l-86.5 -90l-103.5 -105l-102.5 -100c-32 -30.333 -60.333 -55.333 -85 -75s-41.667 -29.5 -51 -29.5c-17.333 0 -32.333 6.33301 -45 19s-19 27.667 -19 45
c0 9.33301 9.83301 26.333 29.5 51s44.667 53 75 85l100 102.5l105 103.5l90 86.5l55.5 53.5c-23.333 32 -41 67 -53 105s-18 77 -18 117c0 52.667 10.167 102.334 30.5 149.001s47.833 87.334 82.5 122.001s75.334 62.167 122.001 82.5s96.334 30.5 149.001 30.5z
M1664 512.002c34.667 0 67.667 6.83301 99 20.5s58.5 32 81.5 55s41.333 50 55 81s20.5 64.167 20.5 99.5c0 34.667 -6.83301 67.667 -20.5 99s-32 58.5 -55 81.5s-50.167 41.333 -81.5 55s-64.333 20.5 -99 20.5c-35.333 0 -68.5 -6.83301 -99.5 -20.5s-58 -32 -81 -55
s-41.333 -50.167 -55 -81.5s-20.5 -64.333 -20.5 -99c0 -35.333 6.83301 -68.5 20.5 -99.5s32 -58 55 -81s50 -41.333 81 -55s64.167 -20.5 99.5 -20.5zM255.998 640.002l-0.000976562 255.999h-256v1152h1536v-256h256v-530
c-21.333 5.33301 -42.666 9.66602 -63.999 12.999s-42.666 5 -63.999 5v384h-1280v-896h768c0 -21.333 1.66699 -42.666 5 -63.999s7.66602 -42.666 12.999 -63.999h-914zM255.997 1024v768h1152v128h-1280v-896h128z" />
    <glyph glyph-name="uniE774" unicode="&#xe774;" 
d="M1024 2048c94 0 184.667 -12.167 272 -36.5s169 -58.666 245 -102.999s145.167 -97.666 207.5 -159.999s115.666 -131.5 159.999 -207.5s78.666 -157.667 102.999 -245s36.5 -178 36.5 -272s-12.167 -184.667 -36.5 -272s-58.666 -169 -102.999 -245
s-97.666 -145.167 -159.999 -207.5s-131.5 -115.666 -207.5 -159.999s-157.667 -78.666 -245 -102.999s-178 -36.5 -272 -36.5s-184.667 12.167 -272 36.5s-169 58.666 -245 102.999s-145.167 97.666 -207.5 159.999s-115.666 131.5 -159.999 207.5
s-78.666 157.5 -102.999 244.5s-36.5 177.833 -36.5 272.5c0 94 12.167 184.667 36.5 272s58.666 169 102.999 245s97.666 145.167 159.999 207.5s131.5 115.666 207.5 159.999s157.5 78.666 244.5 102.999s177.833 36.5 272.5 36.5zM1833 1408
c-25.333 54 -56 104.833 -92 152.5s-76 91.167 -120 130.5s-91.667 74.333 -143 105s-105 55.667 -161 75c24 -33.333 45.667 -68.666 65 -105.999s36.5 -75.833 51.5 -115.5s27.833 -79.834 38.5 -120.501s20 -81 28 -121h333zM1920 1024
c0 88.667 -12.333 173.998 -37 255.998h-363c5.33301 -42.667 9.33301 -85.167 12 -127.5s4 -85.166 4 -128.499s-1.33301 -86.166 -4 -128.499s-6.66699 -84.833 -12 -127.5h363c24.667 82 37 167.333 37 256zM1024 127.998c32.667 0 63.167 9 91.5 27s54.5 41.667 78.5 71
s45.5 62.5 64.5 99.5s35.833 74.5 50.5 112.5s27 74.667 37 110s17.667 66 23 92h-690c5.33301 -26 13 -56.667 23 -92s22.333 -72 37 -110s31.5 -75.5 50.5 -112.5s40.5 -70.167 64.5 -99.5s50.167 -53 78.5 -71s58.833 -27 91.5 -27zM1391 767.998
c5.33301 42.667 9.5 85.167 12.5 127.5s4.5 85.166 4.5 128.499s-1.5 86.166 -4.5 128.499s-7.16699 84.833 -12.5 127.5h-734c-5.33301 -42.667 -9.5 -85.167 -12.5 -127.5s-4.5 -85.166 -4.5 -128.499s1.5 -86.166 4.5 -128.499s7.16699 -84.833 12.5 -127.5h734z
M128 1024c0 -88.667 12.333 -173.998 37 -255.998h363c-5.33301 42.667 -9.33301 85.167 -12 127.5s-4 85.166 -4 128.499s1.33301 86.166 4 128.499s6.66699 84.833 12 127.5h-363c-24.667 -82 -37 -167.333 -37 -256zM1024 1920c-32.667 0 -63.167 -9 -91.5 -27
s-54.5 -41.667 -78.5 -71s-45.5 -62.5 -64.5 -99.5s-35.833 -74.5 -50.5 -112.5s-27 -74.667 -37 -110s-17.667 -66 -23 -92h690c-5.33301 26 -13 56.667 -23 92s-22.333 72 -37 110s-31.5 75.5 -50.5 112.5s-40.5 70.167 -64.5 99.5s-50.167 53 -78.5 71
s-58.833 27 -91.5 27zM731 1871c-56 -19.333 -109.667 -44.333 -161 -75s-99 -65.667 -143 -105s-84 -82.833 -120 -130.5s-66.667 -98.5 -92 -152.5h333c8 40 17.333 80.333 28 121s23.5 80.834 38.5 120.501s32.167 78.167 51.5 115.5s41 72.666 65 105.999zM215 640
c25.333 -54 56 -104.833 92 -152.5s76 -91.167 120 -130.5s91.667 -74.333 143 -105s105 -55.667 161 -75c-24 33.333 -45.667 68.666 -65 105.999s-36.5 75.833 -51.5 115.5s-27.833 79.834 -38.5 120.501s-20 81 -28 121h-333zM1317 177c56 19.333 109.667 44.333 161 75
s99 65.667 143 105s84 82.833 120 130.5s66.667 98.5 92 152.5h-333c-8 -40 -17.333 -80.333 -28 -121s-23.5 -80.834 -38.5 -120.501s-32.167 -78.167 -51.5 -115.5s-41 -72.666 -65 -105.999z" />
    <glyph glyph-name="uniE779" unicode="&#xe779;" 
d="M740 971c43.333 -22 82.502 -49.167 117.502 -81.5s64.833 -68.333 89.5 -108s43.667 -82.334 57 -128.001s20 -92.834 20 -141.501h-128c0 52.667 -10.167 102.334 -30.5 149.001s-47.833 87.334 -82.5 122.001s-75.334 62.167 -122.001 82.5
s-96.334 30.5 -149.001 30.5s-102.334 -10.167 -149.001 -30.5s-87.334 -47.833 -122.001 -82.5s-62.167 -75.334 -82.5 -122.001s-30.5 -96.334 -30.5 -149.001h-128c0 48.667 6.66699 95.834 20 141.501s32.333 88.334 57 128.001s54.5 75.667 89.5 108
s74.167 59.5 117.5 81.5c-48.667 36 -86.834 81.333 -114.501 136s-41.5 112.334 -41.5 173.001c0 52.667 10.167 102.334 30.5 149.001s47.833 87.334 82.5 122.001s75.334 62.167 122.001 82.5s96.334 30.5 149.001 30.5s102.334 -10.167 149.001 -30.5
s87.334 -47.833 122.001 -82.5s62.167 -75.334 82.5 -122.001s30.5 -96.334 30.5 -149.001c0 -60.667 -13.833 -118.334 -41.5 -173.001s-65.834 -100 -114.501 -136zM256.002 1280c0 -35.333 6.83301 -68.5 20.5 -99.5s32 -58 55 -81s50 -41.333 81 -55
s64.167 -20.5 99.5 -20.5c34.667 0 67.667 6.83301 99 20.5s58.5 32 81.5 55s41.333 50 55 81s20.5 64.167 20.5 99.5c0 34.667 -6.83301 67.667 -20.5 99s-32 58.5 -55 81.5s-50.167 41.333 -81.5 55s-64.333 20.5 -99 20.5c-35.333 0 -68.5 -6.83301 -99.5 -20.5
s-58 -32 -81 -55s-41.333 -50.167 -55 -81.5s-20.5 -64.333 -20.5 -99zM2048 1664v-128h-896v128h896zM1152 1152h896v-128h-896v128zM1152 640h896v-128h-896v128z" />
    <glyph glyph-name="uniE77A" unicode="&#xe77a;" 
d="M1472 896c62 0 120.167 -11.667 174.5 -35s101.833 -55.333 142.5 -96s72.667 -88.167 96 -142.5s35 -112.5 35 -174.5s-11.667 -120.167 -35 -174.5s-55.333 -101.833 -96 -142.5s-88.167 -72.667 -142.5 -96s-112.5 -35 -174.5 -35s-120.167 11.667 -174.5 35
s-101.833 55.333 -142.5 96s-72.667 88.167 -96 142.5s-35 112.5 -35 174.5s11.667 120.167 35 174.5s55.333 101.833 96 142.5s88.167 72.667 142.5 96s112.5 35 174.5 35zM1152 448c0 -44 8.33301 -85.5 25 -124.5s39.5 -73 68.5 -102s63 -51.833 102 -68.5
s80.5 -25 124.5 -25c31.333 0 62 4.5 92 13.5s58 22.167 84 39.5l-443 443c-17.333 -26 -30.5 -54 -39.5 -84s-13.5 -60.667 -13.5 -92zM1739 272c17.333 26 30.5 54 39.5 84s13.5 60.667 13.5 92c0 44 -8.5 85.333 -25.5 124s-40 72.5 -69 101.5s-62.833 52 -101.5 69
s-80 25.5 -124 25.5c-31.333 0 -62 -4.5 -92 -13.5s-58 -22.167 -84 -39.5zM1990 1300c-22 -22 -43.5 -42.168 -64.5 -60.501s-42.667 -33.833 -65 -46.5s-46.666 -22.5 -72.999 -29.5s-56.166 -10.5 -89.499 -10.5c-22.667 0 -44.334 2 -65.001 6l-134 -135h-182l278 278
l10 -3c15.333 -4.66699 30.666 -8.83398 45.999 -12.501s31 -5.5 47 -5.5c36.667 0 71.334 8.66699 104.001 26l-495 495c-17.333 -32.667 -26 -67.334 -26 -104.001c0 -16 1.83301 -31.667 5.5 -47s7.83398 -30.666 12.501 -45.999l3 -10l-492 -491l-46 19
c-14.667 6 -29.334 11 -44.001 15s-29.834 7.16699 -45.501 9.5s-32.5 3.5 -50.5 3.5c-38 0 -75 -5.5 -111 -16.5s-69.333 -27.167 -100 -48.5l483 -483v-182l-192 193l-568 -569l-136 -45l45 136l569 568l-386 386l45 45c46.667 46.667 100.667 82.334 162 107.001
s125 37 191 37c26 0 51.833 -2.16699 77.5 -6.5s51.167 -10.5 76.5 -18.5l379 379c-4 20.667 -6 42.334 -6 65.001c0 32.667 3.5 62.167 10.5 88.5s16.833 50.833 29.5 73.5s28.167 44.5 46.5 65.5s38.5 42.5 60.5 64.5z" />
    <glyph glyph-name="uniE77B" unicode="&#xe77b;" 
d="M1330 845c90.667 -31.333 172.499 -75.1689 245.499 -131.502s135 -121.5 186 -195.5s90.167 -155 117.5 -243s41 -179.667 41 -275h-128c0 109.333 -19.5 210.833 -58.5 304.5s-92.833 174.834 -161.5 243.501s-149.834 122.5 -243.501 161.5s-195.167 58.5 -304.5 58.5
c-71.333 0 -140 -9 -206 -27s-127.5 -43.5 -184.5 -76.5s-108.667 -72.667 -155 -119s-86 -98 -119 -155s-58.5 -118.5 -76.5 -184.5s-27 -134.667 -27 -206h-128c0 96 14 187.833 42 275.5s67.667 168.167 119 241.5s113.5 138 186.5 194s154.5 100.333 244.5 133
c-52 28 -98.667 62 -140 102s-76.5 84.5 -105.5 133.5s-51.333 101.333 -67 157s-23.5 112.834 -23.5 171.501c0 88.667 16.667 171.834 50 249.501s79 145.5 137 203.5s125.833 103.667 203.5 137s160.834 50 249.501 50s171.834 -16.667 249.501 -50s145.5 -79 203.5 -137
s103.667 -125.833 137 -203.5s50 -160.834 50 -249.501c0 -58.667 -7.83301 -115.667 -23.5 -171s-38 -107.333 -67 -156s-64 -93.167 -105 -133.5s-87.167 -74.5 -138.5 -102.5zM511.999 1408c0 -70.667 13.5 -137 40.5 -199s63.667 -116.167 110 -162.5
s100.5 -83 162.5 -110s128.333 -40.5 199 -40.5s137 13.5 199 40.5s116.167 63.667 162.5 110s83 100.5 110 162.5s40.5 128.333 40.5 199s-13.5 137 -40.5 199s-63.667 116.167 -110 162.5s-100.5 83 -162.5 110s-128.333 40.5 -199 40.5s-137 -13.5 -199 -40.5
s-116.167 -63.667 -162.5 -110s-83 -100.5 -110 -162.5s-40.5 -128.333 -40.5 -199z" />
    <glyph glyph-name="uniE77C" unicode="&#xe77c;" 
d="M1600 1536c62 0 120.169 -11.833 174.502 -35.5s101.666 -55.667 141.999 -96s72.333 -87.666 96 -141.999s35.5 -112.5 35.5 -174.5s-11.833 -120.167 -35.5 -174.5s-55.667 -101.666 -96 -141.999s-87.666 -72.333 -141.999 -96s-112.5 -35.5 -174.5 -35.5h-1152
c-62 0 -120.167 11.833 -174.5 35.5s-101.666 55.667 -141.999 96s-72.333 87.666 -96 141.999s-35.5 112.5 -35.5 174.5s11.833 120.167 35.5 174.5s55.667 101.666 96 141.999s87.666 72.333 141.999 96s112.5 35.5 174.5 35.5s120.167 -11.833 174.5 -35.5
s101.666 -55.667 141.999 -96s72.333 -87.666 96 -141.999s35.5 -112.5 35.5 -174.5c0 -14 -1.5 -30.833 -4.5 -50.5s-7.16699 -40 -12.5 -61s-12 -42.333 -20 -64s-17 -42 -27 -61s-21 -35.833 -33 -50.5s-24.667 -25.667 -38 -33h526c-13.333 7.33301 -26 18.333 -38 33
s-23 31.5 -33 50.5s-19 39.333 -27 61s-14.667 43 -20 64s-9.5 41.167 -12.5 60.5s-4.5 36.333 -4.5 51c0 62 11.833 120.167 35.5 174.5s55.667 101.666 96 141.999s87.666 72.333 141.999 96s112.5 35.5 174.5 35.5zM128.002 1088c0 -44 8.5 -85.333 25.5 -124
s40 -72.5 69 -101.5s62.833 -52 101.5 -69s80 -25.5 124 -25.5s85.333 8.5 124 25.5s72.5 40 101.5 69s52 62.833 69 101.5s25.5 80 25.5 124s-8.5 85.333 -25.5 124s-40 72.5 -69 101.5s-62.833 52 -101.5 69s-80 25.5 -124 25.5s-85.333 -8.5 -124 -25.5
s-72.5 -40 -101.5 -69s-52 -62.833 -69 -101.5s-25.5 -80 -25.5 -124zM1600 768c44 0 85.333 8.5 124 25.5s72.5 40 101.5 69s52 62.833 69 101.5s25.5 80 25.5 124s-8.5 85.333 -25.5 124s-40 72.5 -69 101.5s-62.833 52 -101.5 69s-80 25.5 -124 25.5
s-85.333 -8.5 -124 -25.5s-72.5 -40 -101.5 -69s-52 -62.833 -69 -101.5s-25.5 -80 -25.5 -124s8.5 -85.333 25.5 -124s40 -72.5 69 -101.5s62.833 -52 101.5 -69s80 -25.5 124 -25.5z" />
    <glyph glyph-name="uniE77F" unicode="&#xe77f;" 
d="M1920 1280v-1280h-1024v128h-768v1664h512c0 34.667 6.83301 67.667 20.5 99s32 58.5 55 81.5s50 41.333 81 55s64.167 20.5 99.5 20.5c34.667 0 67.667 -6.83301 99 -20.5s58.5 -32 81.5 -55s41.333 -50.167 55 -81.5s20.5 -64.333 20.5 -99h512v-512h256zM512 1664
v-128h768v128h-256c0 10.667 0.166992 21.834 0.5 33.501s0.5 23.5 0.5 35.5c0 22.667 -1.16699 45.167 -3.5 67.5s-8 42.333 -17 60s-22 32 -39 43s-40.167 16.5 -69.5 16.5s-52.5 -5.5 -69.5 -16.5s-30 -25.333 -39 -43s-14.667 -37.667 -17 -60s-3.5 -44.833 -3.5 -67.5
c0 -12 0.166992 -23.833 0.5 -35.5s0.5 -22.834 0.5 -33.501h-256zM896 256v1024h640v384h-128v-256h-1024v256h-128v-1408h640zM1792 1152h-768v-1024h768v1024z" />
    <glyph glyph-name="uniE783" unicode="&#xe783;" 
d="M960 2048c88.667 0 173.834 -11.333 255.501 -34s158.167 -54.834 229.5 -96.501s136.166 -91.667 194.499 -150s108.333 -123.166 150 -194.499s73.834 -147.833 96.501 -229.5s34 -166.834 34 -255.501s-11.333 -173.834 -34 -255.501s-54.834 -158.167 -96.501 -229.5
s-91.667 -136.166 -150 -194.499s-123.166 -108.333 -194.499 -150s-147.833 -73.834 -229.5 -96.501s-166.834 -34 -255.501 -34s-173.834 11.333 -255.501 34s-158.167 54.834 -229.5 96.501s-136.166 91.667 -194.499 150s-108.333 123.166 -150 194.499
s-73.834 147.833 -96.501 229.5s-34 166.834 -34 255.501s11.333 173.834 34 255.501s54.834 158.167 96.501 229.5s91.667 136.166 150 194.499s123.166 108.333 194.499 150s147.833 73.834 229.5 96.501s166.834 34 255.501 34zM960 256c76 0 149.5 9.99805 220.5 29.998
s137.333 48 199 84s117.834 79.333 168.501 130s94 106.834 130 168.501s64 127.834 84 198.501s30 144.334 30 221.001c0 76 -10 149.5 -30 220.5s-48 137.333 -84 199s-79.333 117.834 -130 168.501s-106.834 94 -168.501 130s-128 64 -199 84s-144.5 30 -220.5 30
c-76.667 0 -150.334 -10 -221.001 -30s-136.834 -48 -198.501 -84s-117.834 -79.333 -168.501 -130s-94 -106.834 -130 -168.501s-64 -128 -84 -199s-30 -144.5 -30 -220.5s10 -149.5 30 -220.5s48 -137.333 84 -199s79.333 -117.834 130 -168.501s106.834 -94 168.501 -130
s127.834 -64 198.501 -84s144.334 -30 221.001 -30zM896 1536h128v-640h-128v640zM896 767.998h128v-128h-128v128z" />
    <glyph glyph-name="uniE784" unicode="&#xe784;" 
d="M768 0v2048h128v-2048h-128zM1152 2048h128v-2048h-128v2048z" />
    <glyph glyph-name="uniE785" unicode="&#xe785;" 
d="M1792 1152l0.00195312 -1152h-1536v1152h1152v384c0 54.667 -9.83301 105.334 -29.5 152.001s-46.667 87.167 -81 121.5s-74.833 61.333 -121.5 81s-97.334 29.5 -152.001 29.5s-105.334 -9.83301 -152.001 -29.5s-87.167 -46.667 -121.5 -81s-61.333 -74.833 -81 -121.5
s-29.5 -97.334 -29.5 -152.001h-128c0 72.667 13 140.167 39 202.5s62 116.5 108 162.5s100.167 82 162.5 108s129.833 39 202.5 39s140.167 -13 202.5 -39s116.5 -62 162.5 -108s82 -100.167 108 -162.5s39 -129.833 39 -202.5v-384h256zM1664 1024h-1280v-896h1280v896z
" />
    <glyph glyph-name="uniE787" unicode="&#xe787;" 
d="M768 1280h128v-128h-128v128zM1152 512h128v-128h-128v128zM1536 1280h128v-128h-128v128zM1152 1280h128v-128h-128v128zM768 1024h128v-128h-128v128zM384 1024h128v-128h-128v128zM1536 1024h128v-128h-128v128zM1152 1024h128v-128h-128v128zM768 768h128v-128h-128
v128zM384 768h128v-128h-128v128zM1536 768h128v-128h-128v128zM1152 768h128v-128h-128v128zM768 512h128v-128h-128v128zM384 512h128v-128h-128v128zM2048 1920v-1792h-2048v1792h384v128h128v-128h1024v128h128v-128h384zM128 1792v-256h1792v256h-256v-128h-128v128
h-1024v-128h-128v128h-256zM1920 256v1152h-1792v-1152h1792z" />
    <glyph glyph-name="uniE789" unicode="&#xe789;" 
d="M0 1280c9.33301 0 22.168 -0.333984 38.501 -1.00098s32.166 -1 47.499 -1c7.33301 0 14.166 0.166992 20.499 0.5s11.5 0.833008 15.5 1.5l1798 320c4 0.666992 9.33301 1.16699 16 1.5s14 0.5 22 0.5c16 0 32.667 -0.333008 50 -1s30.666 -1 39.999 -1v-1152
c-9.33301 0 -22.333 -0.166992 -39 -0.5s-33 -0.5 -49 -0.5h-30c-8.66699 0 -15.667 0.666992 -21 2l-763 136c-6.66699 -38 -19.5 -73.333 -38.5 -106s-42.5 -60.667 -70.5 -84s-59.5 -41.666 -94.5 -54.999s-71.833 -20 -110.5 -20c-44 0 -85.5 8.33301 -124.5 25
s-73 39.5 -102 68.5s-51.833 63 -68.5 102s-25 80.5 -25 124.5c0 18.667 2 37.667 6 57l-396 71c-5.33301 0.666992 -11.166 1.16699 -17.499 1.5s-13.166 0.5 -20.499 0.5c-14.667 0 -29.5 -0.333008 -44.5 -1s-28.167 -1 -39.5 -1v512zM832.002 447.999
c23.333 0 45.668 4.00098 67.001 12.001s40.333 19.167 57 33.5s30.667 31.166 42 50.499s19 40.666 23 63.999l-378 67c-2 -12 -3 -23.667 -3 -35c0 -26.667 5 -51.667 15 -75s23.667 -43.666 41 -60.999s37.666 -31 60.999 -41s48.333 -15 75 -15zM1920 1471l-1792 -319
v-256c4.66699 0 8.33398 -0.333008 11.001 -1l1781 -318v894z" />
    <glyph glyph-name="uniE78D" unicode="&#xe78d;" 
d="M0 64c0 17.333 6.33301 32.333 19 45l1216 1216c12.667 12.667 27.667 19 45 19s32.333 -6.33301 45 -19s19 -27.667 19 -45s-6.33301 -32.333 -19 -45l-1216 -1216c-12.667 -12.667 -27.667 -19 -45 -19s-32.333 6.33301 -45 19s-19 27.667 -19 45zM1408 2048h128v-256
h-128v256zM1201 1653l-182 181l91 91l181 -182zM1152 1408h-256v128h256v-128zM1408 1152h128v-256h-128v256zM1743 1291l182 -181l-91 -91l-181 182zM2048 1536v-128h-256v128h256zM1743 1653l-90 90l181 182l91 -91zM1472 1536c17.333 0 32.333 -6.33301 45 -19
s19 -27.667 19 -45s-6.33301 -32.333 -19 -45s-27.667 -19 -45 -19s-32.333 6.33301 -45 19s-19 27.667 -19 45s6.33301 32.333 19 45s27.667 19 45 19z" />
    <glyph glyph-name="uniE78E" unicode="&#xe78e;" 
d="M1939 813l90 -90l-685 -686l-365 366l90 90l275 -274zM0 64c0 17.333 6.33301 32.333 19 45l1216 1216c12.667 12.667 27.667 19 45 19s32.333 -6.33301 45 -19s19 -27.667 19 -45s-6.33301 -32.333 -19 -45l-1216 -1216c-12.667 -12.667 -27.667 -19 -45 -19
s-32.333 6.33301 -45 19s-19 27.667 -19 45zM1408 2048h128v-256h-128v256zM1201 1653l-182 181l91 91l181 -182zM1152 1408h-256v128h256v-128zM1408 1152h128v-256h-128v256zM1743 1291l182 -181l-91 -91l-181 182zM2048 1536v-128h-256v128h256zM1743 1653l-90 90
l181 182l91 -91zM1472 1536c17.333 0 32.333 -6.33301 45 -19s19 -27.667 19 -45s-6.33301 -32.333 -19 -45s-27.667 -19 -45 -19s-32.333 6.33301 -45 19s-19 27.667 -19 45s6.33301 32.333 19 45s27.667 19 45 19z" />
    <glyph glyph-name="uniE790" unicode="&#xe790;" 
d="M1024 2048c94 0 184.674 -12.1738 272.007 -36.5068s169 -58.666 245 -102.999s145.167 -97.666 207.5 -159.999s115.666 -131.5 159.999 -207.5s78.666 -157.667 102.999 -245s36.5 -178 36.5 -272s-12.167 -184.667 -36.5 -272s-58.666 -169 -102.999 -245
s-97.666 -145.167 -159.999 -207.5s-131.5 -115.666 -207.5 -159.999s-157.667 -78.666 -245 -102.999s-178 -36.5 -272 -36.5c-35.333 0 -68.5 6.83301 -99.5 20.5s-58 32 -81 55s-41.333 50 -55 81s-20.5 64.167 -20.5 99.5c0 32.667 3.16699 61.167 9.5 85.5
s14.166 46.5 23.499 66.5s19.666 38.667 30.999 56s21.666 34.833 30.999 52.5s17.166 36.334 23.499 56.001s9.5 42.167 9.5 67.5c0 34.667 -6.83301 67.667 -20.5 99s-32 58.5 -55 81.5s-50.167 41.333 -81.5 55s-64.333 20.5 -99 20.5
c-25.333 0 -47.833 -3.16699 -67.5 -9.5s-38.334 -14.166 -56.001 -23.499s-35.167 -19.666 -52.5 -30.999s-36 -21.666 -56 -30.999s-42.333 -17.166 -67 -23.499s-53 -9.5 -85 -9.5c-35.333 0 -68.5 6.83301 -99.5 20.5s-58 32 -81 55s-41.333 50 -55 81
s-20.5 64.167 -20.5 99.5c0 94 12.167 184.667 36.5 272s58.666 169 102.999 245s97.666 145.167 159.999 207.5s131.5 115.666 207.5 159.999s157.5 78.666 244.5 102.999s177.833 36.5 272.5 36.5zM1024.01 127.993c82 0 161.157 10.6758 237.49 32.0088
s147.666 51.5 213.999 90.5s126.833 85.833 181.5 140.5s101.5 115.167 140.5 181.5s69.167 137.666 90.5 213.999s32 155.5 32 237.5s-10.667 161.167 -32 237.5s-51.5 147.666 -90.5 213.999s-85.833 126.833 -140.5 181.5s-115.167 101.5 -181.5 140.5
s-137.666 69.167 -213.999 90.5s-155.5 32 -237.5 32s-161.167 -10.667 -237.5 -32s-147.666 -51.5 -213.999 -90.5s-126.833 -85.833 -181.5 -140.5s-101.5 -115.167 -140.5 -181.5s-69.167 -137.666 -90.5 -213.999s-32 -155.5 -32 -237.5c0 -18 3.33301 -34.667 10 -50
s15.834 -28.833 27.501 -40.5s25.167 -20.834 40.5 -27.501s32 -10 50 -10c25.333 0 47.833 3.16699 67.5 9.5s38.334 14.166 56.001 23.499s35 19.666 52 30.999s35.333 21.666 55 30.999s41.834 17.166 66.501 23.499s53.667 9.5 87 9.5c53.333 0 103.333 -10 150 -30
s87.334 -47.333 122.001 -82s62 -75.334 82 -122.001s30 -96.667 30 -150c0 -32.667 -3.16699 -61.5 -9.5 -86.5s-14.166 -47.333 -23.499 -67s-19.666 -38 -30.999 -55s-21.666 -34.333 -30.999 -52s-17.166 -36.334 -23.499 -56.001s-9.5 -42.167 -9.5 -67.5
c0 -18 3.33301 -34.667 10 -50s15.834 -28.833 27.501 -40.5s25.167 -20.834 40.5 -27.501s32 -10 50 -10zM511.997 1408c18 0 34.667 -3.33301 50 -10s28.833 -15.834 40.5 -27.501s20.834 -25.167 27.501 -40.5s10 -32 10 -50s-3.33301 -34.667 -10 -50
s-15.834 -28.833 -27.501 -40.5s-25.167 -20.834 -40.5 -27.501s-32 -10 -50 -10s-34.667 3.33301 -50 10s-28.833 15.834 -40.5 27.501s-20.834 25.167 -27.501 40.5s-10 32 -10 50s3.33301 34.667 10 50s15.834 28.833 27.501 40.5s25.167 20.834 40.5 27.501s32 10 50 10
zM895.997 1664c18 0 34.667 -3.33301 50 -10s28.833 -15.834 40.5 -27.501s20.834 -25.167 27.501 -40.5s10 -32 10 -50s-3.33301 -34.667 -10 -50s-15.834 -28.833 -27.501 -40.5s-25.167 -20.834 -40.5 -27.501s-32 -10 -50 -10s-34.667 3.33301 -50 10
s-28.833 15.834 -40.5 27.501s-20.834 25.167 -27.501 40.5s-10 32 -10 50s3.33301 34.667 10 50s15.834 28.833 27.501 40.5s25.167 20.834 40.5 27.501s32 10 50 10zM1408 1280c-18 0 -34.667 3.33301 -50 10s-28.833 15.834 -40.5 27.501s-20.834 25.167 -27.501 40.5
s-10 32 -10 50s3.33301 34.667 10 50s15.834 28.833 27.501 40.5s25.167 20.834 40.5 27.501s32 10 50 10s34.667 -3.33301 50 -10s28.833 -15.834 40.5 -27.501s20.834 -25.167 27.501 -40.5s10 -32 10 -50s-3.33301 -34.667 -10 -50s-15.834 -28.833 -27.501 -40.5
s-25.167 -20.834 -40.5 -27.501s-32 -10 -50 -10zM1536 1024c18 0 34.667 -3.33301 50 -10s28.833 -15.834 40.5 -27.501s20.834 -25.167 27.501 -40.5s10 -32 10 -50s-3.33301 -34.667 -10 -50s-15.834 -28.833 -27.501 -40.5s-25.167 -20.834 -40.5 -27.501
s-32 -10 -50 -10s-34.667 3.33301 -50 10s-28.833 15.834 -40.5 27.501s-20.834 25.167 -27.501 40.5s-10 32 -10 50s3.33301 34.667 10 50s15.834 28.833 27.501 40.5s25.167 20.834 40.5 27.501s32 10 50 10zM1280 640.002c18 0 34.667 -3.33301 50 -10
s28.833 -15.834 40.5 -27.501s20.834 -25.167 27.501 -40.5s10 -32 10 -50s-3.33301 -34.667 -10 -50s-15.834 -28.833 -27.501 -40.5s-25.167 -20.834 -40.5 -27.501s-32 -10 -50 -10s-34.667 3.33301 -50 10s-28.833 15.834 -40.5 27.501s-20.834 25.167 -27.501 40.5
s-10 32 -10 50s3.33301 34.667 10 50s15.834 28.833 27.501 40.5s25.167 20.834 40.5 27.501s32 10 50 10z" />
    <glyph glyph-name="uniE792" unicode="&#xe792;" 
d="M1848 1152c28 0 54.167 -4.99805 78.5 -14.998s45.5 -23.833 63.5 -41.5s32.167 -38.667 42.5 -63s15.5 -50.5 15.5 -78.5c0 -26 -5 -51.333 -15 -76s-24.333 -46.334 -43 -65.001l-717 -717l-377 -94l94 377l717 716c19.333 19.333 41 33.666 65 42.999s49.333 14 76 14
zM1899 903.002c14 14 21.002 31 21.002 51c0 20.667 -6.83301 37.5 -20.5 50.5s-30.834 19.5 -51.501 19.5c-9.33301 0 -18.333 -1.5 -27 -4.5s-16.334 -7.83301 -23.001 -14.5l-692 -692l-34 -135l135 34zM768.002 512.002h127.998l-128 -128h-475l-165 165v1243
c0 18 3.33301 34.667 10 50s15.834 28.833 27.501 40.5s25.167 20.834 40.5 27.501s32 10 50 10h1280c18 0 34.667 -3.33301 50 -10s28.833 -15.834 40.5 -27.501s20.834 -25.167 27.501 -40.5s10 -32 10 -50v-512l-128 -128v640h-128v-640h-1024v640h-128v-1189l91 -91h37
v512h896v-128l-128 -128v128h-640v-384h128v256h128v-256zM512 1280h768v512h-768v-512z" />
    <glyph glyph-name="uniE793" unicode="&#xe793;" 
d="M960 1536c62 0 120.167 -11.833 174.5 -35.5s101.666 -55.667 141.999 -96s72.333 -87.666 96 -141.999s35.5 -112.5 35.5 -174.5s-11.833 -120.167 -35.5 -174.5s-55.667 -101.666 -96 -141.999s-87.666 -72.333 -141.999 -96s-112.5 -35.5 -174.5 -35.5
s-120.167 11.833 -174.5 35.5s-101.666 55.667 -141.999 96s-72.333 87.666 -96 141.999s-35.5 112.5 -35.5 174.5s11.833 120.167 35.5 174.5s55.667 101.666 96 141.999s87.666 72.333 141.999 96s112.5 35.5 174.5 35.5zM960 768c44 0 85.333 8.5 124 25.5
s72.5 40 101.5 69s52 62.833 69 101.5s25.5 80 25.5 124s-8.5 85.333 -25.5 124s-40 72.5 -69 101.5s-62.833 52 -101.5 69s-80 25.5 -124 25.5c-23.333 0 -44.666 -2.33301 -63.999 -7v-626c19.333 -4.66699 40.666 -7 63.999 -7zM1024 1664h-128v384h128v-384zM896 512
h128v-384h-128v384zM1920 1152v-128h-384v128h384zM384 1024h-384v128h384v-128zM507 1450l-271 272l90 90l272 -271zM1413 726l271 -272l-90 -90l-272 271zM1413 1450l-91 91l272 271l90 -90zM507 726l91 -91l-272 -271l-90 90z" />
    <glyph glyph-name="uniE795" unicode="&#xe795;" 
d="M1600 2048c26.667 0 51.6689 -5.00195 75.002 -15.002s43.666 -23.667 60.999 -41s31 -37.666 41 -60.999s15 -48.333 15 -75v-64h-34c-11.333 0 -22.5 -0.666992 -33.5 -2s-21 -4.16602 -30 -8.49902s-16.333 -10.666 -22 -18.999s-8.5 -19.833 -8.5 -34.5v-832
c0 -18 -3.33301 -34.667 -10 -50s-15.834 -28.833 -27.501 -40.5s-25.167 -20.834 -40.5 -27.501s-32 -10 -50 -10h-256v-512c0 -35.333 -6.66699 -68.5 -20 -99.5s-31.666 -58.167 -54.999 -81.5s-50.5 -41.666 -81.5 -54.999s-64.167 -20 -99.5 -20
s-68.5 6.66699 -99.5 20s-58.167 31.666 -81.5 54.999s-41.666 50.5 -54.999 81.5s-20 64.167 -20 99.5v512h-256c-18 0 -34.667 3.33301 -50 10s-28.833 15.834 -40.5 27.501s-20.834 25.167 -27.501 40.5s-10 32 -10 50v896c0 35.333 6.66699 68.5 20 99.5
s31.666 58.167 54.999 81.5s50.5 41.666 81.5 54.999s64.167 20 99.5 20h960zM1536 895.998l-0.00195312 128h-1024v-128h384v-640c0 -18 3.33301 -34.667 10 -50s15.834 -28.833 27.501 -40.5s25.167 -20.834 40.5 -27.501s32 -10 50 -10s34.667 3.33301 50 10
s28.833 15.834 40.5 27.501s20.834 25.167 27.501 40.5s10 32 10 50v640h384zM1536 1728c0 36.667 9.83398 70.668 29.501 102.001s46.167 55 79.5 71c-5.33301 6.66699 -12 11.5 -20 14.5s-16.333 4.5 -25 4.5h-960c-18 0 -34.667 -3.33301 -50 -10
s-28.833 -15.834 -40.5 -27.501s-20.834 -25.167 -27.501 -40.5s-10 -32 -10 -50v-640h1024v576z" />
    <glyph glyph-name="uniE799" unicode="&#xe799;" 
d="M0 1792h128v-128h-128v128zM0 1536h128v-128h-128v128zM0 1280h128v-128h-128v128zM0 1024h128v-128h-128v128zM0 512h128v-128h-128v128zM256 1792h128v-128h-128v128zM256 512h128v-128h-128v128zM1920 512h128v-128h-128v128zM0 768h128v-128h-128v128zM1920 768h128
v-128h-128v128zM1920 1024h128v-128h-128v128zM1920 1280h128v-128h-128v128zM1920 1536h128v-128h-128v128zM2048 1792v-128h-128v128h128zM1664 512h128v-128h-128v128zM1664 1792h128v-128h-128v128zM512 1792h1024v-1408h-1024v1408zM640 512h768v1152h-768v-1152z" />
    <glyph glyph-name="uniE7A1" unicode="&#xe7a1;" 
d="M1024 2048c94 0 184.667 -12.167 272 -36.5s169 -58.666 245 -102.999s145.167 -97.666 207.5 -159.999s115.666 -131.5 159.999 -207.5s78.666 -157.667 102.999 -245s36.5 -178 36.5 -272s-12.167 -184.667 -36.5 -272s-58.666 -169 -102.999 -245
s-97.666 -145.167 -159.999 -207.5s-131.5 -115.666 -207.5 -159.999s-157.667 -78.666 -245 -102.999s-178 -36.5 -272 -36.5s-184.667 12.167 -272 36.5s-169 58.666 -245 102.999s-145.167 97.666 -207.5 159.999s-115.666 131.5 -159.999 207.5
s-78.666 157.5 -102.999 244.5s-36.5 177.833 -36.5 272.5c0 94 12.167 184.667 36.5 272s58.666 169 102.999 245s97.666 145.167 159.999 207.5s131.5 115.666 207.5 159.999s157.5 78.666 244.5 102.999s177.833 36.5 272.5 36.5zM1024 128
c82 0 161.167 10.6689 237.5 32.002s147.666 51.5 213.999 90.5s126.833 85.833 181.5 140.5s101.5 115.167 140.5 181.5s69.167 137.666 90.5 213.999s32 155.5 32 237.5s-10.667 161.167 -32 237.5s-51.5 147.666 -90.5 213.999s-85.833 126.833 -140.5 181.5
s-115.167 101.5 -181.5 140.5s-137.666 69.167 -213.999 90.5s-155.5 32 -237.5 32c-43.333 0 -86 -3 -128 -9v-1774c42 -6 84.667 -9 128 -9z" />
    <glyph glyph-name="uniE7A6" unicode="&#xe7a6;" 
d="M1152 1536l420.997 -0.00390625l-135.5 140c-43 45.333 -87.833 85.833 -134.5 121.5s-97.5 64.334 -152.5 86.001s-118.5 32.5 -190.5 32.5c-78 0 -151.667 -15.167 -221 -45.5s-130 -71.5 -182 -123.5s-93.167 -112.667 -123.5 -182s-45.5 -143 -45.5 -221
c0 -74.667 14.333 -146.5 43 -215.5s69.334 -129.833 122.001 -182.5l836 -837l-90 -90l-837 836c-64.667 64.667 -114.5 139.5 -149.5 224.5s-52.5 173.167 -52.5 264.5c0 64 8.33301 125.667 25 185s40.334 115 71.001 167s67.334 99.333 110.001 142
s90 79.334 142 110.001s107.667 54.334 167 71.001s121 25 185 25c56 0 107.167 -5.16699 153.5 -15.5s89.333 -24.666 129 -42.999s77 -40.333 112 -66s69.333 -54 103 -85s67.167 -64 100.5 -99l106 -108.5v421h128v-640h-640v128z" />
    <glyph glyph-name="uniE7A7" unicode="&#xe7a7;" 
d="M1088 2044c64 0 125.663 -8.3291 184.996 -24.9961s115 -40.334 167 -71.001s99.333 -67.334 142 -110.001s79.334 -90 110.001 -142s54.334 -107.667 71.001 -167s25 -121 25 -185c0 -91.333 -17.5 -179.5 -52.5 -264.5s-84.833 -159.833 -149.5 -224.5l-837 -836
l-90 90l836 837c52.667 52.667 93.334 113.5 122.001 182.5s43 140.833 43 215.5c0 78 -15.167 151.667 -45.5 221s-71.5 130 -123.5 182s-112.667 93.167 -182 123.5s-143 45.5 -221 45.5c-72 0 -135.5 -10.833 -190.5 -32.5s-105.833 -50.334 -152.5 -86.001
s-91.5 -76.167 -134.5 -121.5l-135.5 -140h421v-128h-640v640h128v-421l105.5 108.5c33.667 35 67.334 68 101.001 99s68 59.333 103 85s72.333 47.667 112 66s82.667 32.666 129 42.999s97.5 15.5 153.5 15.5z" />
    <glyph glyph-name="uniE7AA" unicode="&#xe7aa;" 
d="M1472 1408c-17.333 0 -32.333 6.33301 -45 19s-19 27.667 -19 45s6.33301 32.333 19 45s27.667 19 45 19s32.333 -6.33301 45 -19s19 -27.667 19 -45s-6.33301 -32.333 -19 -45s-27.667 -19 -45 -19zM2048 1536v-1280h-1792v256h-256v1280h1792v-256h256zM1573 640
l-357 358l-166 -166l193 -192h330zM128 1664v-549l320 319l512 -512l256 256l448 -447v933h-1536zM1061 640l-613 614l-320 -321v-293h933zM1920 1408h-128v-896h-1408v-128h1536v1024z" />
    <glyph glyph-name="uniE7AB" unicode="&#xe7ab;" 
d="M1856 1792c26.667 0 51.667 -5.00195 75 -15.002s43.666 -23.667 60.999 -41s31 -37.666 41 -60.999s15 -48.333 15 -75v-1152c0 -26.667 -5 -51.667 -15 -75s-23.667 -43.666 -41 -60.999s-37.666 -31 -60.999 -41s-48.333 -15 -75 -15h-1856v1536h1856zM128 383.998
h128v1280h-128v-1280zM1920 1600c0 17.333 -6.33301 32.333 -19 45s-27.667 19 -45 19h-1472v-1280h1472c17.333 0 32.333 6.33301 45 19s19 27.667 19 45v1152zM768 1408h768v-384h-768v384zM896 1152h512v128h-512v-128z" />
    <glyph glyph-name="uniE7AD" unicode="&#xe7ad;" 
d="M1024 1280c35.333 0 68.5 -6.66699 99.5 -20s58.167 -31.666 81.5 -54.999s41.666 -50.5 54.999 -81.5s20 -64.167 20 -99.5s-6.66699 -68.5 -20 -99.5s-31.666 -58.167 -54.999 -81.5s-50.5 -41.666 -81.5 -54.999s-64.167 -20 -99.5 -20s-68.5 6.66699 -99.5 20
s-58.167 31.666 -81.5 54.999s-41.666 50.5 -54.999 81.5s-20 64.167 -20 99.5s6.66699 68.5 20 99.5s31.666 58.167 54.999 81.5s50.5 41.666 81.5 54.999s64.167 20 99.5 20zM1024 896c18 0 34.667 3.33301 50 10s28.833 15.834 40.5 27.501s20.834 25.167 27.501 40.5
s10 32 10 50s-3.33301 34.667 -10 50s-15.834 28.833 -27.501 40.5s-25.167 20.834 -40.5 27.501s-32 10 -50 10s-34.667 -3.33301 -50 -10s-28.833 -15.834 -40.5 -27.501s-20.834 -25.167 -27.501 -40.5s-10 -32 -10 -50s3.33301 -34.667 10 -50
s15.834 -28.833 27.501 -40.5s25.167 -20.834 40.5 -27.501s32 -10 50 -10zM2048 1024c0 -93.333 -12.3301 -184 -36.9971 -272s-59.834 -170.833 -105.501 -248.5s-101.167 -148.5 -166.5 -212.5s-139 -118.333 -221 -163h274v-128h-512v512h128v-297
c78 36.667 148.5 83.334 211.5 140.001s116.833 120.167 161.5 190.5s79 146.166 103 227.499s36 165 36 251c0 82 -10.667 161.167 -32 237.5s-51.5 147.666 -90.5 213.999s-85.833 126.833 -140.5 181.5s-115.167 101.5 -181.5 140.5s-137.666 69.167 -213.999 90.5
s-155.5 32 -237.5 32s-161.167 -10.667 -237.5 -32s-147.666 -51.5 -213.999 -90.5s-126.833 -85.833 -181.5 -140.5s-101.5 -115.167 -140.5 -181.5s-69.167 -137.666 -90.5 -213.999s-32 -155.5 -32 -237.5h-128c0 94 12.167 184.667 36.5 272s58.666 169 102.999 245
s97.666 145.167 159.999 207.5s131.5 115.666 207.5 159.999s157.5 78.666 244.5 102.999s177.833 36.5 272.5 36.5c94 0 184.667 -12.167 272 -36.5s169 -58.666 245 -102.999s145.167 -97.666 207.5 -159.999s115.666 -131.5 159.999 -207.5s78.666 -157.667 102.999 -245
s36.5 -178 36.5 -272z" />
    <glyph glyph-name="uniE7B0" unicode="&#xe7b0;" 
d="M1472 1152c-17.333 0 -32.333 6.33301 -45 19s-19 27.667 -19 45s6.33301 32.333 19 45s27.667 19 45 19s32.333 -6.33301 45 -19s19 -27.667 19 -45s-6.33301 -32.333 -19 -45s-27.667 -19 -45 -19zM0 1769c160.667 -76.667 327.167 -134.167 499.5 -172.5
s347.166 -57.5 524.499 -57.5s352.166 19.167 524.499 57.5s338.833 95.833 499.5 172.5v-1488c-160.667 76.667 -327.167 134.334 -499.5 173.001s-347.166 58 -524.499 58s-352.166 -19.333 -524.499 -58s-338.833 -96.334 -499.5 -173.001v1488zM128 471
c102 39.333 205.667 71.333 311 96s212.333 42.667 321 54l-312 312l-320 -319v-143zM930 632c16 0.666992 32.168 1.16699 48.501 1.5s32.5 0.5 48.5 0.5c131.333 0 261.666 -10 390.999 -30l-330 329l-229 -229zM1920 614l-192.001 191l-166 -165l83 -83
c46.667 -12 92.834 -25 138.501 -39s91.167 -29.667 136.5 -47v143zM1920 1579c-143.333 -55.333 -290 -97.666 -440 -126.999s-302 -44 -456 -44s-306 14.667 -456 44s-296.667 71.666 -440 126.999v-785l320 321l320 -321l320 321l384 -384l256 256l192 -193v785z" />
    <glyph glyph-name="uniE7B3" unicode="&#xe7b3;" 
d="M1024 1536c100 0 197.333 -13 292 -39s185.5 -61.833 272.5 -107.5s169 -99.834 246 -162.501s148.167 -130.334 213.5 -203.001c-65.333 -73.333 -136.5 -141.166 -213.5 -203.499s-159 -116.333 -246 -162s-177.833 -81.5 -272.5 -107.5s-192 -39 -292 -39
s-197.333 13 -292 39s-185.5 61.833 -272.5 107.5s-169.167 99.667 -246.5 162s-148.333 130.166 -213 203.499c64.667 72.667 135.667 140.334 213 203.001s159.5 116.834 246.5 162.501s177.833 81.5 272.5 107.5s192 39 292 39zM1408 1024
c0 52.667 -10.167 102.334 -30.5 149.001s-47.833 87.334 -82.5 122.001s-75.334 62.167 -122.001 82.5s-96.334 30.5 -149.001 30.5s-102.334 -10.167 -149.001 -30.5s-87.334 -47.833 -122.001 -82.5s-62.167 -75.334 -82.5 -122.001s-30.5 -96.334 -30.5 -149.001
s10.167 -102.334 30.5 -149.001s47.833 -87.334 82.5 -122.001s75.334 -62.167 122.001 -82.5s96.334 -30.5 149.001 -30.5s102.334 10.167 149.001 30.5s87.334 47.833 122.001 82.5s62.167 75.334 82.5 122.001s30.5 96.334 30.5 149.001zM177 1024
c62.667 -60.667 129.334 -116.167 200.001 -166.5s146.334 -92.5 227.001 -126.5c-30 42.667 -52.833 89.167 -68.5 139.5s-23.5 101.5 -23.5 153.5s7.83301 103.167 23.5 153.5s38.5 96.833 68.5 139.5c-80.667 -34 -156.334 -76.167 -227.001 -126.5
s-137.334 -105.833 -200.001 -166.5zM1444 731c80.667 34 156.334 76.167 227.001 126.5s137.334 105.833 200.001 166.5c-62.667 60.667 -129.334 116.167 -200.001 166.5s-146.334 92.5 -227.001 126.5c30 -42.667 52.833 -89.167 68.5 -139.5s23.5 -101.5 23.5 -153.5
s-7.83301 -103.167 -23.5 -153.5s-38.5 -96.833 -68.5 -139.5zM1024 896c-18 0 -34.667 3.33301 -50 10s-28.833 15.834 -40.5 27.501s-20.834 25.167 -27.501 40.5s-10 32 -10 50s3.33301 34.667 10 50s15.834 28.833 27.501 40.5s25.167 20.834 40.5 27.501s32 10 50 10
s34.667 -3.33301 50 -10s28.833 -15.834 40.5 -27.501s20.834 -25.167 27.501 -40.5s10 -32 10 -50s-3.33301 -34.667 -10 -50s-15.834 -28.833 -27.501 -40.5s-25.167 -20.834 -40.5 -27.501s-32 -10 -50 -10z" />
    <glyph glyph-name="uniE7B6" unicode="&#xe7b6;" 
d="M0 896h640v-640h-640v640zM128 384h384v384h-384v-384zM0 1792h640v-640h-640v640zM128 1280h384v384h-384v-384zM2048 1664v-128h-1152v128h1152zM1664 1280h-768v128h768v-128zM896 768h1152v-128h-1152v128zM896 512h768v-128h-768v128z" />
    <glyph glyph-name="uniE7B8" unicode="&#xe7b8;" 
d="M2048 1280h-128v-1152h-1792v1152h-128v640h2048v-640zM1792 1280h-1536v-1024h1536v1024zM1920 1792h-1792v-384h1792v384zM1024 640h-640v128h640v-128zM384 384v128h512v-128h-512z" />
    <glyph glyph-name="uniE7BA" unicode="&#xe7ba;" 
d="M1920 128h-1920l960 1920zM207 256h1506l-753 1506zM1024 1280v-640h-128v640h128zM896 512h128v-128h-128v128z" />
    <glyph glyph-name="uniE7BB" unicode="&#xe7bb;" 
d="M1792 1152h128v-1152h-128v1152zM512 704l128 128v-832h-128v704zM256 448l128 128v-576h-128v448zM768 960l128 128v-1088h-128v960zM1024 1088l128 -128v-959h-128v1087zM1344 768l64 64v-832h-128v832zM1536 960l128 128v-1088h-128v960zM0 192l128 128v-320h-128v192
zM2048 1792v-512h-128v293l-576 -575l-384 384l-960 -961v182l960 959l384 -384l485 486h-293v128h512z" />
    <glyph glyph-name="uniE7BE" unicode="&#xe7be;" 
d="M1582 983c27.333 -48 47.833 -98.167 61.5 -150.5s20.5 -105.833 20.5 -160.5v-103l-640 -321l-640 321c0 40 0.5 77.333 1.5 112s4 68.5 9 101.5s13 65.667 24 98s26.833 66.5 47.5 102.5l-210 105v-587c19.333 -6.66699 36.833 -16 52.5 -28s29.167 -26 40.5 -42
s20 -33.5 26 -52.5s9 -38.5 9 -58.5v-320h-384v320c0 20 3 39.5 9 58.5s14.667 36.5 26 52.5s24.833 30 40.5 42s33.167 21.333 52.5 28v651l-128 64l1024 512l1024 -512zM256 320c0 17.333 -6.33301 32.333 -19 45s-27.667 19 -45 19s-32.333 -6.33301 -45 -19
s-19 -27.667 -19 -45v-192h128v192zM286 1216l738 -369l738 369l-738 369zM1536 648c0 51.333 -5 99.168 -15 143.501s-27.667 89.166 -53 134.499l-444 -222l-444 222c-22 -38.667 -38.833 -79.5 -50.5 -122.5s-17.5 -86.833 -17.5 -131.5v-24l512 -256z" />
    <glyph glyph-name="uniE7BF" unicode="&#xe7bf;" 
d="M1600 512c26.667 0 51.6641 -5.00098 74.9971 -15.001s43.666 -23.667 60.999 -41s31 -37.666 41 -60.999s15 -48.333 15 -75s-5 -51.667 -15 -75s-23.667 -43.666 -41 -60.999s-37.666 -31 -60.999 -41s-48.333 -15 -75 -15s-51.667 5 -75 15s-43.666 23.667 -60.999 41
s-31 37.666 -41 60.999s-15 48.333 -15 75c0 20.667 3.66699 42 11 64h-534c7.33301 -22 11 -43.333 11 -64c0 -26.667 -5 -51.667 -15 -75s-23.667 -43.666 -41 -60.999s-37.666 -31 -60.999 -41s-48.333 -15 -75 -15s-51.667 5 -75 15s-43.666 23.667 -60.999 41
s-31 37.666 -41 60.999s-15 48.333 -15 75c0 36.667 9.83301 70.667 29.5 102s46.167 55 79.5 71l-432 1299h-189v128h281l85 -256h1682l-298 -896h-1085l85 -256h850zM408.997 1536l213 -640h1035l213 640h-1461zM767.997 319.999c0 17.333 -6.33301 32.333 -19 45
s-27.667 19 -45 19s-32.333 -6.33301 -45 -19s-19 -27.667 -19 -45s6.33301 -32.333 19 -45s27.667 -19 45 -19s32.333 6.33301 45 19s19 27.667 19 45zM1600 255.999c17.333 0 32.333 6.33301 45 19s19 27.667 19 45s-6.33301 32.333 -19 45s-27.667 19 -45 19
s-32.333 -6.33301 -45 -19s-19 -27.667 -19 -45s6.33301 -32.333 19 -45s27.667 -19 45 -19z" />
    <glyph glyph-name="uniE7C0" unicode="&#xe7c0;" 
d="M576 512c-17.333 0 -32.333 6.33301 -45 19s-19 27.667 -19 45s6.33301 32.333 19 45s27.667 19 45 19s32.333 -6.33301 45 -19s19 -27.667 19 -45s-6.33301 -32.333 -19 -45s-27.667 -19 -45 -19zM1472 512c-17.333 0 -32.333 6.33301 -45 19s-19 27.667 -19 45
s6.33301 32.333 19 45s27.667 19 45 19s32.333 -6.33301 45 -19s19 -27.667 19 -45s-6.33301 -32.333 -19 -45s-27.667 -19 -45 -19zM1280 1664h-512v128h512v-128zM1445 256h-842l-256 -256h-182l258 258c-23.333 2.66699 -45.166 9.66699 -65.499 21s-38 25.5 -53 42.5
s-26.833 36.333 -35.5 58s-13 44.5 -13 68.5v1408c0 26.667 5 51.667 15 75s23.667 43.666 41 60.999s37.666 31 60.999 41s48.333 15 75 15h1152c26.667 0 51.667 -5 75 -15s43.666 -23.667 60.999 -41s31 -37.666 41 -60.999s15 -48.333 15 -75v-1408
c0 -24 -4.33301 -46.833 -13 -68.5s-20.5 -41 -35.5 -58s-32.667 -31.167 -53 -42.5s-42.166 -18.333 -65.499 -21l258 -258h-182zM1664 1408h-1280v-512h1280v512zM448 1920c-17.333 0 -32.333 -6.33301 -45 -19s-19 -27.667 -19 -45v-320h1280v320
c0 17.333 -6.33301 32.333 -19 45s-27.667 19 -45 19h-1152zM384 448c0 -17.333 6.33301 -32.333 19 -45s27.667 -19 45 -19h1152c17.333 0 32.333 6.33301 45 19s19 27.667 19 45v320h-1280v-320z" />
    <glyph glyph-name="uniE7C1" unicode="&#xe7c1;" 
d="M1920 1792v-1024h-896v256h-640v-1024h-128v2048h896v-256h768zM1024 1152v768h-640v-768h640zM1792 1664h-640v-768h640v768z" />
    <glyph glyph-name="uniE7C2" unicode="&#xe7c2;" 
d="M245 1024l206 -205l-91 -91l-360 360l360 360l91 -91l-206 -205h395v-128h-395zM1920 1088l-356 -355l-90 90l201 201h-395v128h395l-206 205l91 91zM695 1602l-90 90l355 356l360 -360l-91 -91l-205 206v-395h-128v395zM1229 579l91 -91l-360 -360l-360 360l91 91
l205 -206v395h128v-395z" />
    <glyph glyph-name="uniE7C3" unicode="&#xe7c3;" 
d="M1792 1499v-1499h-1664v2048h1115zM1280 1536h293l-293 293v-293zM1664 128v1280h-512v512h-896v-1792h1408z" />
    <glyph glyph-name="uniE7C9" unicode="&#xe7c9;" 
d="M1856 1280c26.667 0 51.6719 -5.00098 75.0049 -15.001s43.666 -23.667 60.999 -41s31 -37.666 41 -60.999s15 -48.333 15 -75v-384c0 -79.333 -15.167 -154 -45.5 -224s-71.5 -131 -123.5 -183s-113 -93.167 -183 -123.5s-144.667 -45.5 -224 -45.5
c-94 0 -182.833 18.5 -266.5 55.5s-159.5 89.167 -227.5 156.5l-319 318l-272 -136l-138 277l-249 -250v1334l896 -896v741c0 26.667 5 51.667 15 75s23.667 43.666 41 60.999s37.666 31 60.999 41s48.333 15 75 15s51.667 -5 75 -15s43.666 -23.667 60.999 -41
s31 -37.666 41 -60.999s15 -48.333 15 -75v-331c18 6.66699 37.667 10 59 10c32.667 0 64.334 -7.83301 95.001 -23.5s54.667 -37.167 72 -64.5c29.333 16.667 60.666 25 93.999 25c34 0 65.167 -8 93.5 -24s51.166 -37.667 68.499 -65c29.333 16.667 60.666 25 93.999 25z
M424.005 1088h190l-486 485v-714l156 156l161 -321l141 71zM1920 1088c0 17.333 -6.33301 32.334 -19 45.001s-27.667 19 -45 19s-32.333 -6.33301 -45 -19s-19 -27.667 -19 -45v-128c0 -17.333 -6.33301 -32.333 -19 -45s-27.667 -19 -45 -19s-32.333 6.33301 -45 19
s-19 27.667 -19 45v192c0 17.333 -6.33301 32.333 -19 45s-27.667 19 -45 19s-32.333 -6.33301 -45 -19s-19 -27.667 -19 -45v-128c0 -17.333 -6.33301 -32.333 -19 -45s-27.667 -19 -45 -19s-32.333 6.33301 -45 19s-19 27.667 -19 45v192c0 17.333 -6.33301 32.333 -19 45
s-27.667 19 -45 19s-32.333 -6.33301 -45 -19s-19 -27.667 -19 -45v-128c0 -17.333 -6.33301 -32.333 -19 -45s-27.667 -19 -45 -19s-32.333 6.33301 -45 19s-19 27.667 -19 45v640c0 17.333 -6.33301 32.333 -19 45s-27.667 19 -45 19s-32.333 -6.33301 -45 -19
s-19 -27.667 -19 -45v-787c0 -22 -6 -42.167 -18 -60.5s-28.333 -31.833 -49 -40.5c-12.667 -5.33301 -26.667 -8 -42 -8c-29.333 0 -55.333 10.667 -78 32l-75 75c-14 14 -30.667 21 -50 21c-20 0 -37 -7 -51 -21c-7.33301 -7.33301 -12.666 -15.333 -15.999 -24
s-5 -17.667 -5 -27c0 -20 7 -37 21 -51l408 -408c54 -56.667 115.5 -99.667 184.5 -129s141.833 -44 218.5 -44c62 0 120.167 11.833 174.5 35.5s101.666 55.667 141.999 96s72.333 87.666 96 141.999s35.5 112.5 35.5 174.5v384z" />
    <glyph glyph-name="uniE7D5" unicode="&#xe7d5;" 
d="M1792 256l-0.00195312 -256.001h-43c-150 0 -286.333 40.667 -409 122c-108.667 71.333 -201.667 171.666 -279 300.999c-14.667 24.667 -28.667 50 -42 76s-26 53 -38 81c-11.333 -28 -23.666 -55 -36.999 -81s-27.333 -51.333 -42 -76
c-77.333 -129.333 -170.333 -229.666 -279 -300.999c-123.333 -81.333 -260 -122 -410 -122h-42v256h42c194 0 350.333 99.333 469 298c27.333 45.333 51.666 94.666 72.999 147.999s39.166 109.166 53.499 167.499s25.333 118.333 33 180s11.5 124.167 11.5 187.5v399
l-240 -60c-5.33301 -1.33301 -9.66602 -2 -12.999 -2c-13.333 0 -24.166 5 -32.499 15s-12.5 21 -12.5 33c0 12.667 4.66699 23.667 14 33l379 379c9.33301 9.33301 20.333 14 33 14c12 0 23.333 -4.66699 34 -14l379 -379c9.33301 -9.33301 14 -20.666 14 -33.999
c0 -12 -4.33301 -22.833 -13 -32.5s-19.667 -14.5 -33 -14.5c-3.33301 0 -7.66602 0.666992 -12.999 2l-240 60v-399c0 -63.333 3.83301 -125.833 11.5 -187.5s18.834 -121.667 33.501 -180s32.667 -114.166 54 -167.499s45.666 -102.666 72.999 -147.999
c118.667 -198.667 274.667 -298 468 -298h43z" />
    <glyph glyph-name="uniE7DB" unicode="&#xe7db;" 
d="M1451 2005c6 0 20.668 -9.66992 44.001 -29.0029s50.833 -43.666 82.5 -72.999l100 -97l97 -100c29.667 -31.333 54.167 -58.833 73.5 -82.5s29 -38.5 29 -44.5c0 -4.66699 -5.66699 -14.334 -17 -29.001s-26.166 -32.5 -44.499 -53.5l-63.5 -69.5l-74.5 -76l-76 -74
l-68.5 -63.5c-20.667 -18.333 -38.334 -33.166 -53.001 -44.499s-24.334 -17 -29.001 -17c-13.333 0 -24.5 4.83301 -33.5 14.5s-13.5 21.167 -13.5 34.5c0 2 1.33301 9 4 21l10 43.5l13.5 55l14.5 56l12 47c3.33301 13.667 5.66602 22.834 6.99902 27.501h-740
c-17.333 0 -33.666 -3.5 -48.999 -10.5s-28.833 -16.333 -40.5 -28s-21 -25.167 -28 -40.5s-10.5 -31.666 -10.5 -48.999v-1323h-256v1323c0 52.667 10.167 102.167 30.5 148.5s48 87 83 122s75.667 62.667 122 83s95.833 30.5 148.5 30.5h740l-7 28l-12 46.5l-14.5 56
l-13.5 55l-10 43.5c-2.66699 12 -4 19.333 -4 22c0 13.333 4.5 24.5 13.5 33.5s20.167 13.5 33.5 13.5z" />
    <glyph glyph-name="uniE7E3" unicode="&#xe7e3;" 
d="M1768 256h151.995v-128h-216c-21.333 -42 -46.166 -73.833 -74.499 -95.5s-59.5 -32.5 -93.5 -32.5c-36 0 -70.5 7.16699 -103.5 21.5s-62.167 35.166 -87.5 62.499c-13.333 14 -28.166 24.833 -44.499 32.5s-33.833 11.5 -52.5 11.5
c-37.333 0 -69.666 -14.667 -96.999 -44c-25.333 -27.333 -54.5 -48.166 -87.5 -62.499s-67.5 -21.5 -103.5 -21.5s-70.5 7.16699 -103.5 21.5s-62.167 35.166 -87.5 62.499c-13.333 14 -28.333 24.833 -45 32.5s-34 11.5 -52 11.5c-37.333 0 -69.666 -14.667 -96.999 -44
c-25.333 -27.333 -54.5 -48.166 -87.5 -62.499s-67.5 -21.5 -103.5 -21.5c-34 -0 -65.167 10.833 -93.5 32.5s-53.166 53.5 -74.499 95.5h-216v128h152l-152 305v157l256 85v477h152l128 256h232v256h384v-256h232l128 -256h152v-477l256 -85v-157zM895.995 1536h128v128
h-128v-128zM551.995 1280h816l-64 128h-688zM383.995 846l576 192l576 -192v306h-1152v-306zM862.995 172c10 -11.333 21 -20.332 33 -26.999v737l-768 -256v-35l202 -403c10 -20.667 20 -35.834 30 -45.501s18 -14.5 24 -14.5c18 0 35.333 3.83301 52 11.5
s31.667 18.5 45 32.5c25.333 27.333 54.5 48.166 87.5 62.499s67.5 21.5 103.5 21.5s70.5 -7.16699 103.5 -21.5s62.167 -35.166 87.5 -62.499zM1792 591.001l0.000976562 34.999l-768 256v-737c12 6.66699 23 15.667 33 27c25.333 27.333 54.5 48.166 87.5 62.499
s67.5 21.5 103.5 21.5s70.5 -7.16699 103.5 -21.5s62.167 -35.166 87.5 -62.499c27.333 -29.333 59.666 -44 96.999 -44c6 0 14 4.83301 24 14.5s20 24.834 30 45.501z" />
    </font>
</defs>
</svg>
