<svg width="181" height="180" viewBox="0 0 181 180" fill="none" xmlns="http://www.w3.org/2000/svg">
<rect x="96.668" y="-0.000732422" width="66.667" height="66.667" fill="#00B7C3"/>
<circle cx="114.999" cy="19.1661" r="0.833337" fill="#4F6BED"/>
<circle cx="114.999" cy="31.6659" r="0.833337" fill="#4F6BED"/>
<circle cx="114.999" cy="44.1661" r="0.833337" fill="#4F6BED"/>
<circle cx="114.999" cy="56.6661" r="0.833337" fill="#4F6BED"/>
<circle cx="114.999" cy="69.1663" r="0.833337" fill="#4F6BED"/>
<circle cx="114.999" cy="81.6663" r="0.833337" fill="#4F6BED"/>
<circle cx="127.501" cy="19.1661" r="0.833337" fill="#4F6BED"/>
<circle cx="127.501" cy="31.6659" r="0.833337" fill="#4F6BED"/>
<circle cx="127.501" cy="44.1661" r="0.833337" fill="#4F6BED"/>
<circle cx="127.501" cy="56.6661" r="0.833337" fill="#4F6BED"/>
<circle cx="127.501" cy="69.1663" r="0.833337" fill="#4F6BED"/>
<circle cx="127.501" cy="81.6663" r="0.833337" fill="#4F6BED"/>
<circle cx="140.001" cy="19.1661" r="0.833337" fill="#4F6BED"/>
<circle cx="140.001" cy="31.6659" r="0.833337" fill="#4F6BED"/>
<circle cx="140.001" cy="44.1661" r="0.833337" fill="#4F6BED"/>
<circle cx="140.001" cy="56.6661" r="0.833337" fill="#4F6BED"/>
<circle cx="140.001" cy="69.1663" r="0.833337" fill="#4F6BED"/>
<circle cx="140.001" cy="81.6663" r="0.833337" fill="#4F6BED"/>
<circle cx="152.501" cy="19.1661" r="0.833337" fill="#4F6BED"/>
<circle cx="152.501" cy="31.6659" r="0.833337" fill="#4F6BED"/>
<circle cx="152.501" cy="44.1661" r="0.833337" fill="#4F6BED"/>
<circle cx="152.501" cy="56.6661" r="0.833337" fill="#4F6BED"/>
<circle cx="152.501" cy="69.1663" r="0.833337" fill="#4F6BED"/>
<circle cx="152.501" cy="81.6663" r="0.833337" fill="#4F6BED"/>
<circle cx="165.001" cy="19.1661" r="0.833337" fill="#4F6BED"/>
<circle cx="165.001" cy="31.6659" r="0.833337" fill="#4F6BED"/>
<circle cx="165.001" cy="44.1661" r="0.833337" fill="#4F6BED"/>
<circle cx="165.001" cy="56.6661" r="0.833337" fill="#4F6BED"/>
<circle cx="165.001" cy="69.1663" r="0.833337" fill="#4F6BED"/>
<circle cx="165.001" cy="81.6663" r="0.833337" fill="#4F6BED"/>
<circle cx="177.501" cy="19.1661" r="0.833337" fill="#4F6BED"/>
<circle cx="177.501" cy="31.6659" r="0.833337" fill="#4F6BED"/>
<circle cx="177.501" cy="44.1661" r="0.833337" fill="#4F6BED"/>
<circle cx="177.501" cy="56.6661" r="0.833337" fill="#4F6BED"/>
<circle cx="177.501" cy="69.1663" r="0.833337" fill="#4F6BED"/>
<circle cx="177.501" cy="81.6663" r="0.833337" fill="#4F6BED"/>
<rect y="96.6663" width="66.667" height="66.667" fill="#4F6BED"/>
<rect x="16.666" y="180" width="1.66667" height="66.667" transform="rotate(-90 16.666 180)" fill="#004E8C"/>
<rect x="16.666" y="175" width="1.66667" height="66.667" transform="rotate(-90 16.666 175)" fill="#004E8C"/>
<rect x="16.666" y="170" width="1.66667" height="66.667" transform="rotate(-90 16.666 170)" fill="#004E8C"/>
<rect x="16.666" y="165" width="1.66667" height="66.667" transform="rotate(-90 16.666 165)" fill="#004E8C"/>
<rect x="16.666" y="160" width="1.66667" height="66.667" transform="rotate(-90 16.666 160)" fill="#004E8C"/>
<rect x="16.666" y="155" width="1.66667" height="66.667" transform="rotate(-90 16.666 155)" fill="#004E8C"/>
<rect x="16.666" y="150" width="1.66667" height="66.667" transform="rotate(-90 16.666 150)" fill="#004E8C"/>
<rect x="16.666" y="145" width="1.66667" height="66.667" transform="rotate(-90 16.666 145)" fill="#004E8C"/>
<rect x="16.666" y="140" width="1.66667" height="66.667" transform="rotate(-90 16.666 140)" fill="#004E8C"/>
<rect x="16.666" y="135" width="1.66667" height="66.667" transform="rotate(-90 16.666 135)" fill="#004E8C"/>
<rect x="16.666" y="130" width="1.66667" height="66.667" transform="rotate(-90 16.666 130)" fill="#004E8C"/>
<rect x="16.666" y="125" width="1.66667" height="66.667" transform="rotate(-90 16.666 125)" fill="#004E8C"/>
<rect x="16.666" y="120" width="1.66667" height="66.667" transform="rotate(-90 16.666 120)" fill="#004E8C"/>
<rect x="16.666" y="115" width="1.66667" height="66.667" transform="rotate(-90 16.666 115)" fill="#004E8C"/>
<circle cx="33.3335" cy="33.3327" r="33.3335" fill="#0078D4"/>
<mask id="mask0" mask-type="alpha" maskUnits="userSpaceOnUse" x="16" y="16" width="68" height="68">
<circle cx="49.9995" cy="49.9995" r="33.3335" fill="white"/>
</mask>
<g mask="url(#mask0)">
<rect x="2.86133" y="49.9998" width="1.66667" height="66.667" transform="rotate(-45 2.86133 49.9998)" fill="#50E6FF"/>
<rect x="6.39648" y="46.4639" width="1.66667" height="66.667" transform="rotate(-45 6.39648 46.4639)" fill="#50E6FF"/>
<rect x="9.92969" y="42.9282" width="1.66667" height="66.667" transform="rotate(-45 9.92969 42.9282)" fill="#50E6FF"/>
<rect x="13.4688" y="39.3926" width="1.66667" height="66.667" transform="rotate(-45 13.4688 39.3926)" fill="#50E6FF"/>
<rect x="17.002" y="35.8574" width="1.66667" height="66.667" transform="rotate(-45 17.002 35.8574)" fill="#50E6FF"/>
<rect x="20.5391" y="32.3218" width="1.66667" height="66.667" transform="rotate(-45 20.5391 32.3218)" fill="#50E6FF"/>
<rect x="24.0723" y="28.7861" width="1.66667" height="66.667" transform="rotate(-45 24.0723 28.7861)" fill="#50E6FF"/>
<rect x="27.6113" y="25.2505" width="1.66667" height="66.667" transform="rotate(-45 27.6113 25.2505)" fill="#50E6FF"/>
<rect x="31.1445" y="21.7151" width="1.66667" height="66.667" transform="rotate(-45 31.1445 21.7151)" fill="#50E6FF"/>
<rect x="34.6797" y="18.1794" width="1.66667" height="66.667" transform="rotate(-45 34.6797 18.1794)" fill="#50E6FF"/>
<rect x="38.2148" y="14.6438" width="1.66667" height="66.667" transform="rotate(-45 38.2148 14.6438)" fill="#50E6FF"/>
<rect x="41.752" y="11.1084" width="1.66667" height="66.667" transform="rotate(-45 41.752 11.1084)" fill="#50E6FF"/>
<rect x="45.2871" y="7.57275" width="1.66667" height="66.667" transform="rotate(-45 45.2871 7.57275)" fill="#50E6FF"/>
<rect x="48.8223" y="4.03711" width="1.66667" height="66.667" transform="rotate(-45 48.8223 4.03711)" fill="#50E6FF"/>
</g>
<circle cx="130.001" cy="130" r="33.3335" fill="#004E8C"/>
<mask id="mask1" mask-type="alpha" maskUnits="userSpaceOnUse" x="113" y="113" width="68" height="68">
<circle cx="146.667" cy="146.667" r="33.3335" fill="#4F6BED"/>
</mask>
<g mask="url(#mask1)">
<circle cx="114.999" cy="115.833" r="0.833337" fill="#FCE100"/>
<circle cx="114.999" cy="120" r="0.833337" fill="#FCE100"/>
<circle cx="114.999" cy="124.166" r="0.833337" fill="#FCE100"/>
<circle cx="114.999" cy="128.333" r="0.833337" fill="#FCE100"/>
<circle cx="114.999" cy="132.5" r="0.833337" fill="#FCE100"/>
<circle cx="114.999" cy="136.667" r="0.833337" fill="#FCE100"/>
<circle cx="114.999" cy="140.833" r="0.833337" fill="#FCE100"/>
<circle cx="114.999" cy="145" r="0.833337" fill="#FCE100"/>
<circle cx="114.999" cy="149.167" r="0.833337" fill="#FCE100"/>
<circle cx="114.999" cy="153.333" r="0.833337" fill="#FCE100"/>
<circle cx="114.999" cy="157.5" r="0.833337" fill="#FCE100"/>
<circle cx="114.999" cy="161.667" r="0.833337" fill="#FCE100"/>
<circle cx="114.999" cy="165.833" r="0.833337" fill="#FCE100"/>
<circle cx="114.999" cy="170" r="0.833337" fill="#FCE100"/>
<circle cx="114.999" cy="174.167" r="0.833337" fill="#FCE100"/>
<circle cx="114.999" cy="178.333" r="0.833337" fill="#FCE100"/>
<circle cx="119.167" cy="115.833" r="0.833337" fill="#FCE100"/>
<circle cx="119.167" cy="120" r="0.833337" fill="#FCE100"/>
<circle cx="119.167" cy="124.166" r="0.833337" fill="#FCE100"/>
<circle cx="119.167" cy="128.333" r="0.833337" fill="#FCE100"/>
<circle cx="119.167" cy="132.5" r="0.833337" fill="#FCE100"/>
<circle cx="119.167" cy="136.667" r="0.833337" fill="#FCE100"/>
<circle cx="119.167" cy="140.833" r="0.833337" fill="#FCE100"/>
<circle cx="119.167" cy="145" r="0.833337" fill="#FCE100"/>
<circle cx="119.167" cy="149.167" r="0.833337" fill="#FCE100"/>
<circle cx="119.167" cy="153.333" r="0.833337" fill="#FCE100"/>
<circle cx="119.167" cy="157.5" r="0.833337" fill="#FCE100"/>
<circle cx="119.167" cy="161.667" r="0.833337" fill="#FCE100"/>
<circle cx="119.167" cy="165.833" r="0.833337" fill="#FCE100"/>
<circle cx="119.167" cy="170" r="0.833337" fill="#FCE100"/>
<circle cx="119.167" cy="174.167" r="0.833337" fill="#FCE100"/>
<circle cx="119.167" cy="178.333" r="0.833337" fill="#FCE100"/>
<circle cx="123.333" cy="115.833" r="0.833337" fill="#FCE100"/>
<circle cx="123.333" cy="120" r="0.833337" fill="#FCE100"/>
<circle cx="123.333" cy="124.166" r="0.833337" fill="#FCE100"/>
<circle cx="123.333" cy="128.333" r="0.833337" fill="#FCE100"/>
<circle cx="123.333" cy="132.5" r="0.833337" fill="#FCE100"/>
<circle cx="123.333" cy="136.667" r="0.833337" fill="#FCE100"/>
<circle cx="123.333" cy="140.833" r="0.833337" fill="#FCE100"/>
<circle cx="123.333" cy="145" r="0.833337" fill="#FCE100"/>
<circle cx="123.333" cy="149.167" r="0.833337" fill="#FCE100"/>
<circle cx="123.333" cy="153.333" r="0.833337" fill="#FCE100"/>
<circle cx="123.333" cy="157.5" r="0.833337" fill="#FCE100"/>
<circle cx="123.333" cy="161.667" r="0.833337" fill="#FCE100"/>
<circle cx="123.333" cy="165.833" r="0.833337" fill="#FCE100"/>
<circle cx="123.333" cy="170" r="0.833337" fill="#FCE100"/>
<circle cx="123.333" cy="174.167" r="0.833337" fill="#FCE100"/>
<circle cx="123.333" cy="178.333" r="0.833337" fill="#FCE100"/>
<circle cx="127.501" cy="115.833" r="0.833337" fill="#FCE100"/>
<circle cx="127.501" cy="120" r="0.833337" fill="#FCE100"/>
<circle cx="127.501" cy="124.166" r="0.833337" fill="#FCE100"/>
<circle cx="127.501" cy="128.333" r="0.833337" fill="#FCE100"/>
<circle cx="127.501" cy="132.5" r="0.833337" fill="#FCE100"/>
<circle cx="127.501" cy="136.667" r="0.833337" fill="#FCE100"/>
<circle cx="127.501" cy="140.833" r="0.833337" fill="#FCE100"/>
<circle cx="127.501" cy="145" r="0.833337" fill="#FCE100"/>
<circle cx="127.501" cy="149.167" r="0.833337" fill="#FCE100"/>
<circle cx="127.501" cy="153.333" r="0.833337" fill="#FCE100"/>
<circle cx="127.501" cy="157.5" r="0.833337" fill="#FCE100"/>
<circle cx="127.501" cy="161.667" r="0.833337" fill="#FCE100"/>
<circle cx="127.501" cy="165.833" r="0.833337" fill="#FCE100"/>
<circle cx="127.501" cy="170" r="0.833337" fill="#FCE100"/>
<circle cx="127.501" cy="174.167" r="0.833337" fill="#FCE100"/>
<circle cx="127.501" cy="178.333" r="0.833337" fill="#FCE100"/>
<circle cx="131.665" cy="115.833" r="0.833337" fill="#FCE100"/>
<circle cx="131.665" cy="120" r="0.833337" fill="#FCE100"/>
<circle cx="131.665" cy="124.166" r="0.833337" fill="#FCE100"/>
<circle cx="131.665" cy="128.333" r="0.833337" fill="#FCE100"/>
<circle cx="131.665" cy="132.5" r="0.833337" fill="#FCE100"/>
<circle cx="131.665" cy="136.667" r="0.833337" fill="#FCE100"/>
<circle cx="131.665" cy="140.833" r="0.833337" fill="#FCE100"/>
<circle cx="131.665" cy="145" r="0.833337" fill="#FCE100"/>
<circle cx="131.665" cy="149.167" r="0.833337" fill="#FCE100"/>
<circle cx="131.665" cy="153.333" r="0.833337" fill="#FCE100"/>
<circle cx="131.665" cy="157.5" r="0.833337" fill="#FCE100"/>
<circle cx="131.665" cy="161.667" r="0.833337" fill="#FCE100"/>
<circle cx="131.665" cy="165.833" r="0.833337" fill="#FCE100"/>
<circle cx="131.665" cy="170" r="0.833337" fill="#FCE100"/>
<circle cx="131.665" cy="174.167" r="0.833337" fill="#FCE100"/>
<circle cx="131.665" cy="178.333" r="0.833337" fill="#FCE100"/>
<circle cx="135.833" cy="115.833" r="0.833337" fill="#FCE100"/>
<circle cx="135.833" cy="120" r="0.833337" fill="#FCE100"/>
<circle cx="135.833" cy="124.166" r="0.833337" fill="#FCE100"/>
<circle cx="135.833" cy="128.333" r="0.833337" fill="#FCE100"/>
<circle cx="135.833" cy="132.5" r="0.833337" fill="#FCE100"/>
<circle cx="135.833" cy="136.667" r="0.833337" fill="#FCE100"/>
<circle cx="135.833" cy="140.833" r="0.833337" fill="#FCE100"/>
<circle cx="135.833" cy="145" r="0.833337" fill="#FCE100"/>
<circle cx="135.833" cy="149.167" r="0.833337" fill="#FCE100"/>
<circle cx="135.833" cy="153.333" r="0.833337" fill="#FCE100"/>
<circle cx="135.833" cy="157.5" r="0.833337" fill="#FCE100"/>
<circle cx="135.833" cy="161.667" r="0.833337" fill="#FCE100"/>
<circle cx="135.833" cy="165.833" r="0.833337" fill="#FCE100"/>
<circle cx="135.833" cy="170" r="0.833337" fill="#FCE100"/>
<circle cx="135.833" cy="174.167" r="0.833337" fill="#FCE100"/>
<circle cx="135.833" cy="178.333" r="0.833337" fill="#FCE100"/>
<circle cx="140.001" cy="115.833" r="0.833337" fill="#FCE100"/>
<circle cx="140.001" cy="120" r="0.833337" fill="#FCE100"/>
<circle cx="140.001" cy="124.166" r="0.833337" fill="#FCE100"/>
<circle cx="140.001" cy="128.333" r="0.833337" fill="#FCE100"/>
<circle cx="140.001" cy="132.5" r="0.833337" fill="#FCE100"/>
<circle cx="140.001" cy="136.667" r="0.833337" fill="#FCE100"/>
<circle cx="140.001" cy="140.833" r="0.833337" fill="#FCE100"/>
<circle cx="140.001" cy="145" r="0.833337" fill="#FCE100"/>
<circle cx="140.001" cy="149.167" r="0.833337" fill="#FCE100"/>
<circle cx="140.001" cy="153.333" r="0.833337" fill="#FCE100"/>
<circle cx="140.001" cy="157.5" r="0.833337" fill="#FCE100"/>
<circle cx="140.001" cy="161.667" r="0.833337" fill="#FCE100"/>
<circle cx="140.001" cy="165.833" r="0.833337" fill="#FCE100"/>
<circle cx="140.001" cy="170" r="0.833337" fill="#FCE100"/>
<circle cx="140.001" cy="174.167" r="0.833337" fill="#FCE100"/>
<circle cx="140.001" cy="178.333" r="0.833337" fill="#FCE100"/>
<circle cx="144.167" cy="115.833" r="0.833337" fill="#FCE100"/>
<circle cx="144.167" cy="120" r="0.833337" fill="#FCE100"/>
<circle cx="144.167" cy="124.166" r="0.833337" fill="#FCE100"/>
<circle cx="144.167" cy="128.333" r="0.833337" fill="#FCE100"/>
<circle cx="144.167" cy="132.5" r="0.833337" fill="#FCE100"/>
<circle cx="144.167" cy="136.667" r="0.833337" fill="#FCE100"/>
<circle cx="144.167" cy="140.833" r="0.833337" fill="#FCE100"/>
<circle cx="144.167" cy="145" r="0.833337" fill="#FCE100"/>
<circle cx="144.167" cy="149.167" r="0.833337" fill="#FCE100"/>
<circle cx="144.167" cy="153.333" r="0.833337" fill="#FCE100"/>
<circle cx="144.167" cy="157.5" r="0.833337" fill="#FCE100"/>
<circle cx="144.167" cy="161.667" r="0.833337" fill="#FCE100"/>
<circle cx="144.167" cy="165.833" r="0.833337" fill="#FCE100"/>
<circle cx="144.167" cy="170" r="0.833337" fill="#FCE100"/>
<circle cx="144.167" cy="174.167" r="0.833337" fill="#FCE100"/>
<circle cx="144.167" cy="178.333" r="0.833337" fill="#FCE100"/>
<circle cx="148.335" cy="115.833" r="0.833337" fill="#FCE100"/>
<circle cx="148.335" cy="120" r="0.833337" fill="#FCE100"/>
<circle cx="148.335" cy="124.166" r="0.833337" fill="#FCE100"/>
<circle cx="148.335" cy="128.333" r="0.833337" fill="#FCE100"/>
<circle cx="148.335" cy="132.5" r="0.833337" fill="#FCE100"/>
<circle cx="148.335" cy="136.667" r="0.833337" fill="#FCE100"/>
<circle cx="148.335" cy="140.833" r="0.833337" fill="#FCE100"/>
<circle cx="148.335" cy="145" r="0.833337" fill="#FCE100"/>
<circle cx="148.335" cy="149.167" r="0.833337" fill="#FCE100"/>
<circle cx="148.335" cy="153.333" r="0.833337" fill="#FCE100"/>
<circle cx="148.335" cy="157.5" r="0.833337" fill="#FCE100"/>
<circle cx="148.335" cy="161.667" r="0.833337" fill="#FCE100"/>
<circle cx="148.335" cy="165.833" r="0.833337" fill="#FCE100"/>
<circle cx="148.335" cy="170" r="0.833337" fill="#FCE100"/>
<circle cx="148.335" cy="174.167" r="0.833337" fill="#FCE100"/>
<circle cx="148.335" cy="178.333" r="0.833337" fill="#FCE100"/>
<circle cx="152.501" cy="115.833" r="0.833337" fill="#FCE100"/>
<circle cx="152.501" cy="120" r="0.833337" fill="#FCE100"/>
<circle cx="152.501" cy="124.166" r="0.833337" fill="#FCE100"/>
<circle cx="152.501" cy="128.333" r="0.833337" fill="#FCE100"/>
<circle cx="152.501" cy="132.5" r="0.833337" fill="#FCE100"/>
<circle cx="152.501" cy="136.667" r="0.833337" fill="#FCE100"/>
<circle cx="152.501" cy="140.833" r="0.833337" fill="#FCE100"/>
<circle cx="152.501" cy="145" r="0.833337" fill="#FCE100"/>
<circle cx="152.501" cy="149.167" r="0.833337" fill="#FCE100"/>
<circle cx="152.501" cy="153.333" r="0.833337" fill="#FCE100"/>
<circle cx="152.501" cy="157.5" r="0.833337" fill="#FCE100"/>
<circle cx="152.501" cy="161.667" r="0.833337" fill="#FCE100"/>
<circle cx="152.501" cy="165.833" r="0.833337" fill="#FCE100"/>
<circle cx="152.501" cy="170" r="0.833337" fill="#FCE100"/>
<circle cx="152.501" cy="174.167" r="0.833337" fill="#FCE100"/>
<circle cx="152.501" cy="178.333" r="0.833337" fill="#FCE100"/>
<circle cx="156.667" cy="115.833" r="0.833337" fill="#FCE100"/>
<circle cx="156.667" cy="120" r="0.833337" fill="#FCE100"/>
<circle cx="156.667" cy="124.166" r="0.833337" fill="#FCE100"/>
<circle cx="156.667" cy="128.333" r="0.833337" fill="#FCE100"/>
<circle cx="156.667" cy="132.5" r="0.833337" fill="#FCE100"/>
<circle cx="156.667" cy="136.667" r="0.833337" fill="#FCE100"/>
<circle cx="156.667" cy="140.833" r="0.833337" fill="#FCE100"/>
<circle cx="156.667" cy="145" r="0.833337" fill="#FCE100"/>
<circle cx="156.667" cy="149.167" r="0.833337" fill="#FCE100"/>
<circle cx="156.667" cy="153.333" r="0.833337" fill="#FCE100"/>
<circle cx="156.667" cy="157.5" r="0.833337" fill="#FCE100"/>
<circle cx="156.667" cy="161.667" r="0.833337" fill="#FCE100"/>
<circle cx="156.667" cy="165.833" r="0.833337" fill="#FCE100"/>
<circle cx="156.667" cy="170" r="0.833337" fill="#FCE100"/>
<circle cx="156.667" cy="174.167" r="0.833337" fill="#FCE100"/>
<circle cx="156.667" cy="178.333" r="0.833337" fill="#FCE100"/>
<circle cx="160.833" cy="115.833" r="0.833337" fill="#FCE100"/>
<circle cx="160.833" cy="120" r="0.833337" fill="#FCE100"/>
<circle cx="160.833" cy="124.166" r="0.833337" fill="#FCE100"/>
<circle cx="160.833" cy="128.333" r="0.833337" fill="#FCE100"/>
<circle cx="160.833" cy="132.5" r="0.833337" fill="#FCE100"/>
<circle cx="160.833" cy="136.667" r="0.833337" fill="#FCE100"/>
<circle cx="160.833" cy="140.833" r="0.833337" fill="#FCE100"/>
<circle cx="160.833" cy="145" r="0.833337" fill="#FCE100"/>
<circle cx="160.833" cy="149.167" r="0.833337" fill="#FCE100"/>
<circle cx="160.833" cy="153.333" r="0.833337" fill="#FCE100"/>
<circle cx="160.833" cy="157.5" r="0.833337" fill="#FCE100"/>
<circle cx="160.833" cy="161.667" r="0.833337" fill="#FCE100"/>
<circle cx="160.833" cy="165.833" r="0.833337" fill="#FCE100"/>
<circle cx="160.833" cy="170" r="0.833337" fill="#FCE100"/>
<circle cx="160.833" cy="174.167" r="0.833337" fill="#FCE100"/>
<circle cx="160.833" cy="178.333" r="0.833337" fill="#FCE100"/>
<circle cx="165.001" cy="115.833" r="0.833337" fill="#FCE100"/>
<circle cx="165.001" cy="120" r="0.833337" fill="#FCE100"/>
<circle cx="165.001" cy="124.166" r="0.833337" fill="#FCE100"/>
<circle cx="165.001" cy="128.333" r="0.833337" fill="#FCE100"/>
<circle cx="165.001" cy="132.5" r="0.833337" fill="#FCE100"/>
<circle cx="165.001" cy="136.667" r="0.833337" fill="#FCE100"/>
<circle cx="165.001" cy="140.833" r="0.833337" fill="#FCE100"/>
<circle cx="165.001" cy="145" r="0.833337" fill="#FCE100"/>
<circle cx="165.001" cy="149.167" r="0.833337" fill="#FCE100"/>
<circle cx="165.001" cy="153.333" r="0.833337" fill="#FCE100"/>
<circle cx="165.001" cy="157.5" r="0.833337" fill="#FCE100"/>
<circle cx="165.001" cy="161.667" r="0.833337" fill="#FCE100"/>
<circle cx="165.001" cy="165.833" r="0.833337" fill="#FCE100"/>
<circle cx="165.001" cy="170" r="0.833337" fill="#FCE100"/>
<circle cx="165.001" cy="174.167" r="0.833337" fill="#FCE100"/>
<circle cx="165.001" cy="178.333" r="0.833337" fill="#FCE100"/>
<circle cx="169.167" cy="115.833" r="0.833337" fill="#FCE100"/>
<circle cx="169.167" cy="120" r="0.833337" fill="#FCE100"/>
<circle cx="169.167" cy="124.166" r="0.833337" fill="#FCE100"/>
<circle cx="169.167" cy="128.333" r="0.833337" fill="#FCE100"/>
<circle cx="169.167" cy="132.5" r="0.833337" fill="#FCE100"/>
<circle cx="169.167" cy="136.667" r="0.833337" fill="#FCE100"/>
<circle cx="169.167" cy="140.833" r="0.833337" fill="#FCE100"/>
<circle cx="169.167" cy="145" r="0.833337" fill="#FCE100"/>
<circle cx="169.167" cy="149.167" r="0.833337" fill="#FCE100"/>
<circle cx="169.167" cy="153.333" r="0.833337" fill="#FCE100"/>
<circle cx="169.167" cy="157.5" r="0.833337" fill="#FCE100"/>
<circle cx="169.167" cy="161.667" r="0.833337" fill="#FCE100"/>
<circle cx="169.167" cy="165.833" r="0.833337" fill="#FCE100"/>
<circle cx="169.167" cy="170" r="0.833337" fill="#FCE100"/>
<circle cx="169.167" cy="174.167" r="0.833337" fill="#FCE100"/>
<circle cx="169.167" cy="178.333" r="0.833337" fill="#FCE100"/>
<circle cx="173.335" cy="115.833" r="0.833337" fill="#FCE100"/>
<circle cx="173.335" cy="120" r="0.833337" fill="#FCE100"/>
<circle cx="173.335" cy="124.166" r="0.833337" fill="#FCE100"/>
<circle cx="173.335" cy="128.333" r="0.833337" fill="#FCE100"/>
<circle cx="173.335" cy="132.5" r="0.833337" fill="#FCE100"/>
<circle cx="173.335" cy="136.667" r="0.833337" fill="#FCE100"/>
<circle cx="173.335" cy="140.833" r="0.833337" fill="#FCE100"/>
<circle cx="173.335" cy="145" r="0.833337" fill="#FCE100"/>
<circle cx="173.335" cy="149.167" r="0.833337" fill="#FCE100"/>
<circle cx="173.335" cy="153.333" r="0.833337" fill="#FCE100"/>
<circle cx="173.335" cy="157.5" r="0.833337" fill="#FCE100"/>
<circle cx="173.335" cy="161.667" r="0.833337" fill="#FCE100"/>
<circle cx="173.335" cy="165.833" r="0.833337" fill="#FCE100"/>
<circle cx="173.335" cy="170" r="0.833337" fill="#FCE100"/>
<circle cx="173.335" cy="174.167" r="0.833337" fill="#FCE100"/>
<circle cx="173.335" cy="178.333" r="0.833337" fill="#FCE100"/>
<circle cx="177.501" cy="115.833" r="0.833337" fill="#FCE100"/>
<circle cx="177.501" cy="120" r="0.833337" fill="#FCE100"/>
<circle cx="177.501" cy="124.166" r="0.833337" fill="#FCE100"/>
<circle cx="177.501" cy="128.333" r="0.833337" fill="#FCE100"/>
<circle cx="177.501" cy="132.5" r="0.833337" fill="#FCE100"/>
<circle cx="177.501" cy="136.667" r="0.833337" fill="#FCE100"/>
<circle cx="177.501" cy="140.833" r="0.833337" fill="#FCE100"/>
<circle cx="177.501" cy="145" r="0.833337" fill="#FCE100"/>
<circle cx="177.501" cy="149.167" r="0.833337" fill="#FCE100"/>
<circle cx="177.501" cy="153.333" r="0.833337" fill="#FCE100"/>
<circle cx="177.501" cy="157.5" r="0.833337" fill="#FCE100"/>
<circle cx="177.501" cy="161.667" r="0.833337" fill="#FCE100"/>
<circle cx="177.501" cy="165.833" r="0.833337" fill="#FCE100"/>
<circle cx="177.501" cy="170" r="0.833337" fill="#FCE100"/>
<circle cx="177.501" cy="174.167" r="0.833337" fill="#FCE100"/>
<circle cx="177.501" cy="178.333" r="0.833337" fill="#FCE100"/>
</g>
</svg>
