<svg width="261" height="24" viewBox="0 0 261 24" fill="none" xmlns="http://www.w3.org/2000/svg">
<path d="M161.75 18.2109C159.934 18.2109 158.478 17.6221 157.382 16.4443C156.292 15.2666 155.747 13.7344 155.747 11.8477C155.747 9.82031 156.304 8.20312 157.417 6.99609C158.53 5.78906 160.042 5.18555 161.952 5.18555C163.722 5.18555 165.146 5.77148 166.224 6.94336C167.308 8.11523 167.85 9.64746 167.85 11.54C167.85 13.5967 167.296 15.2227 166.188 16.418C165.081 17.6133 163.602 18.2109 161.75 18.2109ZM161.847 7.02246C160.692 7.02246 159.752 7.45312 159.025 8.31445C158.305 9.17578 157.944 10.3096 157.944 11.7158C157.944 13.1162 158.296 14.2441 158.999 15.0996C159.702 15.9551 160.622 16.3828 161.759 16.3828C162.966 16.3828 163.918 15.9756 164.615 15.1611C165.312 14.3467 165.661 13.207 165.661 11.7422C165.661 10.2363 165.321 9.07324 164.642 8.25293C163.968 7.43262 163.036 7.02246 161.847 7.02246ZM172.007 16.6729H171.972V22.1396H169.933V9H171.972V10.582H172.007C172.704 9.38672 173.724 8.78906 175.065 8.78906C176.208 8.78906 177.099 9.19043 177.737 9.99316C178.376 10.7959 178.695 11.874 178.695 13.2275C178.695 14.7275 178.335 15.9287 177.614 16.8311C176.894 17.7334 175.909 18.1846 174.661 18.1846C173.513 18.1846 172.628 17.6807 172.007 16.6729ZM171.954 13.1221V14.2383C171.954 14.8945 172.162 15.4512 172.578 15.9082C173 16.3652 173.533 16.5938 174.178 16.5938C174.934 16.5938 175.525 16.3008 175.953 15.7148C176.387 15.123 176.604 14.2998 176.604 13.2451C176.604 12.3604 176.401 11.6689 175.997 11.1709C175.599 10.667 175.057 10.415 174.371 10.415C173.645 10.415 173.059 10.6729 172.613 11.1885C172.174 11.7041 171.954 12.3486 171.954 13.1221ZM188.398 14.0537H182.264C182.287 14.8857 182.542 15.5273 183.028 15.9785C183.521 16.4297 184.194 16.6553 185.05 16.6553C186.011 16.6553 186.893 16.3682 187.695 15.7939V17.4375C186.875 17.9531 185.791 18.2109 184.443 18.2109C183.119 18.2109 182.079 17.8037 181.323 16.9893C180.573 16.1689 180.198 15.0176 180.198 13.5352C180.198 12.1348 180.611 10.9951 181.438 10.1162C182.27 9.23145 183.301 8.78906 184.531 8.78906C185.762 8.78906 186.714 9.18457 187.388 9.97559C188.062 10.7666 188.398 11.8652 188.398 13.2715V14.0537ZM186.43 12.6123C186.424 11.8799 186.251 11.3115 185.911 10.9072C185.571 10.4971 185.103 10.292 184.505 10.292C183.919 10.292 183.421 10.5059 183.011 10.9336C182.606 11.3613 182.357 11.9209 182.264 12.6123H186.43ZM198.356 18H196.317V12.9287C196.317 11.2471 195.723 10.4062 194.533 10.4062C193.912 10.4062 193.399 10.6406 192.995 11.1094C192.591 11.5723 192.389 12.1582 192.389 12.8672V18H190.341V9H192.389V10.4941H192.424C193.098 9.35742 194.07 8.78906 195.342 8.78906C196.32 8.78906 197.067 9.1084 197.583 9.74707C198.099 10.3799 198.356 11.2969 198.356 12.498V18ZM205.458 17.499V15.3457C205.651 15.5215 205.88 15.6797 206.144 15.8203C206.413 15.9609 206.697 16.0811 206.996 16.1807C207.295 16.2744 207.594 16.3477 207.893 16.4004C208.191 16.4531 208.467 16.4795 208.719 16.4795C209.598 16.4795 210.251 16.333 210.679 16.04C211.112 15.7471 211.329 15.3223 211.329 14.7656C211.329 14.4668 211.256 14.209 211.109 13.9922C210.969 13.7695 210.77 13.5674 210.512 13.3857C210.254 13.2041 209.949 13.0312 209.598 12.8672C209.252 12.6973 208.88 12.5215 208.481 12.3398C208.054 12.1113 207.655 11.8799 207.286 11.6455C206.917 11.4111 206.595 11.1533 206.319 10.8721C206.05 10.585 205.836 10.2627 205.678 9.90527C205.525 9.54785 205.449 9.12891 205.449 8.64844C205.449 8.05664 205.581 7.54395 205.845 7.11035C206.114 6.6709 206.466 6.31055 206.899 6.0293C207.339 5.74219 207.837 5.53125 208.394 5.39648C208.95 5.25586 209.519 5.18555 210.099 5.18555C211.417 5.18555 212.378 5.33496 212.981 5.63379V7.69922C212.267 7.18359 211.347 6.92578 210.222 6.92578C209.911 6.92578 209.601 6.95508 209.29 7.01367C208.985 7.07227 208.71 7.16895 208.464 7.30371C208.224 7.43848 208.027 7.61133 207.875 7.82227C207.723 8.0332 207.646 8.28809 207.646 8.58691C207.646 8.86816 207.705 9.11133 207.822 9.31641C207.939 9.52148 208.109 9.70898 208.332 9.87891C208.561 10.0488 208.836 10.2158 209.158 10.3799C209.486 10.5381 209.864 10.7109 210.292 10.8984C210.731 11.127 211.145 11.3672 211.531 11.6191C211.924 11.8711 212.267 12.1494 212.56 12.4541C212.858 12.7588 213.093 13.0986 213.263 13.4736C213.438 13.8428 213.526 14.2646 213.526 14.7393C213.526 15.3779 213.397 15.917 213.14 16.3564C212.882 16.7959 212.533 17.1533 212.094 17.4287C211.66 17.7041 211.159 17.9033 210.591 18.0264C210.022 18.1494 209.422 18.2109 208.789 18.2109C208.578 18.2109 208.317 18.1934 208.007 18.1582C207.702 18.1289 207.389 18.082 207.066 18.0176C206.744 17.959 206.439 17.8857 206.152 17.7979C205.865 17.71 205.634 17.6104 205.458 17.499ZM219.608 18.2109C218.22 18.2109 217.109 17.792 216.277 16.9541C215.451 16.1104 215.038 14.9941 215.038 13.6055C215.038 12.0938 215.469 10.9131 216.33 10.0635C217.197 9.21387 218.363 8.78906 219.828 8.78906C221.234 8.78906 222.33 9.20215 223.115 10.0283C223.9 10.8545 224.293 12 224.293 13.4648C224.293 14.9004 223.868 16.0518 223.019 16.9189C222.175 17.7803 221.038 18.2109 219.608 18.2109ZM219.705 10.415C218.908 10.415 218.278 10.6934 217.815 11.25C217.353 11.8066 217.121 12.5742 217.121 13.5527C217.121 14.4961 217.355 15.2402 217.824 15.7852C218.293 16.3242 218.92 16.5938 219.705 16.5938C220.508 16.5938 221.123 16.3271 221.551 15.7939C221.984 15.2607 222.201 14.502 222.201 13.5176C222.201 12.5273 221.984 11.7627 221.551 11.2236C221.123 10.6846 220.508 10.415 219.705 10.415ZM234.225 18H232.186V16.5762H232.15C231.559 17.666 230.639 18.2109 229.391 18.2109C227.264 18.2109 226.2 16.9336 226.2 14.3789V9H228.239V14.168C228.239 15.7852 228.863 16.5938 230.111 16.5938C230.715 16.5938 231.21 16.3711 231.597 15.9258C231.989 15.4805 232.186 14.8975 232.186 14.1768V9H234.225V18ZM242.108 10.9424C241.862 10.749 241.508 10.6523 241.045 10.6523C240.441 10.6523 239.938 10.9248 239.533 11.4697C239.129 12.0146 238.927 12.7559 238.927 13.6934V18H236.888V9H238.927V10.8545H238.962C239.161 10.2217 239.466 9.72949 239.876 9.37793C240.292 9.02051 240.755 8.8418 241.265 8.8418C241.634 8.8418 241.915 8.89746 242.108 9.00879V10.9424ZM249.834 17.5869C249.113 18.0029 248.261 18.2109 247.276 18.2109C245.94 18.2109 244.862 17.7949 244.042 16.9629C243.222 16.125 242.812 15.041 242.812 13.7109C242.812 12.2285 243.251 11.0391 244.13 10.1426C245.015 9.24023 246.195 8.78906 247.672 8.78906C248.492 8.78906 249.216 8.93262 249.843 9.21973V11.1182C249.216 10.6494 248.548 10.415 247.839 10.415C246.978 10.415 246.271 10.708 245.721 11.2939C245.17 11.874 244.895 12.6357 244.895 13.5791C244.895 14.5107 245.152 15.2461 245.668 15.7852C246.189 16.3242 246.887 16.5938 247.76 16.5938C248.492 16.5938 249.184 16.333 249.834 15.8115V17.5869ZM259.484 14.0537H253.35C253.373 14.8857 253.628 15.5273 254.114 15.9785C254.606 16.4297 255.28 16.6553 256.136 16.6553C257.097 16.6553 257.979 16.3682 258.781 15.7939V17.4375C257.961 17.9531 256.877 18.2109 255.529 18.2109C254.205 18.2109 253.165 17.8037 252.409 16.9893C251.659 16.1689 251.284 15.0176 251.284 13.5352C251.284 12.1348 251.697 10.9951 252.523 10.1162C253.355 9.23145 254.387 8.78906 255.617 8.78906C256.848 8.78906 257.8 9.18457 258.474 9.97559C259.147 10.7666 259.484 11.8652 259.484 13.2715V14.0537ZM257.516 12.6123C257.51 11.8799 257.337 11.3115 256.997 10.9072C256.657 10.4971 256.188 10.292 255.591 10.292C255.005 10.292 254.507 10.5059 254.097 10.9336C253.692 11.3613 253.443 11.9209 253.35 12.6123H257.516Z" fill="white"/>
<g clip-path="url(#clip0)">
<path fill-rule="evenodd" clip-rule="evenodd" d="M107.647 10.8631H104.028V19.1977H101.568V10.8631H99.8406V8.87473H101.568V7.43873C101.568 6.35407 101.921 5.4654 102.627 4.77273C103.334 4.07973 104.239 3.7334 105.344 3.7334C105.638 3.7334 105.899 3.7484 106.127 3.7784C106.354 3.80873 106.555 3.85407 106.729 3.91407V6.01273C106.649 5.96607 106.508 5.90907 106.308 5.84207C106.107 5.7754 105.876 5.74173 105.615 5.74173C105.106 5.74173 104.714 5.90073 104.44 6.21873C104.165 6.53673 104.028 7.00707 104.028 7.6294V8.87473H107.647V6.55507L110.088 5.81207V8.87473H112.548V10.8631H110.088V15.6931C110.088 16.3294 110.203 16.7777 110.434 17.0387C110.665 17.2997 111.028 17.4304 111.524 17.4304C111.664 17.4304 111.833 17.3971 112.031 17.3301C112.228 17.2631 112.4 17.1831 112.548 17.0891V19.0974C112.394 19.1844 112.138 19.2647 111.78 19.3384C111.422 19.4121 111.068 19.4487 110.72 19.4487C109.696 19.4487 108.928 19.1764 108.416 18.6304C107.903 18.0847 107.647 17.2631 107.647 16.1651V10.8631ZM91.5116 14.1067C91.5116 15.1844 91.7559 16.0077 92.2446 16.5771C92.7333 17.1461 93.4329 17.4304 94.3433 17.4304C95.2272 17.4304 95.8999 17.1461 96.3616 16.5771C96.8236 16.0077 97.0546 15.1644 97.0546 14.0464C97.0546 12.9351 96.8153 12.0967 96.3366 11.5307C95.8579 10.9651 95.1866 10.6824 94.3233 10.6824C93.4329 10.6824 92.7416 10.9784 92.2496 11.5711C91.7576 12.1634 91.5116 13.0087 91.5116 14.1067ZM88.9809 14.1867C88.9809 12.4797 89.4629 11.1277 90.4269 10.1301C91.3909 9.1324 92.7299 8.63373 94.4436 8.63373C96.0573 8.63373 97.3173 9.11407 98.2246 10.0747C99.1316 11.0357 99.5853 12.3327 99.5853 13.9661C99.5853 15.6397 99.1029 16.9721 98.1393 17.9627C97.1753 18.9537 95.8629 19.4487 94.2026 19.4487C92.6026 19.4487 91.3323 18.9787 90.3919 18.0381C89.4513 17.0977 88.9809 15.8137 88.9809 14.1867ZM83.5086 11.5861C83.5086 11.9344 83.6189 12.2071 83.8399 12.4047C84.0606 12.6021 84.5493 12.8514 85.3059 13.1524C86.2766 13.5411 86.9579 13.9777 87.3496 14.4631C87.7413 14.9484 87.9369 15.5361 87.9369 16.2254C87.9369 17.1961 87.5636 17.9761 86.8173 18.5651C86.0706 19.1544 85.0616 19.4487 83.7896 19.4487C83.3613 19.4487 82.8876 19.3971 82.3686 19.2931C81.8499 19.1894 81.4096 19.0574 81.0483 18.8964V16.5067C81.4903 16.8147 81.9653 17.0587 82.4743 17.2394C82.9829 17.4204 83.4446 17.5107 83.8599 17.5107C84.4089 17.5107 84.8139 17.4337 85.0749 17.2797C85.3363 17.1261 85.4666 16.8681 85.4666 16.5067C85.4666 16.1717 85.3313 15.8891 85.0599 15.6581C84.7889 15.4271 84.2749 15.1607 83.5186 14.8597C82.6216 14.4847 81.9856 14.0631 81.6106 13.5944C81.2356 13.1257 81.0483 12.5301 81.0483 11.8071C81.0483 10.8764 81.4179 10.1117 82.1579 9.5124C82.8973 8.9134 83.8566 8.61373 85.0349 8.61373C85.3963 8.61373 85.8016 8.65373 86.2499 8.73407C86.6986 8.81473 87.0732 8.9184 87.3746 9.0454V11.3551C87.0533 11.1407 86.6783 10.9571 86.2499 10.8027C85.8213 10.6487 85.3963 10.5717 84.9746 10.5717C84.5126 10.5717 84.1529 10.6621 83.8953 10.8427C83.6373 11.0237 83.5086 11.2714 83.5086 11.5861ZM71.8199 14.1067C71.8199 15.1844 72.0643 16.0077 72.5533 16.5771C73.0416 17.1461 73.7413 17.4304 74.6516 17.4304C75.5356 17.4304 76.2083 17.1461 76.6699 16.5771C77.1319 16.0077 77.3629 15.1644 77.3629 14.0464C77.3629 12.9351 77.1236 12.0967 76.6449 11.5307C76.1663 10.9651 75.4953 10.6824 74.6319 10.6824C73.7413 10.6824 73.0503 10.9784 72.5579 11.5711C72.0659 12.1634 71.8199 13.0087 71.8199 14.1067ZM69.2893 14.1867C69.2893 12.4797 69.7713 11.1277 70.7353 10.1301C71.6996 9.1324 73.0383 8.63373 74.7523 8.63373C76.3656 8.63373 77.6259 9.11407 78.5329 10.0747C79.4399 11.0357 79.8936 12.3327 79.8936 13.9661C79.8936 15.6397 79.4116 16.9721 78.4476 17.9627C77.4836 18.9537 76.1716 19.4487 74.5113 19.4487C72.9109 19.4487 71.6409 18.9787 70.7003 18.0381C69.7596 17.0977 69.2893 15.8137 69.2893 14.1867ZM68.2439 8.70407C68.4379 8.70407 68.6123 8.71773 68.7663 8.7444C68.9203 8.77107 69.0506 8.8044 69.1579 8.84473V11.3047C69.0306 11.2111 68.8449 11.1227 68.6006 11.0387C68.3563 10.9551 68.0599 10.9134 67.7119 10.9134C67.1159 10.9134 66.6123 11.1644 66.2006 11.6664C65.7889 12.1684 65.5829 12.9417 65.5829 13.9861V19.1977H63.1526V8.87473H65.5829V10.5014H65.6229C65.8439 9.93907 66.1786 9.49907 66.6273 9.18107C67.0759 8.8634 67.6146 8.70407 68.2439 8.70407ZM58.9253 17.4304C59.2866 17.4304 59.6849 17.3471 60.1203 17.1794C60.5553 17.0121 60.9569 16.7914 61.3253 16.5167V18.7761C60.9369 18.9971 60.4969 19.1644 60.0046 19.2781C59.5129 19.3921 58.9719 19.4487 58.3829 19.4487C56.8633 19.4487 55.6279 18.9687 54.6776 18.0077C53.7269 17.0474 53.2516 15.8204 53.2516 14.3277C53.2516 12.6674 53.7369 11.3001 54.7079 10.2254C55.6783 9.15073 57.0539 8.61373 58.8349 8.61373C59.2903 8.61373 59.7503 8.6724 60.2159 8.7894C60.6809 8.90673 61.0506 9.04207 61.3253 9.19607V11.5257C60.9503 11.2514 60.5673 11.0387 60.1753 10.8881C59.7839 10.7377 59.3836 10.6621 58.9756 10.6621C58.0183 10.6621 57.2449 10.9734 56.6559 11.5961C56.0666 12.2187 55.7719 13.0587 55.7719 14.1167C55.7719 15.1607 56.0549 15.9744 56.6206 16.5567C57.1863 17.1394 57.9546 17.4304 58.9253 17.4304ZM49.1246 19.1977H51.5546V8.87473H49.1246V19.1977ZM48.8733 5.8924C48.8733 5.49073 49.0189 5.1544 49.3103 4.88307C49.6016 4.61207 49.9479 4.4764 50.3496 4.4764C50.7779 4.4764 51.1329 4.6154 51.4139 4.89307C51.6953 5.17107 51.8359 5.50407 51.8359 5.8924C51.8359 6.2874 51.6919 6.61873 51.4039 6.8864C51.1159 7.1544 50.7646 7.28807 50.3496 7.28807C49.9343 7.28807 49.5846 7.15273 49.3003 6.88173C49.0156 6.61007 48.8733 6.28073 48.8733 5.8924ZM46.7823 4.79773V19.1977H44.2819V7.91073H44.2419L39.7729 19.1977H38.1163L33.5369 7.91073H33.5069V19.1977H31.1973V4.79773H34.7823L38.9196 15.4724H38.9796L43.3479 4.79773H46.7823Z" fill="white"/>
<path fill-rule="evenodd" clip-rule="evenodd" d="M-0.00292969 11.4033H11.4031V-0.00268555H-0.00292969V11.4033Z" fill="#F25022"/>
<path fill-rule="evenodd" clip-rule="evenodd" d="M12.5918 11.4045H23.9978V-0.00146484H12.5918V11.4045Z" fill="#7FBA00"/>
<path fill-rule="evenodd" clip-rule="evenodd" d="M-0.00195312 23.9975H11.404V12.5916H-0.00195312V23.9975Z" fill="#00A4EF"/>
<path fill-rule="evenodd" clip-rule="evenodd" d="M12.5918 23.9975H23.9978V12.5916H12.5918V23.9975Z" fill="#FFB900"/>
</g>
<rect x="133" width="2" height="24" fill="white"/>
<defs>
<clipPath id="clip0">
<rect width="112.667" height="24" fill="white"/>
</clipPath>
</defs>
</svg>
