<svg width="100" height="100" viewBox="0 0 100 100" fill="none" xmlns="http://www.w3.org/2000/svg">
<rect width="100" height="100" fill="white"/>
<path d="M80.3681 25.2209C79.1139 15.6931 70.9806 8.33337 61.1111 8.33337C52.2931 8.33337 44.8569 14.207 42.475 22.2514C32.775 22.5612 25 30.5014 25 40.2778C25 50.25 33.0833 58.3334 43.0556 58.3334H77.7778C86.9819 58.3334 94.4444 50.8709 94.4444 41.6667C94.4444 33.3459 88.3389 26.4681 80.3681 25.2209Z" fill="url(#paint0_linear_3550_196)"/>
<path d="M47.2222 44.4445H9.72221C7.42082 44.4445 5.55554 46.3097 5.55554 48.6111V84.7222C5.55554 87.0236 7.42082 88.8889 9.72221 88.8889H56.9444C59.2458 88.8889 61.1111 87.0236 61.1111 84.7222V58.3333H47.2222V44.4445Z" fill="url(#paint1_linear_3550_196)"/>
<path d="M16.1569 53.0223L14.193 54.9862C13.65 55.5292 13.65 56.4084 14.193 56.9501L27.8375 70.5945L30.7833 67.6487C31.3264 67.1056 31.3264 66.2265 30.7833 65.6848L18.1208 53.0223C17.5777 52.4792 16.6986 52.4792 16.1569 53.0223Z" fill="#F2F2F2"/>
<path d="M16.1569 80.3111L14.193 78.3472C13.65 77.8042 13.65 76.925 14.193 76.3833L27.8375 62.7389L30.7833 65.6847C31.3264 66.2278 31.3264 67.1069 30.7833 67.6486L18.1208 80.3111C17.5777 80.8542 16.6986 80.8542 16.1569 80.3111Z" fill="#E6E6E6"/>
<path d="M51.3889 75H34.7223C33.9552 75 33.3334 75.6218 33.3334 76.3889V79.1667C33.3334 79.9338 33.9552 80.5556 34.7223 80.5556H51.3889C52.156 80.5556 52.7778 79.9338 52.7778 79.1667V76.3889C52.7778 75.6218 52.156 75 51.3889 75Z" fill="#F2F2F2"/>
<path d="M55.5555 20.8334H66.6667V31.9445H55.5555V20.8334Z" fill="#C3F1FF"/>
<path d="M61.1111 44.4445H55.5555V50H61.1111V44.4445Z" fill="#C3F1FF"/>
<path d="M47.2222 31.9445H55.5555V40.2778H47.2222V31.9445Z" fill="#C3F1FF"/>
<defs>
<linearGradient id="paint0_linear_3550_196" x1="59.674" y1="0.451066" x2="59.674" y2="69.2284" gradientUnits="userSpaceOnUse">
<stop offset="0.18" stop-color="#5EA0EF"/>
<stop offset="1" stop-color="#0078D4"/>
</linearGradient>
<linearGradient id="paint1_linear_3550_196" x1="33.3333" y1="88.8889" x2="33.3333" y2="44.4445" gradientUnits="userSpaceOnUse">
<stop stop-color="#32BEDD"/>
<stop offset="0.175" stop-color="#32CAEA"/>
<stop offset="0.41" stop-color="#32D2F2"/>
<stop offset="0.775" stop-color="#32D4F5"/>
</linearGradient>
</defs>
</svg>
