<?xml version="1.0" encoding="UTF-8" standalone="no"?>
<!-- Created with Inkscape (http://www.inkscape.org/) -->

<svg
   xmlns:dc="http://purl.org/dc/elements/1.1/"
   xmlns:cc="http://creativecommons.org/ns#"
   xmlns:rdf="http://www.w3.org/1999/02/22-rdf-syntax-ns#"
   xmlns:svg="http://www.w3.org/2000/svg"
   xmlns="http://www.w3.org/2000/svg"
   xmlns:sodipodi="http://sodipodi.sourceforge.net/DTD/sodipodi-0.dtd"
   xmlns:inkscape="http://www.inkscape.org/namespaces/inkscape"
   width="62.200733mm"
   height="12.700793mm"
   viewBox="0 0 62.200733 12.700793"
   version="1.1"
   id="svg248"
   inkscape:version="0.92.2 (5c3e80d, 2017-08-06)"
   sodipodi:docname="logo-text.svg">
  <defs
     id="defs242" />
  <sodipodi:namedview
     id="base"
     pagecolor="#ffffff"
     bordercolor="#666666"
     borderopacity="1.0"
     inkscape:pageopacity="0.0"
     inkscape:pageshadow="2"
     inkscape:zoom="0.35"
     inkscape:cx="-226.74102"
     inkscape:cy="-1.7127698"
     inkscape:document-units="mm"
     inkscape:current-layer="layer1"
     showgrid="false"
     fit-margin-top="0"
     fit-margin-left="0"
     fit-margin-right="0"
     fit-margin-bottom="0"
     inkscape:window-width="1315"
     inkscape:window-height="775"
     inkscape:window-x="964"
     inkscape:window-y="266"
     inkscape:window-maximized="0" />
  <metadata
     id="metadata245">
    <rdf:RDF>
      <cc:Work
         rdf:about="">
        <dc:format>image/svg+xml</dc:format>
        <dc:type
           rdf:resource="http://purl.org/dc/dcmitype/StillImage" />
        <dc:title></dc:title>
      </cc:Work>
    </rdf:RDF>
  </metadata>
  <g
     inkscape:label="Layer 1"
     inkscape:groupmode="layer"
     id="layer1"
     transform="translate(-52.810348,-135.67937)">
    <g
       transform="matrix(0.26458333,0,0,0.26458333,47.530955,120.33433)"
       id="g240"
       inkscape:export-xdpi="96"
       inkscape:export-ydpi="96">
      <path
         style="fill:#0064b5"
         inkscape:connector-curvature="0"
         id="path4"
         d="m 76.94,90.044 a 8.4,8.4 0 0 1 -3.213,-3.139 8.715,8.715 0 0 1 -1.154,-4.5 8.823,8.823 0 0 1 1.154,-4.5 8.393,8.393 0 0 1 3.213,-3.138 9.529,9.529 0 0 1 4.615,-1.115 9.033,9.033 0 0 1 3.543,0.66 7.111,7.111 0 0 1 2.76,1.859 L 86.7,77.325 a 6.913,6.913 0 0 0 -5.1,-2.065 7.5,7.5 0 0 0 -3.708,0.95 7.133,7.133 0 0 0 -2.637,2.56 7.241,7.241 0 0 0 -0.955,3.63 7.128,7.128 0 0 0 0.947,3.634 6.564,6.564 0 0 0 2.637,2.56 7.5,7.5 0 0 0 3.708,0.95 6.913,6.913 0 0 0 5.108,-2.061 l 1.154,1.157 a 7.693,7.693 0 0 1 -2.76,1.9 9.033,9.033 0 0 1 -3.543,0.661 9.921,9.921 0 0 1 -4.611,-1.157 z" />
      <path
         style="fill:#0064b5"
         inkscape:connector-curvature="0"
         id="path6"
         d="m 91.362,72.746 h 1.772 V 91.039 H 91.4 V 72.746 Z" />
      <path
         style="fill:#0064b5"
         inkscape:connector-curvature="0"
         id="path8"
         d="M 109.238,85.088 H 98.4 a 4.5,4.5 0 0 0 1.566,3.263 5.149,5.149 0 0 0 3.543,1.239 5.758,5.758 0 0 0 2.224,-0.413 4.423,4.423 0 0 0 1.731,-1.281 l 0.988,1.115 a 5.461,5.461 0 0 1 -2.142,1.57 7.732,7.732 0 0 1 -6.386,-0.331 6.233,6.233 0 0 1 -2.386,-2.35 6.675,6.675 0 0 1 -0.865,-3.386 6.974,6.974 0 0 1 0.824,-3.386 6.2,6.2 0 0 1 2.266,-2.354 6.016,6.016 0 0 1 3.213,-0.826 6.411,6.411 0 0 1 3.213,0.826 5.989,5.989 0 0 1 2.225,2.313 7.137,7.137 0 0 1 0.824,3.427 z M 99.845,80.67 A 4.775,4.775 0 0 0 98.4,83.808 h 9.187 a 4.762,4.762 0 0 0 -1.442,-3.138 4.448,4.448 0 0 0 -3.172,-1.2 4.313,4.313 0 0 0 -3.128,1.2 z" />
      <path
         style="fill:#0064b5"
         inkscape:connector-curvature="0"
         id="path10"
         d="m 120.856,79.23 a 4.877,4.877 0 0 1 1.359,3.757 v 8.053 h -1.689 v -2.023 a 4.266,4.266 0 0 1 -1.73,1.569 6.027,6.027 0 0 1 -2.719,0.578 5.322,5.322 0 0 1 -3.461,-1.033 3.329,3.329 0 0 1 -1.277,-2.725 3.282,3.282 0 0 1 1.2,-2.643 5.867,5.867 0 0 1 3.79,-0.991 h 4.12 v -0.785 a 3.369,3.369 0 0 0 -0.948,-2.56 3.842,3.842 0 0 0 -2.719,-0.867 6.392,6.392 0 0 0 -2.348,0.413 6.814,6.814 0 0 0 -1.937,1.115 l -0.782,-1.322 a 6.475,6.475 0 0 1 2.348,-1.28 9.577,9.577 0 0 1 2.884,-0.454 5.036,5.036 0 0 1 3.909,1.198 z m -1.937,9.87 a 4.066,4.066 0 0 0 1.566,-1.941 v -2.107 h -4.038 c -2.224,0 -3.337,0.785 -3.337,2.313 a 2.084,2.084 0 0 0 0.866,1.775 3.733,3.733 0 0 0 2.389,0.661 5,5 0 0 0 2.554,-0.701 z" />
      <path
         style="fill:#0064b5"
         inkscape:connector-curvature="0"
         id="path12"
         d="m 130.453,78.605 a 6.118,6.118 0 0 1 3.008,-0.661 v 1.694 l -0.412,-0.042 a 4.212,4.212 0 0 0 -3.213,1.239 4.94,4.94 0 0 0 -1.154,3.51 v 6.607 h -1.73 V 77.986 h 1.689 v 2.519 a 4.724,4.724 0 0 1 1.812,-1.9 z" />
      <path
         style="fill:#0064b5"
         inkscape:connector-curvature="0"
         id="path14"
         d="m 136.634,72.746 h 1.731 v 18.293 h -1.731 z" />
      <path
         style="fill:#0064b5"
         inkscape:connector-curvature="0"
         id="path16"
         d="m 154.107,78.073 -6.468,14.536 a 6.556,6.556 0 0 1 -1.812,2.6 4.175,4.175 0 0 1 -2.472,0.743 4.777,4.777 0 0 1 -1.731,-0.289 4.465,4.465 0 0 1 -1.4,-0.867 l 0.824,-1.322 a 3.2,3.2 0 0 0 2.348,0.991 2.413,2.413 0 0 0 1.524,-0.5 4.027,4.027 0 0 0 1.154,-1.693 l 0.576,-1.239 -5.767,-12.925 h 1.817 l 4.862,11.025 4.861,-11.025 h 1.689 z" />
      <path
         style="fill:#0064b5"
         inkscape:connector-curvature="0"
         id="path18"
         d="M 156.456,73.779 H 164 a 10.981,10.981 0 0 1 4.9,1.073 8.055,8.055 0 0 1 4.532,7.557 8.791,8.791 0 0 1 -1.195,4.543 7.648,7.648 0 0 1 -3.337,3.014 10.981,10.981 0 0 1 -4.9,1.074 h -7.539 z m 7.375,14.535 a 7.094,7.094 0 0 0 3.336,-0.743 5.372,5.372 0 0 0 2.225,-2.065 5.965,5.965 0 0 0 0.783,-3.1 5.864,5.864 0 0 0 -0.783,-3.1 5.142,5.142 0 0 0 -2.225,-2.065 7.106,7.106 0 0 0 -3.336,-0.743 h -4.162 v 11.81 z" />
      <path
         style="fill:#0064b5"
         inkscape:connector-curvature="0"
         id="path20"
         d="m 188.755,85.419 h -10.3 a 3.681,3.681 0 0 0 1.4,2.312 4.569,4.569 0 0 0 2.843,0.867 4.87,4.87 0 0 0 3.584,-1.445 l 1.648,1.9 a 5.547,5.547 0 0 1 -2.225,1.61 8.009,8.009 0 0 1 -3.049,0.537 8.187,8.187 0 0 1 -3.831,-0.867 6.232,6.232 0 0 1 -2.554,-2.395 6.611,6.611 0 0 1 -0.907,-3.469 6.99,6.99 0 0 1 0.867,-3.469 6.164,6.164 0 0 1 2.43,-2.395 7,7 0 0 1 3.5,-0.867 6.682,6.682 0 0 1 3.419,0.867 5.97,5.97 0 0 1 2.351,2.395 7.193,7.193 0 0 1 0.865,3.551 7.806,7.806 0 0 1 -0.041,0.868 z m -9.064,-4.378 a 3.484,3.484 0 0 0 -1.236,2.313 h 7.457 a 3.619,3.619 0 0 0 -1.195,-2.313 3.72,3.72 0 0 0 -2.513,-0.867 3.648,3.648 0 0 0 -2.513,0.867 z" />
      <path
         style="fill:#0064b5"
         inkscape:connector-curvature="0"
         id="path22"
         d="m 195.138,77.157 v 0.785 h 3.626 v 2.477 h -3.5 v 10.613 h -3.09 V 80.419 h -2.184 v -2.477 h 2.184 v -0.826 a 4.526,4.526 0 0 1 1.236,-3.345 4.67,4.67 0 0 1 3.46,-1.239 4.784,4.784 0 0 1 2.761,0.7 l -0.865,2.313 a 2.833,2.833 0 0 0 -1.69,-0.537 c -1.276,0.043 -1.938,0.745 -1.938,2.149 z m 7.828,-2.023 a 1.8,1.8 0 0 1 0,-2.643 1.86,1.86 0 0 1 1.4,-0.537 2,2 0 0 1 1.4,0.5 1.631,1.631 0 0 1 0.577,1.28 1.835,1.835 0 0 1 -0.536,1.362 1.856,1.856 0 0 1 -1.4,0.537 1.73,1.73 0 0 1 -1.441,-0.499 z m -0.165,2.725 h 3.09 V 91.032 H 202.8 Z" />
      <path
         style="fill:#0064b5"
         inkscape:connector-curvature="0"
         id="path24"
         d="m 221.339,79.14 a 5.716,5.716 0 0 1 1.483,4.3 v 7.557 h -3.09 v -7.149 a 3.711,3.711 0 0 0 -0.824,-2.6 3.009,3.009 0 0 0 -2.307,-0.867 3.5,3.5 0 0 0 -2.678,1.032 4.072,4.072 0 0 0 -0.989,2.932 v 6.649 h -3.089 V 77.819 h 2.925 v 1.693 a 4.357,4.357 0 0 1 1.936,-1.363 6.608,6.608 0 0 1 2.595,-0.454 5.55,5.55 0 0 1 4.038,1.445 z" />
      <path
         style="fill:#0064b5"
         inkscape:connector-curvature="0"
         id="path26"
         d="m 239.174,85.419 h -10.3 a 3.685,3.685 0 0 0 1.4,2.312 4.569,4.569 0 0 0 2.843,0.867 4.868,4.868 0 0 0 3.584,-1.445 l 1.648,1.9 a 5.54,5.54 0 0 1 -2.225,1.61 8.007,8.007 0 0 1 -3.048,0.537 8.194,8.194 0 0 1 -3.832,-0.867 6.232,6.232 0 0 1 -2.554,-2.395 6.611,6.611 0 0 1 -0.906,-3.469 6.99,6.99 0 0 1 0.866,-3.469 6.164,6.164 0 0 1 2.43,-2.395 7,7 0 0 1 3.5,-0.867 6.688,6.688 0 0 1 3.42,0.867 5.974,5.974 0 0 1 2.35,2.395 7.193,7.193 0 0 1 0.865,3.551 7.806,7.806 0 0 1 -0.041,0.868 z m -9.105,-4.378 a 3.484,3.484 0 0 0 -1.236,2.313 h 7.457 a 3.619,3.619 0 0 0 -1.195,-2.313 3.72,3.72 0 0 0 -2.513,-0.867 3.8,3.8 0 0 0 -2.513,0.867 z" />
      <path
         style="fill:#0064b5"
         inkscape:connector-curvature="0"
         id="path28"
         d="m 255.043,72.744 v 18.294 h -2.966 V 89.3 a 4.949,4.949 0 0 1 -1.9,1.4 5.99,5.99 0 0 1 -2.472,0.455 7.224,7.224 0 0 1 -3.419,-0.826 6.349,6.349 0 0 1 -2.39,-2.4 7.079,7.079 0 0 1 -0.865,-3.551 6.925,6.925 0 0 1 0.865,-3.51 5.72,5.72 0 0 1 2.39,-2.354 6.661,6.661 0 0 1 3.419,-0.826 6.474,6.474 0 0 1 2.389,0.455 4.926,4.926 0 0 1 1.854,1.321 V 72.7 h 3.09 z m -4.943,15.32 a 3.625,3.625 0 0 0 1.4,-1.445 4.641,4.641 0 0 0 0.536,-2.189 4.308,4.308 0 0 0 -0.536,-2.188 3.625,3.625 0 0 0 -1.4,-1.445 4.19,4.19 0 0 0 -3.955,0 3.629,3.629 0 0 0 -1.4,1.445 4.639,4.639 0 0 0 -0.536,2.188 4.309,4.309 0 0 0 0.536,2.189 3.629,3.629 0 0 0 1.4,1.445 3.9,3.9 0 0 0 1.978,0.5 4.125,4.125 0 0 0 1.977,-0.5 z" />
      <path
         style="fill:#0064b5"
         inkscape:connector-curvature="0"
         id="path30"
         d="m 51.542,66.363 c -0.336,0.034 -0.673,0.068 -1.076,0.1 0.067,0.675 0.134,1.349 0.168,2.057 a 1.784,1.784 0 0 0 0.875,1.55 3.84,3.84 0 0 0 1.21,0.371 9.127,9.127 0 0 0 1.345,-0.033 c 0.4,-0.034 0.505,-0.371 0.539,-0.675 0.1,-0.606 0.134,-1.247 0.2,-1.887 0.034,-0.371 0.068,-0.708 0.135,-1.079 0,-0.1 0.168,-0.2 0.269,-0.2 0.706,-0.034 1.412,-0.068 2.119,-0.068 0.168,0 0.37,0.034 0.538,0.034 0.74,0 1.076,0.27 1.143,1.011 q 0.1,1.315 0.1,2.63 c 0,0.337 -0.3,0.5 -0.605,0.539 -0.471,0.034 -0.975,0.034 -1.446,0.067 -0.37,0.034 -0.707,0.068 -1.077,0.1 a 0.831,0.831 0 0 0 -0.739,0.81 4.171,4.171 0 0 0 0.269,2.123 1.517,1.517 0 0 0 0.571,0.641 9.078,9.078 0 0 0 1.648,0.4 2.507,2.507 0 0 0 0.505,0 c 0.538,0.034 0.807,-0.168 0.874,-0.741 0.067,-0.776 0.1,-1.517 0.135,-2.293 l 4.2,2.461 c 0,0.506 -0.438,0.742 -1.077,0.843 -0.672,0.1 -1.379,0.067 -2.085,0.1 -0.538,0.034 -0.807,0.2 -0.807,0.708 -0.034,0.91 0,1.787 0.034,2.7 a 0.7,0.7 0 0 0 0.672,0.708 c 0.639,0.1 1.278,0.168 1.951,0.236 0.3,0.033 0.6,0.033 0.942,0.067 a 0.468,0.468 0 0 1 0.47,0.506 c 0.034,0.708 0.068,1.382 0.068,2.09 0,0.4 -0.034,0.843 -0.068,1.247 a 0.578,0.578 0 0 1 -0.571,0.506 c -0.74,0.067 -1.514,0.1 -2.254,0.2 a 1.172,1.172 0 0 0 -1.177,1.18 11.369,11.369 0 0 0 -0.033,1.854 c 0.067,0.91 0.3,1.146 1.21,1.213 0.639,0.034 1.278,0.034 1.917,0.1 0.505,0.033 0.74,0.2 0.774,0.707 a 22.847,22.847 0 0 1 0,2.63 c -0.034,0.607 -0.437,0.843 -1.278,0.91 -0.841,0.067 -1.682,0.1 -2.522,0.135 -0.236,0 -0.5,-0.371 -0.5,-0.674 v -1.579 a 6.149,6.149 0 0 0 -0.1,-1.112 0.676,0.676 0 0 0 -0.571,-0.573 2.949,2.949 0 0 0 -2.422,0.64 2.368,2.368 0 0 0 -0.471,1.146 4.148,4.148 0 0 0 0,1.113 c 0,0.27 0.135,0.4 0.4,0.539 a 4.727,4.727 0 0 0 1.816,0.371 h 0.841 a 0.58,0.58 0 0 1 0.639,0.674 c -0.034,0.506 -0.034,1.045 -0.034,1.551 -0.034,0.472 -0.034,0.91 -0.1,1.382 a 1.188,1.188 0 0 1 -1.009,0.876 c -0.908,0 -1.816,0.068 -2.69,0.1 -0.5,0.033 -0.707,-0.2 -0.74,-0.708 q -0.051,-0.961 -0.1,-1.922 c -0.1,-1.146 -1.043,-1.314 -1.816,-1.18 -1.783,0.3 -2.085,1.854 -1.85,3.068 0.1,0.506 0.572,0.539 0.942,0.573 0.706,0.034 -1.48,1.955 -1.547,1.18 -0.067,-0.506 -0.269,-0.775 -0.774,-0.809 a 20.465,20.465 0 0 0 -2.488,0.067 1.169,1.169 0 0 0 -0.908,1.113 c -0.1,0.741 -0.169,1.517 -0.236,2.258 -0.033,0.405 -0.2,0.573 -0.605,0.573 -0.707,0.034 -1.413,0.068 -2.119,0.068 -0.4,0 -0.774,-0.068 -1.177,-0.1 a 0.406,0.406 0 0 1 -0.37,-0.405 c -0.067,-0.843 -0.135,-1.719 -0.2,-2.562 a 1.117,1.117 0 0 0 -0.975,-1.045 c -0.774,-0.067 -1.581,-0.135 -2.354,-0.135 -0.639,0 -0.841,0.236 -0.908,0.877 -0.068,0.607 -0.468,1.161 -0.536,1.768 a 2.255,2.255 0 0 1 -0.234,0.936 c -0.1,0.2 -0.384,0.2 -0.585,0.235 a 14.048,14.048 0 0 1 -2.05,-0.059 c -0.639,-0.067 -0.635,-0.263 -0.7,-0.937 -0.034,-0.809 0.326,-1.441 0.293,-2.283 0,-0.439 0.031,-0.176 0.468,-0.176 0.942,-0.034 1.459,-0.133 2.4,-0.234 0.168,-0.034 0.507,-0.7 0.541,-0.9 a 5.129,5.129 0 0 0 -0.269,-2.461 1.335,1.335 0 0 0 -1.076,-0.809 4.1,4.1 0 0 0 -1.917,-0.135 0.766,0.766 0 0 0 -0.706,0.742 c -0.068,0.607 -0.1,1.213 -0.169,1.854 v 0.708 a 0.62,0.62 0 0 1 -0.706,0.64 c -0.807,-0.033 -1.614,-0.033 -2.421,-0.1 -0.807,-0.067 -1.076,-0.4 -1.076,-1.213 0,-0.708 -0.034,-1.416 -0.068,-2.124 0,-0.573 0.1,-0.775 0.673,-0.809 0.605,-0.068 1.244,-0.1 1.85,-0.135 a 6.751,6.751 0 0 0 0.874,-0.135 0.682,0.682 0 0 0 0.538,-0.674 10.108,10.108 0 0 0 -0.134,-2.023 1.54,1.54 0 0 0 -1.278,-1.247 c -0.4,-0.067 -1.985,-0.135 -2.523,-0.135 -0.033,0.674 -0.067,1.315 -0.1,1.955 -0.033,0.607 -0.067,1.18 -0.134,1.787 a 0.427,0.427 0 0 1 -0.236,0.3 7.2,7.2 0 0 1 -2.69,0 c -0.807,-0.1 -1.11,-0.438 -1.11,-1.247 v -1.651 c 0.034,-0.64 0.269,-0.943 0.875,-1.045 a 10.5,10.5 0 0 1 1.479,-0.168 c 0.4,-0.034 0.807,0 1.177,-0.034 0.505,-0.034 0.539,-0.034 0.539,-0.573 0,-1.011 -0.034,-2.023 -0.068,-3.034 0,-0.4 0.034,-5.427 0.068,-6 0.067,-1.045 0.067,-2.124 0.1,-3.169 0,-0.337 0.068,-0.506 0.471,-0.506 0.807,-0.033 1.615,-0.134 2.422,-0.236 a 1.435,1.435 0 0 0 1.244,-1.314 c 0.067,-0.641 0.1,-1.315 0.135,-1.955 0,-0.607 -0.135,-0.81 -0.74,-0.877 -0.437,-0.067 -0.875,-0.034 -1.312,-0.067 -0.5,-0.034 -1.043,-0.135 -1.547,-0.2 a 0.506,0.506 0 0 1 -0.471,-0.573 c 0,-0.775 -0.033,-1.55 0.034,-2.359 0.067,-0.708 0.336,-0.978 1.042,-1.045 0.774,-0.068 1.547,-0.034 2.287,-0.034 a 0.558,0.558 0 0 1 0.606,0.506 c 0.067,0.471 0.134,0.943 0.168,1.449 0.067,0.539 0.067,1.112 0.134,1.652 a 0.463,0.463 0 0 0 0.269,0.337 10.571,10.571 0 0 0 1.48,0.135 c 0.437,0 0.841,-0.135 1.278,-0.169 a 1.147,1.147 0 0 0 1.007,-1.045 10.713,10.713 0 0 0 0.235,-2.09 c 0.034,-1.112 0.169,-0.944 1.077,-1.011 l 2.858,-0.1 c 0.269,0 0.438,-0.135 0.471,-0.472 0.067,-0.978 0.168,-1.922 0.269,-2.865 0.068,-0.54 0.337,-0.742 0.875,-0.776 h 2.32 c 0.606,0 0.875,0.27 0.942,0.877 0.067,0.775 0.134,1.517 0.2,2.292 0.067,0.708 0.2,0.91 0.908,0.944 0.975,0.067 1.984,0.034 2.959,0.034 a 0.356,0.356 0 0 0 0.4,-0.338 c 0.033,-0.269 0.1,-0.573 0.134,-0.842" />
      <g
         style="opacity:0.8"
         id="g34">
        <path
           style="fill:#38a038"
           inkscape:connector-curvature="0"
           id="path32"
           d="M 28.2,74.532 A 0.972,0.972 0 0 1 27.359,75.048 25.532,25.532 0 0 1 24.6,74.82 0.617,0.617 0 0 1 24.129,74.213 c -0.034,-0.64 -0.067,-1.314 -0.067,-1.955 A 1.15,1.15 0 0 1 25.3,71.011 c 0.673,-0.034 1.345,-0.034 1.984,-0.034 0.5,0 0.74,0.236 0.808,0.742 a 26.436,26.436 0 0 1 0.108,2.813 z" />
      </g>
      <g
         style="opacity:0.8"
         id="g38">
        <path
           style="fill:#38a038"
           inkscape:connector-curvature="0"
           id="path36"
           d="m 34.957,62.082 c 0.4,0.034 0.807,0.068 1.211,0.068 a 0.614,0.614 0 0 1 0.605,0.472 18.3,18.3 0 0 1 0.241,2.909 0.822,0.822 0 0 1 -0.673,0.793 c -0.687,-0.011 -1.379,-0.036 -2.09,-0.062 a 2.134,2.134 0 0 1 -0.908,-0.236 0.7,0.7 0 0 1 -0.437,-0.741 c 0,-0.675 0.033,-1.349 0.067,-1.989 A 1.1,1.1 0 0 1 34.15,62.15 c 0.235,-0.034 0.505,-0.034 0.807,-0.068 z" />
      </g>
      <g
         style="opacity:0.8"
         id="g42">
        <path
           style="fill:#38a038"
           inkscape:connector-curvature="0"
           id="path40"
           d="m 63.781,84.6 a 0.336,0.336 0 0 1 0.2,-0.27 10.054,10.054 0 0 1 1.412,-0.135 11.409,11.409 0 0 1 1.413,0.135 0.923,0.923 0 0 1 0.941,0.843 4.493,4.493 0 0 1 -0.134,2.494 0.8,0.8 0 0 1 -0.5,0.438 23.756,23.756 0 0 1 -2.69,0.135 0.667,0.667 0 0 1 -0.639,-0.741 C 63.747,87.025 63.747,85.1 63.781,84.6 Z" />
      </g>
      <g
         style="opacity:0.8"
         id="g46">
        <path
           style="fill:#38a038"
           inkscape:connector-curvature="0"
           id="path44"
           d="m 65.729,75.43 h 0.807 c 0.807,0.034 1.076,0.2 1.211,1.012 a 3.779,3.779 0 0 1 -0.135,2.359 c -0.1,0.169 -0.269,0.405 -0.437,0.438 a 6.473,6.473 0 0 1 -2.792,0.135 c -0.5,-0.1 -0.6,-0.236 -0.6,-0.775 v -2.225 c 0,-0.708 0.135,-0.843 0.807,-0.944 0.1,0 0.168,-0.033 0.269,-0.033 a 7.756,7.756 0 0 1 0.875,0.033 z" />
      </g>
      <g
         style="opacity:0.8"
         id="g50">
        <path
           style="fill:#38a038"
           inkscape:connector-curvature="0"
           id="path48"
           d="m 48.208,106 c -0.4,-0.034 -0.773,-0.067 -1.177,-0.135 a 0.751,0.751 0 0 1 -0.672,-0.674 24.818,24.818 0 0 1 -0.2,-2.731 0.551,0.551 0 0 1 0.673,-0.573 c 0.807,0.034 1.614,-0.033 2.421,0 0.74,0.068 0.975,0.337 0.942,1.113 a 13.965,13.965 0 0 1 -0.068,1.685 c -0.067,0.91 -0.5,1.281 -1.412,1.281 A 2.7,2.7 0 0 0 48.208,106 Z" />
      </g>
      <g
         style="opacity:0.8"
         id="g54">
        <path
           style="fill:#38a038"
           inkscape:connector-curvature="0"
           id="path52"
           d="m 41.383,103.611 c -0.033,0.438 -0.033,0.876 -0.1,1.315 a 1.14,1.14 0 0 1 -1.144,1.045 11.574,11.574 0 0 1 -1.513,0 1.08,1.08 0 0 1 -1.177,-1.18 c -0.034,-0.472 -0.068,-0.978 -0.068,-1.45 a 3.9,3.9 0 0 1 0.236,-1.045 c 0.134,-0.371 0.5,-0.337 0.807,-0.371 0.706,-0.033 1.446,-0.033 2.186,-0.033 a 0.762,0.762 0 0 1 0.773,0.775 8.125,8.125 0 0 1 0,0.91 c -0.033,0.034 0,0.034 0,0.034 z" />
      </g>
      <g
         style="opacity:0.8"
         id="g58">
        <path
           style="fill:#38a038"
           inkscape:connector-curvature="0"
           id="path56"
           d="m 63.443,99.6 v 0.708 c -0.034,0.708 -0.269,1.113 -0.975,1.18 a 11.024,11.024 0 0 1 -2.355,-0.135 c -0.168,-0.033 -0.47,-0.3 -0.47,-0.472 a 14.637,14.637 0 0 1 -0.135,-2.427 c 0.034,-0.674 0.336,-0.843 1.009,-0.876 a 16.453,16.453 0 0 1 1.816,0.067 1.13,1.13 0 0 1 1.076,1.18 5.919,5.919 0 0 1 0.034,0.775 z" />
      </g>
      <g
         style="opacity:0.8"
         id="g62">
        <path
           style="fill:#38a038"
           inkscape:connector-curvature="0"
           id="path60"
           d="M 65.868,70.44 H 65.1 c -0.639,-0.034 -1.009,-0.236 -1.043,-0.877 a 10.781,10.781 0 0 1 0.067,-2.326 0.848,0.848 0 0 1 0.875,-0.707 c 0.639,0 1.311,0 1.95,0.033 a 0.74,0.74 0 0 1 0.774,0.674 5.366,5.366 0 0 1 0,2.529 0.789,0.789 0 0 1 -0.74,0.64 6.061,6.061 0 0 1 -1.11,0.034 z" />
      </g>
      <g
         style="opacity:0.8"
         id="g66">
        <path
           style="fill:#38a038"
           inkscape:connector-curvature="0"
           id="path64"
           d="m 28.031,99.561 c -0.034,0.371 -0.034,0.708 -0.1,1.079 -0.168,0.674 -0.4,0.876 -1.076,0.91 a 12.262,12.262 0 0 1 -1.581,0 1.116,1.116 0 0 1 -1.174,-1.25 c -0.034,-0.472 0,-0.978 0,-1.45 a 1.124,1.124 0 0 1 1.143,-1.18 13.726,13.726 0 0 1 1.648,0 1.133,1.133 0 0 1 1.144,1.214 4.454,4.454 0 0 0 -0.004,0.677 z" />
      </g>
      <g
         style="opacity:0.8"
         id="g70">
        <path
           style="fill:#38a038"
           inkscape:connector-curvature="0"
           id="path68"
           d="m 28,64.071 a 6.067,6.067 0 0 1 0,0.775 1.175,1.175 0 0 1 -1.244,1.214 h -1.418 a 1.141,1.141 0 0 1 -1.211,-1.18 12.146,12.146 0 0 1 0,-1.55 1.151,1.151 0 0 1 1.173,-1.18 10.747,10.747 0 0 1 1.48,0 1.168,1.168 0 0 1 1.22,1.281 4.117,4.117 0 0 1 0,0.64 z" />
      </g>
      <g
         style="opacity:0.8"
         id="g74">
        <path
           style="fill:#38a038"
           inkscape:connector-curvature="0"
           id="path72"
           d="m 57.021,105.971 h -0.74 a 1.043,1.043 0 0 1 -1.143,-1.078 13.545,13.545 0 0 1 0.134,-2.326 0.592,0.592 0 0 1 0.438,-0.4 15.165,15.165 0 0 1 2.152,-0.067 c 0.774,0.033 1.11,0.438 1.144,1.213 v 1.382 a 1.185,1.185 0 0 1 -1.278,1.281 z" />
      </g>
      <g
         style="opacity:0.8"
         id="g78">
        <path
           style="fill:#38a038"
           inkscape:connector-curvature="0"
           id="path76"
           d="m 19.99,86.252 v -1.18 c 0,-0.371 0.135,-0.641 0.505,-0.641 a 13.084,13.084 0 0 1 1.984,-0.033 c 1.043,0.067 1.11,0.168 1.11,1.213 q 0,1.062 -0.1,2.124 c -0.034,0.337 -0.235,0.472 -0.572,0.506 -0.706,0.033 -1.446,0.067 -2.152,0.033 -0.639,-0.033 -0.807,-0.236 -0.807,-0.876 v -0.573 a 3.547,3.547 0 0 0 0.032,-0.573 z" />
      </g>
      <g
         style="opacity:0.8"
         id="g82">
        <path
           style="fill:#38a038"
           inkscape:connector-curvature="0"
           id="path80"
           d="m 48.176,58 h 1.076 c 0.606,0 0.875,0.169 0.909,0.775 a 17.08,17.08 0 0 1 -0.1,2.259 c -0.034,0.371 -0.337,0.539 -0.841,0.573 -0.706,0.034 -1.413,0.034 -2.153,0 a 0.639,0.639 0 0 1 -0.739,-0.674 6.562,6.562 0 0 1 0.067,-2.562 C 46.462,58.101 46.63,58 46.933,58 Z" />
      </g>
      <g
         style="opacity:0.8"
         id="g86">
        <path
           style="fill:#38a038"
           inkscape:connector-curvature="0"
           id="path84"
           d="M 19.992,77.382 V 76.1 c 0,-0.337 0.134,-0.573 0.471,-0.607 a 4.691,4.691 0 0 1 2.724,0.169 0.635,0.635 0 0 1 0.336,0.438 c 0.034,0.809 0.1,1.618 0.067,2.427 -0.033,0.573 -0.269,0.775 -0.807,0.809 -0.639,0.034 -1.278,0.034 -1.917,0.034 -0.639,0 -0.84,-0.236 -0.84,-0.877 -0.034,-0.369 -0.034,-0.74 -0.034,-1.111 z" />
      </g>
      <g
         style="opacity:0.8"
         id="g90">
        <path
           style="fill:#38a038"
           inkscape:connector-curvature="0"
           id="path88"
           d="m 39.331,58 h 1.21 c 0.438,0 0.673,0.135 0.673,0.573 0.034,0.843 0,1.686 -0.034,2.528 -0.033,0.405 -0.437,0.506 -0.74,0.506 a 19.385,19.385 0 0 1 -2.421,-0.067 0.611,0.611 0 0 1 -0.437,-0.338 5.27,5.27 0 0 1 -0.135,-2.8 c 0.034,-0.3 0.236,-0.405 0.538,-0.405 z" />
      </g>
      <g
         style="opacity:0.8"
         id="g94">
        <path
           style="fill:#38a038"
           inkscape:connector-curvature="0"
           id="path92"
           d="M 19.99,95.117 V 93.9 c 0,-0.3 0.1,-0.472 0.37,-0.54 a 4.2,4.2 0 0 1 2.724,0.1 0.648,0.648 0 0 1 0.37,0.506 18.731,18.731 0 0 1 0,2.393 0.928,0.928 0 0 1 -0.47,0.607 4.513,4.513 0 0 1 -2.59,0.1 0.557,0.557 0 0 1 -0.437,-0.606 c 0.033,-0.466 0.033,-0.905 0.033,-1.343 z" />
      </g>
      <g
         style="opacity:0.8"
         id="g98">
        <path
           style="fill:#38a038"
           inkscape:connector-curvature="0"
           id="path96"
           d="m 57.054,58 h 1.076 c 0.572,0 0.774,0.067 0.807,0.64 a 12.642,12.642 0 0 1 -0.067,2.26 0.705,0.705 0 0 1 -0.74,0.641 14.509,14.509 0 0 1 -2.085,0 c -0.605,-0.034 -0.908,-0.439 -0.908,-1.18 -0.034,-0.506 0,-1.012 0,-1.517 0.034,-0.641 0.236,-0.809 0.875,-0.809 A 10.326,10.326 0 0 1 57.054,58 Z" />
      </g>
      <g
         style="opacity:0.7"
         id="g140">
        <g
           style="opacity:0.7"
           id="g102">
          <path
             style="fill:#00b294"
             inkscape:connector-curvature="0"
             id="path100"
             d="m 45.754,64.942 h 1.009 c 0.505,0 0.706,0.067 0.74,0.573 a 11,11 0 0 1 -0.067,2.09 0.672,0.672 0 0 1 -0.707,0.607 12.256,12.256 0 0 1 -1.916,0 c -0.572,-0.034 -0.841,-0.405 -0.841,-1.113 v -1.416 c 0.033,-0.607 0.2,-0.741 0.807,-0.741 z" />
        </g>
        <g
           style="opacity:0.7"
           id="g106">
          <path
             style="fill:#00b294"
             inkscape:connector-curvature="0"
             id="path104"
             d="m 37.681,68.216 h 1.009 c 0.505,0 0.706,0.067 0.74,0.573 a 11,11 0 0 1 -0.067,2.09 0.671,0.671 0 0 1 -0.706,0.607 12.268,12.268 0 0 1 -1.917,0 c -0.572,-0.034 -0.841,-0.405 -0.841,-1.113 v -1.415 c 0.033,-0.607 0.2,-0.742 0.807,-0.742 z" />
        </g>
        <g
           style="opacity:0.7"
           id="g110">
          <path
             style="fill:#00b294"
             inkscape:connector-curvature="0"
             id="path108"
             d="m 30.668,76.942 h 1.009 c 0.5,0 0.706,0.068 0.74,0.573 a 10.915,10.915 0 0 1 -0.068,2.09 0.671,0.671 0 0 1 -0.706,0.607 12.147,12.147 0 0 1 -1.917,0 c -0.572,-0.034 -0.841,-0.4 -0.841,-1.112 v -1.416 c 0.034,-0.607 0.2,-0.742 0.808,-0.742 z" />
        </g>
        <g
           style="opacity:0.7"
           id="g114">
          <path
             style="fill:#00b294"
             inkscape:connector-curvature="0"
             id="path112"
             d="m 30.97,84.286 h 1.009 c 0.505,0 0.706,0.067 0.74,0.573 a 11,11 0 0 1 -0.067,2.09 0.672,0.672 0 0 1 -0.707,0.607 12.268,12.268 0 0 1 -1.917,0 c -0.571,-0.034 -0.84,-0.405 -0.84,-1.113 v -1.416 c 0.033,-0.606 0.2,-0.741 0.807,-0.741 z" />
        </g>
        <g
           style="opacity:0.7"
           id="g118">
          <path
             style="fill:#00b294"
             inkscape:connector-curvature="0"
             id="path116"
             d="m 37.681,90.432 h 1.009 c 0.505,0 0.706,0.068 0.74,0.573 a 11,11 0 0 1 -0.067,2.09 0.671,0.671 0 0 1 -0.706,0.607 12.147,12.147 0 0 1 -1.917,0 c -0.572,-0.034 -0.841,-0.4 -0.841,-1.112 v -1.416 c 0.033,-0.607 0.2,-0.742 0.807,-0.742 z" />
        </g>
        <g
           style="opacity:0.7"
           id="g122">
          <path
             style="fill:#00b294"
             inkscape:connector-curvature="0"
             id="path120"
             d="M 42.087,93.9 H 43.1 c 0.5,0 0.706,0.068 0.739,0.573 a 10.913,10.913 0 0 1 -0.067,2.09 0.671,0.671 0 0 1 -0.706,0.607 12.147,12.147 0 0 1 -1.917,0 c -0.572,-0.034 -0.841,-0.4 -0.841,-1.112 v -1.413 c 0.034,-0.607 0.2,-0.742 0.807,-0.742 z" />
        </g>
        <g
           style="opacity:0.7"
           id="g126">
          <path
             style="fill:#00b294"
             inkscape:connector-curvature="0"
             id="path124"
             d="m 51,90.193 h 1.009 c 0.5,0 0.706,0.068 0.739,0.573 a 10.921,10.921 0 0 1 -0.067,2.091 0.671,0.671 0 0 1 -0.706,0.606 12.029,12.029 0 0 1 -1.917,0 c -0.572,-0.033 -0.841,-0.4 -0.841,-1.112 v -1.416 c 0.034,-0.607 0.2,-0.742 0.807,-0.742 z" />
        </g>
        <g
           style="opacity:0.7"
           id="g130">
          <path
             style="fill:#00b294"
             inkscape:connector-curvature="0"
             id="path128"
             d="m 56.884,79.373 h 1.008 c 0.5,0 0.707,0.068 0.74,0.573 a 10.913,10.913 0 0 1 -0.067,2.09 0.671,0.671 0 0 1 -0.706,0.607 12.147,12.147 0 0 1 -1.917,0 c -0.572,-0.034 -0.841,-0.4 -0.841,-1.112 v -1.416 c 0.034,-0.607 0.2,-0.742 0.807,-0.742 z" />
        </g>
        <g
           style="opacity:0.7"
           id="g134">
          <path
             style="fill:#00b294"
             inkscape:connector-curvature="0"
             id="path132"
             d="m 53.926,69.059 h 1.008 c 0.505,0 0.707,0.067 0.74,0.573 a 10.913,10.913 0 0 1 -0.067,2.09 0.671,0.671 0 0 1 -0.706,0.607 12.147,12.147 0 0 1 -1.917,0 c -0.572,-0.034 -0.841,-0.4 -0.841,-1.113 V 69.8 c 0.034,-0.607 0.2,-0.742 0.807,-0.742 z" />
        </g>
        <g
           style="opacity:0.7"
           id="g138">
          <path
             style="fill:#00b294"
             inkscape:connector-curvature="0"
             id="path136"
             d="m 58.029,85.373 h 1.009 c 0.5,0 0.706,0.068 0.739,0.574 a 10.913,10.913 0 0 1 -0.067,2.09 0.671,0.671 0 0 1 -0.706,0.606 12.029,12.029 0 0 1 -1.917,0 c -0.572,-0.033 -0.841,-0.4 -0.841,-1.112 v -1.416 c 0.034,-0.607 0.2,-0.742 0.807,-0.742 z" />
        </g>
      </g>
      <path
         style="fill:#5ecff1"
         inkscape:connector-curvature="0"
         id="path142"
         d="M 30.589,66.326 H 31.9 c 0.672,0 0.941,0.1 0.975,0.809 a 15.975,15.975 0 0 1 -0.1,2.832 0.863,0.863 0 0 1 -0.908,0.809 20.667,20.667 0 0 1 -2.489,0 c -0.74,-0.068 -1.076,-0.573 -1.11,-1.484 a 18.381,18.381 0 0 1 0.034,-1.921 c 0.034,-0.809 0.269,-1.011 1.043,-1.011 0.403,-0.034 0.807,-0.034 1.244,-0.034 z" />
      <path
         style="fill:#5ecff1"
         inkscape:connector-curvature="0"
         id="path144"
         d="m 52.545,62.18 h 1.312 c 0.673,0 0.942,0.1 0.975,0.81 a 15.873,15.873 0 0 1 -0.1,2.831 0.862,0.862 0 0 1 -0.908,0.809 20.246,20.246 0 0 1 -2.488,0 c -0.74,-0.067 -1.076,-0.573 -1.11,-1.483 a 18.129,18.129 0 0 1 0.034,-1.922 c 0.033,-0.809 0.269,-1.011 1.042,-1.011 0.403,-0.034 0.84,-0.034 1.243,-0.034 z" />
      <path
         style="fill:#5ecff1"
         inkscape:connector-curvature="0"
         id="path146"
         d="m 52.471,97.129 h 1.311 c 0.673,0 0.942,0.1 0.976,0.809 a 15.964,15.964 0 0 1 -0.1,2.831 0.863,0.863 0 0 1 -0.908,0.809 20.262,20.262 0 0 1 -2.489,0 c -0.74,-0.067 -1.076,-0.573 -1.11,-1.483 a 18.381,18.381 0 0 1 0.034,-1.921 c 0.034,-0.809 0.269,-1.012 1.042,-1.012 0.403,-0.033 0.84,-0.033 1.244,-0.033 z" />
      <path
         style="fill:#5ecff1"
         inkscape:connector-curvature="0"
         id="path148"
         d="m 35.029,97.241 h 1.312 c 0.673,0 0.942,0.1 0.975,0.809 a 15.873,15.873 0 0 1 -0.1,2.831 0.862,0.862 0 0 1 -0.908,0.809 20.246,20.246 0 0 1 -2.488,0 c -0.74,-0.067 -1.077,-0.573 -1.11,-1.483 a 18.38,18.38 0 0 1 0.033,-1.921 c 0.034,-0.809 0.27,-1.012 1.043,-1.012 0.403,-0.033 0.806,-0.033 1.243,-0.033 z" />
      <path
         style="fill:#5ecff1"
         inkscape:connector-curvature="0"
         id="path150"
         d="m 26.247,79.64 h 1.311 c 0.673,0 0.942,0.1 0.976,0.809 a 15.975,15.975 0 0 1 -0.1,2.832 0.863,0.863 0 0 1 -0.908,0.809 20.463,20.463 0 0 1 -2.489,0 c -0.74,-0.067 -1.076,-0.573 -1.11,-1.483 a 18.4,18.4 0 0 1 0.034,-1.922 c 0.034,-0.809 0.269,-1.011 1.042,-1.011 0.403,-0.034 0.84,-0.034 1.244,-0.034 z" />
      <path
         style="fill:#ffffff"
         inkscape:connector-curvature="0"
         id="path152"
         d="m 53.23,86.657 -9.021,5.229 -8.957,-5.294 0.032,-10.522 9.021,-5.2 8.957,5.293 z" />
      <path
         style="fill:#5ecff1"
         inkscape:connector-curvature="0"
         id="path154"
         d="m 61.223,70.879 h 1.311 c 0.673,0 0.942,0.1 0.975,0.809 a 15.96,15.96 0 0 1 -0.1,2.831 0.864,0.864 0 0 1 -0.909,0.81 20.651,20.651 0 0 1 -2.488,0 c -0.74,-0.068 -1.076,-0.574 -1.11,-1.484 a 18.111,18.111 0 0 1 0.034,-1.921 c 0.033,-0.809 0.269,-1.011 1.042,-1.011 0.404,-0.034 0.807,-0.034 1.245,-0.034 z" />
    </g>
  </g>
</svg>
