<?xml version="1.0" encoding="utf-8"?>
<!-- Generator: Adobe Illustrator 24.2.0, SVG Export Plug-In . SVG Version: 6.00 Build 0)  -->
<svg version="1.1" id="Layer_1" xmlns="http://www.w3.org/2000/svg" xmlns:xlink="http://www.w3.org/1999/xlink" x="0px" y="0px"
	 viewBox="0 0 281.3 91.1" style="enable-background:new 0 0 281.3 91.1;" xml:space="preserve">
<style type="text/css">
	.st0{fill:#F79422;}
	.st1{fill:#3D3C3B;}
</style>
<g id="Layer_1_1_">
	<path class="st0" d="M265.7,84L257,73h-2.7v17.7h3.3v-12l9.3,12h2.1V73h-3.3V84z M233.3,75.7c4.2,0,5.8,3.3,5.8,6.3s-1.6,6-5.8,6
		s-5.7-3.1-5.8-6S229.2,75.7,233.3,75.7z M233.3,72.7c-6.1,0-9.1,4.7-9.1,9.3c0,4.7,2.9,9.1,9.1,9.1s9-4.6,9.1-9.2
		S239.4,72.7,233.3,72.7z M212.1,90.7V73h-3.3v17.7H212.1z M188.5,90.7h3.3V76h5.6v-3h-14.6v3h5.6L188.5,90.7z M169.6,84.2H163
		l3.3-7.6L169.6,84.2z M172.4,90.7h3.6L168.2,73h-3.6l-8,17.7h3.6l1.5-3.3h9.3L172.4,90.7z M134.4,76.1h3.6c3.9,0,5.5,2.8,5.5,5.5
		c0.1,2.8-1.5,5.8-5.5,5.8h-3.6V76.1z M138.1,73h-6.9v17.7h6.9c6.2,0,8.9-4.5,8.9-9S144.2,73,138.1,73L138.1,73z M115.7,84L107,73
		h-2.7v17.7h3.3v-12l9.3,12h2.1V73h-3.3V84z M88.2,73v10.2c0,3-1.6,4.9-4.3,4.9s-4.6-1.7-4.6-4.9V73H76v10.1c0,5.3,3.6,7.9,7.9,7.9
		c4.4,0,7.7-2.7,7.7-7.9V73L88.2,73z M55.2,75.7c4.2,0,5.8,3.3,5.8,6.3c0,3-1.6,6-5.8,6s-5.7-3.1-5.8-6S51.1,75.7,55.2,75.7
		L55.2,75.7z M55.2,72.7c-6.1,0-9.1,4.7-9.1,9.3s2.9,9.1,9.1,9.1s9-4.6,9.1-9.2S61.3,72.7,55.2,72.7L55.2,72.7z M25.5,90.7v-6.5h8.9
		v-3.1h-8.9v-4.8h9.4V73H22.2v17.6H25.5z"/>
	<path class="st1" d="M269.4,54.4h-22.2v-8.9h21.4v-6.9h-21.4v-9.1h22.2v-7.2h-29.6v39.5h29.6V54.4z M229.4,28.8
		c-3-6.1-9.4-7.8-15.5-7.8c-7.3,0-15.3,3.4-15.3,11.5c0,8.9,7.4,11,15.5,12c5.2,0.6,9.1,2.1,9.1,5.8c0,4.3-4.4,5.9-9.1,5.9
		s-9.4-1.9-11.1-6.3l-6.2,3.2c2.9,7.2,9.1,9.7,17.2,9.7c8.8,0,16.6-3.8,16.6-12.6c0-9.4-7.7-11.6-15.9-12.6c-4.7-0.6-8.8-1.5-8.8-5
		c0-2.9,2.6-5.2,8.2-5.2c4.3,0,8,2.2,9.4,4.4L229.4,28.8z M176,22.2c-6.2-0.1-12.4,0-18.6,0v39.5h7.4V50.1H176
		C195.4,50.1,195.4,22.2,176,22.2L176,22.2z M164.9,29.3H176c9.5,0,9.5,14,0,14h-11.2L164.9,29.3z M146.9,61.8V22.2h-7.4v39.5
		L146.9,61.8z M102.9,22.2v39.5h27.7v-6.9h-20.3V22.2L102.9,22.2z M90.7,51.7c-2.7,2.5-6.2,4-9.9,4c-9.8,0-13.5-6.8-13.6-13.4
		s4.1-13.7,13.6-13.7c3.5-0.1,7,1.3,9.5,3.7l5-4.8c-3.8-3.9-9.1-6-14.5-6c-14.3,0-21,10.5-20.9,20.8s6.3,20.3,20.9,20.3
		c5.6,0.1,11-2,15-5.9L90.7,51.7z M51.7,54.4H29.5v-8.9h21.4v-6.9H29.5v-9.1h22.2v-7.2H22.2v39.5h29.6L51.7,54.4z"/>
	<path class="st0" d="M9.8,18.2c9-14.1,27.1-19,42.3-12.2l-1-0.7c-15.4-9.9-35.9-5.4-45.8,10s-5.4,35.9,10,45.8l1.1,0.6
		C3.8,50.8,0.8,32.3,9.8,18.2z"/>
	<path class="st1" d="M272.2,26.1L272.2,26.1c0-2.5,2.1-4.6,4.6-4.6c2.5,0,4.6,2.1,4.6,4.6l0,0c0,2.5-2.1,4.6-4.6,4.6
		C274.2,30.7,272.2,28.6,272.2,26.1z M280.8,26.1L280.8,26.1c0-2.2-1.8-4.1-4-4.1c-2.2,0-4.1,1.8-4.1,4.1l0,0l0,0
		c0,2.2,1.7,4,3.9,4.1c0,0,0.1,0,0.1,0C279,30.2,280.8,28.4,280.8,26.1C280.8,26.1,280.8,26.1,280.8,26.1L280.8,26.1z M274.8,23.6
		h2.3c1.1,0,1.9,0.5,1.9,1.6c0,0.7-0.4,1.3-1.1,1.5l1.2,1.7h-1.4l-1-1.5H276v1.5h-1.1L274.8,23.6z M277,25.9c0.5,0,0.8-0.3,0.8-0.7
		s-0.3-0.7-0.8-0.7h-1v1.3L277,25.9z"/>
</g>
</svg>
