<svg width="48" height="48" viewBox="0 0 48 48" fill="none" xmlns="http://www.w3.org/2000/svg">
<rect width="48" height="48" rx="6" fill="#11100F"/>
<path d="M8 24.4065C8 31.6533 12.584 37.8016 18.9428 39.9717C19.7433 40.1219 20.035 39.6154 20.035 39.18C20.035 38.7914 20.0213 37.7591 20.0134 36.3909C15.5633 37.3817 14.6238 34.1913 14.6238 34.1913C13.8963 32.2959 12.8473 31.7922 12.8473 31.7922C11.3946 30.774 12.9572 30.7944 12.9572 30.7944C14.5632 30.9112 15.4079 32.4851 15.4079 32.4851C16.8349 34.9918 19.152 34.2676 20.0645 33.8487C20.21 32.7886 20.6225 32.0651 21.0799 31.6554C17.5275 31.2414 13.7922 29.8335 13.7922 23.5473C13.7922 21.7567 14.4157 20.2921 15.4394 19.1455C15.274 18.7305 14.7252 17.0627 15.5955 14.8036C15.5955 14.8036 16.939 14.3625 19.9956 16.4855C21.2717 16.1208 22.6408 15.9396 24.001 15.933C25.3592 15.9396 26.7287 16.1208 28.0064 16.4855C31.0614 14.3625 32.4018 14.8036 32.4018 14.8036C33.2752 17.0627 32.726 18.7305 32.561 19.1455C33.5864 20.2921 34.2061 21.7567 34.2061 23.5473C34.2061 29.8497 30.465 31.2365 26.9006 31.6424C27.4754 32.1488 27.9869 33.1502 27.9869 34.6805C27.9869 36.8727 27.967 38.6422 27.967 39.18C27.967 39.6193 28.2553 40.13 29.0674 39.97C35.4191 37.7956 40 31.6512 40 24.4065C40 15.3445 32.8359 8 23.9993 8C15.1641 8 8 15.3445 8 24.4065Z" fill="white"/>
</svg>
