<?xml version="1.0" encoding="UTF-8"?> <!-- Generator: Adobe Illustrator 23.1.0, SVG Export Plug-In . SVG Version: 6.00 Build 0) --> <svg xmlns="http://www.w3.org/2000/svg" xmlns:xlink="http://www.w3.org/1999/xlink" id="Layer_1" x="0px" y="0px" viewBox="0 0 1000 102.2" style="enable-background:new 0 0 1000 102.2;" xml:space="preserve"> <style type="text/css"> .st0{fill:#E0592A;} .st1{fill:#00ADBB;} .st2{fill:#00829B;} </style> <g> <g id="XMLID_2_"> <g id="XMLID_17_"> <g id="XMLID_20_"> <path id="XMLID_21_" class="st0" d="M78.8,87.7c-0.4,0-0.8-0.2-1-0.5c-0.5-0.6-0.4-1.4,0.1-1.9c9.8-8.6,15.3-21,15.3-33.9 c0-7.9-2.1-15.8-6.1-22.6c-0.4-0.7-0.2-1.5,0.5-1.9c0.7-0.4,1.5-0.2,1.9,0.5c4.2,7.3,6.4,15.6,6.4,24c0,13.8-5.9,26.9-16.3,36 C79.4,87.5,79.1,87.7,78.8,87.7z"></path> </g> <g id="XMLID_18_"> <path id="XMLID_19_" class="st0" d="M48,99.3c-26.5,0-48-21.5-48-48c0-26.5,21.5-48,48-48c5.4,0,10.6,0.9,15.6,2.6 c0.7,0.2,1.1,1,0.9,1.8c-0.2,0.7-1,1.1-1.8,0.9C58,6.9,53,6.1,48,6.1C23,6.1,2.8,26.4,2.8,51.3C2.8,76.2,23,96.5,48,96.5 c0.8,0,1.4,0.6,1.4,1.4S48.7,99.3,48,99.3z"></path> </g> </g> <g id="XMLID_10_"> <g id="XMLID_15_"> <path id="XMLID_16_" class="st1" d="M169,99.3c-22.7,0-42.5-16.1-47-38.3c-0.2-0.7,0.3-1.5,1.1-1.6c0.7-0.2,1.5,0.3,1.6,1.1 c4.3,20.9,22.9,36.1,44.3,36.1c0.8,0,1.4,0.6,1.4,1.4S169.8,99.3,169,99.3z"></path> </g> <g id="XMLID_12_"> <path id="XMLID_13_" class="st1" d="M199.9,87.6c-0.4,0-0.8-0.2-1-0.5c-0.5-0.6-0.4-1.4,0.1-1.9c9.7-8.6,15.3-20.9,15.3-33.9 c0-24.9-20.3-45.2-45.2-45.2c-16.1,0-31.1,8.7-39.2,22.6c-0.4,0.7-1.2,0.9-1.9,0.5c-0.7-0.4-0.9-1.2-0.5-1.9 c8.6-14.8,24.5-24,41.6-24c26.5,0,48,21.5,48,48c0,13.8-5.9,26.9-16.2,36C200.5,87.5,200.2,87.6,199.9,87.6z"></path> </g> </g> <g id="XMLID_5_"> <g id="XMLID_8_"> <path id="XMLID_9_" class="st2" d="M146.7,23.4C146.7,23.5,146.7,23.5,146.7,23.4c-0.5,0.4-0.5,1-0.2,1.5 c5.1,7.4,8.1,16.3,8.1,25.8c0,9.9-3.2,19.1-8.5,26.5c-0.3,0.5-0.3,1.1,0.2,1.4c0,0,0,0,0,0c0.5,0.4,1.2,0.3,1.6-0.2 c5.6-7.8,8.9-17.4,8.9-27.8c0-10.1-3.1-19.4-8.4-27.1C147.9,23.1,147.2,23.1,146.7,23.4z"></path> </g> <g id="XMLID_6_"> <path id="XMLID_7_" class="st2" d="M129,92.5c-0.3-0.3-0.8-0.4-1.2-0.2c-5.8,2.6-12.2,4.1-19,4.1c-6.9,0-13.5-1.6-19.4-4.3 c-0.4-0.2-0.9-0.1-1.2,0.2c0,0,0,0,0,0c-0.5,0.5-0.4,1.4,0.3,1.7c6.2,2.9,13.1,4.6,20.4,4.6c7.1,0,13.8-1.6,19.9-4.3 C129.4,93.9,129.6,93,129,92.5C129,92.5,129,92.5,129,92.5z"></path> </g> </g> <g id="XMLID_3_"> <path id="XMLID_4_" class="st2" d="M72,79.1c-0.4,0-0.8-0.2-1.1-0.5c-0.2-0.3-22.3-28.2-1-56.3C93.9-9,129.6,7.3,130,7.5 c0.7,0.3,1,1.1,0.7,1.8c-0.3,0.7-1.1,1-1.8,0.7C127.4,9.3,94.7-5.6,72.2,24c-20,26.3,0.7,52.6,0.9,52.8c0.5,0.6,0.4,1.5-0.2,1.9 C72.6,79,72.3,79.1,72,79.1z"></path> </g> </g> <g id="XMLID_22_"> <g id="XMLID_1_"> <g> <path id="XMLID_208_" class="st0" d="M228.8,51.2c0-6.5,1.2-12.7,3.7-18.5c2.5-5.8,5.9-10.9,10.2-15.3C247.1,13,252.2,9.6,258,7 c5.8-2.5,12-3.8,18.6-3.8c6.5,0,12.7,1.3,18.5,3.8c5.8,2.5,10.9,6,15.3,10.4c4.4,4.4,7.8,9.5,10.4,15.3c2.5,5.8,3.8,12,3.8,18.5 c0,6.6-1.3,12.8-3.8,18.6c-2.5,5.8-6,10.9-10.4,15.2c-4.4,4.3-9.5,7.7-15.3,10.2c-5.8,2.5-12,3.7-18.5,3.7 c-6.6,0-12.8-1.2-18.6-3.7c-5.8-2.5-10.9-5.9-15.2-10.2c-4.3-4.3-7.7-9.4-10.2-15.2C230.1,64,228.8,57.8,228.8,51.2z M239.9,51.2c0,5.2,1,10,2.9,14.5c1.9,4.5,4.5,8.4,7.9,11.8s7.2,6,11.7,8c4.5,2,9.2,2.9,14.3,2.9c5.1,0,9.9-1,14.3-2.9 c4.5-2,8.4-4.6,11.7-8s6-7.3,7.9-11.8c1.9-4.5,2.9-9.3,2.9-14.5s-1-10-2.9-14.5c-1.9-4.5-4.5-8.4-7.9-11.8 c-3.3-3.4-7.2-6.1-11.7-8c-4.5-2-9.2-2.9-14.3-2.9c-5.1,0-9.9,1-14.3,2.9c-4.5,2-8.4,4.6-11.7,8c-3.3,3.4-6,7.3-7.9,11.8 C240.9,41.2,239.9,46.1,239.9,51.2z"></path> <path id="XMLID_205_" class="st0" d="M340.6,97.9V4.3h22.1c3,0,6.4,0.5,10.1,1.4c3.7,0.9,7.2,2.4,10.4,4.5 c3.2,2.1,5.9,4.7,8,7.9c2.1,3.2,3.2,7.1,3.2,11.6c0,8.1-2.4,14.6-7.2,19.3c-4.8,4.8-11.8,7.2-20.9,7.2h-14.6v41.7H340.6z M351.7,45.5h11.6c3.9,0,7.2-0.5,9.7-1.5c2.5-1,4.6-2.3,6.1-3.8c1.5-1.5,2.6-3.2,3.2-5.1c0.6-1.9,0.9-3.7,0.9-5.4 c0-2-0.5-3.9-1.5-5.7c-1-1.8-2.4-3.4-4.1-4.8c-1.7-1.4-3.8-2.5-6.3-3.3c-2.5-0.8-5.1-1.2-7.8-1.2h-11.8V45.5z"></path> <path id="XMLID_203_" class="st0" d="M407.5,97.9V4.3h57.7v10.6h-46.6v30.6H460v10.6h-41.3v31.3h48.4v10.6H407.5z"></path> <path id="XMLID_201_" class="st0" d="M573.8,4.3v97.9c-11.5-12.2-22.9-24.3-34.2-36.4c-11.3-12-22.7-24.2-34.2-36.4 c-0.4-0.6-0.9-1.2-1.3-1.7c-0.4-0.5-0.8-1.1-1.3-1.7c0.1,0.7,0.2,1.4,0.2,2.1c0,0.7,0.1,1.4,0.2,2.1v67.7h-11.1V0 c11.5,12.5,22.9,24.9,34.2,37.1c11.3,12.3,22.7,24.6,34.2,37.1c0.4,0.6,0.9,1.2,1.3,1.7c0.4,0.5,0.8,1.1,1.3,1.7 c-0.1-0.7-0.2-1.4-0.2-2.1c0-0.7-0.1-1.4-0.2-2.1V4.3H573.8z"></path> <path id="XMLID_199_" class="st1" d="M663.3,85.6l4.5,6.7c-3.6,2.1-7.4,3.7-11.4,4.9c-4.1,1.2-8.4,1.8-12.9,1.8 c-6.6,0-12.8-1.2-18.6-3.7c-5.8-2.5-10.9-5.9-15.2-10.2c-4.3-4.3-7.7-9.4-10.2-15.2c-2.5-5.8-3.7-12-3.7-18.6s1.2-12.8,3.7-18.7 c2.5-5.8,5.9-10.9,10.2-15.3C614,13,619.1,9.6,624.9,7c5.8-2.5,12-3.8,18.6-3.8c4.5,0,8.9,0.6,12.9,1.7 c4.1,1.2,7.9,2.8,11.6,4.9c-0.7,1.2-1.5,2.3-2.3,3.4c-0.8,1.1-1.6,2.3-2.4,3.4c-6-3.7-12.6-5.5-19.8-5.5c-5.4,0-10.5,1-15.3,3.1 c-4.8,2.1-8.9,5-12.5,8.6c-3.6,3.7-6.4,7.9-8.5,12.8c-2.1,4.9-3.1,10-3.1,15.5c0,5.5,1,10.7,3.1,15.5c2.1,4.8,4.9,9,8.4,12.6 c3.6,3.6,7.7,6.5,12.5,8.6c4.8,2.1,9.9,3.1,15.3,3.1c3.7,0,7.1-0.5,10.4-1.4C657.1,88.8,660.3,87.4,663.3,85.6z"></path> <path id="XMLID_197_" class="st1" d="M688.6,97.9V4.3h8.3v42.5h54V4.3h8.4c0,15.7,0,31.3-0.1,46.8c0,15.5-0.1,31.1-0.1,46.8 h-8.3V54.7h-54v43.2H688.6z"></path> <path id="XMLID_194_" class="st1" d="M861.8,97.9h-8.4c-2.8-6.4-5.5-12.9-8.2-19.3c-2.7-6.5-5.4-12.9-8.2-19.3h-33.6 c-2.7,6.4-5.4,12.9-8.1,19.3c-2.7,6.5-5.5,12.9-8.2,19.3h-8.3c7-16.4,13.9-32.7,20.7-49c6.9-16.2,13.8-32.6,20.7-49 c7,16.4,13.9,32.7,20.7,49C847.9,65.2,854.9,81.5,861.8,97.9z M821.5,22.6c-0.2-0.7-0.4-1.4-0.6-2.1c-0.2-0.7-0.4-1.4-0.6-2.1 c-1.8,5.6-3.9,11.1-6.3,16.6c-2.4,5.4-4.8,10.9-7.1,16.3h26.6c-2.1-4.8-4.1-9.6-6-14.4C825.6,32.2,823.6,27.4,821.5,22.6z"></path> <path id="XMLID_192_" class="st1" d="M883.2,4.3h8.4v93.6h-8.4V4.3z"></path> <path id="XMLID_190_" class="st1" d="M1000,4.3v97.9c-12-13.3-23.8-26.5-35.6-39.5c-11.8-13.1-23.7-26.2-35.7-39.5 c-0.4-0.6-0.9-1.2-1.3-1.7c-0.4-0.5-0.8-1.1-1.3-1.7c0.1,0.7,0.2,1.4,0.2,2.1c0,0.7,0.1,1.4,0.2,2.1v74h-8.3V0 c11.9,13.5,23.8,26.8,35.6,40.1c11.8,13.3,23.7,26.7,35.7,40.1c0.4,0.6,0.9,1.2,1.3,1.7c0.4,0.5,0.8,1.1,1.3,1.7 c-0.1-0.7-0.2-1.4-0.2-2.1c0-0.7-0.1-1.4-0.2-2.1V4.3H1000z"></path> </g> </g> </g> </g> </svg> 