<?xml version="1.0" encoding="utf-8"?>
<!-- Generator: Adobe Illustrator 24.2.0, SVG Export Plug-In . SVG Version: 6.00 Build 0)  -->
<svg version="1.1"
	 id="SVGRoot" xmlns:cc="http://creativecommons.org/ns#" xmlns:dc="http://purl.org/dc/elements/1.1/" xmlns:inkscape="http://www.inkscape.org/namespaces/inkscape" xmlns:rdf="http://www.w3.org/1999/02/22-rdf-syntax-ns#" xmlns:sodipodi="http://sodipodi.sourceforge.net/DTD/sodipodi-0.dtd" xmlns:svg="http://www.w3.org/2000/svg"
	 xmlns="http://www.w3.org/2000/svg" xmlns:xlink="http://www.w3.org/1999/xlink" x="0px" y="0px" viewBox="0 0 632.5 118.9"
	 enable-background="new 0 0 632.5 118.9" xml:space="preserve">
<path inkscape:connector-curvature="0" fill="#3DA638" d="M68.9,81.3c8.5-3.2,13-9.3,13-19.8S73,41.7,61.9,41.7
	c-11.7,0-20.5,9.2-20.4,19.8s5.2,17.6,13.2,20.1l-14.3,35.1C21.5,111.8,2,89.3,2,61.5C2,28.7,28.4,2,61.5,2s59.9,26.6,59.9,59.5
	c0,28.2-19.2,50.4-38.7,55.3L68.9,81.3z"/>
<path fill="#1C511C" d="M82.7,118.9c-0.8,0-1.6-0.5-1.9-1.3L67,82c-0.2-0.5-0.2-1.1,0-1.6s0.6-0.9,1.1-1.1c8.1-3,11.7-8.5,11.7-17.9
	c0-9.6-8.2-17.7-17.9-17.8c0,0,0,0,0,0c-5.1,0-9.8,1.9-13.2,5.4c-3.3,3.4-5.1,7.7-5,12.3c0.1,9.4,4.3,15.8,11.8,18.2
	c0.5,0.2,1,0.6,1.2,1.1c0.2,0.5,0.3,1.1,0,1.6l-14.3,35.1c-0.4,0.9-1.4,1.5-2.4,1.2C20.4,113.6,0,90.8,0,61.5C0,27.6,27.6,0,61.5,0
	c34.2,0,61.9,27.6,61.9,61.5c0,13.5-4.4,26.8-12.5,37.6c-7.4,9.9-17.6,17.1-27.8,19.7C83,118.8,82.8,118.9,82.7,118.9z M71.5,82.4
	l12.4,31.9c17.7-5.5,35.5-26.2,35.5-52.8c0-31.7-26-57.4-57.9-57.4C29.8,4.1,4.1,29.8,4.1,61.5c0,20.5,13.4,46,35.3,52.8l12.8-31.5
	c-7.9-3.4-12.4-11-12.6-21.3c-0.1-5.7,2.1-11.1,6.2-15.2c4.2-4.3,10-6.6,16.1-6.6c0,0,0,0,0,0c11.9,0,22,10,22,21.8
	C83.9,71.8,79.8,78.6,71.5,82.4z"/>
<path inkscape:connector-curvature="0" d="M168.5,61.4c0,4.3-1.1,7.7-3.3,10.1c-2.2,2.4-5.2,3.6-9.2,3.6c-3.8,0-6.8-1.2-9-3.7
	c-2.2-2.5-3.3-5.8-3.3-10c0-4.3,1.1-7.6,3.3-10c2.2-2.4,5.3-3.6,9.2-3.6c2.4,0,4.6,0.6,6.5,1.7s3.3,2.7,4.3,4.8
	C167.9,56.3,168.5,58.7,168.5,61.4z M152.3,61.4c0,2.3,0.3,4,0.9,5.2c0.6,1.2,1.5,1.8,2.9,1.8c1.3,0,2.3-0.6,2.8-1.8
	c0.6-1.2,0.8-2.9,0.8-5.2c0-2.3-0.3-4-0.8-5.1s-1.5-1.7-2.9-1.7c-1.3,0-2.3,0.6-2.8,1.7C152.6,57.5,152.3,59.2,152.3,61.4z"/>
<path inkscape:connector-curvature="0" d="M188.3,75.2c-1.3,0-2.4-0.2-3.4-0.7c-1-0.5-2-1.3-3-2.4h-0.4c0.3,1.8,0.4,3,0.4,3.4v10.6
	h-8.6V48.3h7l1.2,3.4h0.4c1.6-2.5,3.8-3.8,6.6-3.8c2.8,0,4.9,1.2,6.5,3.6c1.6,2.4,2.3,5.7,2.3,10c0,4.3-0.8,7.6-2.5,10.1
	C193.3,73.9,191.1,75.2,188.3,75.2z M185.4,55c-1.3,0-2.1,0.5-2.7,1.4c-0.5,0.9-0.8,2.4-0.8,4.2v0.7c0,2.3,0.3,3.9,0.9,4.9
	c0.6,1,1.5,1.5,2.7,1.5c1.1,0,1.9-0.5,2.4-1.5c0.5-1,0.7-2.7,0.7-5c0-2.3-0.2-3.9-0.7-4.9C187.4,55.5,186.5,55,185.4,55z"/>
<path inkscape:connector-curvature="0" d="M214.2,75.2c-4.1,0-7.4-1.2-9.7-3.5c-2.3-2.3-3.4-5.7-3.4-10c0-4.5,1.1-7.9,3.2-10.3
	c2.1-2.4,5.2-3.6,9.1-3.6c3.7,0,6.6,1,8.7,3.1c2,2.1,3.1,5,3.1,8.9v4.1h-15.3c0.1,1.5,0.6,2.6,1.5,3.5c1,0.8,2.3,1.3,3.9,1.3
	c1.5,0,2.9-0.1,4.2-0.4c1.3-0.3,2.6-0.8,4.1-1.6v6.5c-1.3,0.7-2.7,1.2-4.2,1.5C217.9,75,216.2,75.2,214.2,75.2z M213.7,54
	c-1,0-1.9,0.3-2.5,1c-0.7,0.7-1.1,1.7-1.2,3.2h7.4c0-1.3-0.4-2.3-1-3.1C215.7,54.4,214.8,54,213.7,54z"/>
<path inkscape:connector-curvature="0" d="M245.8,74.7V60.3c0-1.8-0.2-3.1-0.7-4c-0.5-0.9-1.2-1.4-2.3-1.4c-1.4,0-2.5,0.6-3.1,1.8
	c-0.6,1.2-1,3.3-1,6.3v11.6h-8.6V48.3h6.5l1.1,3.3h0.5c0.7-1.2,1.7-2.2,3-2.8c1.3-0.6,2.8-0.9,4.5-0.9c2.8,0,4.9,0.8,6.4,2.5
	c1.5,1.7,2.3,4.1,2.3,7.2v17.2H245.8z"/>
<path inkscape:connector-curvature="0" d="M288.9,67.3c0,2.5-0.9,4.4-2.6,5.8c-1.7,1.3-4.2,2-7.4,2c-3.2,0-5.8-0.5-7.8-1.6v-4.7
	c2.9,1.4,5.5,2.1,8,2.1c3.2,0,4.8-1,4.8-3.1c0-0.7-0.2-1.2-0.5-1.6c-0.4-0.4-0.9-0.9-1.7-1.4s-1.9-1-3.4-1.6
	c-2.8-1.1-4.7-2.3-5.7-3.4c-1-1.1-1.5-2.6-1.5-4.5c0-2.2,0.8-3.9,2.5-5.1c1.7-1.2,4-1.8,6.9-1.8c2.9,0,5.6,0.6,8.1,1.8l-1.7,4.1
	c-2.6-1.1-4.8-1.7-6.6-1.7c-2.7,0-4.1,0.8-4.1,2.5c0,0.8,0.4,1.5,1.1,2.1c0.7,0.6,2.3,1.3,4.7,2.3c2,0.8,3.5,1.6,4.4,2.3
	c0.9,0.7,1.6,1.5,2,2.4C288.7,65,288.9,66.1,288.9,67.3z"/>
<path inkscape:connector-curvature="0" d="M316,61.8c0,4.2-1,7.5-3.1,9.9s-4.9,3.5-8.5,3.5c-2.3,0-4.3-0.5-6-1.6
	c-1.7-1.1-3.1-2.6-4-4.7c-0.9-2-1.4-4.4-1.4-7.1c0-4.2,1-7.4,3-9.8c2-2.3,4.9-3.5,8.5-3.5c3.5,0,6.3,1.2,8.3,3.6
	C315,54.5,316,57.7,316,61.8z M298.3,61.8c0,5.9,2.1,8.9,6.2,8.9c4.1,0,6.1-3,6.1-8.9c0-5.9-2.1-8.8-6.2-8.8c-2.2,0-3.7,0.8-4.7,2.3
	C298.8,56.7,298.3,58.9,298.3,61.8z"/>
<path inkscape:connector-curvature="0" d="M339.1,74.7l-0.7-3.4h-0.3c-0.7,1.2-1.7,2.1-3.1,2.8c-1.3,0.7-2.8,1-4.5,1
	c-2.9,0-5.1-0.8-6.6-2.3c-1.4-1.6-2.2-3.9-2.2-7.1V48.9h5.2v15.9c0,2,0.4,3.5,1.1,4.4c0.8,1,2,1.5,3.6,1.5c2.2,0,3.8-0.7,4.8-2.1
	c1-1.4,1.5-3.7,1.5-6.9V48.9h5.2v25.8H339.1z"/>
<path inkscape:connector-curvature="0" d="M362.8,48.5c1,0,1.9,0.1,2.6,0.2l-0.5,5.1c-0.7-0.2-1.5-0.3-2.3-0.3c-2.1,0-3.7,0.7-5,2.1
	c-1.3,1.4-1.9,3.3-1.9,5.6v13.5h-5.2V48.9h4l0.7,4.5h0.3c0.8-1.5,1.9-2.8,3.1-3.7C359.9,48.9,361.3,48.5,362.8,48.5z"/>
<path inkscape:connector-curvature="0" d="M379.7,75.2c-3.7,0-6.5-1.1-8.4-3.4c-1.9-2.3-2.9-5.6-2.9-9.8c0-4.3,1-7.7,3-10
	c2-2.3,4.9-3.5,8.7-3.5c2.6,0,4.9,0.5,6.9,1.5l-1.6,4.4c-2.2-0.9-4-1.4-5.4-1.4c-4.2,0-6.3,3-6.3,8.9c0,2.9,0.5,5.1,1.6,6.5
	c1.1,1.4,2.6,2.2,4.6,2.2c2.3,0,4.5-0.6,6.5-1.8v4.8c-0.9,0.6-1.9,1-3,1.2C382.5,75,381.2,75.2,379.7,75.2z"/>
<path inkscape:connector-curvature="0" d="M402.8,75.2c-3.8,0-6.7-1.2-8.9-3.5c-2.1-2.3-3.2-5.6-3.2-9.7c0-4.2,1-7.5,3-9.9
	c2-2.4,4.7-3.6,8.1-3.6c3.2,0,5.7,1,7.6,3.1c1.9,2.1,2.8,4.9,2.8,8.5v3h-16.2c0.1,2.5,0.7,4.4,1.9,5.8c1.2,1.3,2.9,2,5.1,2
	c1.4,0,2.8-0.1,4-0.4c1.2-0.3,2.6-0.8,4-1.4v4.4c-1.3,0.6-2.5,1.1-3.8,1.4S404.5,75.2,402.8,75.2z M401.9,52.6c-1.6,0-3,0.6-4,1.7
	c-1,1.1-1.6,2.7-1.8,4.8h11c0-2.1-0.5-3.7-1.4-4.8C404.8,53.2,403.5,52.6,401.9,52.6z"/>
<path inkscape:connector-curvature="0" d="M434.2,74.9h-5.2V49.1h5.2V74.9z M428.8,42.3c0-1,0.2-1.7,0.7-2.3
	c0.5-0.5,1.2-0.8,2.2-0.8c0.9,0,1.6,0.3,2.1,0.8c0.5,0.5,0.8,1.3,0.8,2.3c0,0.9-0.3,1.7-0.8,2.2c-0.5,0.5-1.2,0.8-2.1,0.8
	c-0.9,0-1.7-0.3-2.2-0.8C429,44,428.8,43.2,428.8,42.3z"/>
<path inkscape:connector-curvature="0" d="M463,74.9h-5.2V59.1c0-2-0.4-3.5-1.1-4.4c-0.7-1-1.9-1.5-3.6-1.5c-2.2,0-3.8,0.7-4.8,2.1
	c-1,1.4-1.5,3.7-1.5,6.9v12.8h-5.2V49.1h4l0.7,3.4h0.3c0.7-1.2,1.8-2.2,3.1-2.8s2.8-1,4.5-1c5.8,0,8.7,3.1,8.7,9.4V74.9z"/>
<path inkscape:connector-curvature="0" d="M475.3,74.9h-5.2V49.1h5.2V74.9z M469.9,42.3c0-1,0.2-1.7,0.7-2.3
	c0.5-0.5,1.2-0.8,2.2-0.8c0.9,0,1.6,0.3,2.1,0.8c0.5,0.5,0.8,1.3,0.8,2.3c0,0.9-0.3,1.7-0.8,2.2c-0.5,0.5-1.2,0.8-2.1,0.8
	c-0.9,0-1.7-0.3-2.2-0.8C470.1,44,469.9,43.2,469.9,42.3z"/>
<path inkscape:connector-curvature="0" d="M491.8,70.9c1.3,0,2.5-0.2,3.8-0.6v4.1c-0.6,0.3-1.3,0.5-2.2,0.7
	c-0.9,0.2-1.8,0.3-2.8,0.3c-4.9,0-7.3-2.7-7.3-8.2V53.3h-3.3v-2.4l3.6-2l1.8-5.5h3.2v5.7h6.9v4.1h-6.9v13.8c0,1.3,0.3,2.3,0.9,2.9
	C490,70.6,490.8,70.9,491.8,70.9z"/>
<path inkscape:connector-curvature="0" d="M505.6,74.9h-5.2V49.1h5.2V74.9z M500.1,42.3c0-1,0.2-1.7,0.7-2.3
	c0.5-0.5,1.2-0.8,2.2-0.8c0.9,0,1.6,0.3,2.1,0.8c0.5,0.5,0.8,1.3,0.8,2.3c0,0.9-0.3,1.7-0.8,2.2c-0.5,0.5-1.2,0.8-2.1,0.8
	c-0.9,0-1.7-0.3-2.2-0.8C500.3,44,500.1,43.2,500.1,42.3z"/>
<path inkscape:connector-curvature="0" d="M528.2,74.9l-1-3.6h-0.2c-1.2,1.6-2.3,2.6-3.5,3.2c-1.2,0.6-2.7,0.8-4.6,0.8
	c-2.4,0-4.3-0.7-5.6-2.1c-1.3-1.4-2-3.3-2-5.8c0-2.7,0.9-4.7,2.8-6c1.9-1.4,4.7-2.1,8.5-2.2l4.2-0.1v-1.4c0-1.6-0.4-2.9-1.1-3.7
	c-0.7-0.8-1.8-1.2-3.4-1.2c-1.2,0-2.4,0.2-3.6,0.6c-1.1,0.4-2.2,0.8-3.3,1.4l-1.7-3.9c1.3-0.7,2.8-1.3,4.3-1.7
	c1.6-0.4,3-0.6,4.4-0.6c3.1,0,5.4,0.7,7,2.1c1.6,1.4,2.4,3.7,2.4,6.7v17.4H528.2z M520.5,71.2c1.9,0,3.4-0.6,4.5-1.7
	c1.1-1.1,1.7-2.7,1.7-4.7v-2.2l-3.1,0.1c-2.4,0.1-4.2,0.5-5.3,1.3c-1.1,0.8-1.6,1.9-1.6,3.5c0,1.1,0.3,2,1,2.7
	C518.2,70.9,519.2,71.2,520.5,71.2z"/>
<path inkscape:connector-curvature="0" d="M548.1,70.9c1.3,0,2.5-0.2,3.8-0.6v4.1c-0.6,0.3-1.3,0.5-2.2,0.7
	c-0.9,0.2-1.8,0.3-2.8,0.3c-4.9,0-7.3-2.7-7.3-8.2V53.3h-3.3v-2.4l3.6-2l1.8-5.5h3.2v5.7h6.9v4.1h-6.9v13.8c0,1.3,0.3,2.3,0.9,2.9
	C546.3,70.6,547.1,70.9,548.1,70.9z"/>
<path inkscape:connector-curvature="0" d="M561.9,74.9h-5.2V49.1h5.2V74.9z M556.4,42.3c0-1,0.2-1.7,0.7-2.3
	c0.5-0.5,1.2-0.8,2.2-0.8c0.9,0,1.6,0.3,2.1,0.8c0.5,0.5,0.8,1.3,0.8,2.3c0,0.9-0.3,1.7-0.8,2.2c-0.5,0.5-1.2,0.8-2.1,0.8
	c-0.9,0-1.7-0.3-2.2-0.8C556.6,44,556.4,43.2,556.4,42.3z"/>
<path inkscape:connector-curvature="0" d="M574.8,74.9l-9.2-25.8h5.4l4.9,15c0.8,2.5,1.4,4.6,1.5,6.1h0.2c0.1-1.1,0.6-3.2,1.5-6.1
	l4.9-15h5.5l-9.3,25.8H574.8z"/>
<path inkscape:connector-curvature="0" d="M603.9,75.4c-3.8,0-6.7-1.2-8.9-3.5c-2.1-2.3-3.2-5.6-3.2-9.7c0-4.2,1-7.5,3-9.9
	s4.7-3.6,8.1-3.6c3.2,0,5.7,1,7.6,3.1c1.9,2.1,2.8,4.9,2.8,8.5v3h-16.2c0.1,2.5,0.7,4.4,1.9,5.8c1.2,1.3,2.9,2,5.1,2
	c1.4,0,2.8-0.1,4-0.4c1.2-0.3,2.6-0.8,4-1.4v4.4c-1.3,0.6-2.5,1.1-3.8,1.4C607.1,75.2,605.6,75.4,603.9,75.4z M603,52.8
	c-1.6,0-3,0.6-4,1.7c-1,1.1-1.6,2.7-1.8,4.8h11c0-2.1-0.5-3.7-1.4-4.8C605.9,53.4,604.6,52.8,603,52.8z"/>
<path inkscape:connector-curvature="0" d="M623.6,45.5h1.1c0.5,0,1-0.1,1.3-0.4c0.3-0.3,0.5-0.6,0.5-1.1c0-0.5-0.1-0.9-0.4-1.1
	c-0.3-0.2-0.8-0.3-1.4-0.3h-1.1V45.5z M628,44c0,0.5-0.1,1-0.4,1.4c-0.3,0.4-0.7,0.7-1.2,0.9l2.4,4h-1.7l-2.1-3.6h-1.4v3.6h-1.5v-9
	h2.6c1.1,0,1.9,0.2,2.5,0.7C627.8,42.4,628,43.1,628,44z M617.3,45.8c0-1.4,0.3-2.6,1-3.8c0.7-1.2,1.6-2.1,2.8-2.8
	c1.2-0.7,2.5-1,3.8-1c1.4,0,2.6,0.3,3.8,1c1.2,0.7,2.1,1.6,2.8,2.8c0.7,1.2,1,2.5,1,3.8c0,1.3-0.3,2.6-1,3.8
	c-0.7,1.2-1.6,2.1-2.8,2.8c-1.2,0.7-2.5,1.1-3.9,1.1c-1.4,0-2.7-0.3-3.9-1c-1.2-0.7-2.1-1.6-2.8-2.8
	C617.6,48.4,617.3,47.1,617.3,45.8z M618.4,45.8c0,1.2,0.3,2.3,0.9,3.3c0.6,1,1.4,1.8,2.4,2.4c1,0.6,2.1,0.9,3.3,0.9
	c1.2,0,2.3-0.3,3.3-0.9s1.8-1.4,2.4-2.4c0.6-1,0.9-2.1,0.9-3.3c0-1.2-0.3-2.3-0.9-3.3s-1.4-1.8-2.4-2.4c-1-0.6-2.1-0.9-3.3-0.9
	c-1.2,0-2.3,0.3-3.3,0.9s-1.8,1.4-2.4,2.4C618.7,43.5,618.4,44.6,618.4,45.8z"/>
</svg>
