<?xml version="1.0" encoding="utf-8"?>
<!-- Generator: Adobe Illustrator 21.1.0, SVG Export Plug-In . SVG Version: 6.00 Build 0)  -->
<svg version="1.1" id="Layer_1" xmlns="http://www.w3.org/2000/svg" xmlns:xlink="http://www.w3.org/1999/xlink" x="0px" y="0px"
	 viewBox="0 0 24 24" enable-background="new 0 0 24 24" xml:space="preserve">
<path fill="#8A8886" d="M9,12l-4.5,5L0,12h3c0-5,4-9,9-9c2.4,0,4.6,0.9,6.2,2.5l-2,2.2C15.1,6.6,13.6,6,12,6c-3.3,0-6,2.7-6,6
	C6,12,9,12,9,12z M19.5,7L15,12h3c0,3.3-2.7,6-6,6c-1.6,0-3.1-0.6-4.2-1.7l-2,2.2C7.4,20.1,9.6,21,12,21c5,0,9-4,9-9h3
	C24,12,19.5,7,19.5,7z"/>
</svg>
