<svg xmlns="http://www.w3.org/2000/svg" viewBox="0 0 512 512"><defs><filter id="b" color-interpolation-filters="sRGB"><feFlood result="flood" flood-color="#000" flood-opacity=".188"/><feComposite result="composite1" operator="in" in2="SourceGraphic" in="flood"/><feGaussianBlur result="blur" stdDeviation="4" in="composite1"/><feOffset result="offset"/><feComposite result="composite2" in2="offset" in="SourceGraphic"/></filter><filter id="a" color-interpolation-filters="sRGB"><feFlood result="flood" flood-color="#240040" flood-opacity=".329"/><feComposite result="composite1" operator="out" in2="SourceGraphic" in="flood"/><feGaussianBlur result="blur" stdDeviation="4" in="composite1"/><feOffset result="offset"/><feComposite result="fbSourceGraphic" operator="atop" in2="SourceGraphic" in="offset"/><feColorMatrix values="0 0 0 -1 0 0 0 0 -1 0 0 0 0 -1 0 0 0 0 1 0" in="fbSourceGraphic" result="fbSourceGraphicAlpha"/><feFlood result="flood" flood-color="#000" flood-opacity=".063"/><feComposite result="composite1" operator="out" in="flood" in2="fbSourceGraphic"/><feGaussianBlur result="blur" stdDeviation="8" in="composite1"/><feOffset result="offset"/><feComposite result="composite2" operator="atop" in="offset" in2="fbSourceGraphic"/></filter></defs><path fill="#f3f3f3" d="M955.19-89.12c1.71.76 2.92 2.23 4.1 3.64-2.36.5-4.63-1.09-4.1-3.64z"/><path fill="#f4f4f4" d="M955.99 795.86c-.55-2.11 1.59-3.28 3.42-2.81-.92 1.17-1.92 2.39-3.42 2.81zm-824.02-1.84c2.01-.67 3.78.88 3.23 2.98-1.34-.69-2.38-1.78-3.23-2.98z"/><ellipse ry="50.412" rx="50.483" cy="256" cx="256" fill="#e3018f" filter="url(#a)"/><path d="M282.663 119.924c33.48 4.803 76.394 34.464 89.136 59.664-37.875-.126-90.241-.167-123.255-.114 11.125-19.277 25.176-43.701 34.12-59.55z" fill="#cd5911"/><path d="M200.942 304.468c-24.213.204-53.784.077-75.25-.076-14.576-36.219-9.322-84.723 7.145-111.03 23.023 37.98 47.347 78.255 68.105 111.106z" fill="#298138"/><path d="M312.799 211.251c22.444.057 55.219-.223 74.765-.145 14.582 35.565 6.041 80.718-9.622 111.458-20.608-35.564-46.294-78.635-65.143-111.313z" fill="#9f1923"/><path d="M141.724 335.122c40.384.066 80.916-.02 118.766.008-10.493 19.019-33.525 57.533-33.143 56.893-34.45-6.244-66.662-26.767-85.623-56.9z" fill="#064076"/><path d="M324.138 292.521c10.769 17.936 23.497 39.529 34.14 57.538-22.277 25.541-59.484 42.23-93.02 44.619 18.227-32.885 40.878-73.155 58.88-102.157z" fill="#431f5d"/><path d="M246.275 117.388c-18.87 32.499-44.06 75.077-60.553 103.065-11.715-19.307-23.877-39.18-34.007-56.431 13.367-14.667 43.158-41.12 94.56-46.634z" fill="#e7d803"/><g filter="url(#b)"><path d="M256.424 2.9c-70.849-.091-130.856 29.828-164.26 60.328 20.48 33.723 40.374 67.991 59.656 100.758 13.371-14.664 43.132-41.068 94.455-46.598 19.991-35.687 37.663-70.232 60.737-109.267a251.106 251.106 0 00-50.588-5.22zm-11.71 117.291c-.101.176-.219.375-.321.55l.015-.001.307-.549z" fill="#fcee21"/><path d="M339.776 17.272c-18.743 33.668-39.033 70.6-58.045 104.332l.943-1.664c33.473 4.802 76.373 34.451 89.125 59.648a53285.637 53285.637 0 00125.354.012c-26.44-86.074-93.388-140.725-157.377-162.328zm19.988 162.308l.006.006a53285.637 53285.637 0 003.135 0c-.984-.003-2.143-.003-3.14-.006z" fill="#ed7124"/><path d="M69.587 84.946C12.911 145.733-6.818 228.52 7.8 304.741c35.725-.052 77.594-.235 119.297-.341l-1.404-.008c-14.577-36.219-9.323-84.723 7.144-111.03l.432.711c-19.83-33.261-40.981-69.799-63.682-109.127z" fill="#35a849"/><path d="M15.69 335.118c22.775 69.329 78.406 132.713 152.286 158.008 19.662-33.954 38.018-65.374 59.363-101.107-34.446-6.247-66.655-26.766-85.615-56.897a66789.113 66789.113 0 00-126.034-.004z" fill="#085ba7"/><path d="M358.245 350.098c-22.281 25.519-59.468 42.193-92.986 44.58.173-.313.372-.666.547-.98-21.042 36.739-42.155 72.865-63.272 109.593 72.748 16.59 154.56-2.346 214.977-52.545-19.827-33.51-39.566-67.067-59.266-100.648z" fill="#5f2c83"/><path d="M377.73 211.085l.005.018c2.736-.001 5.592-.005 8.01.002-2.658-.008-5.377-.01-8.016-.02zm9.837.024c14.58 35.564 6.038 80.716-9.625 111.455-.89-1.537-1.896-3.243-2.805-4.807l-.002.006c21.277 36.41 42.09 72.843 65.016 111.838 52.215-53.134 80.818-139.842 64.87-218.42-38.296-.002-78.742.036-117.454-.072z" fill="#cb202d"/></g></svg>