<svg width="10" height="14" viewBox="0 0 10 14" fill="none" xmlns="http://www.w3.org/2000/svg">
<path d="M8.17422 7.9545L6.12506 10.0037L6.12506 0.75C6.12506 0.335781 5.78928 0 5.37506 0L4.62506 0C4.21084 0 3.87506 0.335781 3.87506 0.75L3.87506 10.0037L1.82591 7.9545C1.533 7.66159 1.05813 7.66159 0.765252 7.9545L0.23491 8.48484C-0.0579958 8.77775 -0.0579958 9.25262 0.23491 9.5455L4.46975 13.7803C4.76266 14.0732 5.23753 14.0732 5.5304 13.7803L9.76521 9.5455C10.0581 9.25259 10.0581 8.77772 9.76521 8.48484L9.23487 7.9545C8.942 7.66159 8.46712 7.66159 8.17422 7.9545Z" fill="#2188FF"/>
</svg>
