<?xml version="1.0" encoding="utf-8"?>
<!-- Generator: Adobe Illustrator 21.1.0, SVG Export Plug-In . SVG Version: 6.00 Build 0)  -->
<svg version="1.1" id="Layer_1" xmlns="http://www.w3.org/2000/svg" xmlns:xlink="http://www.w3.org/1999/xlink" x="0px" y="0px"
	 viewBox="0 0 370 370" enable-background="new 0 0 370 370" xml:space="preserve">
<circle fill="#4F6BED" cx="195" cy="3" r="1"/>
<circle fill="#4F6BED" cx="195" cy="8" r="1"/>
<circle fill="#4F6BED" cx="195" cy="13" r="1"/>
<circle fill="#4F6BED" cx="195" cy="18" r="1"/>
<circle fill="#4F6BED" cx="195" cy="23" r="1"/>
<circle fill="#4F6BED" cx="195" cy="28" r="1"/>
<circle fill="#4F6BED" cx="195" cy="33" r="1"/>
<circle fill="#4F6BED" cx="195" cy="38" r="1"/>
<circle fill="#4F6BED" cx="195" cy="43" r="1"/>
<circle fill="#4F6BED" cx="195" cy="48" r="1"/>
<circle fill="#4F6BED" cx="195" cy="53" r="1"/>
<circle fill="#4F6BED" cx="195" cy="58" r="1"/>
<circle fill="#4F6BED" cx="195" cy="63" r="1"/>
<circle fill="#4F6BED" cx="195" cy="68" r="1"/>
<circle fill="#4F6BED" cx="195" cy="73" r="1"/>
<circle fill="#4F6BED" cx="195" cy="78" r="1"/>
<circle fill="#4F6BED" cx="200" cy="3" r="1"/>
<circle fill="#4F6BED" cx="200" cy="8" r="1"/>
<circle fill="#4F6BED" cx="200" cy="13" r="1"/>
<circle fill="#4F6BED" cx="200" cy="18" r="1"/>
<circle fill="#4F6BED" cx="200" cy="23" r="1"/>
<circle fill="#4F6BED" cx="200" cy="28" r="1"/>
<circle fill="#4F6BED" cx="200" cy="33" r="1"/>
<circle fill="#4F6BED" cx="200" cy="38" r="1"/>
<circle fill="#4F6BED" cx="200" cy="43" r="1"/>
<circle fill="#4F6BED" cx="200" cy="48" r="1"/>
<circle fill="#4F6BED" cx="200" cy="53" r="1"/>
<circle fill="#4F6BED" cx="200" cy="58" r="1"/>
<circle fill="#4F6BED" cx="200" cy="63" r="1"/>
<circle fill="#4F6BED" cx="200" cy="68" r="1"/>
<circle fill="#4F6BED" cx="200" cy="73" r="1"/>
<circle fill="#4F6BED" cx="200" cy="78" r="1"/>
<circle fill="#4F6BED" cx="205" cy="3" r="1"/>
<circle fill="#4F6BED" cx="205" cy="8" r="1"/>
<circle fill="#4F6BED" cx="205" cy="13" r="1"/>
<circle fill="#4F6BED" cx="205" cy="18" r="1"/>
<circle fill="#4F6BED" cx="205" cy="23" r="1"/>
<circle fill="#4F6BED" cx="205" cy="28" r="1"/>
<circle fill="#4F6BED" cx="205" cy="33" r="1"/>
<circle fill="#4F6BED" cx="205" cy="38" r="1"/>
<circle fill="#4F6BED" cx="205" cy="43" r="1"/>
<circle fill="#4F6BED" cx="205" cy="48" r="1"/>
<circle fill="#4F6BED" cx="205" cy="53" r="1"/>
<circle fill="#4F6BED" cx="205" cy="58" r="1"/>
<circle fill="#4F6BED" cx="205" cy="63" r="1"/>
<circle fill="#4F6BED" cx="205" cy="68" r="1"/>
<circle fill="#4F6BED" cx="205" cy="73" r="1"/>
<circle fill="#4F6BED" cx="205" cy="78" r="1"/>
<circle fill="#4F6BED" cx="210" cy="3" r="1"/>
<circle fill="#4F6BED" cx="210" cy="8" r="1"/>
<circle fill="#4F6BED" cx="210" cy="13" r="1"/>
<circle fill="#4F6BED" cx="210" cy="18" r="1"/>
<circle fill="#4F6BED" cx="210" cy="23" r="1"/>
<circle fill="#4F6BED" cx="210" cy="28" r="1"/>
<circle fill="#4F6BED" cx="210" cy="33" r="1"/>
<circle fill="#4F6BED" cx="210" cy="38" r="1"/>
<circle fill="#4F6BED" cx="210" cy="43" r="1"/>
<circle fill="#4F6BED" cx="210" cy="48" r="1"/>
<circle fill="#4F6BED" cx="210" cy="53" r="1"/>
<circle fill="#4F6BED" cx="210" cy="58" r="1"/>
<circle fill="#4F6BED" cx="210" cy="63" r="1"/>
<circle fill="#4F6BED" cx="210" cy="68" r="1"/>
<circle fill="#4F6BED" cx="210" cy="73" r="1"/>
<circle fill="#4F6BED" cx="210" cy="78" r="1"/>
<circle fill="#4F6BED" cx="215" cy="3" r="1"/>
<circle fill="#4F6BED" cx="215" cy="8" r="1"/>
<circle fill="#4F6BED" cx="215" cy="13" r="1"/>
<circle fill="#4F6BED" cx="215" cy="18" r="1"/>
<circle fill="#4F6BED" cx="215" cy="23" r="1"/>
<circle fill="#4F6BED" cx="215" cy="28" r="1"/>
<circle fill="#4F6BED" cx="215" cy="33" r="1"/>
<circle fill="#4F6BED" cx="215" cy="38" r="1"/>
<circle fill="#4F6BED" cx="215" cy="43" r="1"/>
<circle fill="#4F6BED" cx="215" cy="48" r="1"/>
<circle fill="#4F6BED" cx="215" cy="53" r="1"/>
<circle fill="#4F6BED" cx="215" cy="58" r="1"/>
<circle fill="#4F6BED" cx="215" cy="63" r="1"/>
<circle fill="#4F6BED" cx="215" cy="68" r="1"/>
<circle fill="#4F6BED" cx="215" cy="73" r="1"/>
<circle fill="#4F6BED" cx="215" cy="78" r="1"/>
<circle fill="#4F6BED" cx="220" cy="3" r="1"/>
<circle fill="#4F6BED" cx="220" cy="8" r="1"/>
<circle fill="#4F6BED" cx="220" cy="13" r="1"/>
<circle fill="#4F6BED" cx="220" cy="18" r="1"/>
<circle fill="#4F6BED" cx="220" cy="23" r="1"/>
<circle fill="#4F6BED" cx="220" cy="28" r="1"/>
<circle fill="#4F6BED" cx="220" cy="33" r="1"/>
<circle fill="#4F6BED" cx="220" cy="38" r="1"/>
<circle fill="#4F6BED" cx="220" cy="43" r="1"/>
<circle fill="#4F6BED" cx="220" cy="48" r="1"/>
<circle fill="#4F6BED" cx="220" cy="53" r="1"/>
<circle fill="#4F6BED" cx="220" cy="58" r="1"/>
<circle fill="#4F6BED" cx="220" cy="63" r="1"/>
<circle fill="#4F6BED" cx="220" cy="68" r="1"/>
<circle fill="#4F6BED" cx="220" cy="73" r="1"/>
<circle fill="#4F6BED" cx="220" cy="78" r="1"/>
<circle fill="#4F6BED" cx="225" cy="3" r="1"/>
<circle fill="#4F6BED" cx="225" cy="8" r="1"/>
<circle fill="#4F6BED" cx="225" cy="13" r="1"/>
<circle fill="#4F6BED" cx="225" cy="18" r="1"/>
<circle fill="#4F6BED" cx="225" cy="23" r="1"/>
<circle fill="#4F6BED" cx="225" cy="28" r="1"/>
<circle fill="#4F6BED" cx="225" cy="33" r="1"/>
<circle fill="#4F6BED" cx="225" cy="38" r="1"/>
<circle fill="#4F6BED" cx="225" cy="43" r="1"/>
<circle fill="#4F6BED" cx="225" cy="48" r="1"/>
<circle fill="#4F6BED" cx="225" cy="53" r="1"/>
<circle fill="#4F6BED" cx="225" cy="58" r="1"/>
<circle fill="#4F6BED" cx="225" cy="63" r="1"/>
<circle fill="#4F6BED" cx="225" cy="68" r="1"/>
<circle fill="#4F6BED" cx="225" cy="73" r="1"/>
<circle fill="#4F6BED" cx="225" cy="78" r="1"/>
<circle fill="#4F6BED" cx="230" cy="3" r="1"/>
<circle fill="#4F6BED" cx="230" cy="8" r="1"/>
<circle fill="#4F6BED" cx="230" cy="13" r="1"/>
<circle fill="#4F6BED" cx="230" cy="18" r="1"/>
<circle fill="#4F6BED" cx="230" cy="23" r="1"/>
<circle fill="#4F6BED" cx="230" cy="28" r="1"/>
<circle fill="#4F6BED" cx="230" cy="33" r="1"/>
<circle fill="#4F6BED" cx="230" cy="38" r="1"/>
<circle fill="#4F6BED" cx="230" cy="43" r="1"/>
<circle fill="#4F6BED" cx="230" cy="48" r="1"/>
<circle fill="#4F6BED" cx="230" cy="53" r="1"/>
<circle fill="#4F6BED" cx="230" cy="58" r="1"/>
<circle fill="#4F6BED" cx="230" cy="63" r="1"/>
<circle fill="#4F6BED" cx="230" cy="68" r="1"/>
<circle fill="#4F6BED" cx="230" cy="73" r="1"/>
<circle fill="#4F6BED" cx="230" cy="78" r="1"/>
<circle fill="#4F6BED" cx="235" cy="3" r="1"/>
<circle fill="#4F6BED" cx="235" cy="8" r="1"/>
<circle fill="#4F6BED" cx="235" cy="13" r="1"/>
<circle fill="#4F6BED" cx="235" cy="18" r="1"/>
<circle fill="#4F6BED" cx="235" cy="23" r="1"/>
<circle fill="#4F6BED" cx="235" cy="28" r="1"/>
<circle fill="#4F6BED" cx="235" cy="33" r="1"/>
<circle fill="#4F6BED" cx="235" cy="38" r="1"/>
<circle fill="#4F6BED" cx="235" cy="43" r="1"/>
<circle fill="#4F6BED" cx="235" cy="48" r="1"/>
<circle fill="#4F6BED" cx="235" cy="53" r="1"/>
<circle fill="#4F6BED" cx="235" cy="58" r="1"/>
<circle fill="#4F6BED" cx="235" cy="63" r="1"/>
<circle fill="#4F6BED" cx="235" cy="68" r="1"/>
<circle fill="#4F6BED" cx="235" cy="73" r="1"/>
<circle fill="#4F6BED" cx="235" cy="78" r="1"/>
<circle fill="#4F6BED" cx="240" cy="3" r="1"/>
<circle fill="#4F6BED" cx="240" cy="8" r="1"/>
<circle fill="#4F6BED" cx="240" cy="13" r="1"/>
<circle fill="#4F6BED" cx="240" cy="18" r="1"/>
<circle fill="#4F6BED" cx="240" cy="23" r="1"/>
<circle fill="#4F6BED" cx="240" cy="28" r="1"/>
<circle fill="#4F6BED" cx="240" cy="33" r="1"/>
<circle fill="#4F6BED" cx="240" cy="38" r="1"/>
<circle fill="#4F6BED" cx="240" cy="43" r="1"/>
<circle fill="#4F6BED" cx="240" cy="48" r="1"/>
<circle fill="#4F6BED" cx="240" cy="53" r="1"/>
<circle fill="#4F6BED" cx="240" cy="58" r="1"/>
<circle fill="#4F6BED" cx="240" cy="63" r="1"/>
<circle fill="#4F6BED" cx="240" cy="68" r="1"/>
<circle fill="#4F6BED" cx="240" cy="73" r="1"/>
<circle fill="#4F6BED" cx="240" cy="78" r="1"/>
<circle fill="#4F6BED" cx="245" cy="3" r="1"/>
<circle fill="#4F6BED" cx="245" cy="8" r="1"/>
<circle fill="#4F6BED" cx="245" cy="13" r="1"/>
<circle fill="#4F6BED" cx="245" cy="18" r="1"/>
<circle fill="#4F6BED" cx="245" cy="23" r="1"/>
<circle fill="#4F6BED" cx="245" cy="28" r="1"/>
<circle fill="#4F6BED" cx="245" cy="33" r="1"/>
<circle fill="#4F6BED" cx="245" cy="38" r="1"/>
<circle fill="#4F6BED" cx="245" cy="43" r="1"/>
<circle fill="#4F6BED" cx="245" cy="48" r="1"/>
<circle fill="#4F6BED" cx="245" cy="53" r="1"/>
<circle fill="#4F6BED" cx="245" cy="58" r="1"/>
<circle fill="#4F6BED" cx="245" cy="63" r="1"/>
<circle fill="#4F6BED" cx="245" cy="68" r="1"/>
<circle fill="#4F6BED" cx="245" cy="73" r="1"/>
<circle fill="#4F6BED" cx="245" cy="78" r="1"/>
<circle fill="#4F6BED" cx="250" cy="3" r="1"/>
<circle fill="#4F6BED" cx="250" cy="8" r="1"/>
<circle fill="#4F6BED" cx="250" cy="13" r="1"/>
<circle fill="#4F6BED" cx="250" cy="18" r="1"/>
<circle fill="#4F6BED" cx="250" cy="23" r="1"/>
<circle fill="#4F6BED" cx="250" cy="28" r="1"/>
<circle fill="#4F6BED" cx="250" cy="33" r="1"/>
<circle fill="#4F6BED" cx="250" cy="38" r="1"/>
<circle fill="#4F6BED" cx="250" cy="43" r="1"/>
<circle fill="#4F6BED" cx="250" cy="48" r="1"/>
<circle fill="#4F6BED" cx="250" cy="53" r="1"/>
<circle fill="#4F6BED" cx="250" cy="58" r="1"/>
<circle fill="#4F6BED" cx="250" cy="63" r="1"/>
<circle fill="#4F6BED" cx="250" cy="68" r="1"/>
<circle fill="#4F6BED" cx="250" cy="73" r="1"/>
<circle fill="#4F6BED" cx="250" cy="78" r="1"/>
<circle fill="#4F6BED" cx="255" cy="3" r="1"/>
<circle fill="#4F6BED" cx="255" cy="8" r="1"/>
<circle fill="#4F6BED" cx="255" cy="13" r="1"/>
<circle fill="#4F6BED" cx="255" cy="18" r="1"/>
<circle fill="#4F6BED" cx="255" cy="23" r="1"/>
<circle fill="#4F6BED" cx="255" cy="28" r="1"/>
<circle fill="#4F6BED" cx="255" cy="33" r="1"/>
<circle fill="#4F6BED" cx="255" cy="38" r="1"/>
<circle fill="#4F6BED" cx="255" cy="43" r="1"/>
<circle fill="#4F6BED" cx="255" cy="48" r="1"/>
<circle fill="#4F6BED" cx="255" cy="53" r="1"/>
<circle fill="#4F6BED" cx="255" cy="58" r="1"/>
<circle fill="#4F6BED" cx="255" cy="63" r="1"/>
<circle fill="#4F6BED" cx="255" cy="68" r="1"/>
<circle fill="#4F6BED" cx="255" cy="73" r="1"/>
<circle fill="#4F6BED" cx="255" cy="78" r="1"/>
<circle fill="#4F6BED" cx="260" cy="3" r="1"/>
<circle fill="#4F6BED" cx="260" cy="8" r="1"/>
<circle fill="#4F6BED" cx="260" cy="13" r="1"/>
<circle fill="#4F6BED" cx="260" cy="18" r="1"/>
<circle fill="#4F6BED" cx="260" cy="23" r="1"/>
<circle fill="#4F6BED" cx="260" cy="28" r="1"/>
<circle fill="#4F6BED" cx="260" cy="33" r="1"/>
<circle fill="#4F6BED" cx="260" cy="38" r="1"/>
<circle fill="#4F6BED" cx="260" cy="43" r="1"/>
<circle fill="#4F6BED" cx="260" cy="48" r="1"/>
<circle fill="#4F6BED" cx="260" cy="53" r="1"/>
<circle fill="#4F6BED" cx="260" cy="58" r="1"/>
<circle fill="#4F6BED" cx="260" cy="63" r="1"/>
<circle fill="#4F6BED" cx="260" cy="68" r="1"/>
<circle fill="#4F6BED" cx="260" cy="73" r="1"/>
<circle fill="#4F6BED" cx="260" cy="78" r="1"/>
<circle fill="#4F6BED" cx="265" cy="3" r="1"/>
<circle fill="#4F6BED" cx="265" cy="8" r="1"/>
<circle fill="#4F6BED" cx="265" cy="13" r="1"/>
<circle fill="#4F6BED" cx="265" cy="18" r="1"/>
<circle fill="#4F6BED" cx="265" cy="23" r="1"/>
<circle fill="#4F6BED" cx="265" cy="28" r="1"/>
<circle fill="#4F6BED" cx="265" cy="33" r="1"/>
<circle fill="#4F6BED" cx="265" cy="38" r="1"/>
<circle fill="#4F6BED" cx="265" cy="43" r="1"/>
<circle fill="#4F6BED" cx="265" cy="48" r="1"/>
<circle fill="#4F6BED" cx="265" cy="53" r="1"/>
<circle fill="#4F6BED" cx="265" cy="58" r="1"/>
<circle fill="#4F6BED" cx="265" cy="63" r="1"/>
<circle fill="#4F6BED" cx="265" cy="68" r="1"/>
<circle fill="#4F6BED" cx="265" cy="73" r="1"/>
<circle fill="#4F6BED" cx="265" cy="78" r="1"/>
<circle fill="#4F6BED" cx="270" cy="3" r="1"/>
<circle fill="#4F6BED" cx="270" cy="8" r="1"/>
<circle fill="#4F6BED" cx="270" cy="13" r="1"/>
<circle fill="#4F6BED" cx="270" cy="18" r="1"/>
<circle fill="#4F6BED" cx="270" cy="23" r="1"/>
<circle fill="#4F6BED" cx="270" cy="28" r="1"/>
<circle fill="#4F6BED" cx="270" cy="33" r="1"/>
<circle fill="#4F6BED" cx="270" cy="38" r="1"/>
<circle fill="#4F6BED" cx="270" cy="43" r="1"/>
<circle fill="#4F6BED" cx="270" cy="48" r="1"/>
<circle fill="#4F6BED" cx="270" cy="53" r="1"/>
<circle fill="#4F6BED" cx="270" cy="58" r="1"/>
<circle fill="#4F6BED" cx="270" cy="63" r="1"/>
<circle fill="#4F6BED" cx="270" cy="68" r="1"/>
<circle fill="#4F6BED" cx="270" cy="73" r="1"/>
<circle fill="#4F6BED" cx="270" cy="78" r="1"/>
<defs>
	<filter id="Adobe_OpacityMaskFilter" filterUnits="userSpaceOnUse" x="195" y="195" width="77" height="77">
		<feColorMatrix  type="matrix" values="1 0 0 0 0  0 1 0 0 0  0 0 1 0 0  0 0 0 1 0"/>
	</filter>
</defs>
<mask maskUnits="userSpaceOnUse" x="195" y="195" width="77" height="77" id="mask0">
	<circle fill="#8764B8" filter="url(#Adobe_OpacityMaskFilter)" cx="234" cy="233" r="40"/>
</mask>
<g mask="url(#mask0)">
	<circle fill="#8764B8" cx="196" cy="196" r="1"/>
	<circle fill="#8764B8" cx="196" cy="201" r="1"/>
	<circle fill="#8764B8" cx="196" cy="206" r="1"/>
	<circle fill="#8764B8" cx="196" cy="211" r="1"/>
	<circle fill="#8764B8" cx="196" cy="216" r="1"/>
	<circle fill="#8764B8" cx="196" cy="221" r="1"/>
	<circle fill="#8764B8" cx="196" cy="226" r="1"/>
	<circle fill="#8764B8" cx="196" cy="231" r="1"/>
	<circle fill="#8764B8" cx="196" cy="236" r="1"/>
	<circle fill="#8764B8" cx="196" cy="241" r="1"/>
	<circle fill="#8764B8" cx="196" cy="246" r="1"/>
	<circle fill="#8764B8" cx="196" cy="251" r="1"/>
	<circle fill="#8764B8" cx="196" cy="256" r="1"/>
	<circle fill="#8764B8" cx="196" cy="261" r="1"/>
	<circle fill="#8764B8" cx="196" cy="266" r="1"/>
	<circle fill="#8764B8" cx="196" cy="271" r="1"/>
	<circle fill="#8764B8" cx="201" cy="196" r="1"/>
	<circle fill="#8764B8" cx="201" cy="201" r="1"/>
	<circle fill="#8764B8" cx="201" cy="206" r="1"/>
	<circle fill="#8764B8" cx="201" cy="211" r="1"/>
	<circle fill="#8764B8" cx="201" cy="216" r="1"/>
	<circle fill="#8764B8" cx="201" cy="221" r="1"/>
	<circle fill="#8764B8" cx="201" cy="226" r="1"/>
	<circle fill="#8764B8" cx="201" cy="231" r="1"/>
	<circle fill="#8764B8" cx="201" cy="236" r="1"/>
	<circle fill="#8764B8" cx="201" cy="241" r="1"/>
	<circle fill="#8764B8" cx="201" cy="246" r="1"/>
	<circle fill="#8764B8" cx="201" cy="251" r="1"/>
	<circle fill="#8764B8" cx="201" cy="256" r="1"/>
	<circle fill="#8764B8" cx="201" cy="261" r="1"/>
	<circle fill="#8764B8" cx="201" cy="266" r="1"/>
	<circle fill="#8764B8" cx="201" cy="271" r="1"/>
	<circle fill="#8764B8" cx="206" cy="196" r="1"/>
	<circle fill="#8764B8" cx="206" cy="201" r="1"/>
	<circle fill="#8764B8" cx="206" cy="206" r="1"/>
	<circle fill="#8764B8" cx="206" cy="211" r="1"/>
	<circle fill="#8764B8" cx="206" cy="216" r="1"/>
	<circle fill="#8764B8" cx="206" cy="221" r="1"/>
	<circle fill="#8764B8" cx="206" cy="226" r="1"/>
	<circle fill="#8764B8" cx="206" cy="231" r="1"/>
	<circle fill="#8764B8" cx="206" cy="236" r="1"/>
	<circle fill="#8764B8" cx="206" cy="241" r="1"/>
	<circle fill="#8764B8" cx="206" cy="246" r="1"/>
	<circle fill="#8764B8" cx="206" cy="251" r="1"/>
	<circle fill="#8764B8" cx="206" cy="256" r="1"/>
	<circle fill="#8764B8" cx="206" cy="261" r="1"/>
	<circle fill="#8764B8" cx="206" cy="266" r="1"/>
	<circle fill="#8764B8" cx="206" cy="271" r="1"/>
	<circle fill="#8764B8" cx="211" cy="196" r="1"/>
	<circle fill="#8764B8" cx="211" cy="201" r="1"/>
	<circle fill="#8764B8" cx="211" cy="206" r="1"/>
	<circle fill="#8764B8" cx="211" cy="211" r="1"/>
	<circle fill="#8764B8" cx="211" cy="216" r="1"/>
	<circle fill="#8764B8" cx="211" cy="221" r="1"/>
	<circle fill="#8764B8" cx="211" cy="226" r="1"/>
	<circle fill="#8764B8" cx="211" cy="231" r="1"/>
	<circle fill="#8764B8" cx="211" cy="236" r="1"/>
	<circle fill="#8764B8" cx="211" cy="241" r="1"/>
	<circle fill="#8764B8" cx="211" cy="246" r="1"/>
	<circle fill="#8764B8" cx="211" cy="251" r="1"/>
	<circle fill="#8764B8" cx="211" cy="256" r="1"/>
	<circle fill="#8764B8" cx="211" cy="261" r="1"/>
	<circle fill="#8764B8" cx="211" cy="266" r="1"/>
	<circle fill="#8764B8" cx="211" cy="271" r="1"/>
	<circle fill="#8764B8" cx="216" cy="196" r="1"/>
	<circle fill="#8764B8" cx="216" cy="201" r="1"/>
	<circle fill="#8764B8" cx="216" cy="206" r="1"/>
	<circle fill="#8764B8" cx="216" cy="211" r="1"/>
	<circle fill="#8764B8" cx="216" cy="216" r="1"/>
	<circle fill="#8764B8" cx="216" cy="221" r="1"/>
	<circle fill="#8764B8" cx="216" cy="226" r="1"/>
	<circle fill="#8764B8" cx="216" cy="231" r="1"/>
	<circle fill="#8764B8" cx="216" cy="236" r="1"/>
	<circle fill="#8764B8" cx="216" cy="241" r="1"/>
	<circle fill="#8764B8" cx="216" cy="246" r="1"/>
	<circle fill="#8764B8" cx="216" cy="251" r="1"/>
	<circle fill="#8764B8" cx="216" cy="256" r="1"/>
	<circle fill="#8764B8" cx="216" cy="261" r="1"/>
	<circle fill="#8764B8" cx="216" cy="266" r="1"/>
	<circle fill="#8764B8" cx="216" cy="271" r="1"/>
	<circle fill="#8764B8" cx="221" cy="196" r="1"/>
	<circle fill="#8764B8" cx="221" cy="201" r="1"/>
	<circle fill="#8764B8" cx="221" cy="206" r="1"/>
	<circle fill="#8764B8" cx="221" cy="211" r="1"/>
	<circle fill="#8764B8" cx="221" cy="216" r="1"/>
	<circle fill="#8764B8" cx="221" cy="221" r="1"/>
	<circle fill="#8764B8" cx="221" cy="226" r="1"/>
	<circle fill="#8764B8" cx="221" cy="231" r="1"/>
	<circle fill="#8764B8" cx="221" cy="236" r="1"/>
	<circle fill="#8764B8" cx="221" cy="241" r="1"/>
	<circle fill="#8764B8" cx="221" cy="246" r="1"/>
	<circle fill="#8764B8" cx="221" cy="251" r="1"/>
	<circle fill="#8764B8" cx="221" cy="256" r="1"/>
	<circle fill="#8764B8" cx="221" cy="261" r="1"/>
	<circle fill="#8764B8" cx="221" cy="266" r="1"/>
	<circle fill="#8764B8" cx="221" cy="271" r="1"/>
	<circle fill="#8764B8" cx="226" cy="196" r="1"/>
	<circle fill="#8764B8" cx="226" cy="201" r="1"/>
	<circle fill="#8764B8" cx="226" cy="206" r="1"/>
	<circle fill="#8764B8" cx="226" cy="211" r="1"/>
	<circle fill="#8764B8" cx="226" cy="216" r="1"/>
	<circle fill="#8764B8" cx="226" cy="221" r="1"/>
	<circle fill="#8764B8" cx="226" cy="226" r="1"/>
	<circle fill="#8764B8" cx="226" cy="231" r="1"/>
	<circle fill="#8764B8" cx="226" cy="236" r="1"/>
	<circle fill="#8764B8" cx="226" cy="241" r="1"/>
	<circle fill="#8764B8" cx="226" cy="246" r="1"/>
	<circle fill="#8764B8" cx="226" cy="251" r="1"/>
	<circle fill="#8764B8" cx="226" cy="256" r="1"/>
	<circle fill="#8764B8" cx="226" cy="261" r="1"/>
	<circle fill="#8764B8" cx="226" cy="266" r="1"/>
	<circle fill="#8764B8" cx="226" cy="271" r="1"/>
	<circle fill="#8764B8" cx="231" cy="196" r="1"/>
	<circle fill="#8764B8" cx="231" cy="201" r="1"/>
	<circle fill="#8764B8" cx="231" cy="206" r="1"/>
	<circle fill="#8764B8" cx="231" cy="211" r="1"/>
	<circle fill="#8764B8" cx="231" cy="216" r="1"/>
	<circle fill="#8764B8" cx="231" cy="221" r="1"/>
	<circle fill="#8764B8" cx="231" cy="226" r="1"/>
	<circle fill="#8764B8" cx="231" cy="231" r="1"/>
	<circle fill="#8764B8" cx="231" cy="236" r="1"/>
	<circle fill="#8764B8" cx="231" cy="241" r="1"/>
	<circle fill="#8764B8" cx="231" cy="246" r="1"/>
	<circle fill="#8764B8" cx="231" cy="251" r="1"/>
	<circle fill="#8764B8" cx="231" cy="256" r="1"/>
	<circle fill="#8764B8" cx="231" cy="261" r="1"/>
	<circle fill="#8764B8" cx="231" cy="266" r="1"/>
	<circle fill="#8764B8" cx="231" cy="271" r="1"/>
	<circle fill="#8764B8" cx="236" cy="196" r="1"/>
	<circle fill="#8764B8" cx="236" cy="201" r="1"/>
	<circle fill="#8764B8" cx="236" cy="206" r="1"/>
	<circle fill="#8764B8" cx="236" cy="211" r="1"/>
	<circle fill="#8764B8" cx="236" cy="216" r="1"/>
	<circle fill="#8764B8" cx="236" cy="221" r="1"/>
	<circle fill="#8764B8" cx="236" cy="226" r="1"/>
	<circle fill="#8764B8" cx="236" cy="231" r="1"/>
	<circle fill="#8764B8" cx="236" cy="236" r="1"/>
	<circle fill="#8764B8" cx="236" cy="241" r="1"/>
	<circle fill="#8764B8" cx="236" cy="246" r="1"/>
	<circle fill="#8764B8" cx="236" cy="251" r="1"/>
	<circle fill="#8764B8" cx="236" cy="256" r="1"/>
	<circle fill="#8764B8" cx="236" cy="261" r="1"/>
	<circle fill="#8764B8" cx="236" cy="266" r="1"/>
	<circle fill="#8764B8" cx="236" cy="271" r="1"/>
	<circle fill="#8764B8" cx="241" cy="196" r="1"/>
	<circle fill="#8764B8" cx="241" cy="201" r="1"/>
	<circle fill="#8764B8" cx="241" cy="206" r="1"/>
	<circle fill="#8764B8" cx="241" cy="211" r="1"/>
	<circle fill="#8764B8" cx="241" cy="216" r="1"/>
	<circle fill="#8764B8" cx="241" cy="221" r="1"/>
	<circle fill="#8764B8" cx="241" cy="226" r="1"/>
	<circle fill="#8764B8" cx="241" cy="231" r="1"/>
	<circle fill="#8764B8" cx="241" cy="236" r="1"/>
	<circle fill="#8764B8" cx="241" cy="241" r="1"/>
	<circle fill="#8764B8" cx="241" cy="246" r="1"/>
	<circle fill="#8764B8" cx="241" cy="251" r="1"/>
	<circle fill="#8764B8" cx="241" cy="256" r="1"/>
	<circle fill="#8764B8" cx="241" cy="261" r="1"/>
	<circle fill="#8764B8" cx="241" cy="266" r="1"/>
	<circle fill="#8764B8" cx="241" cy="271" r="1"/>
	<circle fill="#8764B8" cx="246" cy="196" r="1"/>
	<circle fill="#8764B8" cx="246" cy="201" r="1"/>
	<circle fill="#8764B8" cx="246" cy="206" r="1"/>
	<circle fill="#8764B8" cx="246" cy="211" r="1"/>
	<circle fill="#8764B8" cx="246" cy="216" r="1"/>
	<circle fill="#8764B8" cx="246" cy="221" r="1"/>
	<circle fill="#8764B8" cx="246" cy="226" r="1"/>
	<circle fill="#8764B8" cx="246" cy="231" r="1"/>
	<circle fill="#8764B8" cx="246" cy="236" r="1"/>
	<circle fill="#8764B8" cx="246" cy="241" r="1"/>
	<circle fill="#8764B8" cx="246" cy="246" r="1"/>
	<circle fill="#8764B8" cx="246" cy="251" r="1"/>
	<circle fill="#8764B8" cx="246" cy="256" r="1"/>
	<circle fill="#8764B8" cx="246" cy="261" r="1"/>
	<circle fill="#8764B8" cx="246" cy="266" r="1"/>
	<circle fill="#8764B8" cx="246" cy="271" r="1"/>
	<circle fill="#8764B8" cx="251" cy="196" r="1"/>
	<circle fill="#8764B8" cx="251" cy="201" r="1"/>
	<circle fill="#8764B8" cx="251" cy="206" r="1"/>
	<circle fill="#8764B8" cx="251" cy="211" r="1"/>
	<circle fill="#8764B8" cx="251" cy="216" r="1"/>
	<circle fill="#8764B8" cx="251" cy="221" r="1"/>
	<circle fill="#8764B8" cx="251" cy="226" r="1"/>
	<circle fill="#8764B8" cx="251" cy="231" r="1"/>
	<circle fill="#8764B8" cx="251" cy="236" r="1"/>
	<circle fill="#8764B8" cx="251" cy="241" r="1"/>
	<circle fill="#8764B8" cx="251" cy="246" r="1"/>
	<circle fill="#8764B8" cx="251" cy="251" r="1"/>
	<circle fill="#8764B8" cx="251" cy="256" r="1"/>
	<circle fill="#8764B8" cx="251" cy="261" r="1"/>
	<circle fill="#8764B8" cx="251" cy="266" r="1"/>
	<circle fill="#8764B8" cx="251" cy="271" r="1"/>
	<circle fill="#8764B8" cx="256" cy="196" r="1"/>
	<circle fill="#8764B8" cx="256" cy="201" r="1"/>
	<circle fill="#8764B8" cx="256" cy="206" r="1"/>
	<circle fill="#8764B8" cx="256" cy="211" r="1"/>
	<circle fill="#8764B8" cx="256" cy="216" r="1"/>
	<circle fill="#8764B8" cx="256" cy="221" r="1"/>
	<circle fill="#8764B8" cx="256" cy="226" r="1"/>
	<circle fill="#8764B8" cx="256" cy="231" r="1"/>
	<circle fill="#8764B8" cx="256" cy="236" r="1"/>
	<circle fill="#8764B8" cx="256" cy="241" r="1"/>
	<circle fill="#8764B8" cx="256" cy="246" r="1"/>
	<circle fill="#8764B8" cx="256" cy="251" r="1"/>
	<circle fill="#8764B8" cx="256" cy="256" r="1"/>
	<circle fill="#8764B8" cx="256" cy="261" r="1"/>
	<circle fill="#8764B8" cx="256" cy="266" r="1"/>
	<circle fill="#8764B8" cx="256" cy="271" r="1"/>
	<circle fill="#8764B8" cx="261" cy="196" r="1"/>
	<circle fill="#8764B8" cx="261" cy="201" r="1"/>
	<circle fill="#8764B8" cx="261" cy="206" r="1"/>
	<circle fill="#8764B8" cx="261" cy="211" r="1"/>
	<circle fill="#8764B8" cx="261" cy="216" r="1"/>
	<circle fill="#8764B8" cx="261" cy="221" r="1"/>
	<circle fill="#8764B8" cx="261" cy="226" r="1"/>
	<circle fill="#8764B8" cx="261" cy="231" r="1"/>
	<circle fill="#8764B8" cx="261" cy="236" r="1"/>
	<circle fill="#8764B8" cx="261" cy="241" r="1"/>
	<circle fill="#8764B8" cx="261" cy="246" r="1"/>
	<circle fill="#8764B8" cx="261" cy="251" r="1"/>
	<circle fill="#8764B8" cx="261" cy="256" r="1"/>
	<circle fill="#8764B8" cx="261" cy="261" r="1"/>
	<circle fill="#8764B8" cx="261" cy="266" r="1"/>
	<circle fill="#8764B8" cx="261" cy="271" r="1"/>
	<circle fill="#8764B8" cx="266" cy="196" r="1"/>
	<circle fill="#8764B8" cx="266" cy="201" r="1"/>
	<circle fill="#8764B8" cx="266" cy="206" r="1"/>
	<circle fill="#8764B8" cx="266" cy="211" r="1"/>
	<circle fill="#8764B8" cx="266" cy="216" r="1"/>
	<circle fill="#8764B8" cx="266" cy="221" r="1"/>
	<circle fill="#8764B8" cx="266" cy="226" r="1"/>
	<circle fill="#8764B8" cx="266" cy="231" r="1"/>
	<circle fill="#8764B8" cx="266" cy="236" r="1"/>
	<circle fill="#8764B8" cx="266" cy="241" r="1"/>
	<circle fill="#8764B8" cx="266" cy="246" r="1"/>
	<circle fill="#8764B8" cx="266" cy="251" r="1"/>
	<circle fill="#8764B8" cx="266" cy="256" r="1"/>
	<circle fill="#8764B8" cx="266" cy="261" r="1"/>
	<circle fill="#8764B8" cx="266" cy="266" r="1"/>
	<circle fill="#8764B8" cx="266" cy="271" r="1"/>
	<circle fill="#8764B8" cx="271" cy="196" r="1"/>
	<circle fill="#8764B8" cx="271" cy="201" r="1"/>
	<circle fill="#8764B8" cx="271" cy="206" r="1"/>
	<circle fill="#8764B8" cx="271" cy="211" r="1"/>
	<circle fill="#8764B8" cx="271" cy="216" r="1"/>
	<circle fill="#8764B8" cx="271" cy="221" r="1"/>
	<circle fill="#8764B8" cx="271" cy="226" r="1"/>
	<circle fill="#8764B8" cx="271" cy="231" r="1"/>
	<circle fill="#8764B8" cx="271" cy="236" r="1"/>
	<circle fill="#8764B8" cx="271" cy="241" r="1"/>
	<circle fill="#8764B8" cx="271" cy="246" r="1"/>
	<circle fill="#8764B8" cx="271" cy="251" r="1"/>
	<circle fill="#8764B8" cx="271" cy="256" r="1"/>
	<circle fill="#8764B8" cx="271" cy="261" r="1"/>
	<circle fill="#8764B8" cx="271" cy="266" r="1"/>
	<circle fill="#8764B8" cx="271" cy="271" r="1"/>
</g>
<rect x="97" y="1" fill="none" stroke="#FFFFFF" width="80" height="80"/>
<circle fill="none" stroke="#FFFFFF" cx="137" cy="41" r="40"/>
<rect x="289" y="1" fill="none" stroke="#FFFFFF" width="80" height="80"/>
<circle fill="none" stroke="#FFFFFF" cx="329" cy="41" r="40"/>
<rect x="289" y="97" fill="#4F6BED" width="80" height="80"/>
<circle fill="#0078D4" cx="137" cy="137" r="40"/>
<rect x="193" y="97" fill="none" stroke="#FFFFFF" width="80" height="80"/>
<circle fill="none" stroke="#FFFFFF" cx="233" cy="137" r="40"/>
<rect x="1" y="97" fill="none" stroke="#FFFFFF" width="80" height="80"/>
<circle fill="none" stroke="#FFFFFF" cx="41" cy="137" r="40"/>
<circle fill="#FCE100" cx="5" cy="196" r="1"/>
<circle fill="#FCE100" cx="5" cy="211" r="1"/>
<circle fill="#FCE100" cx="5" cy="226" r="1"/>
<circle fill="#FCE100" cx="5" cy="241" r="1"/>
<circle fill="#FCE100" cx="5" cy="256" r="1"/>
<circle fill="#FCE100" cx="5" cy="271" r="1"/>
<circle fill="#FCE100" cx="20" cy="196" r="1"/>
<circle fill="#FCE100" cx="20" cy="211" r="1"/>
<circle fill="#FCE100" cx="20" cy="226" r="1"/>
<circle fill="#FCE100" cx="20" cy="241" r="1"/>
<circle fill="#FCE100" cx="20" cy="256" r="1"/>
<circle fill="#FCE100" cx="20" cy="271" r="1"/>
<circle fill="#FCE100" cx="35" cy="196" r="1"/>
<circle fill="#FCE100" cx="35" cy="211" r="1"/>
<circle fill="#FCE100" cx="35" cy="226" r="1"/>
<circle fill="#FCE100" cx="35" cy="241" r="1"/>
<circle fill="#FCE100" cx="35" cy="256" r="1"/>
<circle fill="#FCE100" cx="35" cy="271" r="1"/>
<circle fill="#FCE100" cx="50" cy="196" r="1"/>
<circle fill="#FCE100" cx="50" cy="211" r="1"/>
<circle fill="#FCE100" cx="50" cy="226" r="1"/>
<circle fill="#FCE100" cx="50" cy="241" r="1"/>
<circle fill="#FCE100" cx="50" cy="256" r="1"/>
<circle fill="#FCE100" cx="50" cy="271" r="1"/>
<circle fill="#FCE100" cx="65" cy="196" r="1"/>
<circle fill="#FCE100" cx="65" cy="211" r="1"/>
<circle fill="#FCE100" cx="65" cy="226" r="1"/>
<circle fill="#FCE100" cx="65" cy="241" r="1"/>
<circle fill="#FCE100" cx="65" cy="256" r="1"/>
<circle fill="#FCE100" cx="65" cy="271" r="1"/>
<circle fill="#FCE100" cx="80" cy="196" r="1"/>
<circle fill="#FCE100" cx="80" cy="211" r="1"/>
<circle fill="#FCE100" cx="80" cy="226" r="1"/>
<circle fill="#FCE100" cx="80" cy="241" r="1"/>
<circle fill="#FCE100" cx="80" cy="256" r="1"/>
<circle fill="#FCE100" cx="80" cy="271" r="1"/>
<circle fill="#0078D4" cx="291" cy="291" r="1"/>
<circle fill="#0078D4" cx="291" cy="306" r="1"/>
<circle fill="#0078D4" cx="291" cy="321" r="1"/>
<circle fill="#0078D4" cx="291" cy="336" r="1"/>
<circle fill="#0078D4" cx="291" cy="351" r="1"/>
<circle fill="#0078D4" cx="291" cy="366" r="1"/>
<circle fill="#0078D4" cx="306" cy="291" r="1"/>
<circle fill="#0078D4" cx="306" cy="306" r="1"/>
<circle fill="#0078D4" cx="306" cy="321" r="1"/>
<circle fill="#0078D4" cx="306" cy="336" r="1"/>
<circle fill="#0078D4" cx="306" cy="351" r="1"/>
<circle fill="#0078D4" cx="306" cy="366" r="1"/>
<circle fill="#0078D4" cx="321" cy="291" r="1"/>
<circle fill="#0078D4" cx="321" cy="306" r="1"/>
<circle fill="#0078D4" cx="321" cy="321" r="1"/>
<circle fill="#0078D4" cx="321" cy="336" r="1"/>
<circle fill="#0078D4" cx="321" cy="351" r="1"/>
<circle fill="#0078D4" cx="321" cy="366" r="1"/>
<circle fill="#0078D4" cx="336" cy="291" r="1"/>
<circle fill="#0078D4" cx="336" cy="306" r="1"/>
<circle fill="#0078D4" cx="336" cy="321" r="1"/>
<circle fill="#0078D4" cx="336" cy="336" r="1"/>
<circle fill="#0078D4" cx="336" cy="351" r="1"/>
<circle fill="#0078D4" cx="336" cy="366" r="1"/>
<circle fill="#0078D4" cx="351" cy="291" r="1"/>
<circle fill="#0078D4" cx="351" cy="306" r="1"/>
<circle fill="#0078D4" cx="351" cy="321" r="1"/>
<circle fill="#0078D4" cx="351" cy="336" r="1"/>
<circle fill="#0078D4" cx="351" cy="351" r="1"/>
<circle fill="#0078D4" cx="351" cy="366" r="1"/>
<circle fill="#0078D4" cx="366" cy="291" r="1"/>
<circle fill="#0078D4" cx="366" cy="306" r="1"/>
<circle fill="#0078D4" cx="366" cy="321" r="1"/>
<circle fill="#0078D4" cx="366" cy="336" r="1"/>
<circle fill="#0078D4" cx="366" cy="351" r="1"/>
<circle fill="#0078D4" cx="366" cy="366" r="1"/>
<rect x="97" y="193" fill="none" stroke="#FFFFFF" width="80" height="80"/>
<circle fill="none" stroke="#FFFFFF" cx="137" cy="233" r="40"/>
<rect x="1" y="367" fill="#4F6BED" width="80" height="2"/>
<rect x="1" y="361" fill="#4F6BED" width="80" height="2"/>
<rect x="1" y="355" fill="#4F6BED" width="80" height="2"/>
<rect x="1" y="349" fill="#4F6BED" width="80" height="2"/>
<rect x="1" y="343" fill="#4F6BED" width="80" height="2"/>
<rect x="1" y="337" fill="#4F6BED" width="80" height="2"/>
<rect x="1" y="331" fill="#4F6BED" width="80" height="2"/>
<rect x="1" y="325" fill="#4F6BED" width="80" height="2"/>
<rect x="1" y="319" fill="#4F6BED" width="80" height="2"/>
<rect x="1" y="313" fill="#4F6BED" width="80" height="2"/>
<rect x="1" y="307" fill="#4F6BED" width="80" height="2"/>
<rect x="1" y="301" fill="#4F6BED" width="80" height="2"/>
<rect x="1" y="295" fill="#4F6BED" width="80" height="2"/>
<rect x="1" y="289" fill="#4F6BED" width="80" height="2"/>
<circle fill="#50E6FF" cx="137" cy="329" r="40"/>
<rect x="193" y="289" fill="none" stroke="#FFFFFF" width="80" height="80"/>
<circle fill="none" stroke="#FFFFFF" cx="233" cy="329" r="40"/>
<defs>
	<filter id="Adobe_OpacityMaskFilter_1_" filterUnits="userSpaceOnUse" x="-15.6" y="-15.6" width="113.1" height="113.1">
		<feColorMatrix  type="matrix" values="1 0 0 0 0  0 1 0 0 0  0 0 1 0 0  0 0 0 1 0"/>
	</filter>
</defs>
<mask maskUnits="userSpaceOnUse" x="-15.6" y="-15.6" width="113.1" height="113.1" id="mask1">
	<circle fill="#FFFFFF" filter="url(#Adobe_OpacityMaskFilter_1_)" cx="41" cy="41" r="40"/>
</mask>
<g mask="url(#mask1)">
	
		<rect x="12.4" y="28.6" transform="matrix(0.7071 -0.7071 0.7071 0.7071 -44.5599 29.5773)" fill="#50E6FF" width="2" height="80"/>
	
		<rect x="16.7" y="24.3" transform="matrix(0.7071 -0.7071 0.7071 0.7071 -40.3173 31.3343)" fill="#50E6FF" width="2" height="80"/>
	<rect x="20.9" y="20.1" transform="matrix(0.7071 -0.7071 0.7071 0.7071 -36.0745 33.092)" fill="#50E6FF" width="2" height="80"/>
	<rect x="25.2" y="15.8" transform="matrix(0.7071 -0.7071 0.7071 0.7071 -31.832 34.8491)" fill="#50E6FF" width="2" height="80"/>
	
		<rect x="29.4" y="11.6" transform="matrix(0.7071 -0.7071 0.7071 0.7071 -27.5893 36.6068)" fill="#50E6FF" width="2" height="80"/>
	<rect x="33.6" y="7.4" transform="matrix(0.7071 -0.7071 0.7071 0.7071 -23.3468 38.3639)" fill="#50E6FF" width="2" height="80"/>
	<rect x="37.9" y="3.1" transform="matrix(0.7071 -0.7071 0.7071 0.7071 -19.104 40.1216)" fill="#50E6FF" width="2" height="80"/>
	
		<rect x="42.1" y="-1.1" transform="matrix(0.7071 -0.7071 0.7071 0.7071 -14.8614 41.8786)" fill="#50E6FF" width="2" height="80"/>
	
		<rect x="46.4" y="-5.4" transform="matrix(0.7071 -0.7071 0.7071 0.7071 -10.6186 43.6363)" fill="#50E6FF" width="2" height="80"/>
	<rect x="50.6" y="-9.6" transform="matrix(0.7071 -0.7071 0.7071 0.7071 -6.3761 45.3934)" fill="#50E6FF" width="2" height="80"/>
	
		<rect x="54.8" y="-13.8" transform="matrix(0.7071 -0.7071 0.7071 0.7071 -2.1333 47.1511)" fill="#50E6FF" width="2" height="80"/>
	<rect x="59.1" y="-18.1" transform="matrix(0.7071 -0.7071 0.7071 0.7071 2.1091 48.9082)" fill="#50E6FF" width="2" height="80"/>
	<rect x="63.3" y="-22.3" transform="matrix(0.7071 -0.7071 0.7071 0.7071 6.3519 50.666)" fill="#50E6FF" width="2" height="80"/>
	
		<rect x="67.6" y="-26.6" transform="matrix(0.7071 -0.7071 0.7071 0.7071 10.5944 52.4229)" fill="#50E6FF" width="2" height="80"/>
</g>
<defs>
	<filter id="Adobe_OpacityMaskFilter_2_" filterUnits="userSpaceOnUse" x="272.4" y="176.4" width="113.1" height="113.1">
		<feColorMatrix  type="matrix" values="1 0 0 0 0  0 1 0 0 0  0 0 1 0 0  0 0 0 1 0"/>
	</filter>
</defs>
<mask maskUnits="userSpaceOnUse" x="272.4" y="176.4" width="113.1" height="113.1" id="mask2">
	<circle fill="#FFFFFF" filter="url(#Adobe_OpacityMaskFilter_2_)" cx="329" cy="233" r="40"/>
</mask>
<g mask="url(#mask2)">
	
		<rect x="316.6" y="259.6" transform="matrix(0.7071 -0.7071 0.7071 0.7071 -79.8172 328.4595)" fill="#038387" width="80" height="2"/>
	
		<rect x="312.3" y="255.3" transform="matrix(0.7071 -0.7071 0.7071 0.7071 -78.0594 324.2173)" fill="#038387" width="80" height="2"/>
	
		<rect x="308.1" y="251.1" transform="matrix(0.7071 -0.7071 0.7071 0.7071 -76.3019 319.9743)" fill="#038387" width="80" height="2"/>
	
		<rect x="303.8" y="246.8" transform="matrix(0.7071 -0.7071 0.7071 0.7071 -74.5451 315.7316)" fill="#038387" width="80" height="2"/>
	
		<rect x="299.6" y="242.6" transform="matrix(0.7071 -0.7071 0.7071 0.7071 -72.7876 311.4886)" fill="#038387" width="80" height="2"/>
	
		<rect x="295.4" y="238.4" transform="matrix(0.7071 -0.7071 0.7071 0.7071 -71.0297 307.2462)" fill="#038387" width="80" height="2"/>
	
		<rect x="291.1" y="234.1" transform="matrix(0.7071 -0.7071 0.7071 0.7071 -69.2729 303.0035)" fill="#038387" width="80" height="2"/>
	
		<rect x="286.9" y="229.9" transform="matrix(0.7071 -0.7071 0.7071 0.7071 -67.5151 298.7612)" fill="#038387" width="80" height="2"/>
	
		<rect x="282.6" y="225.6" transform="matrix(0.7071 -0.7071 0.7071 0.7071 -65.7577 294.5182)" fill="#038387" width="80" height="2"/>
	
		<rect x="278.4" y="221.4" transform="matrix(0.7071 -0.7071 0.7071 0.7071 -64.0008 290.2755)" fill="#038387" width="80" height="2"/>
	
		<rect x="274.2" y="217.2" transform="matrix(0.7071 -0.7071 0.7071 0.7071 -62.2434 286.0326)" fill="#038387" width="80" height="2"/>
	
		<rect x="269.9" y="212.9" transform="matrix(0.7071 -0.7071 0.7071 0.7071 -60.4862 281.7905)" fill="#038387" width="80" height="2"/>
	
		<rect x="265.7" y="208.7" transform="matrix(0.7071 -0.7071 0.7071 0.7071 -58.7287 277.5475)" fill="#038387" width="80" height="2"/>
	
		<rect x="261.4" y="204.4" transform="matrix(0.7071 -0.7071 0.7071 0.7071 -56.9709 273.3053)" fill="#038387" width="80" height="2"/>
</g>
</svg>
