<svg width="20" height="18" viewBox="0 0 20 18" fill="none" xmlns="http://www.w3.org/2000/svg">
<path d="M17.9441 4.92638C17.9568 5.10403 17.9568 5.28173 17.9568 5.45938C17.9568 10.8781 13.8325 17.1218 6.29441 17.1218C3.97207 17.1218 1.81473 16.4492 0 15.2817C0.329961 15.3198 0.647187 15.3325 0.989844 15.3325C2.90605 15.3325 4.67004 14.6853 6.07867 13.5812C4.27664 13.5431 2.76648 12.3629 2.24617 10.7386C2.5 10.7766 2.75379 10.802 3.02031 10.802C3.38832 10.802 3.75637 10.7512 4.09898 10.6624C2.22082 10.2817 0.812148 8.63196 0.812148 6.63958V6.58884C1.35781 6.89341 1.99238 7.08376 2.66492 7.10911C1.56086 6.37306 0.837539 5.11673 0.837539 3.6954C0.837539 2.93399 1.04055 2.23603 1.3959 1.62688C3.41367 4.11419 6.44668 5.73852 9.84766 5.91622C9.78422 5.61165 9.74613 5.29442 9.74613 4.97716C9.74613 2.71825 11.5736 0.878174 13.8451 0.878174C15.0253 0.878174 16.0913 1.3731 16.84 2.17259C17.7664 1.99493 18.6547 1.65228 19.4416 1.18274C19.137 2.13454 18.4898 2.93403 17.6395 3.44161C18.4644 3.35282 19.2639 3.12435 19.9999 2.80712C19.4416 3.61927 18.7436 4.34259 17.9441 4.92638Z" fill="white"/>
</svg>
