<?xml version="1.0" encoding="UTF-8" standalone="no"?>
<!-- Copyright (c) Microsoft Corporation. All rights reserved. Licensed under the MIT license. -->

<svg xmlns:dc="http://purl.org/dc/elements/1.1/" xmlns:cc="http://creativecommons.org/ns#" xmlns:rdf="http://www.w3.org/1999/02/22-rdf-syntax-ns#" xmlns:svg="http://www.w3.org/2000/svg" xmlns="http://www.w3.org/2000/svg" xmlns:sodipodi="http://sodipodi.sourceforge.net/DTD/sodipodi-0.dtd" xmlns:inkscape="http://www.inkscape.org/namespaces/inkscape" id="svg4202" version="1.1" inkscape:version="0.91 r13725" xml:space="preserve" width="223.74875" height="221.81375" viewBox="0 0 223.74875 221.81375" sodipodi:docname="api-extractor.svg"><title id="title4812">API Extractor</title><metadata id="metadata4208"><rdf:RDF><cc:Work rdf:about=""><dc:format>image/svg+xml</dc:format><dc:type rdf:resource="http://purl.org/dc/dcmitype/StillImage" /><dc:title>API Extractor</dc:title><dc:creator><cc:Agent><dc:title>https://github.com/pgonzal</dc:title></cc:Agent></dc:creator><cc:license rdf:resource="https://opensource.org/licenses/MIT" /><dc:description>Copyright (c) Microsoft Corporation. All rights reserved. Licensed under the MIT license.</dc:description></cc:Work></rdf:RDF></metadata><defs id="defs4206"><clipPath clipPathUnits="userSpaceOnUse" id="clipPath4216"><path d="m 0,177.451 178.999,0 L 178.999,0 0,0 0,177.451 Z" id="path4218" inkscape:connector-curvature="0" /></clipPath></defs><sodipodi:namedview pagecolor="#ffffff" bordercolor="#666666" borderopacity="1" objecttolerance="10" gridtolerance="10" guidetolerance="10" inkscape:pageopacity="0" inkscape:pageshadow="2" inkscape:window-width="681" inkscape:window-height="435" id="namedview4204" showgrid="false" inkscape:zoom="1.0639557" inkscape:cx="-19.24011" inkscape:cy="110.90688" inkscape:window-x="0" inkscape:window-y="0" inkscape:window-maximized="0" inkscape:current-layer="g4210" /><g id="g4210" inkscape:groupmode="layer" inkscape:label="api-extractor" transform="matrix(1.25,0,0,-1.25,0,221.81375)"><g id="g4212"><g id="g4214" clip-path="url(#clipPath4216)"><g id="g4220" transform="translate(89.4995,177.4514)"><path d="m 0,0 c 49.429,0 89.5,-39.724 89.5,-88.726 0,-49.002 -40.071,-88.725 -89.5,-88.725 -49.429,0 -89.5,39.723 -89.5,88.725 C -89.5,-39.724 -49.429,0 0,0" style="fill:#383838;fill-opacity:1;fill-rule:nonzero;stroke:none" id="path4222" inkscape:connector-curvature="0" /></g><g id="g4224" transform="translate(50.5649,61.8792)"><path d="m 0,0 c -0.519,0 -1.028,0.137 -1.477,0.396 l -19.37,11.183 c -0.914,0.527 -1.478,1.503 -1.478,2.558 l 0,46.308 c 10e-4,1.055 0.564,2.031 1.478,2.558 l 40.103,23.154 c 0.914,0.528 2.041,0.528 2.954,0 L 41.581,74.974 c 1.412,-0.815 1.896,-2.621 1.081,-4.034 l 0,-0.001 -9.298,-16.103 c -0.795,-1.379 -2.54,-1.879 -3.945,-1.131 -2.834,1.509 -5.999,2.293 -9.211,2.278 C 11.997,55.817 4.491,51.301 0.499,44.123 -5.684,33.415 -2.977,20.309 6.661,14.285 8.01,13.442 8.449,11.682 7.654,10.304 L 2.558,1.477 C 2.03,0.563 1.055,0.001 0,0 Z" style="fill:#acc5e7;fill-opacity:1;fill-rule:nonzero;stroke:none" id="path4226" inkscape:connector-curvature="0" /></g><g id="g4228" transform="translate(71.2983,151.386)"><path d="m 0,0 c -1.037,0 -2.056,-0.273 -2.954,-0.792 l -40.104,-23.153 c -1.827,-1.055 -2.953,-3.006 -2.953,-5.117 l 0,-46.307 c 0,-2.111 1.126,-4.062 2.953,-5.117 l 19.37,-11.183 c 2.824,-1.632 6.436,-0.666 8.068,2.158 10e-4,10e-4 10e-4,0.003 0.002,0.004 l 5.097,8.827 c 1.591,2.756 0.713,6.278 -1.986,7.964 -8.282,5.175 -10.553,16.532 -5.17,25.855 3.465,6.265 9.996,10.218 17.153,10.383 2.728,0.013 5.416,-0.651 7.823,-1.933 2.81,-1.495 6.3,-0.494 7.89,2.263 l 9.297,16.103 c 1.632,2.826 0.664,6.439 -2.162,8.07 L 2.954,-0.792 C 2.056,-0.273 1.037,0 0,0 m 0,-5.908 19.37,-11.183 -9.297,-16.103 c -3.263,1.733 -6.903,2.634 -10.597,2.624 -9.268,-0.167 -17.747,-5.246 -22.269,-13.337 -6.964,-12.061 -3.732,-27.015 7.155,-33.819 l -5.096,-8.827 -19.37,11.184 0,46.307 L 0,-5.908" style="fill:#5686ba;fill-opacity:1;fill-rule:nonzero;stroke:none" id="path4230" inkscape:connector-curvature="0" /></g><g id="g4232" transform="translate(128.4346,61.8792)"><path d="m 0,0 c -1.056,0.001 -2.03,0.563 -2.559,1.477 l -5.095,8.827 c -0.796,1.378 -0.357,3.138 0.993,3.981 9.638,6.024 12.345,19.13 6.162,29.838 -3.992,7.178 -11.498,11.694 -19.71,11.86 -3.212,0.015 -6.376,-0.769 -9.211,-2.278 -1.404,-0.748 -3.149,-0.248 -3.944,1.131 l -9.298,16.103 c -0.816,1.412 -0.332,3.218 1.08,4.034 0,0.001 10e-4,0.001 10e-4,0.001 l 19.37,11.183 c 0.914,0.528 2.04,0.528 2.954,0 L 20.847,63.003 c 0.914,-0.527 1.476,-1.503 1.476,-2.558 l 0,-46.308 c 0,-1.055 -0.562,-2.031 -1.476,-2.558 L 1.477,0.396 C 1.027,0.137 0.519,0 0,0" style="fill:#acc5e7;fill-opacity:1;fill-rule:nonzero;stroke:none" id="path4234" inkscape:connector-curvature="0" /></g><g id="g4236" transform="translate(107.7002,151.386)"><path d="m 0,0 c -1.037,0 -2.056,-0.273 -2.954,-0.792 l -19.369,-11.183 c -2.826,-1.631 -3.794,-5.244 -2.163,-8.07 l 9.298,-16.103 c 1.589,-2.757 5.08,-3.758 7.889,-2.263 2.408,1.282 5.097,1.946 7.824,1.933 7.158,-0.164 13.688,-4.118 17.153,-10.383 5.382,-9.323 3.111,-20.68 -5.17,-25.855 -2.699,-1.686 -3.577,-5.208 -1.987,-7.964 l 5.097,-8.827 c 1.629,-2.825 5.24,-3.794 8.066,-2.165 0.002,10e-4 0.003,0.002 0.004,0.003 l 19.37,11.183 c 1.828,1.055 2.954,3.006 2.954,5.117 l 0,46.307 c 0,2.111 -1.126,4.062 -2.954,5.117 L 2.954,-0.792 C 2.056,-0.273 1.037,0 0,0 m 0,-5.908 40.104,-23.154 0,-46.307 -19.37,-11.184 -5.095,8.827 c 10.886,6.804 14.118,21.758 7.155,33.819 -4.522,8.091 -13.002,13.17 -22.269,13.337 -3.694,0.009 -7.335,-0.891 -10.597,-2.624 L -19.369,-17.091 0,-5.908" style="fill:#5686ba;fill-opacity:1;fill-rule:nonzero;stroke:none" id="path4238" inkscape:connector-curvature="0" /></g><g id="g4240" transform="translate(90.0244,112.1111)"><path d="M 0,0 C -14.103,0 -25.535,11.433 -25.535,25.535 -25.535,39.638 -14.103,51.07 0,51.07 14.103,51.07 25.535,39.638 25.535,25.535 25.52,11.439 14.097,0.016 0,0" style="fill:#acc5e7;fill-opacity:1;fill-rule:nonzero;stroke:none" id="path4242" inkscape:connector-curvature="0" /></g><g id="g4244" transform="translate(90.0244,166.135)"><path d="m 0,0 c -15.734,0 -28.489,-12.755 -28.489,-28.489 0,-15.734 12.755,-28.489 28.489,-28.489 15.734,0 28.489,12.755 28.489,28.489 C 28.472,-12.762 15.727,-0.018 0,0 m 0,-5.908 c 12.472,0 22.581,-10.11 22.581,-22.581 C 22.581,-40.96 12.472,-51.07 0,-51.07 c -12.471,0 -22.581,10.11 -22.581,22.581 0,12.471 10.11,22.581 22.581,22.581" style="fill:#5686ba;fill-opacity:1;fill-rule:nonzero;stroke:none" id="path4246" inkscape:connector-curvature="0" /></g><g id="g4248" transform="translate(95.2178,28.1262)"><path d="m 0,0 -6.266,0 0.839,8.022 -7.525,-4.673 -3.027,4.517 8.423,3.35 -8.423,3.348 3.027,4.518 7.525,-4.673 -0.839,8.023 6.266,0 -0.869,-8.023 7.555,4.673 L 9.684,14.564 1.289,11.216 9.684,7.866 6.686,3.349 -0.869,8.022 0,0 Z" style="fill:#69bf62;fill-opacity:1;fill-rule:nonzero;stroke:none" id="path4250" inkscape:connector-curvature="0" /></g><g id="g4252" transform="translate(95.2178,28.1262)"><path d="m 0,0 -6.266,0 0.839,8.022 -7.525,-4.673 -3.027,4.517 8.423,3.35 -8.423,3.348 3.027,4.518 7.525,-4.673 -0.839,8.023 6.266,0 -0.869,-8.023 7.555,4.673 L 9.684,14.564 1.289,11.216 9.684,7.866 6.686,3.349 -0.869,8.022 0,0 Z" style="fill:none;stroke:#69bf62;stroke-width:1.41199994;stroke-linecap:butt;stroke-linejoin:round;stroke-miterlimit:4;stroke-dasharray:none;stroke-opacity:1" id="path4254" inkscape:connector-curvature="0" /></g><g id="g4256" transform="translate(128.9756,28.1262)"><path d="m 0,0 -6.266,0 0.84,8.022 -7.525,-4.673 -3.028,4.517 8.424,3.35 -8.424,3.348 3.028,4.518 7.525,-4.673 -0.84,8.023 6.266,0 -0.869,-8.023 7.556,4.673 L 9.685,14.564 1.29,11.216 9.685,7.866 6.687,3.349 -0.869,8.022 0,0 Z" style="fill:#69bf62;fill-opacity:1;fill-rule:nonzero;stroke:none" id="path4258" inkscape:connector-curvature="0" /></g><g id="g4260" transform="translate(128.9756,28.1262)"><path d="m 0,0 -6.266,0 0.84,8.022 -7.525,-4.673 -3.028,4.517 8.424,3.35 -8.424,3.348 3.028,4.518 7.525,-4.673 -0.84,8.023 6.266,0 -0.869,-8.023 7.556,4.673 L 9.685,14.564 1.29,11.216 9.685,7.866 6.687,3.349 -0.869,8.022 0,0 Z" style="fill:none;stroke:#69bf62;stroke-width:1.41199994;stroke-linecap:butt;stroke-linejoin:round;stroke-miterlimit:4;stroke-dasharray:none;stroke-opacity:1" id="path4262" inkscape:connector-curvature="0" /></g><g id="g4264" transform="translate(56.6895,23.6506)"><path d="m 0,0 -7.106,0 20.926,42.267 7.136,0 L 0,0 Z" style="fill:#69bf62;fill-opacity:1;fill-rule:nonzero;stroke:none" id="path4266" inkscape:connector-curvature="0" /></g><g id="g4268" transform="translate(56.6895,23.6506)"><path d="m 0,0 -7.106,0 20.926,42.267 7.136,0 L 0,0 Z" style="fill:none;stroke:#69bf62;stroke-width:1.41199994;stroke-linecap:butt;stroke-linejoin:round;stroke-miterlimit:4;stroke-dasharray:none;stroke-opacity:1" id="path4270" inkscape:connector-curvature="0" /></g></g></g></g></svg>