<svg id="Layer_1" data-name="Layer 1" xmlns="http://www.w3.org/2000/svg" viewBox="0 0 462.48 300.62"><defs><style>.cls-1{fill:#0078d4;}</style></defs><path class="cls-1" d="M140,231.91H117.09l-11.34-32.08H56.18l-10.9,32.08H22.43l47.2-126H93.18Zm-39.82-49.13L82.72,132.5a61.17,61.17,0,0,1-1.67-7.91H80.7a51,51,0,0,1-1.76,7.91L61.63,182.78Z" transform="translate(-22.43 -105.87)"/><path class="cls-1" d="M221.5,150.43,172.9,216h48.43v15.91h-77v-7.65L194,157.81H149.08v-15.9H221.5Z" transform="translate(-22.43 -105.87)"/><path class="cls-1" d="M317.13,231.91H296.74V217.67h-.35Q287.51,234,268.79,234q-31.91,0-31.91-38.32V141.91h20.39v51.68q0,24.25,18.73,24.25a18.88,18.88,0,0,0,14.89-6.68q5.85-6.67,5.85-17.49V141.91h20.39Z" transform="translate(-22.43 -105.87)"/><path class="cls-1" d="M395.88,161.33q-3.69-2.9-10.64-2.9-9,0-15.11,8.17t-6.07,22.24v43.07H343.67v-90h20.39v18.54h.35q3-9.49,9.19-14.81a20.74,20.74,0,0,1,13.84-5.32q5.54,0,8.44,1.67Z" transform="translate(-22.43 -105.87)"/><path class="cls-1" d="M484.91,192.44H423.56q.36,12.48,7.69,19.25t20.17,6.77a44.51,44.51,0,0,0,26.46-8.61v16.43Q465.58,234,445.36,234q-19.86,0-31.16-12.27t-11.29-34.49q0-21,12.44-34.24t30.89-13.22q18.45,0,28.56,11.86t10.11,33ZM465.22,178q-.08-11-5.18-17.1T446,154.83a19.81,19.81,0,0,0-14.9,6.41Q425,167.66,423.56,178Z" transform="translate(-22.43 -105.87)"/><path d="M98.72,399.37V377.84a33.67,33.67,0,0,0,6.9,4.75,54.68,54.68,0,0,0,8.48,3.56,68.37,68.37,0,0,0,9,2.24,47.52,47.52,0,0,0,8.26.79q13.18,0,19.64-4.4T157.43,372a13.87,13.87,0,0,0-2.15-7.78,22.63,22.63,0,0,0-6-6,63.82,63.82,0,0,0-9.1-5.23q-5.22-2.5-11.2-5.23-6.42-3.42-12-6.94a51.24,51.24,0,0,1-9.62-7.78,32.8,32.8,0,0,1-6.42-9.62,31.44,31.44,0,0,1-2.32-12.57,29.09,29.09,0,0,1,4-15.43,34,34,0,0,1,10.55-10.81,48.5,48.5,0,0,1,14.9-6.33,71,71,0,0,1,17-2.06q19.77,0,28.83,4.48v20.66q-10.72-7.74-27.6-7.74a49.84,49.84,0,0,0-9.27.88,27.55,27.55,0,0,0-8.26,2.9,17.92,17.92,0,0,0-5.94,5.19,12.71,12.71,0,0,0-2.28,7.64,14.38,14.38,0,0,0,1.76,7.3,18.74,18.74,0,0,0,5.14,5.62,52.17,52.17,0,0,0,8.26,5q4.88,2.42,11.29,5.23,6.6,3.42,12.44,7.21a58.35,58.35,0,0,1,10.28,8.34,36.79,36.79,0,0,1,7,10.16,29.77,29.77,0,0,1,2.6,12.7q0,9.57-3.87,16.17a31.15,31.15,0,0,1-10.42,10.72,46.22,46.22,0,0,1-15.07,6,85,85,0,0,1-18,1.84,77,77,0,0,1-7.77-.48q-4.62-.48-9.45-1.41a84.86,84.86,0,0,1-9.14-2.24A28.66,28.66,0,0,1,98.72,399.37Z" transform="translate(-22.43 -105.87)"/><path d="M202.52,404.38v-126h36.39q69.69,0,69.7,61.43,0,29.19-19.34,46.89t-51.86,17.71ZM223.35,296.1v90.62h16.7q22.07,0,34.32-12.13t12.26-34.28q0-44.21-45.79-44.21Z" transform="translate(-22.43 -105.87)"/><path d="M427,404.38H399.75l-43.86-57.65a32,32,0,0,1-3-4.4h-.35v62.05H331.63v-126h20.92v59.24h.35a29.33,29.33,0,0,1,3-4.31l42.28-54.93h25.05l-49.49,60.47Z" transform="translate(-22.43 -105.87)"/></svg>