<svg xmlns="http://www.w3.org/2000/svg" viewBox="0 0 69.3454 71.26501"><path d="M311.14317,370.64736c-.3897-.38969.25791-3.07308,1.08558-4.81555,1.05775-2.22684,1.05551-5.40854,1.28044-5.4836.51071-.17043,1.96559,3.30591,2.1155,3.98048.22268,1.00208.6735,5.1982-.67178,7.3483Z" transform="translate(-270.85967 -360.34215)" fill="#75706f"/><path d="M306.26069,369.40338c-5.0617.26935-7.94344-.44953-13.83077,2.53173,1.67853-.22553,9.40966.48478,11.07567,1.24888Z" transform="translate(-270.85967 -360.34215)" fill="#db714a"/><path d="M307.7704,369.73047c3.94763-1.9358,12.70968-3.572,16.10044-.60127a11.56224,11.56224,0,0,0-5.38055-.15439,5.07328,5.07328,0,0,1,3.702,2.1085c-3.45713-1.03708-4.96022-.429-6.20468.15031C315.21868,371.59158,307.7704,369.73047,307.7704,369.73047Z" transform="translate(-270.85967 -360.34215)" fill="#db714a"/><path d="M340.17809,393.35094a14.85485,14.85485,0,0,0-1.82373-2.55328c-.61291-.46326-2.19226-1.58771-3.86212-3.00385a62.17883,62.17883,0,0,1-6.69434-6.9732c-1.30249-1.61548-.873-3.17047-2.25287-4.72034-.43811-.49213-1.93579-.9682-3.34716-1.974-.41675-.297-.5337-.686-.96552-1.00842a50.60956,50.60956,0,0,0-5.86523-3.97467,7.36816,7.36816,0,0,0-3.71283-.2077c-.39423-.02778-.65576-.06427-.76831-.19989a38.95808,38.95808,0,0,1-.64582-7.59809c-.50421-.11383-.95044.32788-1.26049.74152a23.96884,23.96884,0,0,0-3.47516,7.36938c-1.45343,1.27362-5.5824,3.66266-7.83026,7.121a155.05466,155.05466,0,0,0-10.07111,19.91675c-1.28272,3.46332-4.23785,23.28883-5.66387,31.34175-.14081.79535,15.43278,3.9793,15.43278,3.9793h30.38288c-.54522-2.71649-1.33459-5.41284-3.18261-7.42768-.79755-.86956-1.759-1.56988-2.63172-2.364-3.85309-3.50623-5.78088-8.6427-7.01086-13.705-.74054-3.04773-1.28607-6.15649-2.033-9.20031a52.17858,52.17858,0,0,0,6.41308-.96143,17.32918,17.32918,0,0,1,5.74176.8092c1.88813.57929,3.49732.944,4.68458,1.38031.499.18335,1.072,2.239,2.28863,2.97529,1.29022.78076,2.46747-.19312,3.86212-.32184.969-.08948,1.33026-1.05139,1.7594-1.28742a3.713,3.713,0,0,0,2.05975-1.52337c.78913-1.18366.0644-2.51038,0-3.73334C339.68419,395.83172,340.34472,393.73259,340.17809,393.35094Z" transform="translate(-270.85967 -360.34215)" fill="#75706f"/><path d="M286.19182,375.31719c2.385.53607,4.80414,2.20746,7.21515,1.80377-1.67724,1.18933-7.46795,2.91486-13.73315,3.98761a32.01624,32.01624,0,0,0,4.18811.70972c.02307.06921-5.00348,1.43591-5.1322,4.01068,2.31726-2.66058,6.38452-.57068,8.81494-2.06909-3.50415,2.76117-7.46564,7.11493-13.25281,3.43219.476,1.47809,4.03345,3.13159,5.58673,3.28186-3.45727.78918-6.62012,3.40716-6.77045,5.48651,1.20252-2.06683,2.96247-2.27979,4.11487-1.27765-.73279.26306-3.50732,2.45514-3.50732,4.92279,2.67431-2.68689,5.81213-1.60333,7.74121-2.49274.12524,1.17749-5.18585,5.82477-10.497,7.77881,4.25891.25055,4.45337-.87665,7.21515-1.30267-2.70569,2.11688-2.10443,10.13373-7.31537,9.43225,2.50525,1.80377,5.68933,1.25555,7.11493.8017-1.35284,3.30688-2.65558,7.165-5.41138,11.12329a9.28606,9.28606,0,0,1,3.98969-1.14246c-1.35462,3.24231-2.87744,6.59509-3.99646,7.80341h24.81714s-10.10779-2.57114-8.82208-9.55073a6.873,6.873,0,0,0,5.38776,4.83673,14.32513,14.32513,0,0,1-3.7347-7.71428s2.38776,1.13265,4.40817,1.898c-5.26531-6-5.32653-10.53062-5.57143-12,1.46938.59694,2.7551,2.95408,4.04081,5.20408.85715-4.83674-1.46938-8.28061-3.53571-13.05612a5.27274,5.27274,0,0,0,4.59184,1.23979c-5.21174-2.84694-2.76265-10.42126-2.60188-10.03657,1.39269,3.33249,2.14269,2.96514,2.87739,3.19474-1.102-1.33164-1.699-7.148-.96429-8.70919.09184,1.65306,1.88265,2.77041,1.62245,2.32653-.82837-1.4131.949-7.04081,2.72449-10.83673a33.26753,33.26753,0,0,1,5.33145-7.36213S292.80028,375.3601,286.19182,375.31719Z" transform="translate(-270.85967 -360.34215)" fill="#db714a"/></svg>