<?xml version="1.0" encoding="UTF-8"?> <!-- Generator: Adobe Illustrator 23.1.0, SVG Export Plug-In . SVG Version: 6.00 Build 0) --> <svg xmlns="http://www.w3.org/2000/svg" xmlns:xlink="http://www.w3.org/1999/xlink" id="Layer_1" x="0px" y="0px" viewBox="0 0 985 301.2" style="enable-background:new 0 0 985 301.2;" xml:space="preserve"> <style type="text/css"> .st0{fill:#001B71;} .st1{fill:#009ADE;} </style> <g> <g id="Shape_1_copy"> <g> <path class="st0" d="M114.9,36.4c1.1,6.2-5.1,13.8-5.1,13.8c53.5,16.8,91.9,64.3,91.9,64.3C190.7,71.8,114.9,36.4,114.9,36.4z"></path> </g> </g> <g> <g id="Shape_1"> <g> <path class="st0" d="M117.2,248.2c0,0,6.7,7.4,6,13.9c0,0,73.2-42.1,81.3-87.2C204.6,175,169.5,226.9,117.2,248.2z"></path> </g> </g> <g id="Shape_4"> <g> <path class="st0" d="M140.3,74.3L121.9,65c0,0-85.9,72.9-110,156.8c0,0-20.9,72.5,40.9,62.6l-0.7-6.1c0,0-40.5,0.5-19.7-56.4 C53.1,165,86.9,126.9,140.3,74.3z"></path> </g> </g> <g id="Shape_2"> <g> <path class="st0" d="M247.7,15.5c-37.1-18.4-99.1,28.6-99.1,28.6L166,55.5c61.7-40.9,79.9-22.2,79.9-22.2 c26.7,16.7-3.4,78.7-3.4,78.7C285.3,27,247.7,15.5,247.7,15.5z"></path> </g> </g> <g id="Shape_5"> <g> <path class="st0" d="M21.3,68.3c-11-40.6,20.2-43.4,20.2-43.4l1.3-5.6C19.4,14.2-24,34.4,16.9,109.1 c41,74.7,110.7,123,110.7,123c3.6-0.3,18.5-10.9,18.5-10.9C29.9,130.7,21.3,68.3,21.3,68.3z"></path> </g> </g> <g id="Shape_3"> <g> <path class="st0" d="M245.1,175.8c0,0,38.4,62.1,6.2,79.3c0,0-20.6,15.5-77.5-17.4l-15.9,13.9c0,0,98.3,59.2,112.7-0.8 C270.5,250.7,275.7,214.6,245.1,175.8z"></path> </g> </g> <g> <path class="st0" d="M300,83.7h27.4v48.8h0.7l36.2-48.8h30.2l-36.8,47.5l43.5,71.6h-30.1l-29.7-50.2l-14.2,18.3v32H300V83.7z"></path> <path class="st0" d="M404,157.6c0-29.4,21.5-47.5,43.7-47.5c26.3,0,39.4,18.8,39.4,43.5c0,4.8-0.6,9.7-1.1,11.9h-55.4 c2.4,13.2,11.8,19.2,24.1,19.2c6.9,0,13.3-2,20-6l9.1,16.3c-9.5,6.4-21.8,10.2-32.9,10.2C424.3,205.1,404,187.5,404,157.6z M463.7,147.7c0-10-4.5-17.2-15.5-17.2c-8.6,0-16.1,5.7-17.9,17.2H463.7z"></path> <path class="st0" d="M506.1,112.2h22.4l1.9,15.9h0.7c6.7-12.2,16.8-18.1,26.3-18.1c5.2,0,8.4,0.7,11,1.8l-4.5,23.2 c-3.4-0.9-6.2-1.5-10.1-1.5c-6.9,0-15.5,4.4-20.3,16.6v52.6h-27.4L506.1,112.2L506.1,112.2z"></path> <path class="st0" d="M580.4,112.2h22.4l1.9,11.5h0.7c7.8-7.3,17.2-13.7,29.7-13.7c20.2,0,28.7,13.9,28.7,36.5v56.3h-27.4V150 c0-13.2-3.5-17.2-11.4-17.2c-6.9,0-11.2,3.1-17.2,8.8v61.2h-27.4V112.2z"></path> <path class="st0" d="M681.8,157.6c0-29.4,21.5-47.5,43.7-47.5c26.3,0,39.4,18.8,39.4,43.5c0,4.8-0.6,9.7-1.1,11.9h-55.4 c2.4,13.2,11.8,19.2,24.1,19.2c6.9,0,13.3-2,20-6l9.1,16.3c-9.5,6.4-21.8,10.2-32.9,10.2C702.1,205.1,681.8,187.5,681.8,157.6z M741.5,147.7c0-10-4.5-17.2-15.5-17.2c-8.6,0-16.1,5.7-17.9,17.2H741.5z"></path> <path class="st0" d="M783.9,174.7V74.8h27.4v101c0,5.7,2.6,7.5,4.9,7.5c1.1,0,1.9,0,3.4-0.4l3.4,19.9c-3,1.3-7.7,2.2-13.8,2.2 C790.2,205.1,783.9,193,783.9,174.7z"></path> </g> </g> </g> <g> <g id="Ellipse_1"> <g> <path class="st1" d="M117.6,269.2c-0.7-16.9-14.7-30-31.3-29.3s-29.6,15-28.9,31.9c0.7,16.9,14.7,30,31.3,29.3 S118.3,286.1,117.6,269.2z"></path> </g> </g> <g id="Ellipse_1_copy"> <g> <path class="st1" d="M108,29.3C107.4,12.4,93.3-0.7,76.7,0S47.1,15,47.8,32c0.7,16.9,14.7,30,31.3,29.3 C95.8,60.6,108.7,46.3,108,29.3z"></path> </g> </g> <g id="Ellipse_1_copy_2"> <g> <path class="st1" d="M254.8,143.1c-0.7-16.9-14.7-30-31.3-29.3s-29.6,15-28.9,31.9c0.7,16.9,14.7,30,31.3,29.3 S255.4,160.1,254.8,143.1z"></path> </g> </g> <g> <path class="st1" d="M843.1,144.9c0-39.5,26.7-62.5,57.5-62.5c15.7,0,28.4,7.3,36.6,15.5l-14.6,17.2c-6.2-5.5-12.7-9.5-21.5-9.5 c-16.6,0-29.9,14.4-29.9,38.4c0,24.5,11.6,38.7,29.5,38.7c9.9,0,17.7-4.9,23.7-11.1l14.6,16.8c-10.1,11.5-23.5,17.5-39.4,17.5 C868.9,205.9,843.1,184.9,843.1,144.9z"></path> <path class="st1" d="M957.6,84.6H985v119.1h-27.4V84.6z"></path> </g> </g> </svg> 