<svg width="40" height="40" viewBox="0 0 40 40" fill="none" xmlns="http://www.w3.org/2000/svg">
<rect width="40" height="40" rx="6" fill="#11100F"/>
<g clip-path="url(#clip0)">
<path d="M35.5358 19.928C35.5358 17.8898 32.9834 15.9582 29.07 14.7604C29.9731 10.7718 29.5717 7.59852 27.8032 6.58256C27.3956 6.34425 26.919 6.23137 26.3984 6.23137V7.62988C26.6869 7.62988 26.919 7.68632 27.1134 7.79293C27.9663 8.2821 28.3363 10.1447 28.0478 12.5403C27.9788 13.1299 27.8659 13.7507 27.728 14.3841C26.4988 14.0831 25.1567 13.8511 23.7457 13.7005C22.899 12.5403 22.021 11.4868 21.1368 10.5649C23.1812 8.66465 25.1003 7.62361 26.4047 7.62361V6.2251C24.6801 6.2251 22.4224 7.45428 20.1396 9.58654C17.8569 7.46683 15.5992 6.25018 13.8746 6.25018V7.64869C15.1727 7.64869 17.098 8.68347 19.1425 10.5711C18.2645 11.493 17.3865 12.5403 16.5524 13.7005C15.1351 13.8511 13.793 14.0831 12.5638 14.3904C12.4196 13.7633 12.313 13.1549 12.2377 12.5717C11.943 10.176 12.3067 8.31346 13.1533 7.81802C13.3415 7.70514 13.5861 7.65497 13.8746 7.65497V6.25645C13.3478 6.25645 12.8711 6.36934 12.4572 6.60765C10.695 7.62361 10.2999 10.7906 11.2092 14.7667C7.30845 15.9708 4.76855 17.8961 4.76855 19.928C4.76855 21.9662 7.32099 23.8978 11.2343 25.0956C10.3312 29.0842 10.7326 32.2575 12.5011 33.2734C12.9088 33.5117 13.3854 33.6246 13.9122 33.6246C15.6368 33.6246 17.8945 32.3954 20.1773 30.2632C22.46 32.3829 24.7177 33.5995 26.4423 33.5995C26.9691 33.5995 27.4458 33.4867 27.8597 33.2483C29.6219 32.2324 30.017 29.0653 29.1077 25.0893C32.9959 23.8915 35.5358 21.9599 35.5358 19.928ZM27.3705 15.745C27.1385 16.554 26.85 17.3881 26.5239 18.2222C26.2667 17.7205 25.9971 17.2188 25.7023 16.7171C25.4138 16.2154 25.1065 15.7262 24.7992 15.2496C25.6898 15.3813 26.5489 15.5443 27.3705 15.745ZM24.4982 22.424C24.009 23.2706 23.5073 24.0734 22.9868 24.8196C22.0524 24.9012 21.1054 24.9451 20.1522 24.9451C19.2052 24.9451 18.2582 24.9012 17.3301 24.8259C16.8095 24.0796 16.3016 23.2832 15.8124 22.4428C15.3358 21.6213 14.9031 20.7872 14.508 19.9468C14.8968 19.1064 15.3358 18.2661 15.8061 17.4445C16.2953 16.5979 16.797 15.7952 17.3175 15.0489C18.252 14.9674 19.1989 14.9235 20.1522 14.9235C21.0991 14.9235 22.0461 14.9674 22.9743 15.0426C23.4948 15.7889 24.0028 16.5854 24.4919 17.4257C24.9686 18.2473 25.4013 19.0814 25.7964 19.9217C25.4013 20.7621 24.9686 21.6024 24.4982 22.424ZM26.5239 21.6087C26.8625 22.4491 27.151 23.2894 27.3893 24.1047C26.5678 24.3054 25.7023 24.4747 24.8055 24.6064C25.1128 24.1235 25.4201 23.6281 25.7086 23.1201C25.9971 22.6184 26.2667 22.1104 26.5239 21.6087ZM20.1647 28.3002C19.5815 27.6982 18.9982 27.0272 18.4213 26.2934C18.9857 26.3185 19.5627 26.3373 20.1459 26.3373C20.7354 26.3373 21.3186 26.3248 21.8893 26.2934C21.3249 27.0272 20.7417 27.6982 20.1647 28.3002ZM15.4988 24.6064C14.6083 24.4747 13.7491 24.3117 12.9276 24.111C13.1596 23.302 13.4481 22.4679 13.7742 21.6338C14.0313 22.1355 14.301 22.6372 14.5958 23.1389C14.8905 23.6406 15.1915 24.1298 15.4988 24.6064ZM20.1334 11.5557C20.7166 12.1578 21.2998 12.8288 21.8768 13.5626C21.3124 13.5375 20.7354 13.5187 20.1522 13.5187C19.5627 13.5187 18.9794 13.5312 18.4087 13.5626C18.9732 12.8288 19.5564 12.1578 20.1334 11.5557ZM15.4926 15.2496C15.1853 15.7325 14.878 16.2279 14.5895 16.7359C14.301 17.2376 14.0313 17.7393 13.7742 18.241C13.4356 17.4006 13.1471 16.5603 12.9088 15.745C13.7303 15.5506 14.5958 15.3813 15.4926 15.2496ZM9.81699 23.1013C7.59693 22.1543 6.16079 20.9126 6.16079 19.928C6.16079 18.9434 7.59693 17.6954 9.81699 16.7547C10.3563 16.5227 10.9458 16.3157 11.5542 16.1213C11.9116 17.3505 12.382 18.6298 12.9652 19.9405C12.3882 21.245 11.9242 22.5181 11.573 23.741C10.9521 23.5466 10.3626 23.3333 9.81699 23.1013ZM13.191 32.0631C12.3381 31.5739 11.9681 29.7113 12.2565 27.3156C12.3255 26.7261 12.4384 26.1053 12.5764 25.4719C13.8056 25.7729 15.1476 26.0049 16.5587 26.1554C17.4053 27.3156 18.2833 28.3692 19.1676 29.2911C17.1231 31.1913 15.2041 32.2324 13.8996 32.2324C13.6174 32.2261 13.3791 32.1697 13.191 32.0631ZM28.0666 27.2843C28.3614 29.6799 27.9976 31.5425 27.151 32.038C26.9629 32.1509 26.7183 32.201 26.4298 32.201C25.1316 32.201 23.2063 31.1663 21.1619 29.2786C22.0398 28.3567 22.9178 27.3094 23.7519 26.1492C25.1693 25.9987 26.5113 25.7666 27.7405 25.4593C27.8847 26.0927 27.9976 26.7011 28.0666 27.2843ZM30.4811 23.1013C29.9417 23.3333 29.3522 23.5403 28.7439 23.7347C28.3865 22.5055 27.9161 21.2262 27.3329 19.9155C27.9098 18.611 28.3739 17.3379 28.7251 16.115C29.346 16.3094 29.9355 16.5227 30.4874 16.7547C32.7074 17.7017 34.1435 18.9434 34.1435 19.928C34.1373 20.9126 32.7011 22.1606 30.4811 23.1013Z" fill="#61DAFB"/>
<path d="M20.1463 22.794C21.7291 22.794 23.0122 21.5109 23.0122 19.928C23.0122 18.3452 21.7291 17.062 20.1463 17.062C18.5634 17.062 17.2803 18.3452 17.2803 19.928C17.2803 21.5109 18.5634 22.794 20.1463 22.794Z" fill="#61DAFB"/>
</g>
<defs>
<clipPath id="clip0">
<rect x="4.25" y="6" width="31.5" height="28" fill="white"/>
</clipPath>
</defs>
</svg>
