<svg id="Guy_Bike_Flat" data-name="Guy Bike Flat" xmlns="http://www.w3.org/2000/svg" viewBox="0 0 340.28241 379.96339"><path d="M480.37207,244.90479a53.8054,53.8054,0,0,0-89.46735,9.926l-12.98547-5.13861a96.77543,96.77543,0,0,1,13.38763-15.26361c10.92426-10.17426,22.92316-17.02539,32.92005-18.79676a2.46312,2.46312,0,0,0,1.62543-1.06774,29.29788,29.29788,0,0,1,2.64294-3.17926c2.02387-2.22242,3.93549-4.3216,2.10333-6.39148a2.46313,2.46313,0,0,0-1.84417-.83057q-.0748,0-.15.00458c-17.3576,1.05768-42.00476,9.20038-59.12427,28.88183-3.13537,3.60456-5.80749,6.93409-8.06744,10.11109L310.8269,223.14246c-2.86169-3.67609-6.8825-6.47467-9.25653-6.68647a3.41723,3.41723,0,0,0-1.47015.327,57.96368,57.96368,0,0,0,3.27081-11.29773c1.50409-8.32288,1.70233-15.30225,4.08856-15.85071,4.411-1.01379,3.93177,1.24,4.81525-1.98529,1.3172-4.80865-4.97473-10.50427-3.13916-14.64136a37.39791,37.39791,0,0,1,3.88483-6.90911c4.46246.85052,8.385,1.56054,12.21387,4.0653,4.02783-3.73089,7.39276-9.28527,6.64257-13.46545-.773-4.30652-9.10052-4.1001-7.38318-11.84876,1.1283-5.09082,8.32343-6.63885,12.88233-6.54443,2.52881.05243,1.70483-10.90155-1.31458-12.63769-3.81-2.1908-37.23449-13.79047-48.50531-2.367-6.30188,6.38727-9.3266,23.39417-2.13012,29.55554.819.70124,1.61676,1.34833,2.40515,1.9718a8.89266,8.89266,0,0,1-3.92542,1.29834c-3.91412.39393-6.088-1.31658-7.77862.0683-1.71442,1.4043,1.22925,3.14289-.09467,5.4314-2.41943,4.18207-4.6463-1.54144-12.59137,6.32178-3.69275,3.65472-4.61566,10.65191-8.26428,19.41974-5.862,14.08691-11.00317,11.37762-17.75208,33.07367-1.6535,5.31561,5.40217,2.70288,18.49061,9.11242-6.38105,12.08124-10.51508,23.52509-8.56281,30.68341,2.40344,8.81256,19.46948,22.55042,28.32562,30.37824a20.55644,20.55644,0,0,1,1.90039,1.97693c-24.37048,23.71978-66.83123,41.15124-123.48169,83.47894-2.66839,4.31042,2.94971,11.45575,5.45343,11.957,33.33069-28.12232,73.42139-37.1626,114.89423-34.18836-5.47058,3.42023-10.26447,6.28943-14.21307,8.62171l2.08758-5.33618-14.2362,4.40387-65.80616,20.69482-7.8529,9.061,3.7771,10.592,11.81433,2.04773,64.00934-25.59729.6084-1.55524c20.69433-5.85632,24.52624-.38043,26.82556,5.90851l-10.1485,10.82678a53.7107,53.7107,0,1,0,24.9975,20.03229l16.9837-20.59058a4.81587,4.81587,0,0,0,2.14166.20245c2.4176-.38818,6.01117-3.09491,10.11829-7.1419a4.24222,4.24222,0,0,0,4.13568,2.28479,4.31194,4.31194,0,0,0,3.81189-4.75794,4.44441,4.44441,0,0,0-.85114-2.216c7.696,1.19525,13.94642,1.44781,14.46363-.30017,2.122-7.17182-1.86548-10.268-6.68866-12.371,2.68945-3.54132,5.29315-7.171,7.66266-10.67029,8.52581-7.98749,14.83374-15.40845,15.84149-19.951,2.098-9.45789-5.80683-24.3194-13.37348-32.86841.5506-5.68182,1.21625-12.19885,1.8523-18.69189a160.19867,160.19867,0,0,0,5.47552,17.62243c1.32331,3.7837,2.69178,7.69611,3.82141,11.33655a2.46305,2.46305,0,0,0,4.30274.77448,10.54617,10.54617,0,0,1,1.51666-1.49634c1.57691-1.362,3.96-3.42029,2.36029-7.7721-6.89319-18.75219-1.66937-34.73046.84107-42.40924.311-.95117.57953-1.77258.7951-2.49884.10932-.36822.24152-.74823.3739-1.12829l14.79834,5.27569a54.54778,54.54778,0,0,0-1.33026,7.83252A53.779,53.779,0,0,0,433.76562,332.665q2.62207.25122,5.22461.25049a53.781,53.781,0,0,0,41.38184-88.01074Zm-125.70081,10.0061c-.0014-.05127-.00231-.10492-.0039-.155l.05859.02087C354.70691,254.82147,354.69012,254.86615,354.67126,254.91089Zm-40.22515-2.31653c-6.07428,2.13019-11.55079,5.04645-15.29944,8.75555-5.16687-5.01318-9.20655-8.69293-10.30243-10.67449a2.10479,2.10479,0,0,0,1.12671-.38971c1.73694-1.26862.1922-4.35706,2.40936-6.06379,3.6264-2.7915,10.05145,3.70563,14.23047,1.13483,1.89764-1.16742,2.96826-3.98358,2.95953-6.67828l10.63593,3.79181ZM270.124,366.12354c3.7638-2.26709,8.03748-4.89423,12.70917-7.86951,2.38251,3.62329,5.60217,8.37115,9.15094,13.19769l-4.454,4.75165C284.6897,370.77307,279.97522,366.37451,270.124,366.12354Zm23.98285,28.24456c.46546-.07147.94483-.16223,1.44879-.288a50.3984,50.3984,0,0,0,11.43293-5.17365q.33.29133.65551.567l-15.45446,18.73633a53.77508,53.77508,0,0,0-5.63672-5.57965Zm-12.34662,24.36335c.29438.35675.57325.72247.8537,1.08734l-15.66772,18.99487a15.77781,15.77781,0,0,0-5.94788-8.23407l15.57556-17.03528A39.00449,39.00449,0,0,1,281.76025,418.73145Zm8.74073,28.53906a39.01224,39.01224,0,1,1-38.856-42.7002,39.33877,39.33877,0,0,1,8.43579.91718L236.463,430.684l2.39783,3.33826a15.97878,15.97878,0,1,0,27.514,15.80719l19.95123-24.18824A38.72564,38.72564,0,0,1,290.501,447.27051ZM477.71484,282.85107a38.999,38.999,0,1,1-77.64257-7.437,39.64785,39.64785,0,0,1,.64617-4.24072l22.189,7.91052a16.06812,16.06812,0,1,0,3.66986-10.13684l-21.84766-8.64551a39.06593,39.06593,0,0,1,34.09363-20.17212q1.88526,0,3.78906.18165a38.99943,38.99943,0,0,1,35.10254,42.54Z" transform="translate(-152.89459 -117.84423)" fill="#555" stroke="#555" stroke-miterlimit="10"/></svg>