<?xml version="1.0" encoding="utf-8"?>
<!-- Generator: Adobe Illustrator 18.0.0, SVG Export Plug-In . SVG Version: 6.00 Build 0)  -->
<!DOCTYPE svg PUBLIC "-//W3C//DTD SVG 1.1//EN" "http://www.w3.org/Graphics/SVG/1.1/DTD/svg11.dtd">
<svg version="1.1" id="Layer_1" xmlns="http://www.w3.org/2000/svg" xmlns:xlink="http://www.w3.org/1999/xlink" x="0px" y="0px"
	 viewBox="0 0 500 250" enable-background="new 0 0 500 250" xml:space="preserve">
<g id="Layer_1_1_" display="none">
	<path display="inline" fill="#454545" d="M469.4,170.3c-18.4,0-30-12.7-30-30.5c0-18.1,11.8-30.7,30.3-30.7c18.4,0,30,12.7,30,30.5
		C499.7,157.7,487.9,170.3,469.4,170.3z M469.4,115.7c-13.4,0-21.9,8.8-21.9,23.8c0,15.3,8.7,24,22.1,24c13.4,0,21.9-8.8,21.9-23.8
		C491.6,124.5,482.9,115.7,469.4,115.7z M383.2,169.6c-5.4,0-9.8-0.5-12.1-1.2c-2.3-0.7-2.6-2-2.6-4.5v-48.1c0-2.9,0.7-4.2,4.2-4.9
		c2.6-0.5,7-0.9,12.1-0.9c9.5,0,17.5,1.3,23.8,5.7c6.2,4.3,11,11.9,11,23.8c0,12.8-5.6,20.2-11.9,24.4
		C400.5,168.6,391.3,169.6,383.2,169.6z M403.7,121.4c-4.6-3.5-10.5-4.8-18.4-4.8c-5.6,0-8.9,0.6-8.9,0.6v45.2c0,0,3,0.5,8.1,0.5
		c8,0,27.1-1.1,27.1-22.9C411.6,130.8,408.3,125,403.7,121.4z M314.1,170.3c-18.4,0-30-12.7-30-30.5c0-18.1,11.8-30.7,30.3-30.7
		c18.4,0,30,12.7,30,30.5C344.4,157.7,332.6,170.3,314.1,170.3z M314.1,115.7c-13.4,0-21.9,8.8-21.9,23.8c0,15.3,8.7,24,22.1,24
		c13.4,0,21.9-8.8,21.9-23.8C336.3,124.5,327.6,115.7,314.1,115.7z M266.4,117.5h-15.8v47.7c0,1.3,0,2.2-0.5,3
		c-0.5,0.8-1.8,1.4-3.3,1.4c-1.6,0-2.9-0.5-3.4-1.4c-0.5-0.8-0.5-1.7-0.5-3v-47.7H227c-1.2,0-2.1-0.1-2.9-0.6
		c-0.7-0.5-1.2-1.4-1.2-2.8c0-1.4,0.5-2.3,1.2-2.9c0.8-0.5,1.7-0.6,2.9-0.6h39.5c1.2,0,2.1,0.1,2.9,0.6c0.7,0.5,1.2,1.4,1.2,2.8
		c0,1.4-0.5,2.3-1.2,2.9C268.5,117.5,267.6,117.5,266.4,117.5z"/>
	<path display="inline" fill="#00C802" d="M94.9,30.1c52.4,0,94.9,42.5,94.9,94.9s-42.5,94.9-94.9,94.9S0,177.4,0,125
		S42.5,30.1,94.9,30.1z"/>
	<path display="inline" fill="#FFFFFF" d="M136.8,82.6L114,162.9c-1.5,5-3.6,7.7-10.2,7.7c-5.7,0-8.2-2.1-8.2-5.7
		c0-1.1,0.3-2.3,0.6-3.6L119.1,81c1.5-5.1,3.6-7.7,10.1-7.7c5.8,0,8.4,2.1,8.4,5.6C137.5,80.1,137.2,81.3,136.8,82.6z M71.3,162.8
		c-1.5,5-3.6,7.7-10.2,7.7c-5.7,0-8.2-2.1-8.2-5.7c0-1.1,0.3-2.3,0.6-3.6l22.9-80.3c1.5-5.1,3.6-7.7,10.1-7.7c5.8,0,8.4,2.1,8.4,5.6
		c0,1.3-0.4,2.5-0.8,3.7L71.3,162.8z"/>
</g>
<g>
	<circle fill="#A1D33C" cx="95.2" cy="124" r="94.1"/>
	<g>
		<path fill="#FFFFFF" d="M72.1,160.9c-1.5,4.9-3.5,7.6-10,7.6c-5.6,0-8-2.1-8-5.6c0-1.1,0.2-2.3,0.6-3.5l22.4-78.6
			c1.5-5,3.5-7.6,9.9-7.6c5.7,0,8.2,2.1,8.2,5.5c0,1.2-0.4,2.4-0.7,3.7L72.1,160.9z"/>
		<path fill="#FFFFFF" d="M115.1,160.9c-1.5,4.9-3.5,7.6-10,7.6c-5.6,0-8-2.1-8-5.6c0-1.1,0.2-2.3,0.6-3.5l22.4-78.6
			c1.5-5,3.5-7.6,9.9-7.6c5.7,0,8.2,2.1,8.2,5.5c0,1.2-0.4,2.4-0.7,3.7L115.1,160.9z"/>
	</g>
	<g>
		<path fill="#231F20" d="M249.8,156.6c0,1.2,0,2.1-0.5,2.9c-0.5,0.8-1.7,1.3-3.2,1.3c-1.6,0-2.8-0.5-3.3-1.3s-0.5-1.7-0.5-2.9v-46
			H227c-1.1,0-2-0.1-2.8-0.6c-0.7-0.5-1.1-1.4-1.1-2.7c0-1.4,0.4-2.3,1.1-2.8c0.8-0.5,1.7-0.6,2.8-0.6h38c1.1,0,2,0.1,2.8,0.6
			c0.7,0.5,1.1,1.4,1.1,2.7c0,1.4-0.4,2.3-1.1,2.8c-0.8,0.5-1.7,0.6-2.8,0.6h-15.2V156.6z"/>
		<path fill="#231F20" d="M314.1,102.5c17.8,0,28.9,12.3,28.9,29.4c0,17.4-11.4,29.6-29.2,29.6c-17.8,0-28.9-12.3-28.9-29.4
			C284.9,114.7,296.3,102.5,314.1,102.5z M314.1,155c12.9,0,21.1-8.4,21.1-23c0-14.7-8.4-23.2-21.3-23.2c-12.9,0-21.1,8.4-21.1,23
			C292.8,146.6,301.1,155,314.1,155z"/>
		<path fill="#231F20" d="M401,155.2c-7,4.6-15.9,5.6-23.7,5.6c-5.2,0-9.5-0.4-11.7-1.1s-2.5-1.9-2.5-4.4v-46.4c0-2.8,0.7-4,4.1-4.7
			c2.5-0.5,6.8-0.9,11.7-0.9c9.1,0,16.9,1.2,23,5.5c6,4.2,10.6,11.5,10.6,22.9C412.4,144.1,407,151.2,401,155.2z M370.7,153.9
			c0,0,2.9,0.4,7.8,0.4c7.7,0,26.1-1,26.1-22.1c0-8.8-3.2-14.4-7.7-17.8c-4.4-3.4-10.1-4.6-17.8-4.6c-5.4,0-8.5,0.6-8.5,0.6V153.9z"
			/>
		<path fill="#231F20" d="M461.4,102.5c17.8,0,28.9,12.3,28.9,29.4c0,17.4-11.4,29.6-29.2,29.6c-17.8,0-28.9-12.3-28.9-29.4
			C432.3,114.7,443.7,102.5,461.4,102.5z M461.4,155c12.9,0,21.1-8.4,21.1-23c0-14.7-8.4-23.2-21.3-23.2c-12.9,0-21.1,8.4-21.1,23
			C440.1,146.6,448.5,155,461.4,155z"/>
	</g>
</g>
</svg>
