<svg width="446" height="100" viewBox="0 0 446 100" fill="none" xmlns="http://www.w3.org/2000/svg">
<rect x="116" width="80" height="80" fill="#00B7C3"/>
<circle cx="138" cy="23" r="1" fill="#038387"/>
<circle cx="138" cy="38" r="1" fill="#038387"/>
<circle cx="138" cy="53" r="1" fill="#038387"/>
<circle cx="138" cy="68" r="1" fill="#038387"/>
<circle cx="138" cy="83" r="1" fill="#038387"/>
<circle cx="138" cy="98" r="1" fill="#038387"/>
<circle cx="153" cy="23" r="1" fill="#038387"/>
<circle cx="153" cy="38" r="1" fill="#038387"/>
<circle cx="153" cy="53" r="1" fill="#038387"/>
<circle cx="153" cy="68" r="1" fill="#038387"/>
<circle cx="153" cy="83" r="1" fill="#038387"/>
<circle cx="153" cy="98" r="1" fill="#038387"/>
<circle cx="168" cy="23" r="1" fill="#038387"/>
<circle cx="168" cy="38" r="1" fill="#038387"/>
<circle cx="168" cy="53" r="1" fill="#038387"/>
<circle cx="168" cy="68" r="1" fill="#038387"/>
<circle cx="168" cy="83" r="1" fill="#038387"/>
<circle cx="168" cy="98" r="1" fill="#038387"/>
<circle cx="183" cy="23" r="1" fill="#038387"/>
<circle cx="183" cy="38" r="1" fill="#038387"/>
<circle cx="183" cy="53" r="1" fill="#038387"/>
<circle cx="183" cy="68" r="1" fill="#038387"/>
<circle cx="183" cy="83" r="1" fill="#038387"/>
<circle cx="183" cy="98" r="1" fill="#038387"/>
<circle cx="198" cy="23" r="1" fill="#038387"/>
<circle cx="198" cy="38" r="1" fill="#038387"/>
<circle cx="198" cy="53" r="1" fill="#038387"/>
<circle cx="198" cy="68" r="1" fill="#038387"/>
<circle cx="198" cy="83" r="1" fill="#038387"/>
<circle cx="198" cy="98" r="1" fill="#038387"/>
<circle cx="213" cy="23" r="1" fill="#038387"/>
<circle cx="213" cy="38" r="1" fill="#038387"/>
<circle cx="213" cy="53" r="1" fill="#038387"/>
<circle cx="213" cy="68" r="1" fill="#038387"/>
<circle cx="213" cy="83" r="1" fill="#038387"/>
<circle cx="213" cy="98" r="1" fill="#038387"/>
<rect x="230" width="80" height="80" fill="#4F6BED"/>
<rect x="250" y="100" width="2" height="80" transform="rotate(-90 250 100)" fill="#004E8C"/>
<rect x="250" y="94" width="2" height="80" transform="rotate(-90 250 94)" fill="#004E8C"/>
<rect x="250" y="88" width="2" height="80" transform="rotate(-90 250 88)" fill="#004E8C"/>
<rect x="250" y="82" width="2" height="80" transform="rotate(-90 250 82)" fill="#004E8C"/>
<rect x="250" y="76" width="2" height="80" transform="rotate(-90 250 76)" fill="#004E8C"/>
<rect x="250" y="70" width="2" height="80" transform="rotate(-90 250 70)" fill="#004E8C"/>
<rect x="250" y="64" width="2" height="80" transform="rotate(-90 250 64)" fill="#004E8C"/>
<rect x="250" y="58" width="2" height="80" transform="rotate(-90 250 58)" fill="#004E8C"/>
<rect x="250" y="52" width="2" height="80" transform="rotate(-90 250 52)" fill="#004E8C"/>
<rect x="250" y="46" width="2" height="80" transform="rotate(-90 250 46)" fill="#004E8C"/>
<rect x="250" y="40" width="2" height="80" transform="rotate(-90 250 40)" fill="#004E8C"/>
<rect x="250" y="34" width="2" height="80" transform="rotate(-90 250 34)" fill="#004E8C"/>
<rect x="250" y="28" width="2" height="80" transform="rotate(-90 250 28)" fill="#004E8C"/>
<rect x="250" y="22" width="2" height="80" transform="rotate(-90 250 22)" fill="#004E8C"/>
<circle cx="40" cy="40" r="40" fill="#0078D4"/>
<mask id="mask0" mask-type="alpha" maskUnits="userSpaceOnUse" x="20" y="20" width="80" height="80">
<circle cx="60" cy="60" r="40" fill="white"/>
</mask>
<g mask="url(#mask0)">
<rect x="3.43164" y="60" width="2" height="80" transform="rotate(-45 3.43164 60)" fill="#50E6FF"/>
<rect x="7.67383" y="55.7573" width="2" height="80" transform="rotate(-45 7.67383 55.7573)" fill="#50E6FF"/>
<rect x="11.916" y="51.5148" width="2" height="80" transform="rotate(-45 11.916 51.5148)" fill="#50E6FF"/>
<rect x="16.1602" y="47.2721" width="2" height="80" transform="rotate(-45 16.1602 47.2721)" fill="#50E6FF"/>
<rect x="20.4023" y="43.0295" width="2" height="80" transform="rotate(-45 20.4023 43.0295)" fill="#50E6FF"/>
<rect x="24.6445" y="38.7869" width="2" height="80" transform="rotate(-45 24.6445 38.7869)" fill="#50E6FF"/>
<rect x="28.8867" y="34.5442" width="2" height="80" transform="rotate(-45 28.8867 34.5442)" fill="#50E6FF"/>
<rect x="33.1309" y="30.3015" width="2" height="80" transform="rotate(-45 33.1309 30.3015)" fill="#50E6FF"/>
<rect x="37.373" y="26.0588" width="2" height="80" transform="rotate(-45 37.373 26.0588)" fill="#50E6FF"/>
<rect x="41.6152" y="21.8162" width="2" height="80" transform="rotate(-45 41.6152 21.8162)" fill="#50E6FF"/>
<rect x="45.8574" y="17.5735" width="2" height="80" transform="rotate(-45 45.8574 17.5735)" fill="#50E6FF"/>
<rect x="50.1016" y="13.3311" width="2" height="80" transform="rotate(-45 50.1016 13.3311)" fill="#50E6FF"/>
<rect x="54.3438" y="9.08838" width="2" height="80" transform="rotate(-45 54.3438 9.08838)" fill="#50E6FF"/>
<rect x="58.5859" y="4.8457" width="2" height="80" transform="rotate(-45 58.5859 4.8457)" fill="#50E6FF"/>
</g>
<circle cx="386" cy="40" r="40" fill="#50E6FF"/>
<mask id="mask1" mask-type="alpha" maskUnits="userSpaceOnUse" x="366" y="20" width="80" height="80">
<circle cx="406" cy="60" r="40" fill="#4F6BED"/>
</mask>
<g mask="url(#mask1)">
<circle cx="368" cy="23" r="1" fill="#4F6BED"/>
<circle cx="368" cy="28" r="1" fill="#4F6BED"/>
<circle cx="368" cy="33" r="1" fill="#4F6BED"/>
<circle cx="368" cy="38" r="1" fill="#4F6BED"/>
<circle cx="368" cy="43" r="1" fill="#4F6BED"/>
<circle cx="368" cy="48" r="1" fill="#4F6BED"/>
<circle cx="368" cy="53" r="1" fill="#4F6BED"/>
<circle cx="368" cy="58" r="1" fill="#4F6BED"/>
<circle cx="368" cy="63" r="1" fill="#4F6BED"/>
<circle cx="368" cy="68" r="1" fill="#4F6BED"/>
<circle cx="368" cy="73" r="1" fill="#4F6BED"/>
<circle cx="368" cy="78" r="1" fill="#4F6BED"/>
<circle cx="368" cy="83" r="1" fill="#4F6BED"/>
<circle cx="368" cy="88" r="1" fill="#4F6BED"/>
<circle cx="368" cy="93" r="1" fill="#4F6BED"/>
<circle cx="368" cy="98" r="1" fill="#4F6BED"/>
<circle cx="373" cy="23" r="1" fill="#4F6BED"/>
<circle cx="373" cy="28" r="1" fill="#4F6BED"/>
<circle cx="373" cy="33" r="1" fill="#4F6BED"/>
<circle cx="373" cy="38" r="1" fill="#4F6BED"/>
<circle cx="373" cy="43" r="1" fill="#4F6BED"/>
<circle cx="373" cy="48" r="1" fill="#4F6BED"/>
<circle cx="373" cy="53" r="1" fill="#4F6BED"/>
<circle cx="373" cy="58" r="1" fill="#4F6BED"/>
<circle cx="373" cy="63" r="1" fill="#4F6BED"/>
<circle cx="373" cy="68" r="1" fill="#4F6BED"/>
<circle cx="373" cy="73" r="1" fill="#4F6BED"/>
<circle cx="373" cy="78" r="1" fill="#4F6BED"/>
<circle cx="373" cy="83" r="1" fill="#4F6BED"/>
<circle cx="373" cy="88" r="1" fill="#4F6BED"/>
<circle cx="373" cy="93" r="1" fill="#4F6BED"/>
<circle cx="373" cy="98" r="1" fill="#4F6BED"/>
<circle cx="378" cy="23" r="1" fill="#4F6BED"/>
<circle cx="378" cy="28" r="1" fill="#4F6BED"/>
<circle cx="378" cy="33" r="1" fill="#4F6BED"/>
<circle cx="378" cy="38" r="1" fill="#4F6BED"/>
<circle cx="378" cy="43" r="1" fill="#4F6BED"/>
<circle cx="378" cy="48" r="1" fill="#4F6BED"/>
<circle cx="378" cy="53" r="1" fill="#4F6BED"/>
<circle cx="378" cy="58" r="1" fill="#4F6BED"/>
<circle cx="378" cy="63" r="1" fill="#4F6BED"/>
<circle cx="378" cy="68" r="1" fill="#4F6BED"/>
<circle cx="378" cy="73" r="1" fill="#4F6BED"/>
<circle cx="378" cy="78" r="1" fill="#4F6BED"/>
<circle cx="378" cy="83" r="1" fill="#4F6BED"/>
<circle cx="378" cy="88" r="1" fill="#4F6BED"/>
<circle cx="378" cy="93" r="1" fill="#4F6BED"/>
<circle cx="378" cy="98" r="1" fill="#4F6BED"/>
<circle cx="383" cy="23" r="1" fill="#4F6BED"/>
<circle cx="383" cy="28" r="1" fill="#4F6BED"/>
<circle cx="383" cy="33" r="1" fill="#4F6BED"/>
<circle cx="383" cy="38" r="1" fill="#4F6BED"/>
<circle cx="383" cy="43" r="1" fill="#4F6BED"/>
<circle cx="383" cy="48" r="1" fill="#4F6BED"/>
<circle cx="383" cy="53" r="1" fill="#4F6BED"/>
<circle cx="383" cy="58" r="1" fill="#4F6BED"/>
<circle cx="383" cy="63" r="1" fill="#4F6BED"/>
<circle cx="383" cy="68" r="1" fill="#4F6BED"/>
<circle cx="383" cy="73" r="1" fill="#4F6BED"/>
<circle cx="383" cy="78" r="1" fill="#4F6BED"/>
<circle cx="383" cy="83" r="1" fill="#4F6BED"/>
<circle cx="383" cy="88" r="1" fill="#4F6BED"/>
<circle cx="383" cy="93" r="1" fill="#4F6BED"/>
<circle cx="383" cy="98" r="1" fill="#4F6BED"/>
<circle cx="388" cy="23" r="1" fill="#4F6BED"/>
<circle cx="388" cy="28" r="1" fill="#4F6BED"/>
<circle cx="388" cy="33" r="1" fill="#4F6BED"/>
<circle cx="388" cy="38" r="1" fill="#4F6BED"/>
<circle cx="388" cy="43" r="1" fill="#4F6BED"/>
<circle cx="388" cy="48" r="1" fill="#4F6BED"/>
<circle cx="388" cy="53" r="1" fill="#4F6BED"/>
<circle cx="388" cy="58" r="1" fill="#4F6BED"/>
<circle cx="388" cy="63" r="1" fill="#4F6BED"/>
<circle cx="388" cy="68" r="1" fill="#4F6BED"/>
<circle cx="388" cy="73" r="1" fill="#4F6BED"/>
<circle cx="388" cy="78" r="1" fill="#4F6BED"/>
<circle cx="388" cy="83" r="1" fill="#4F6BED"/>
<circle cx="388" cy="88" r="1" fill="#4F6BED"/>
<circle cx="388" cy="93" r="1" fill="#4F6BED"/>
<circle cx="388" cy="98" r="1" fill="#4F6BED"/>
<circle cx="393" cy="23" r="1" fill="#4F6BED"/>
<circle cx="393" cy="28" r="1" fill="#4F6BED"/>
<circle cx="393" cy="33" r="1" fill="#4F6BED"/>
<circle cx="393" cy="38" r="1" fill="#4F6BED"/>
<circle cx="393" cy="43" r="1" fill="#4F6BED"/>
<circle cx="393" cy="48" r="1" fill="#4F6BED"/>
<circle cx="393" cy="53" r="1" fill="#4F6BED"/>
<circle cx="393" cy="58" r="1" fill="#4F6BED"/>
<circle cx="393" cy="63" r="1" fill="#4F6BED"/>
<circle cx="393" cy="68" r="1" fill="#4F6BED"/>
<circle cx="393" cy="73" r="1" fill="#4F6BED"/>
<circle cx="393" cy="78" r="1" fill="#4F6BED"/>
<circle cx="393" cy="83" r="1" fill="#4F6BED"/>
<circle cx="393" cy="88" r="1" fill="#4F6BED"/>
<circle cx="393" cy="93" r="1" fill="#4F6BED"/>
<circle cx="393" cy="98" r="1" fill="#4F6BED"/>
<circle cx="398" cy="23" r="1" fill="#4F6BED"/>
<circle cx="398" cy="28" r="1" fill="#4F6BED"/>
<circle cx="398" cy="33" r="1" fill="#4F6BED"/>
<circle cx="398" cy="38" r="1" fill="#4F6BED"/>
<circle cx="398" cy="43" r="1" fill="#4F6BED"/>
<circle cx="398" cy="48" r="1" fill="#4F6BED"/>
<circle cx="398" cy="53" r="1" fill="#4F6BED"/>
<circle cx="398" cy="58" r="1" fill="#4F6BED"/>
<circle cx="398" cy="63" r="1" fill="#4F6BED"/>
<circle cx="398" cy="68" r="1" fill="#4F6BED"/>
<circle cx="398" cy="73" r="1" fill="#4F6BED"/>
<circle cx="398" cy="78" r="1" fill="#4F6BED"/>
<circle cx="398" cy="83" r="1" fill="#4F6BED"/>
<circle cx="398" cy="88" r="1" fill="#4F6BED"/>
<circle cx="398" cy="93" r="1" fill="#4F6BED"/>
<circle cx="398" cy="98" r="1" fill="#4F6BED"/>
<circle cx="403" cy="23" r="1" fill="#4F6BED"/>
<circle cx="403" cy="28" r="1" fill="#4F6BED"/>
<circle cx="403" cy="33" r="1" fill="#4F6BED"/>
<circle cx="403" cy="38" r="1" fill="#4F6BED"/>
<circle cx="403" cy="43" r="1" fill="#4F6BED"/>
<circle cx="403" cy="48" r="1" fill="#4F6BED"/>
<circle cx="403" cy="53" r="1" fill="#4F6BED"/>
<circle cx="403" cy="58" r="1" fill="#4F6BED"/>
<circle cx="403" cy="63" r="1" fill="#4F6BED"/>
<circle cx="403" cy="68" r="1" fill="#4F6BED"/>
<circle cx="403" cy="73" r="1" fill="#4F6BED"/>
<circle cx="403" cy="78" r="1" fill="#4F6BED"/>
<circle cx="403" cy="83" r="1" fill="#4F6BED"/>
<circle cx="403" cy="88" r="1" fill="#4F6BED"/>
<circle cx="403" cy="93" r="1" fill="#4F6BED"/>
<circle cx="403" cy="98" r="1" fill="#4F6BED"/>
<circle cx="408" cy="23" r="1" fill="#4F6BED"/>
<circle cx="408" cy="28" r="1" fill="#4F6BED"/>
<circle cx="408" cy="33" r="1" fill="#4F6BED"/>
<circle cx="408" cy="38" r="1" fill="#4F6BED"/>
<circle cx="408" cy="43" r="1" fill="#4F6BED"/>
<circle cx="408" cy="48" r="1" fill="#4F6BED"/>
<circle cx="408" cy="53" r="1" fill="#4F6BED"/>
<circle cx="408" cy="58" r="1" fill="#4F6BED"/>
<circle cx="408" cy="63" r="1" fill="#4F6BED"/>
<circle cx="408" cy="68" r="1" fill="#4F6BED"/>
<circle cx="408" cy="73" r="1" fill="#4F6BED"/>
<circle cx="408" cy="78" r="1" fill="#4F6BED"/>
<circle cx="408" cy="83" r="1" fill="#4F6BED"/>
<circle cx="408" cy="88" r="1" fill="#4F6BED"/>
<circle cx="408" cy="93" r="1" fill="#4F6BED"/>
<circle cx="408" cy="98" r="1" fill="#4F6BED"/>
<circle cx="413" cy="23" r="1" fill="#4F6BED"/>
<circle cx="413" cy="28" r="1" fill="#4F6BED"/>
<circle cx="413" cy="33" r="1" fill="#4F6BED"/>
<circle cx="413" cy="38" r="1" fill="#4F6BED"/>
<circle cx="413" cy="43" r="1" fill="#4F6BED"/>
<circle cx="413" cy="48" r="1" fill="#4F6BED"/>
<circle cx="413" cy="53" r="1" fill="#4F6BED"/>
<circle cx="413" cy="58" r="1" fill="#4F6BED"/>
<circle cx="413" cy="63" r="1" fill="#4F6BED"/>
<circle cx="413" cy="68" r="1" fill="#4F6BED"/>
<circle cx="413" cy="73" r="1" fill="#4F6BED"/>
<circle cx="413" cy="78" r="1" fill="#4F6BED"/>
<circle cx="413" cy="83" r="1" fill="#4F6BED"/>
<circle cx="413" cy="88" r="1" fill="#4F6BED"/>
<circle cx="413" cy="93" r="1" fill="#4F6BED"/>
<circle cx="413" cy="98" r="1" fill="#4F6BED"/>
<circle cx="418" cy="23" r="1" fill="#4F6BED"/>
<circle cx="418" cy="28" r="1" fill="#4F6BED"/>
<circle cx="418" cy="33" r="1" fill="#4F6BED"/>
<circle cx="418" cy="38" r="1" fill="#4F6BED"/>
<circle cx="418" cy="43" r="1" fill="#4F6BED"/>
<circle cx="418" cy="48" r="1" fill="#4F6BED"/>
<circle cx="418" cy="53" r="1" fill="#4F6BED"/>
<circle cx="418" cy="58" r="1" fill="#4F6BED"/>
<circle cx="418" cy="63" r="1" fill="#4F6BED"/>
<circle cx="418" cy="68" r="1" fill="#4F6BED"/>
<circle cx="418" cy="73" r="1" fill="#4F6BED"/>
<circle cx="418" cy="78" r="1" fill="#4F6BED"/>
<circle cx="418" cy="83" r="1" fill="#4F6BED"/>
<circle cx="418" cy="88" r="1" fill="#4F6BED"/>
<circle cx="418" cy="93" r="1" fill="#4F6BED"/>
<circle cx="418" cy="98" r="1" fill="#4F6BED"/>
<circle cx="423" cy="23" r="1" fill="#4F6BED"/>
<circle cx="423" cy="28" r="1" fill="#4F6BED"/>
<circle cx="423" cy="33" r="1" fill="#4F6BED"/>
<circle cx="423" cy="38" r="1" fill="#4F6BED"/>
<circle cx="423" cy="43" r="1" fill="#4F6BED"/>
<circle cx="423" cy="48" r="1" fill="#4F6BED"/>
<circle cx="423" cy="53" r="1" fill="#4F6BED"/>
<circle cx="423" cy="58" r="1" fill="#4F6BED"/>
<circle cx="423" cy="63" r="1" fill="#4F6BED"/>
<circle cx="423" cy="68" r="1" fill="#4F6BED"/>
<circle cx="423" cy="73" r="1" fill="#4F6BED"/>
<circle cx="423" cy="78" r="1" fill="#4F6BED"/>
<circle cx="423" cy="83" r="1" fill="#4F6BED"/>
<circle cx="423" cy="88" r="1" fill="#4F6BED"/>
<circle cx="423" cy="93" r="1" fill="#4F6BED"/>
<circle cx="423" cy="98" r="1" fill="#4F6BED"/>
<circle cx="428" cy="23" r="1" fill="#4F6BED"/>
<circle cx="428" cy="28" r="1" fill="#4F6BED"/>
<circle cx="428" cy="33" r="1" fill="#4F6BED"/>
<circle cx="428" cy="38" r="1" fill="#4F6BED"/>
<circle cx="428" cy="43" r="1" fill="#4F6BED"/>
<circle cx="428" cy="48" r="1" fill="#4F6BED"/>
<circle cx="428" cy="53" r="1" fill="#4F6BED"/>
<circle cx="428" cy="58" r="1" fill="#4F6BED"/>
<circle cx="428" cy="63" r="1" fill="#4F6BED"/>
<circle cx="428" cy="68" r="1" fill="#4F6BED"/>
<circle cx="428" cy="73" r="1" fill="#4F6BED"/>
<circle cx="428" cy="78" r="1" fill="#4F6BED"/>
<circle cx="428" cy="83" r="1" fill="#4F6BED"/>
<circle cx="428" cy="88" r="1" fill="#4F6BED"/>
<circle cx="428" cy="93" r="1" fill="#4F6BED"/>
<circle cx="428" cy="98" r="1" fill="#4F6BED"/>
<circle cx="433" cy="23" r="1" fill="#4F6BED"/>
<circle cx="433" cy="28" r="1" fill="#4F6BED"/>
<circle cx="433" cy="33" r="1" fill="#4F6BED"/>
<circle cx="433" cy="38" r="1" fill="#4F6BED"/>
<circle cx="433" cy="43" r="1" fill="#4F6BED"/>
<circle cx="433" cy="48" r="1" fill="#4F6BED"/>
<circle cx="433" cy="53" r="1" fill="#4F6BED"/>
<circle cx="433" cy="58" r="1" fill="#4F6BED"/>
<circle cx="433" cy="63" r="1" fill="#4F6BED"/>
<circle cx="433" cy="68" r="1" fill="#4F6BED"/>
<circle cx="433" cy="73" r="1" fill="#4F6BED"/>
<circle cx="433" cy="78" r="1" fill="#4F6BED"/>
<circle cx="433" cy="83" r="1" fill="#4F6BED"/>
<circle cx="433" cy="88" r="1" fill="#4F6BED"/>
<circle cx="433" cy="93" r="1" fill="#4F6BED"/>
<circle cx="433" cy="98" r="1" fill="#4F6BED"/>
<circle cx="438" cy="23" r="1" fill="#4F6BED"/>
<circle cx="438" cy="28" r="1" fill="#4F6BED"/>
<circle cx="438" cy="33" r="1" fill="#4F6BED"/>
<circle cx="438" cy="38" r="1" fill="#4F6BED"/>
<circle cx="438" cy="43" r="1" fill="#4F6BED"/>
<circle cx="438" cy="48" r="1" fill="#4F6BED"/>
<circle cx="438" cy="53" r="1" fill="#4F6BED"/>
<circle cx="438" cy="58" r="1" fill="#4F6BED"/>
<circle cx="438" cy="63" r="1" fill="#4F6BED"/>
<circle cx="438" cy="68" r="1" fill="#4F6BED"/>
<circle cx="438" cy="73" r="1" fill="#4F6BED"/>
<circle cx="438" cy="78" r="1" fill="#4F6BED"/>
<circle cx="438" cy="83" r="1" fill="#4F6BED"/>
<circle cx="438" cy="88" r="1" fill="#4F6BED"/>
<circle cx="438" cy="93" r="1" fill="#4F6BED"/>
<circle cx="438" cy="98" r="1" fill="#4F6BED"/>
<circle cx="443" cy="23" r="1" fill="#4F6BED"/>
<circle cx="443" cy="28" r="1" fill="#4F6BED"/>
<circle cx="443" cy="33" r="1" fill="#4F6BED"/>
<circle cx="443" cy="38" r="1" fill="#4F6BED"/>
<circle cx="443" cy="43" r="1" fill="#4F6BED"/>
<circle cx="443" cy="48" r="1" fill="#4F6BED"/>
<circle cx="443" cy="53" r="1" fill="#4F6BED"/>
<circle cx="443" cy="58" r="1" fill="#4F6BED"/>
<circle cx="443" cy="63" r="1" fill="#4F6BED"/>
<circle cx="443" cy="68" r="1" fill="#4F6BED"/>
<circle cx="443" cy="73" r="1" fill="#4F6BED"/>
<circle cx="443" cy="78" r="1" fill="#4F6BED"/>
<circle cx="443" cy="83" r="1" fill="#4F6BED"/>
<circle cx="443" cy="88" r="1" fill="#4F6BED"/>
<circle cx="443" cy="93" r="1" fill="#4F6BED"/>
<circle cx="443" cy="98" r="1" fill="#4F6BED"/>
</g>
</svg>
