<?xml version="1.0" encoding="UTF-8"?> <!-- Generator: Adobe Illustrator 24.2.0, SVG Export Plug-In . SVG Version: 6.00 Build 0) --> <svg xmlns="http://www.w3.org/2000/svg" xmlns:xlink="http://www.w3.org/1999/xlink" version="1.1" id="Layer_1" x="0px" y="0px" viewBox="0 0 791.3 301" style="enable-background:new 0 0 791.3 301;" xml:space="preserve"> <style type="text/css"> .st0{fill:#003B71;} .st1{fill:#00AEEF;} </style> <g> <polygon class="st0" points="298.3,201.8 287.6,183.4 239.8,202.4 240.9,208.5 "></polygon> <polygon class="st0" points="0,236.7 198.3,213.5 196,208.2 16.3,215.3 "></polygon> <polygon class="st0" points="180.9,0 0,236.7 5.7,236 192.2,53.4 "></polygon> <polygon class="st0" points="0,236.7 86.1,259.3 84.1,251.3 16.3,215.3 "></polygon> <polygon class="st0" points="244.3,301 237.6,268.8 106.7,256.4 108.1,265.1 "></polygon> <polygon class="st0" points="149.2,41.5 180.9,0 244.3,301 237.5,299.2 "></polygon> <polygon class="st1" points="180.9,0 298.3,201.8 290.5,202.7 192.2,53.4 "></polygon> <polygon class="st1" points="264.7,263.8 263.1,257.9 237.6,268.8 244.3,301 "></polygon> <polygon class="st1" points="298.3,201.8 270.1,253.7 267.9,249 287.6,183.4 "></polygon> <polygon class="st1" points="180.9,0 204.7,40.9 247.4,295.4 244.3,301 "></polygon> <path class="st0" d="M425.7,111.6c20.9,9,29.9,28.3,29.9,47.5c0,23.9-22.4,47.7-59.8,47.7c-27.2,0-44.4-12.7-49.4-18l12.7-21.1 c4.6,5.5,20,14.5,36.5,14.5c20.9,0,30.8-13.6,30.8-27.2c0-18.5-16-33.6-40-33.6c-2.2,0-4.6,0.2-6.8,0.4v-18 c2.6,0.4,5.3,0.7,7.7,0.7c18.5,0,31.6-12.3,31.6-24.8c0-12.1-7.5-18.5-22.2-18.5c-8.4,0-20.2,4.2-25.7,7.7l-8.8-21.3 c5.5-5.1,22.2-12.1,40.4-12.1c28.3,0,45.9,21.8,45.9,40.4c0,12.5-4.8,25.9-22.9,35.6V111.6z"></path> <polygon class="st0" points="636.2,203.3 627.6,118.9 570.7,209.8 514,119.8 505.9,203.3 472.3,203.3 494.9,32.5 570.9,152.9 646.7,32.8 669.6,203.3 "></polygon> <polygon class="st0" points="694.2,203.3 694.2,37.2 791.3,37.2 791.3,65.3 725.4,65.3 725.4,102.2 778.8,102.2 778.8,130.5 725.4,130.5 725.4,203.3 "></polygon> <path class="st0" d="M385.8,284.1c-4.2,4.1-9.7,6.2-16.8,6.2c-14.8,0-25.8-11.1-25.8-24.2c0-13.2,10.2-24.3,25-24.3 c10.2,0,16.1,5.2,17.2,6.7l-4.6,6c-3.3-3.1-7.5-4.8-13.1-4.8c-9,0-15.3,7.1-15.3,16.7c0,9,7.5,16.1,16.6,16.1 c7.1,0,11.2-2.6,12.8-4L385.8,284.1z"></path> <path class="st0" d="M413.6,290.3c-14.2,0-25.5-11-25.5-24.2c0-13.3,11.3-24.3,25.5-24.3c14,0,25.3,10.5,25.3,24.5 C438.9,279.5,427.2,290.3,413.6,290.3 M413.6,249.7c-8.9,0-16.3,7.1-16.3,16.2c0,8.7,7.2,16.7,15.8,16.7c9.2,0,16.4-7.2,16.4-16.3 C429.6,256.8,422.2,249.7,413.6,249.7"></path> <polygon class="st0" points="454.8,260.9 454.9,289.3 446.2,289.3 446.3,241.6 480.4,272.4 480.4,242.9 489.1,242.9 489,291 "></polygon> <path class="st0" d="M499.5,277.4c2.4,2.2,6.7,5,12,5c4.7,0,7.2-2.2,7.2-5.6c0-9.8-20.6-8.3-20.6-22.4c0-8.3,7.4-12.7,15.2-12.7 c7.2,0,12.3,4.4,13.2,5.4l-4.2,6.5c-2.4-2.4-5.8-4.1-8.9-4.1c-3.1,0-6.1,1.4-6.1,4.5c0,8.2,20.8,6.3,20.8,22.7 c0,7.2-6.3,13.6-17.2,13.6c-6.7,0-13.3-4-15.8-6.6L499.5,277.4z"></path> <path class="st0" d="M557.5,290.3c-14.2,0-25.5-11-25.5-24.2c0-13.3,11.4-24.3,25.5-24.3c14,0,25.3,10.5,25.3,24.5 C582.9,279.5,571.2,290.3,557.5,290.3 M557.5,249.7c-8.9,0-16.3,7.1-16.3,16.2c0,8.7,7.2,16.7,15.8,16.7c9.2,0,16.4-7.2,16.4-16.3 C573.6,256.8,566.2,249.7,557.5,249.7"></path> <path class="st0" d="M617.3,289.3L599.8,272h-0.9v17.3h-8.7v-46.4h9.6c9,0,20.9,1.8,20.9,14.3c0,8.8-5.1,12.5-11.2,14l19.8,18.1 H617.3z M601.9,264.1c6.6,0,9.6-2.3,9.6-6.9c0-3.9-2.8-6.4-9.4-6.4h-3.2v13.3H601.9z"></path> <polygon class="st0" points="639.3,289.3 639.3,250.8 625.6,250.8 625.6,242.9 661.8,242.9 661.8,250.8 648,250.8 648,289.3 "></polygon> <rect x="666.9" y="242.8" class="st0" width="8.7" height="46.4"></rect> <path class="st0" d="M714.9,242.8h8.7v40.7c-3.6,3.7-9.8,6.8-19.3,6.8c-12.3,0-19.1-6-19.1-18.2v-29.3h8.7v24.3 c0,11.7,2.4,15.5,11.8,15.5c3.7,0,6.9-1,9.1-2.5V242.8z"></path> <polygon class="st0" points="776.6,289.3 774.2,265.7 758.3,291.1 742.5,266 740.3,289.3 730.9,289.3 737.2,241.6 758.4,275.2 779.6,241.7 786,289.3 "></polygon> </g> <g> </g> <g> </g> <g> </g> <g> </g> <g> </g> <g> </g> </svg> 