<?xml version="1.0" encoding="utf-8"?>
<!-- Generator: Adobe Illustrator 24.2.0, SVG Export Plug-In . SVG Version: 6.00 Build 0)  -->
<svg version="1.1" id="master-artboard" xmlns="http://www.w3.org/2000/svg" xmlns:xlink="http://www.w3.org/1999/xlink" x="0px"
	 y="0px" viewBox="0 0 379.4 60.2" style="enable-background:new 0 0 379.4 60.2;" xml:space="preserve">
<style type="text/css">
	.st0{fill:#231F20;}
	.st1{fill:#416BA9;}
	.st2{fill:#73C3D5;}
</style>
<g>
	<g>
		<g>
			<g>
				<path class="st0" d="M90.1,26.3c2.9,0.1,5.7-1.3,7.5-3.6l4,4.1c-5.4,6.4-14.9,7.2-21.3,1.8c-0.2-0.2-0.4-0.3-0.6-0.5
					c-5.6-5.8-5.6-15,0.1-20.7c2.8-2.7,6.5-4.2,10.4-4.2c4.4-0.1,8.7,1.9,11.5,5.2l-3.9,4.4c-1.7-2.3-4.5-3.7-7.4-3.7
					c-2.2,0-4.4,0.8-6,2.3c-1.7,1.6-2.6,3.9-2.5,6.2c-0.1,2.3,0.7,4.6,2.4,6.3C85.9,25.5,88,26.3,90.1,26.3"/>
				<polygon class="st0" points="106.6,31.8 106.6,3.9 112.8,3.9 112.8,26.3 124.7,26.3 124.7,31.8 				"/>
				<path class="st0" d="M152,28c-5.9,5.5-15,5.5-20.9,0c-5.7-5.7-5.7-14.9,0-20.6c5.9-5.5,15-5.5,20.9,0
					C157.7,13.1,157.7,22.3,152,28 M149.9,17.7c0.1-2.4-0.8-4.6-2.4-6.4c-2.9-3.3-7.9-3.5-11.2-0.6c-0.2,0.2-0.4,0.4-0.6,0.6
					c-3.2,3.6-3.2,9.1,0,12.7c2.9,3.3,8,3.5,11.2,0.6c0.2-0.2,0.4-0.4,0.6-0.6C149.1,22.3,150,20,149.9,17.7"/>
				<path class="st0" d="M168.9,24.6c1,1.3,2.6,2,4.2,1.9c1.6,0.1,3.2-0.7,4.2-1.9c1.1-1.5,1.6-3.4,1.5-5.3V3.9h6.2v15.6
					c0,4.1-1.1,7.2-3.4,9.3c-4.9,4.4-12.3,4.3-17.2,0c-2.3-2.2-3.4-5.3-3.4-9.3V3.9h6.2v15.4C167.3,21.2,167.8,23.1,168.9,24.6"/>
				<path class="st0" d="M212.9,7.5c2.7,2.4,4,5.8,4,10.2c0,4.3-1.3,7.8-3.9,10.3c-2.6,2.5-6.6,3.8-11.9,3.8h-9.6V3.9h9.9
					C206.4,3.9,210.3,5.1,212.9,7.5 M208.4,24.1c1.6-1.7,2.5-4,2.3-6.3c0.2-2.3-0.7-4.6-2.3-6.3c-1.5-1.5-3.9-2.2-7.1-2.2h-3.5v17h4
					C204.6,26.3,206.8,25.6,208.4,24.1"/>
				<polygon class="st0" points="252.4,3.9 258.7,3.9 258.7,31.8 252.4,31.8 239.1,14.3 239.1,31.8 232.9,31.8 232.9,3.9 238.7,3.9 
					252.4,21.9 				"/>
				<path class="st0" d="M285.5,31.8l-2.6-6h-11.7l-2.6,6h-6.6L274,3.9h6l12.1,27.9H285.5z M277,12.2l-3.5,8.1h7L277,12.2z"/>
				<polygon class="st0" points="305.1,9.3 305.1,31.8 298.9,31.8 298.9,9.3 291,9.3 291,3.9 313.1,3.9 313.1,9.3 				"/>
				<rect x="317.6" y="3.9" class="st0" width="6.2" height="27.9"/>
				<polygon class="st0" points="341,21.7 348.2,3.9 354.9,3.9 343.7,31.8 338.4,31.8 327.2,3.9 333.9,3.9 				"/>
				<polygon class="st0" points="378.4,3.9 378.4,9.4 364.5,9.4 364.5,15.2 377,15.2 377,20.5 364.5,20.5 364.5,26.3 378.8,26.3 
					378.8,31.8 358.2,31.8 358.2,3.9 				"/>
				<path class="st0" d="M83,55.6c1.6,0,3.2-0.7,4.2-2l2.2,2.3c-3,3.6-8.3,4-11.9,1c-0.1-0.1-0.2-0.2-0.3-0.3
					c-3.1-3.2-3.1-8.4,0-11.6c1.5-1.5,3.7-2.4,5.8-2.3c2.5,0,4.9,1,6.5,2.9l-2.2,2.5c-1-1.3-2.5-2.1-4.1-2.1c-1.2,0-2.5,0.4-3.4,1.3
					c-1,0.9-1.5,2.2-1.4,3.5c-0.1,1.3,0.4,2.6,1.3,3.5C80.6,55.2,81.8,55.6,83,55.6"/>
				<path class="st0" d="M105,56.5c-3.3,3.1-8.4,3.1-11.7,0c-3.2-3.2-3.2-8.3,0-11.5c3.3-3.1,8.4-3.1,11.7,0
					C108.2,48.2,108.2,53.4,105,56.5 M103.9,50.8c0-1.3-0.5-2.6-1.3-3.6c-1.6-1.8-4.4-2-6.3-0.3c-0.1,0.1-0.2,0.2-0.3,0.3
					c-1.8,2-1.8,5.1,0,7.1c1.6,1.8,4.5,2,6.3,0.3c0.1-0.1,0.2-0.2,0.3-0.3C103.4,53.4,103.9,52.1,103.9,50.8"/>
				<polygon class="st0" points="124.4,48.9 120.2,57.4 118.1,57.4 113.9,48.9 113.9,58.7 110.4,58.7 110.4,43 115.1,43 119.1,51.7 
					123.2,43 127.9,43 127.9,58.7 124.4,58.7 				"/>
				<path class="st0" d="M142.5,44.4c1.2,1.1,1.8,2.7,1.6,4.3c0.1,1.6-0.5,3.2-1.7,4.2c-1.5,1-3.3,1.5-5.2,1.3h-2.1v4.4h-3.5V43h5.5
					C139.7,43,141.5,43.5,142.5,44.4 M140,50.6c0.5-0.6,0.7-1.3,0.6-2.1c0.1-0.7-0.2-1.5-0.8-1.9c-0.8-0.4-1.7-0.6-2.5-0.6h-2v5.3
					h2.4C138.5,51.4,139.3,51.2,140,50.6"/>
				<path class="st0" d="M151.1,54.7c0.6,0.7,1.4,1.1,2.4,1.1c0.9,0,1.8-0.4,2.3-1.1c0.6-0.9,0.9-1.9,0.9-3V43h3.5v8.8
					c0.1,1.9-0.6,3.8-1.9,5.2c-2.8,2.4-6.9,2.4-9.6,0c-1.3-1.4-2-3.3-1.9-5.2V43h3.5v8.7C150.1,52.8,150.5,53.8,151.1,54.7"/>
				<polygon class="st0" points="170.4,46.1 170.4,58.7 166.9,58.7 166.9,46.1 162.5,46.1 162.5,43 174.8,43 174.8,46.1 				"/>
				<rect x="177.4" y="43" class="st0" width="3.5" height="15.7"/>
				<polygon class="st0" points="195.7,43 199.2,43 199.2,58.7 195.7,58.7 188.2,48.9 188.2,58.7 184.7,58.7 184.7,43 188,43 
					195.7,53.1 				"/>
				<path class="st0" d="M213.2,50.7h3.5v5.6c-1.7,1.8-4,2.7-6.5,2.6c-2.2,0.1-4.3-0.8-5.8-2.3c-3.1-3.2-3.1-8.4,0-11.6
					c1.5-1.5,3.6-2.4,5.8-2.3c2.2,0,4.3,0.8,5.9,2.2l-1.8,2.6c-0.6-0.5-1.2-1-1.9-1.3c-0.6-0.2-1.3-0.4-1.9-0.3
					c-1.3,0-2.5,0.5-3.4,1.4c-1.8,2-1.8,5.1-0.1,7.1c0.8,0.9,1.9,1.3,3.1,1.3c1.1,0,2.1-0.2,3-0.7L213.2,50.7z"/>
				<polygon class="st0" points="236.5,43 236.5,46.1 229.3,46.1 229.3,49.5 236.2,49.5 236.2,52.6 229.3,52.6 229.3,58.7 
					225.8,58.7 225.8,43 				"/>
				<path class="st0" d="M252.7,56.5c-3.3,3.1-8.4,3.1-11.7,0c-3.2-3.2-3.2-8.3,0-11.5c3.3-3.1,8.4-3.1,11.7,0
					C255.8,48.2,255.8,53.4,252.7,56.5 M251.5,50.8c0-1.3-0.5-2.6-1.3-3.6c-1.6-1.8-4.4-2-6.3-0.3c-0.1,0.1-0.2,0.2-0.3,0.3
					c-1.8,2-1.8,5.1,0,7.1c1.6,1.8,4.5,2,6.3,0.3c0.1-0.1,0.2-0.2,0.3-0.3C251,53.4,251.5,52.1,251.5,50.8"/>
				<path class="st0" d="M262.2,54.7c0.6,0.7,1.4,1.1,2.4,1.1c0.9,0,1.8-0.4,2.3-1.1c0.6-0.9,0.9-1.9,0.9-3V43h3.5v8.8
					c0.1,1.9-0.6,3.8-1.9,5.2c-2.8,2.4-6.9,2.4-9.6,0c-1.3-1.4-2-3.3-1.9-5.2V43h3.5v8.7C261.2,52.8,261.5,53.8,262.2,54.7"/>
				<polygon class="st0" points="285.8,43 289.3,43 289.3,58.7 285.8,58.7 278.3,48.9 278.3,58.7 274.8,58.7 274.8,43 278.1,43 
					285.8,53.1 				"/>
				<path class="st0" d="M305.1,45.1c1.5,1.5,2.4,3.6,2.2,5.7c0.1,2.1-0.7,4.2-2.2,5.8c-1.5,1.4-3.7,2.1-6.7,2.1h-5.4V43h5.5
					C301,42.9,303.3,43.6,305.1,45.1 M302.6,54.4c0.9-0.9,1.4-2.2,1.3-3.5c0.1-1.3-0.4-2.6-1.3-3.6c-1.1-0.9-2.5-1.4-4-1.2h-1.9v9.5
					h2.2C300.2,55.7,301.5,55.3,302.6,54.4"/>
				<path class="st0" d="M321.1,58.7l-1.5-3.4h-6.6l-1.5,3.4h-3.7l6.8-15.7h3.4l6.8,15.7H321.1z M316.4,47.7l-2,4.6h3.9L316.4,47.7z
					"/>
				<polygon class="st0" points="332.1,46.1 332.1,58.7 328.6,58.7 328.6,46.1 324.2,46.1 324.2,43 336.6,43 336.6,46.1 				"/>
				<rect x="339.1" y="43" class="st0" width="3.5" height="15.7"/>
				<path class="st0" d="M359.7,56.5c-3.3,3.1-8.4,3.1-11.7,0c-3.2-3.2-3.2-8.3,0-11.5c3.3-3.1,8.4-3.1,11.7,0
					C362.8,48.2,362.8,53.4,359.7,56.5 M358.5,50.8c0-1.3-0.5-2.6-1.3-3.6c-1.6-1.8-4.4-2-6.3-0.3c-0.1,0.1-0.2,0.2-0.3,0.3
					c-1.8,2-1.8,5.1,0,7.1c1.6,1.8,4.5,2,6.3,0.3c0.1-0.1,0.2-0.2,0.3-0.3C358,53.4,358.5,52.1,358.5,50.8"/>
				<polygon class="st0" points="375.9,43 379.4,43 379.4,58.7 375.9,58.7 368.5,48.9 368.5,58.7 365,58.7 365,43 368.3,43 
					375.9,53.1 				"/>
				<polygon class="st1" points="8.6,40.2 0,40.2 0,60.2 20.1,60.2 20.1,51.6 8.6,51.6 				"/>
				<polygon class="st1" points="51.6,40.2 51.6,51.6 40.2,51.6 40.2,51.6 40.2,60.2 60.2,60.2 60.2,40.2 51.6,40.2 				"/>
				<polygon class="st1" points="0,20.1 8.7,20.1 8.6,20 8.6,8.6 8.6,8.6 20,8.6 20.1,8.7 20.1,0 0,0 				"/>
				<polygon class="st1" points="40.2,0 40.2,8.6 51.6,8.6 51.6,20.1 60.2,20.1 60.2,0 				"/>
				<polygon class="st2" points="39.1,20.1 27.6,8.6 40.2,8.6 40.2,0 20.1,0 20.1,8.7 31.5,20.1 				"/>
				<polygon class="st2" points="28.7,40.2 21.1,40.2 30.6,49.7 32.6,51.6 28.7,51.6 20.1,51.6 20.1,60.2 40.2,60.2 40.2,51.6 
					34.5,45.9 				"/>
				<polygon class="st2" points="51.6,20.1 51.6,28.7 51.6,32.6 49.7,30.6 40.2,21.1 40.2,28.7 45.9,34.5 51.6,40.2 60.2,40.2 
					60.2,20.1 				"/>
				<polygon class="st2" points="20.1,31.5 8.7,20.1 0,20.1 0,40.2 8.6,40.2 8.6,27.6 20.1,39.1 				"/>
			</g>
		</g>
	</g>
</g>
</svg>
