<?xml version="1.0" encoding="UTF-8"?> <svg xmlns="http://www.w3.org/2000/svg" xmlns:xlink="http://www.w3.org/1999/xlink" id="master-artboard" viewBox="0 0 400 245"><defs><style>.cls-1{fill:none;}.cls-2{clip-path:url(#clip-path);}.cls-3{fill:#0b8bb3;}.cls-4{fill:#9acce8;}.cls-5{clip-path:url(#clip-path-3);}.cls-6,.cls-8{fill:#808184;}.cls-6,.cls-7{fill-rule:evenodd;}.cls-7{fill:#119981;}.cls-9{clip-path:url(#clip-path-4);}.cls-10{fill:#231f20;}.cls-11{fill:#416ba9;}.cls-12{fill:#73c3d5;}</style><clipPath id="clip-path"><rect class="cls-1" x="325.75234" y="-597.32043" width="1835.87901" height="283.98318"></rect></clipPath><clipPath id="clip-path-3"><rect class="cls-1" x="148.98989" y="-241.05629" width="1059.38366" height="163.87089"></rect></clipPath><clipPath id="clip-path-4"><rect class="cls-1" x="-175" y="-165.84091" width="745" height="575.68182"></rect></clipPath></defs><title>cncf</title><g id="g10"><g id="g12"><g class="cls-2"><g id="g14"><g id="g20"><path id="path22" class="cls-3" d="M197.37889,11.83367S205.9827,57.8576,195.864,146.82355c25.44126-1.51064,52.24267-1.18183,59.90928,5.8828,0,0-9.75-94.27388-60.08973-152.706a82.76479,82.76479,0,0,1,1.69537,11.8355Z"></path></g><g id="g24"><path id="path26" class="cls-3" d="M254.44706,155.87113s-16.83531-14.63282-110.95514-.06276c0,0,49.25491-4.19243,75.373-2.89076,21.83084,1.08911,33.60143,5.20522,35.3396,10.95821,0,0,5.156-4.41424.2425-8.00469"></path></g><g id="g28"><path id="path30" class="cls-4" d="M197.08147,41.26834l.00357-.63549-.311.60839c-3.313,28.6109-16.09711,69.67282-53.34249,111.4972,0,0,22.82866-3.90785,47.69648-5.61106a665.198,665.198,0,0,0,5.95341-105.859"></path></g><g id="g32"><path id="path34" class="cls-3" d="M135.45656,204.3969l-5.75228-15.56075-5.23161,15.56075Zm-20.333,15.43022,14.386-41.45135h.52138l15.69056,41.45135h-4.70667L136.50431,207.926H123.55972l-3.925,11.90111Z"></path></g><g id="g36"><path id="path38" class="cls-3" d="M149.48178,179.09565h3.59615L163.14745,199.035l10.26281-20.00566h3.46349v40.79731h-4.31439V189.09812l-8.82491,16.40879h-1.76527l-8.23792-16.21265v30.53237h-4.24948Z"></path></g><g id="g40"><path id="path42" class="cls-3" d="M184.46012,219.827V179.096h5.2951a2.37937,2.37937,0,0,1-.29386,1.04418,2.61075,2.61075,0,0,0-.29385,1.17685v38.51Z"></path></g><g id="g44"><path id="path46" class="cls-3" d="M196.75131,179.09565h5.03619a.27065.27065,0,0,1,.06348.19542,1.23753,1.23753,0,0,1-.16333.52138,2.71127,2.71127,0,0,0-.22753.85232v15.88742h15.95232V179.09565h5.03119a.25654.25654,0,0,1,.06562.19542,1.03156,1.03156,0,0,1-.19257.5549,1.68907,1.68907,0,0,0-.26176.68614v39.358H217.3454V200.34234H201.46012v19.48429h-4.70881Z"></path></g><g id="g48"><path id="path50" class="cls-3" d="M245.95023,204.3969l-5.75442-15.56075-5.22876,15.56075Zm-20.33375,15.43022,14.3839-41.45135h.52495l15.68842,41.45135h-4.7081l-4.5091-11.90111H234.04911l-3.92068,11.90111Z"></path></g><g id="g52"><path id="path54" class="cls-3" d="M259.2545,219.827V179.096h4.447l17.127,30.20356V179.02967h4.84a1.92681,1.92681,0,0,1-.22966.85018,1.9948,1.9948,0,0,0-.22752.91438V219.827H281.616l-17.98006-32.03516V219.827Z"></path></g></g></g></g></g><g id="g-1"><g id="g-2"><g class="cls-2"><g id="g-3"><g id="g-4"><path id="path-7" class="cls-3" d="M197.37893,11.83367s8.60381,46.02393-1.51492,134.98988c25.44126-1.51064,52.24267-1.18183,59.90928,5.8828,0,0-9.75-94.27388-60.08973-152.706a82.76479,82.76479,0,0,1,1.69537,11.8355Z"></path></g><g id="g-5"><path id="path-8" class="cls-3" d="M254.4471,155.87113s-16.83531-14.63282-110.95514-.06276c0,0,49.25491-4.19243,75.373-2.89076,21.83084,1.08911,33.60144,5.20522,35.33961,10.95821,0,0,5.156-4.41424.2425-8.00469"></path></g><g id="g-6"><path id="path-9" class="cls-4" d="M197.08151,41.26834l.00357-.63549-.311.60839c-3.313,28.6109-16.0971,69.67282-53.34248,111.4972,0,0,22.82866-3.90785,47.69648-5.61106a665.198,665.198,0,0,0,5.95341-105.859"></path></g><g id="g-7"><path id="path-10" class="cls-3" d="M135.4566,204.3969l-5.75228-15.56075-5.23161,15.56075Zm-20.333,15.43022,14.38605-41.45135h.52138l15.69056,41.45135h-4.70667L136.50435,207.926H123.55976l-3.925,11.90111Z"></path></g><g id="g-8"><path id="path-11" class="cls-3" d="M149.48182,179.09565H153.078L163.14749,199.035l10.26281-20.00566h3.46349v40.79731H172.5594V189.09812l-8.82491,16.40879h-1.76527l-8.23792-16.21265v30.53237h-4.24948Z"></path></g><g id="g-9"><path id="path-12" class="cls-3" d="M184.46016,219.827V179.096h5.29509a2.37934,2.37934,0,0,1-.29385,1.04418,2.61077,2.61077,0,0,0-.29386,1.17685v38.51Z"></path></g><g id="g-10"><path id="path-13" class="cls-3" d="M196.75135,179.09565h5.03619a.27065.27065,0,0,1,.06348.19542,1.23758,1.23758,0,0,1-.16334.52138,2.71156,2.71156,0,0,0-.22752.85232v15.88742h15.95232V179.09565h5.03119a.25654.25654,0,0,1,.06562.19542,1.0315,1.0315,0,0,1-.19258.5549,1.6892,1.6892,0,0,0-.26175.68614v39.358h-4.70953V200.34234H201.46016v19.48429h-4.70881Z"></path></g><g id="g-11"><path id="path-14" class="cls-3" d="M245.95027,204.3969l-5.75442-15.56075-5.22876,15.56075Zm-20.33376,15.43022,14.38391-41.45135h.52494l15.68842,41.45135h-4.70809l-4.5091-11.90111H234.04915l-3.92068,11.90111Z"></path></g><g id="g-12"><path id="path-15" class="cls-3" d="M259.25454,219.827V179.096h4.447l17.127,30.20356V179.02967h4.84a1.92681,1.92681,0,0,1-.22966.85018,1.9948,1.9948,0,0,0-.22752.91438V219.827H281.616L263.636,187.79182V219.827Z"></path></g></g></g></g></g><g id="g-13"><g id="g-14"><g class="cls-5"><g id="g-15"><g id="g-16"><path id="path-18" class="cls-6" d="M150.53686,119.2499c0-5.22777-2.85548-8.77017-7.7828-8.77017h-5.10472v17.45432h5.50394c4.70631,0,7.38358-3.50041,7.38358-8.68415m8.30057-.086c0,9.02863-6.14023,15.16392-16.21631,15.16392H129.52493V104.04194H142.931c9.85548,0,15.9064,6.13529,15.9064,15.12194"></path></g><g id="g-17"><path id="path-19" class="cls-6" d="M184.11,104.04227l-.04445,6.30774H168.97245v6.73906h13.93826v6.30774H168.97245v10.9305h-8.12359v-30.285Z"></path></g><g id="g-18"><path id="path-20" class="cls-6" d="M193.417,119.20648a8.654,8.654,0,0,0,8.56685,8.727,8.68453,8.68453,0,1,0-8.56685-8.727m25.30215-.0428c0,8.85618-7.19015,15.50922-16.82338,15.50922-9.63282,0-16.82378-6.653-16.82378-15.50922,0-8.81421,7.191-15.33761,16.82378-15.33761,9.63323,0,16.82338,6.567,16.82338,15.33761"></path></g><g id="g-19"><path id="path-21" class="cls-6" d="M228.85268,104.04227v23.54557H242.037v6.73947H220.72951v-30.285Z"></path></g><g id="g-20"><path id="path-22" class="cls-6" d="M264.54321,134.3273l-8.07955-11.708-3.99512,4.32026v7.3877h-8.124V104.04268h8.124v12.70108l11.67463-12.70108h9.411L262.01287,116.5709l12.25165,17.7564Z"></path></g><g id="g-21"><path id="path-23" class="cls-6" d="M287.62535,110.134c-1.95332,0-3.24071.69062-3.24071,2.07349,0,5.0117,16.38011,2.15993,16.38011,13.0468,0,6.17851-5.59325,9.33237-12.51875,9.33237a25.75818,25.75818,0,0,1-11.13464-2.76081,17.50455,17.50455,0,0,1-3.20367-2.078l3.15222-6.1781c3.19626,2.67892,8.03469,4.57955,11.27581,4.57955,2.397,0,3.90622-.86388,3.90622-2.46243,0-5.14093-16.38011-2.03069-16.38011-12.7447,0-5.65993,4.92691-9.246,12.42862-9.246a24.34938,24.34938,0,0,1,12.429,3.41357l-3.06291,6.26453c-3.28434-1.815-7.45725-3.2403-10.03122-3.2403"></path></g><g id="g-22"><path id="path-24" class="cls-6" d="M309.73041,130.91415a3.79506,3.79506,0,0,1-7.58978,0,3.79574,3.79574,0,0,1,7.58978,0"></path></g><g id="g-23"><path id="path-25" class="cls-7" d="M118.30431,126.14532v-4.74788h-7.37782c-2.86659,0-4.29886,1.00423-4.29886,3.12341,0,2.06362,1.5471,3.40369,4.184,3.40369,3.59837,0,5.14546.50541,7.49265-1.77922m-17.1514-20.32008a34.85148,34.85148,0,0,1,12.29445-2.16487c8.53928,0,13.52628,4.01611,13.58308,10.933v19.634h-8.72613s-6.8613.1-11.04533.1c-3.98935,0-9.5505-3.55926-9.5505-9.0809,0-5.74553,3.53251-9.03563,11.212-9.148h9.38382v-.33378c0-3.96055-3.30862-4.51864-7.20619-4.51864a26.01764,26.01764,0,0,0-9.93574,2.39864Z"></path></g><g id="g-24"><path id="path-26" class="cls-8" d="M90.675,105.34448h2.60154v.48607H92.255v2.72789h-.56262v-2.72789H90.675Z"></path></g><g id="g56"><path id="path58" class="cls-8" d="M94.09135,105.34448h.79227l.88694,2.51594h.00905l.86389-2.51594h.78322v3.214h-.53546v-2.48013h-.00905l-.89146,2.48013h-.46343l-.89105-2.48013h-.00906v2.48013h-.53586Z"></path></g></g></g></g></g><g class="cls-9"><g class="cls-9"><path class="cls-10" d="M97.97648,117.27189a9.20486,9.20486,0,0,0,7.5177-3.63845l3.99779,4.11819a15.08505,15.08505,0,0,1-21.85143,1.28023,14.77333,14.77333,0,0,1,.07995-20.6728,14.34293,14.34293,0,0,1,10.41589-4.15769,14.76314,14.76314,0,0,1,11.51552,5.23757l-3.87835,4.39851a9.0878,9.0878,0,0,0-7.35685-3.67892,8.57719,8.57719,0,0,0-6.01834,2.299A8.0118,8.0118,0,0,0,89.9,108.6555a8.45363,8.45363,0,0,0,2.35919,6.25722,7.781,7.781,0,0,0,5.71731,2.35917"></path><polygon class="cls-10" points="114.41 122.79 114.41 94.841 120.648 94.841 120.648 117.232 132.563 117.232 132.563 122.79 114.41 122.79"></polygon><path class="cls-10" d="M159.87288,118.93113a15.22915,15.22915,0,0,1-20.87223,0,14.62652,14.62652,0,0,1,0-20.59191,15.22915,15.22915,0,0,1,20.87223,0,14.62427,14.62427,0,0,1,0,20.59191m-2.11929-10.27575a9.14723,9.14723,0,0,0-2.3987-6.37765,7.91109,7.91109,0,0,0-11.79584,0,9.64878,9.64878,0,0,0,0,12.73555,7.95085,7.95085,0,0,0,11.79584,0,9.07452,9.07452,0,0,0,2.3987-6.3579"></path><path class="cls-10" d="M176.78581,115.573a5.10471,5.10471,0,0,0,4.19718,1.93965,5.05383,5.05383,0,0,0,4.18028-1.93965,8.306,8.306,0,0,0,1.53893-5.29776V94.84092h6.23748v15.63371q0,6.07849-3.35813,9.336a12.96733,12.96733,0,0,1-17.214-.01975q-3.37929-3.27773-3.37882-9.31626V94.84092h6.23748v15.43429a8.22666,8.22666,0,0,0,1.55963,5.29776"></path><path class="cls-10" d="M220.76816,98.49883q3.99734,3.65866,3.99874,10.177,0,6.51732-3.89807,10.31619-3.89855,3.79836-11.89648,3.79837h-9.55613V94.84061h9.87689q7.47679,0,11.475,3.65822M216.19,115.11269a8.19816,8.19816,0,0,0,2.29894-6.277,8.40339,8.40339,0,0,0-2.29894-6.33815q-2.29992-2.21806-7.05682-2.219h-3.47855v16.993h3.95829q4.27809,0,6.57708-2.15882"></path><polygon class="cls-10" points="260.273 94.841 266.512 94.841 266.512 122.79 260.273 122.79 246.959 105.276 246.959 122.79 240.721 122.79 240.721 94.841 246.558 94.841 260.273 112.834 260.273 94.841"></polygon><path class="cls-10" d="M293.30022,122.79l-2.599-6.03714h-11.7159l-2.599,6.03714H269.749l12.07616-27.94877h6.03713L299.93749,122.79Zm-8.43674-19.63245-3.519,8.117H288.342Z"></path><polygon class="cls-10" points="312.973 100.239 312.973 122.79 306.734 122.79 306.734 100.239 298.818 100.239 298.818 94.841 320.889 94.841 320.889 100.239 312.973 100.239"></polygon><rect class="cls-10" x="325.44715" y="94.84044" width="6.23845" height="27.94879"></rect><polygon class="cls-10" points="348.878 112.634 355.995 94.84 362.753 94.84 351.517 122.79 346.239 122.79 335.003 94.84 341.762 94.84 348.878 112.634"></polygon><polygon class="cls-10" points="386.223 94.841 386.223 100.398 372.309 100.398 372.309 106.156 384.824 106.156 384.824 111.474 372.309 111.474 372.309 117.272 386.663 117.272 386.663 122.79 366.07 122.79 366.07 94.841 386.223 94.841"></polygon><path class="cls-10" d="M90.825,146.593a5.15849,5.15849,0,0,0,4.21318-2.03935l2.24161,2.30838a8.45411,8.45411,0,0,1-12.24832.71678,8.28168,8.28168,0,0,1,.04421-11.588,8.041,8.041,0,0,1,5.83866-2.33094,8.27772,8.27772,0,0,1,6.45573,2.93673l-2.17478,2.46547a5.09185,5.09185,0,0,0-4.12384-2.06194,4.80628,4.80628,0,0,0-3.37319,1.28873,4.4893,4.4893,0,0,0-1.40065,3.47383,4.738,4.738,0,0,0,1.32257,3.50772A4.36535,4.36535,0,0,0,90.825,146.593"></path><path class="cls-10" d="M112.87972,147.52266a8.53374,8.53374,0,0,1-11.69987,0,8.19608,8.19608,0,0,1,0-11.54185,8.53374,8.53374,0,0,1,11.69987,0,8.19608,8.19608,0,0,1,0,11.54185m-1.188-5.75966a5.12986,5.12986,0,0,0-1.34516-3.57543,4.4349,4.4349,0,0,0-6.61187,0,5.41107,5.41107,0,0,0,0,7.13866,4.45573,4.45573,0,0,0,6.61187,0,5.08541,5.08541,0,0,0,1.34516-3.56323"></path><polygon class="cls-10" points="132.245 139.824 128.009 148.387 125.923 148.387 121.71 139.824 121.71 149.686 118.214 149.686 118.214 134.019 122.943 134.019 126.977 142.626 131.034 134.019 135.741 134.019 135.741 149.686 132.245 149.686 132.245 139.824"></polygon><path class="cls-10" d="M150.38814,135.41971a5.338,5.338,0,0,1,1.64707,4.30349,5.0979,5.0979,0,0,1-1.69128,4.24708,8.23454,8.23454,0,0,1-5.167,1.34513h-2.0845v4.37029H139.596V134.01906h5.53672q3.60789,0,5.25545,1.40065m-2.56611,6.16411a3.01644,3.01644,0,0,0,.62742-2.06191,2.18314,2.18314,0,0,0-.81837-1.92742,4.49445,4.49445,0,0,0-2.54355-.57284H143.0924v5.26766h2.35354a3.123,3.123,0,0,0,2.37609-.70549"></path><path class="cls-10" d="M158.91606,145.6404a2.86191,2.86191,0,0,0,2.35351,1.08648,2.83045,2.83045,0,0,0,2.34222-1.08648,4.65092,4.65092,0,0,0,.8626-2.96964v-8.65121h3.49641v8.76314a6.95637,6.95637,0,0,1-1.88224,5.23289,7.26637,7.26637,0,0,1-9.64928-.01036,6.94507,6.94507,0,0,1-1.89354-5.22253v-8.76314h3.49643v8.65121a4.61412,4.61412,0,0,0,.87389,2.96964"></path><polygon class="cls-10" points="178.236 137.045 178.236 149.686 174.74 149.686 174.74 137.045 170.302 137.045 170.302 134.019 182.674 134.019 182.674 137.045 178.236 137.045"></polygon><rect class="cls-10" x="185.22912" y="134.01878" width="3.49735" height="15.66663"></rect><polygon class="cls-10" points="203.541 134.019 207.037 134.019 207.037 149.686 203.541 149.686 196.077 139.869 196.077 149.686 192.58 149.686 192.58 134.019 195.853 134.019 203.541 144.106 203.541 134.019"></polygon><path class="cls-10" d="M221.06786,141.70694h3.518v5.55836a8.22323,8.22323,0,0,1-6.45478,2.6,7.96781,7.96781,0,0,1-5.7935-2.28674,8.27925,8.27925,0,0,1,.04515-11.587,7.94012,7.94012,0,0,1,5.76058-2.33189,8.52115,8.52115,0,0,1,5.86027,2.22l-1.81546,2.62255a6.93544,6.93544,0,0,0-1.9387-1.26708,5.207,5.207,0,0,0-1.9161-.34709,4.587,4.587,0,0,0-3.36192,1.35549,5.41205,5.41205,0,0,0-.05643,7.1283,4.234,4.234,0,0,0,3.12674,1.3329,6.01149,6.01149,0,0,0,3.02611-.69421Z"></path><polygon class="cls-10" points="244.378 134.019 244.378 137.09 237.116 137.09 237.116 140.474 244.019 140.474 244.019 143.545 237.116 143.545 237.116 149.686 233.618 149.686 233.618 134.019 244.378 134.019"></polygon><path class="cls-10" d="M260.515,147.52266a8.53374,8.53374,0,0,1-11.69987,0,8.19608,8.19608,0,0,1,0-11.54185,8.53374,8.53374,0,0,1,11.69987,0,8.19834,8.19834,0,0,1,0,11.54185m-1.188-5.75966a5.12986,5.12986,0,0,0-1.34516-3.57543,4.4349,4.4349,0,0,0-6.61187,0,5.4082,5.4082,0,0,0,0,7.13866,4.45573,4.45573,0,0,0,6.61187,0A5.08541,5.08541,0,0,0,259.327,141.763"></path><path class="cls-10" d="M269.99575,145.6404a2.86191,2.86191,0,0,0,2.35351,1.08648,2.82923,2.82923,0,0,0,2.34222-1.08648,4.65092,4.65092,0,0,0,.8626-2.96964v-8.65121h3.49735v8.76314a6.9568,6.9568,0,0,1-1.88318,5.23289,7.26637,7.26637,0,0,1-9.64928-.01036,6.94146,6.94146,0,0,1-1.89354-5.22253v-8.76314h3.49643v8.65121a4.61412,4.61412,0,0,0,.87389,2.96964"></path><polygon class="cls-10" points="293.642 134.019 297.138 134.019 297.138 149.686 293.642 149.686 286.178 139.869 286.178 149.686 282.681 149.686 282.681 134.019 285.954 134.019 293.642 144.106 293.642 134.019"></polygon><path class="cls-10" d="M312.96232,136.06977a7.34842,7.34842,0,0,1,2.24066,5.70414,7.70038,7.70038,0,0,1-2.18514,5.78317q-2.18563,2.12917-6.6683,2.1287h-5.357V134.01915h5.53669a9.20053,9.20053,0,0,1,6.43311,2.05062m-2.567,9.3125a4.59429,4.59429,0,0,0,1.2887-3.51805,4.71263,4.71263,0,0,0-1.2887-3.55378,5.51717,5.51717,0,0,0-3.95642-1.24357h-1.949v9.526h2.218a5.18533,5.18533,0,0,0,3.68741-1.21064"></path><path class="cls-10" d="M328.94263,149.68578l-1.45617-3.38352H320.9188l-1.457,3.38352h-3.72031l6.76895-15.66663h3.3845l6.768,15.66663ZM324.214,138.681l-1.9726,4.55H326.164Z"></path><polygon class="cls-10" points="339.971 137.045 339.971 149.686 336.474 149.686 336.474 137.045 332.035 137.045 332.035 134.019 344.409 134.019 344.409 137.045 339.971 137.045"></polygon><rect class="cls-10" x="346.96283" y="134.01878" width="3.49738" height="15.66663"></rect><path class="cls-10" d="M367.49359,147.52266a8.53375,8.53375,0,0,1-11.69988,0,8.19611,8.19611,0,0,1,0-11.54185,8.53375,8.53375,0,0,1,11.69988,0,8.19834,8.19834,0,0,1,0,11.54185m-1.188-5.75966a5.12989,5.12989,0,0,0-1.34519-3.57543,4.4349,4.4349,0,0,0-6.61187,0,5.4082,5.4082,0,0,0,0,7.13866,4.45573,4.45573,0,0,0,6.61187,0,5.08543,5.08543,0,0,0,1.34519-3.56323"></path><polygon class="cls-10" points="383.788 134.019 387.284 134.019 387.284 149.686 383.788 149.686 376.323 139.869 376.323 149.686 372.827 149.686 372.827 134.019 376.1 134.019 383.788 144.106 383.788 134.019"></polygon><polygon class="cls-11" points="16.446 131.129 7.839 131.129 7.839 151.208 27.918 151.208 27.918 142.602 16.446 142.602 16.446 131.129"></polygon><polygon class="cls-11" points="59.47 131.193 59.47 142.602 48.061 142.602 47.998 142.539 47.998 151.208 68.076 151.208 68.076 131.129 59.406 131.129 59.47 131.193"></polygon><polygon class="cls-11" points="7.84 111.053 16.511 111.053 16.447 110.987 16.447 99.58 16.447 99.578 27.855 99.578 27.918 99.642 27.918 90.973 7.84 90.973 7.84 111.053"></polygon><polygon class="cls-11" points="47.997 90.973 47.997 99.578 59.47 99.578 59.47 111.053 68.076 111.053 68.076 90.973 47.997 90.973"></polygon><polygon class="cls-12" points="46.935 111.053 35.46 99.578 47.997 99.578 47.997 90.973 27.918 90.973 27.918 99.642 39.329 111.053 46.935 111.053"></polygon><polygon class="cls-12" points="36.587 131.129 28.982 131.129 38.489 140.637 40.456 142.602 36.525 142.602 27.918 142.602 27.918 151.208 47.997 151.208 47.997 142.539 42.292 136.833 36.587 131.129"></polygon><polygon class="cls-12" points="59.47 111.053 59.47 119.657 59.47 123.587 57.504 121.621 47.998 112.115 47.998 119.721 53.701 125.424 59.406 131.129 68.076 131.129 68.076 111.053 59.47 111.053"></polygon><polygon class="cls-12" points="27.918 122.459 16.511 111.053 7.84 111.053 7.84 131.129 16.447 131.129 16.447 118.593 27.918 130.065 27.918 122.459"></polygon></g></g></svg> 