<svg xmlns="http://www.w3.org/2000/svg" viewBox="0 0 144 144"><rect x="27" y="27" width="108" height="108" fill="#fff"/><path d="M211,288H77a5,5,0,0,0-5,5V427a5,5,0,0,0,5,5H211a5,5,0,0,0,5-5V293A5,5,0,0,0,211,288ZM198,391.90625l-7.3598,12.6875-18.54676-13.125L174.22778,414h-15.382l2.0608-22.53125-18.47315,13.125L135,391.90625,155.68109,382.5,135,373.09375l7.43341-12.6875,18.47315,13.125L158.84576,351h15.382l-2.13434,22.53125,18.54676-13.125L198,373.09375,177.39252,382.5Z" transform="translate(-72 -288)" fill="#1e9348"/></svg>